<?xml version="1.0" encoding="utf-8"?>
<svg xmlns="http://www.w3.org/2000/svg" xmlns:xlink="http://www.w3.org/1999/xlink" width="600" height="400" viewBox="0 0 2400 1600">
<defs>
  <clipPath id="clip590">
    <rect x="0" y="0" width="2400" height="1600"/>
  </clipPath>
</defs>
<path clip-path="url(#clip590)" d="
M0 1600 L2400 1600 L2400 0 L0 0  Z
  " fill="#ffffff" fill-rule="evenodd" fill-opacity="1"/>
<defs>
  <clipPath id="clip591">
    <rect x="480" y="0" width="1681" height="1600"/>
  </clipPath>
</defs>
<path clip-path="url(#clip590)" d="
M152.27 1423.18 L2352.76 1423.18 L2352.76 123.472 L152.27 123.472  Z
  " fill="#ffffff" fill-rule="evenodd" fill-opacity="1"/>
<defs>
  <clipPath id="clip592">
    <rect x="152" y="123" width="2201" height="1301"/>
  </clipPath>
</defs>
<polyline clip-path="url(#clip592)" style="stroke:#000000; stroke-width:2; stroke-opacity:0.1; fill:none" points="
  490.806,1423.18 490.806,123.472 
  "/>
<polyline clip-path="url(#clip592)" style="stroke:#000000; stroke-width:2; stroke-opacity:0.1; fill:none" points="
  913.976,1423.18 913.976,123.472 
  "/>
<polyline clip-path="url(#clip592)" style="stroke:#000000; stroke-width:2; stroke-opacity:0.1; fill:none" points="
  1337.15,1423.18 1337.15,123.472 
  "/>
<polyline clip-path="url(#clip592)" style="stroke:#000000; stroke-width:2; stroke-opacity:0.1; fill:none" points="
  1760.32,1423.18 1760.32,123.472 
  "/>
<polyline clip-path="url(#clip592)" style="stroke:#000000; stroke-width:2; stroke-opacity:0.1; fill:none" points="
  2183.49,1423.18 2183.49,123.472 
  "/>
<polyline clip-path="url(#clip592)" style="stroke:#000000; stroke-width:2; stroke-opacity:0.1; fill:none" points="
  152.27,1410.47 2352.76,1410.47 
  "/>
<polyline clip-path="url(#clip592)" style="stroke:#000000; stroke-width:2; stroke-opacity:0.1; fill:none" points="
  152.27,989.236 2352.76,989.236 
  "/>
<polyline clip-path="url(#clip592)" style="stroke:#000000; stroke-width:2; stroke-opacity:0.1; fill:none" points="
  152.27,568 2352.76,568 
  "/>
<polyline clip-path="url(#clip592)" style="stroke:#000000; stroke-width:2; stroke-opacity:0.1; fill:none" points="
  152.27,146.765 2352.76,146.765 
  "/>
<polyline clip-path="url(#clip590)" style="stroke:#000000; stroke-width:4; stroke-opacity:1; fill:none" points="
  152.27,1423.18 2352.76,1423.18 
  "/>
<polyline clip-path="url(#clip590)" style="stroke:#000000; stroke-width:4; stroke-opacity:1; fill:none" points="
  152.27,1423.18 152.27,123.472 
  "/>
<polyline clip-path="url(#clip590)" style="stroke:#000000; stroke-width:4; stroke-opacity:1; fill:none" points="
  490.806,1423.18 490.806,1407.58 
  "/>
<polyline clip-path="url(#clip590)" style="stroke:#000000; stroke-width:4; stroke-opacity:1; fill:none" points="
  913.976,1423.18 913.976,1407.58 
  "/>
<polyline clip-path="url(#clip590)" style="stroke:#000000; stroke-width:4; stroke-opacity:1; fill:none" points="
  1337.15,1423.18 1337.15,1407.58 
  "/>
<polyline clip-path="url(#clip590)" style="stroke:#000000; stroke-width:4; stroke-opacity:1; fill:none" points="
  1760.32,1423.18 1760.32,1407.58 
  "/>
<polyline clip-path="url(#clip590)" style="stroke:#000000; stroke-width:4; stroke-opacity:1; fill:none" points="
  2183.49,1423.18 2183.49,1407.58 
  "/>
<polyline clip-path="url(#clip590)" style="stroke:#000000; stroke-width:4; stroke-opacity:1; fill:none" points="
  152.27,1410.47 178.675,1410.47 
  "/>
<polyline clip-path="url(#clip590)" style="stroke:#000000; stroke-width:4; stroke-opacity:1; fill:none" points="
  152.27,989.236 178.675,989.236 
  "/>
<polyline clip-path="url(#clip590)" style="stroke:#000000; stroke-width:4; stroke-opacity:1; fill:none" points="
  152.27,568 178.675,568 
  "/>
<polyline clip-path="url(#clip590)" style="stroke:#000000; stroke-width:4; stroke-opacity:1; fill:none" points="
  152.27,146.765 178.675,146.765 
  "/>
<path clip-path="url(#clip590)" d="M 0 0 M458.815 1445.17 Q455.204 1445.17 453.376 1448.74 Q451.57 1452.28 451.57 1459.41 Q451.57 1466.51 453.376 1470.08 Q455.204 1473.62 458.815 1473.62 Q462.45 1473.62 464.255 1470.08 Q466.084 1466.51 466.084 1459.41 Q466.084 1452.28 464.255 1448.74 Q462.45 1445.17 458.815 1445.17 M458.815 1441.47 Q464.626 1441.47 467.681 1446.07 Q470.76 1450.66 470.76 1459.41 Q470.76 1468.13 467.681 1472.74 Q464.626 1477.32 458.815 1477.32 Q453.005 1477.32 449.927 1472.74 Q446.871 1468.13 446.871 1459.41 Q446.871 1450.66 449.927 1446.07 Q453.005 1441.47 458.815 1441.47 Z" fill="#000000" fill-rule="evenodd" fill-opacity="1" /><path clip-path="url(#clip590)" d="M 0 0 M475.829 1470.77 L480.713 1470.77 L480.713 1476.65 L475.829 1476.65 L475.829 1470.77 Z" fill="#000000" fill-rule="evenodd" fill-opacity="1" /><path clip-path="url(#clip590)" d="M 0 0 M495.783 1445.17 Q492.172 1445.17 490.343 1448.74 Q488.537 1452.28 488.537 1459.41 Q488.537 1466.51 490.343 1470.08 Q492.172 1473.62 495.783 1473.62 Q499.417 1473.62 501.223 1470.08 Q503.051 1466.51 503.051 1459.41 Q503.051 1452.28 501.223 1448.74 Q499.417 1445.17 495.783 1445.17 M495.783 1441.47 Q501.593 1441.47 504.648 1446.07 Q507.727 1450.66 507.727 1459.41 Q507.727 1468.13 504.648 1472.74 Q501.593 1477.32 495.783 1477.32 Q489.973 1477.32 486.894 1472.74 Q483.838 1468.13 483.838 1459.41 Q483.838 1450.66 486.894 1446.07 Q489.973 1441.47 495.783 1441.47 Z" fill="#000000" fill-rule="evenodd" fill-opacity="1" /><path clip-path="url(#clip590)" d="M 0 0 M522.796 1445.17 Q519.185 1445.17 517.357 1448.74 Q515.551 1452.28 515.551 1459.41 Q515.551 1466.51 517.357 1470.08 Q519.185 1473.62 522.796 1473.62 Q526.431 1473.62 528.236 1470.08 Q530.065 1466.51 530.065 1459.41 Q530.065 1452.28 528.236 1448.74 Q526.431 1445.17 522.796 1445.17 M522.796 1441.47 Q528.607 1441.47 531.662 1446.07 Q534.741 1450.66 534.741 1459.41 Q534.741 1468.13 531.662 1472.74 Q528.607 1477.32 522.796 1477.32 Q516.986 1477.32 513.908 1472.74 Q510.852 1468.13 510.852 1459.41 Q510.852 1450.66 513.908 1446.07 Q516.986 1441.47 522.796 1441.47 Z" fill="#000000" fill-rule="evenodd" fill-opacity="1" /><path clip-path="url(#clip590)" d="M 0 0 M883.282 1445.17 Q879.671 1445.17 877.842 1448.74 Q876.037 1452.28 876.037 1459.41 Q876.037 1466.51 877.842 1470.08 Q879.671 1473.62 883.282 1473.62 Q886.916 1473.62 888.722 1470.08 Q890.551 1466.51 890.551 1459.41 Q890.551 1452.28 888.722 1448.74 Q886.916 1445.17 883.282 1445.17 M883.282 1441.47 Q889.092 1441.47 892.148 1446.07 Q895.226 1450.66 895.226 1459.41 Q895.226 1468.13 892.148 1472.74 Q889.092 1477.32 883.282 1477.32 Q877.472 1477.32 874.393 1472.74 Q871.338 1468.13 871.338 1459.41 Q871.338 1450.66 874.393 1446.07 Q877.472 1441.47 883.282 1441.47 Z" fill="#000000" fill-rule="evenodd" fill-opacity="1" /><path clip-path="url(#clip590)" d="M 0 0 M900.296 1470.77 L905.18 1470.77 L905.18 1476.65 L900.296 1476.65 L900.296 1470.77 Z" fill="#000000" fill-rule="evenodd" fill-opacity="1" /><path clip-path="url(#clip590)" d="M 0 0 M914.277 1472.72 L930.597 1472.72 L930.597 1476.65 L908.652 1476.65 L908.652 1472.72 Q911.314 1469.96 915.898 1465.33 Q920.504 1460.68 921.685 1459.34 Q923.93 1456.81 924.81 1455.08 Q925.712 1453.32 925.712 1451.63 Q925.712 1448.87 923.768 1447.14 Q921.847 1445.4 918.745 1445.4 Q916.546 1445.4 914.092 1446.17 Q911.662 1446.93 908.884 1448.48 L908.884 1443.76 Q911.708 1442.62 914.162 1442.05 Q916.615 1441.47 918.652 1441.47 Q924.023 1441.47 927.217 1444.15 Q930.411 1446.84 930.411 1451.33 Q930.411 1453.46 929.601 1455.38 Q928.814 1457.28 926.708 1459.87 Q926.129 1460.54 923.027 1463.76 Q919.925 1466.95 914.277 1472.72 Z" fill="#000000" fill-rule="evenodd" fill-opacity="1" /><path clip-path="url(#clip590)" d="M 0 0 M935.712 1442.09 L954.069 1442.09 L954.069 1446.03 L939.995 1446.03 L939.995 1454.5 Q941.013 1454.15 942.032 1453.99 Q943.05 1453.8 944.069 1453.8 Q949.856 1453.8 953.235 1456.98 Q956.615 1460.15 956.615 1465.56 Q956.615 1471.14 953.143 1474.24 Q949.671 1477.32 943.351 1477.32 Q941.175 1477.32 938.907 1476.95 Q936.661 1476.58 934.254 1475.84 L934.254 1471.14 Q936.337 1472.28 938.56 1472.83 Q940.782 1473.39 943.259 1473.39 Q947.263 1473.39 949.601 1471.28 Q951.939 1469.18 951.939 1465.56 Q951.939 1461.95 949.601 1459.85 Q947.263 1457.74 943.259 1457.74 Q941.384 1457.74 939.509 1458.16 Q937.657 1458.57 935.712 1459.45 L935.712 1442.09 Z" fill="#000000" fill-rule="evenodd" fill-opacity="1" /><path clip-path="url(#clip590)" d="M 0 0 M1305.65 1445.17 Q1302.04 1445.17 1300.21 1448.74 Q1298.41 1452.28 1298.41 1459.41 Q1298.41 1466.51 1300.21 1470.08 Q1302.04 1473.62 1305.65 1473.62 Q1309.29 1473.62 1311.09 1470.08 Q1312.92 1466.51 1312.92 1459.41 Q1312.92 1452.28 1311.09 1448.74 Q1309.29 1445.17 1305.65 1445.17 M1305.65 1441.47 Q1311.46 1441.47 1314.52 1446.07 Q1317.6 1450.66 1317.6 1459.41 Q1317.6 1468.13 1314.52 1472.74 Q1311.46 1477.32 1305.65 1477.32 Q1299.84 1477.32 1296.77 1472.74 Q1293.71 1468.13 1293.71 1459.41 Q1293.71 1450.66 1296.77 1446.07 Q1299.84 1441.47 1305.65 1441.47 Z" fill="#000000" fill-rule="evenodd" fill-opacity="1" /><path clip-path="url(#clip590)" d="M 0 0 M1322.67 1470.77 L1327.55 1470.77 L1327.55 1476.65 L1322.67 1476.65 L1322.67 1470.77 Z" fill="#000000" fill-rule="evenodd" fill-opacity="1" /><path clip-path="url(#clip590)" d="M 0 0 M1332.67 1442.09 L1351.02 1442.09 L1351.02 1446.03 L1336.95 1446.03 L1336.95 1454.5 Q1337.97 1454.15 1338.99 1453.99 Q1340.01 1453.8 1341.02 1453.8 Q1346.81 1453.8 1350.19 1456.98 Q1353.57 1460.15 1353.57 1465.56 Q1353.57 1471.14 1350.1 1474.24 Q1346.63 1477.32 1340.31 1477.32 Q1338.13 1477.32 1335.86 1476.95 Q1333.62 1476.58 1331.21 1475.84 L1331.21 1471.14 Q1333.29 1472.28 1335.51 1472.83 Q1337.74 1473.39 1340.21 1473.39 Q1344.22 1473.39 1346.56 1471.28 Q1348.89 1469.18 1348.89 1465.56 Q1348.89 1461.95 1346.56 1459.85 Q1344.22 1457.74 1340.21 1457.74 Q1338.34 1457.74 1336.46 1458.16 Q1334.61 1458.57 1332.67 1459.45 L1332.67 1442.09 Z" fill="#000000" fill-rule="evenodd" fill-opacity="1" /><path clip-path="url(#clip590)" d="M 0 0 M1368.64 1445.17 Q1365.03 1445.17 1363.2 1448.74 Q1361.39 1452.28 1361.39 1459.41 Q1361.39 1466.51 1363.2 1470.08 Q1365.03 1473.62 1368.64 1473.62 Q1372.27 1473.62 1374.08 1470.08 Q1375.91 1466.51 1375.91 1459.41 Q1375.91 1452.28 1374.08 1448.74 Q1372.27 1445.17 1368.64 1445.17 M1368.64 1441.47 Q1374.45 1441.47 1377.51 1446.07 Q1380.58 1450.66 1380.58 1459.41 Q1380.58 1468.13 1377.51 1472.74 Q1374.45 1477.32 1368.64 1477.32 Q1362.83 1477.32 1359.75 1472.74 Q1356.7 1468.13 1356.7 1459.41 Q1356.7 1450.66 1359.75 1446.07 Q1362.83 1441.47 1368.64 1441.47 Z" fill="#000000" fill-rule="evenodd" fill-opacity="1" /><path clip-path="url(#clip590)" d="M 0 0 M1729.28 1445.17 Q1725.66 1445.17 1723.84 1448.74 Q1722.03 1452.28 1722.03 1459.41 Q1722.03 1466.51 1723.84 1470.08 Q1725.66 1473.62 1729.28 1473.62 Q1732.91 1473.62 1734.72 1470.08 Q1736.54 1466.51 1736.54 1459.41 Q1736.54 1452.28 1734.72 1448.74 Q1732.91 1445.17 1729.28 1445.17 M1729.28 1441.47 Q1735.09 1441.47 1738.14 1446.07 Q1741.22 1450.66 1741.22 1459.41 Q1741.22 1468.13 1738.14 1472.74 Q1735.09 1477.32 1729.28 1477.32 Q1723.47 1477.32 1720.39 1472.74 Q1717.33 1468.13 1717.33 1459.41 Q1717.33 1450.66 1720.39 1446.07 Q1723.47 1441.47 1729.28 1441.47 Z" fill="#000000" fill-rule="evenodd" fill-opacity="1" /><path clip-path="url(#clip590)" d="M 0 0 M1746.29 1470.77 L1751.17 1470.77 L1751.17 1476.65 L1746.29 1476.65 L1746.29 1470.77 Z" fill="#000000" fill-rule="evenodd" fill-opacity="1" /><path clip-path="url(#clip590)" d="M 0 0 M1755.06 1442.09 L1777.28 1442.09 L1777.28 1444.08 L1764.74 1476.65 L1759.85 1476.65 L1771.66 1446.03 L1755.06 1446.03 L1755.06 1442.09 Z" fill="#000000" fill-rule="evenodd" fill-opacity="1" /><path clip-path="url(#clip590)" d="M 0 0 M1782.4 1442.09 L1800.76 1442.09 L1800.76 1446.03 L1786.68 1446.03 L1786.68 1454.5 Q1787.7 1454.15 1788.72 1453.99 Q1789.74 1453.8 1790.76 1453.8 Q1796.54 1453.8 1799.92 1456.98 Q1803.3 1460.15 1803.3 1465.56 Q1803.3 1471.14 1799.83 1474.24 Q1796.36 1477.32 1790.04 1477.32 Q1787.86 1477.32 1785.59 1476.95 Q1783.35 1476.58 1780.94 1475.84 L1780.94 1471.14 Q1783.03 1472.28 1785.25 1472.83 Q1787.47 1473.39 1789.95 1473.39 Q1793.95 1473.39 1796.29 1471.28 Q1798.63 1469.18 1798.63 1465.56 Q1798.63 1461.95 1796.29 1459.85 Q1793.95 1457.74 1789.95 1457.74 Q1788.07 1457.74 1786.2 1458.16 Q1784.34 1458.57 1782.4 1459.45 L1782.4 1442.09 Z" fill="#000000" fill-rule="evenodd" fill-opacity="1" /><path clip-path="url(#clip590)" d="M 0 0 M2141.88 1472.72 L2149.52 1472.72 L2149.52 1446.35 L2141.21 1448.02 L2141.21 1443.76 L2149.47 1442.09 L2154.15 1442.09 L2154.15 1472.72 L2161.79 1472.72 L2161.79 1476.65 L2141.88 1476.65 L2141.88 1472.72 Z" fill="#000000" fill-rule="evenodd" fill-opacity="1" /><path clip-path="url(#clip590)" d="M 0 0 M2166.86 1470.77 L2171.74 1470.77 L2171.74 1476.65 L2166.86 1476.65 L2166.86 1470.77 Z" fill="#000000" fill-rule="evenodd" fill-opacity="1" /><path clip-path="url(#clip590)" d="M 0 0 M2186.81 1445.17 Q2183.2 1445.17 2181.37 1448.74 Q2179.56 1452.28 2179.56 1459.41 Q2179.56 1466.51 2181.37 1470.08 Q2183.2 1473.62 2186.81 1473.62 Q2190.44 1473.62 2192.25 1470.08 Q2194.08 1466.51 2194.08 1459.41 Q2194.08 1452.28 2192.25 1448.74 Q2190.44 1445.17 2186.81 1445.17 M2186.81 1441.47 Q2192.62 1441.47 2195.68 1446.07 Q2198.75 1450.66 2198.75 1459.41 Q2198.75 1468.13 2195.68 1472.74 Q2192.62 1477.32 2186.81 1477.32 Q2181 1477.32 2177.92 1472.74 Q2174.87 1468.13 2174.87 1459.41 Q2174.87 1450.66 2177.92 1446.07 Q2181 1441.47 2186.81 1441.47 Z" fill="#000000" fill-rule="evenodd" fill-opacity="1" /><path clip-path="url(#clip590)" d="M 0 0 M2213.82 1445.17 Q2210.21 1445.17 2208.38 1448.74 Q2206.58 1452.28 2206.58 1459.41 Q2206.58 1466.51 2208.38 1470.08 Q2210.21 1473.62 2213.82 1473.62 Q2217.46 1473.62 2219.26 1470.08 Q2221.09 1466.51 2221.09 1459.41 Q2221.09 1452.28 2219.26 1448.74 Q2217.46 1445.17 2213.82 1445.17 M2213.82 1441.47 Q2219.63 1441.47 2222.69 1446.07 Q2225.77 1450.66 2225.77 1459.41 Q2225.77 1468.13 2222.69 1472.74 Q2219.63 1477.32 2213.82 1477.32 Q2208.01 1477.32 2204.93 1472.74 Q2201.88 1468.13 2201.88 1459.41 Q2201.88 1450.66 2204.93 1446.07 Q2208.01 1441.47 2213.82 1441.47 Z" fill="#000000" fill-rule="evenodd" fill-opacity="1" /><path clip-path="url(#clip590)" d="M 0 0 M62.9921 1412.87 L75.4689 1412.87 L75.4689 1416.66 L62.9921 1416.66 L62.9921 1412.87 Z" fill="#000000" fill-rule="evenodd" fill-opacity="1" /><path clip-path="url(#clip590)" d="M 0 0 M81.3485 1423.82 L88.9874 1423.82 L88.9874 1397.45 L80.6772 1399.12 L80.6772 1394.86 L88.9411 1393.19 L93.617 1393.19 L93.617 1423.82 L101.256 1423.82 L101.256 1427.75 L81.3485 1427.75 L81.3485 1423.82 Z" fill="#000000" fill-rule="evenodd" fill-opacity="1" /><path clip-path="url(#clip590)" d="M 0 0 M116.325 1396.27 Q112.714 1396.27 110.885 1399.83 Q109.08 1403.38 109.08 1410.51 Q109.08 1417.61 110.885 1421.18 Q112.714 1424.72 116.325 1424.72 Q119.959 1424.72 121.765 1421.18 Q123.594 1417.61 123.594 1410.51 Q123.594 1403.38 121.765 1399.83 Q119.959 1396.27 116.325 1396.27 M116.325 1392.57 Q122.135 1392.57 125.191 1397.17 Q128.27 1401.76 128.27 1410.51 Q128.27 1419.23 125.191 1423.84 Q122.135 1428.42 116.325 1428.42 Q110.515 1428.42 107.436 1423.84 Q104.381 1419.23 104.381 1410.51 Q104.381 1401.76 107.436 1397.17 Q110.515 1392.57 116.325 1392.57 Z" fill="#000000" fill-rule="evenodd" fill-opacity="1" /><path clip-path="url(#clip590)" d="M 0 0 M116.325 975.034 Q112.714 975.034 110.885 978.599 Q109.08 982.141 109.08 989.27 Q109.08 996.377 110.885 999.942 Q112.714 1003.48 116.325 1003.48 Q119.959 1003.48 121.765 999.942 Q123.594 996.377 123.594 989.27 Q123.594 982.141 121.765 978.599 Q119.959 975.034 116.325 975.034 M116.325 971.331 Q122.135 971.331 125.191 975.937 Q128.27 980.52 128.27 989.27 Q128.27 997.997 125.191 1002.6 Q122.135 1007.19 116.325 1007.19 Q110.515 1007.19 107.436 1002.6 Q104.381 997.997 104.381 989.27 Q104.381 980.52 107.436 975.937 Q110.515 971.331 116.325 971.331 Z" fill="#000000" fill-rule="evenodd" fill-opacity="1" /><path clip-path="url(#clip590)" d="M 0 0 M81.3485 581.345 L88.9874 581.345 L88.9874 554.979 L80.6772 556.646 L80.6772 552.387 L88.9411 550.72 L93.617 550.72 L93.617 581.345 L101.256 581.345 L101.256 585.28 L81.3485 585.28 L81.3485 581.345 Z" fill="#000000" fill-rule="evenodd" fill-opacity="1" /><path clip-path="url(#clip590)" d="M 0 0 M116.325 553.799 Q112.714 553.799 110.885 557.364 Q109.08 560.905 109.08 568.035 Q109.08 575.141 110.885 578.706 Q112.714 582.248 116.325 582.248 Q119.959 582.248 121.765 578.706 Q123.594 575.141 123.594 568.035 Q123.594 560.905 121.765 557.364 Q119.959 553.799 116.325 553.799 M116.325 550.095 Q122.135 550.095 125.191 554.702 Q128.27 559.285 128.27 568.035 Q128.27 576.762 125.191 581.368 Q122.135 585.951 116.325 585.951 Q110.515 585.951 107.436 581.368 Q104.381 576.762 104.381 568.035 Q104.381 559.285 107.436 554.702 Q110.515 550.095 116.325 550.095 Z" fill="#000000" fill-rule="evenodd" fill-opacity="1" /><path clip-path="url(#clip590)" d="M 0 0 M84.9365 160.109 L101.256 160.109 L101.256 164.045 L79.3115 164.045 L79.3115 160.109 Q81.9735 157.355 86.5568 152.725 Q91.1633 148.072 92.3438 146.73 Q94.5892 144.207 95.4688 142.471 Q96.3716 140.711 96.3716 139.022 Q96.3716 136.267 94.4271 134.531 Q92.5059 132.795 89.404 132.795 Q87.205 132.795 84.7513 133.559 Q82.3207 134.323 79.543 135.873 L79.543 131.151 Q82.367 130.017 84.8207 129.438 Q87.2744 128.86 89.3114 128.86 Q94.6818 128.86 97.8762 131.545 Q101.071 134.23 101.071 138.721 Q101.071 140.85 100.26 142.772 Q99.4734 144.67 97.3669 147.262 Q96.7882 147.934 93.6864 151.151 Q90.5846 154.346 84.9365 160.109 Z" fill="#000000" fill-rule="evenodd" fill-opacity="1" /><path clip-path="url(#clip590)" d="M 0 0 M116.325 132.563 Q112.714 132.563 110.885 136.128 Q109.08 139.67 109.08 146.799 Q109.08 153.906 110.885 157.471 Q112.714 161.012 116.325 161.012 Q119.959 161.012 121.765 157.471 Q123.594 153.906 123.594 146.799 Q123.594 139.67 121.765 136.128 Q119.959 132.563 116.325 132.563 M116.325 128.86 Q122.135 128.86 125.191 133.466 Q128.27 138.049 128.27 146.799 Q128.27 155.526 125.191 160.133 Q122.135 164.716 116.325 164.716 Q110.515 164.716 107.436 160.133 Q104.381 155.526 104.381 146.799 Q104.381 138.049 107.436 133.466 Q110.515 128.86 116.325 128.86 Z" fill="#000000" fill-rule="evenodd" fill-opacity="1" /><path clip-path="url(#clip590)" d="M 0 0 M1062.95 16.633 L1083.89 72.576 L1075.99 72.576 L1063.27 39.0345 L1047.64 72.576 L1039.74 72.576 L1059.63 29.0693 L1056.63 21.0485 Q1054.73 15.9444 1050.39 15.9444 L1046.5 15.9444 L1046.5 9.54393 L1051.24 9.62495 Q1060.4 9.74648 1062.95 16.633 Z" fill="#000000" fill-rule="evenodd" fill-opacity="1" /><path clip-path="url(#clip590)" d="M 0 0 M1092.68 34.9026 L1144.62 34.9026 L1144.62 41.7081 L1092.68 41.7081 L1092.68 34.9026 M1092.68 51.4303 L1144.62 51.4303 L1144.62 58.3168 L1092.68 58.3168 L1092.68 51.4303 Z" fill="#000000" fill-rule="evenodd" fill-opacity="1" /><path clip-path="url(#clip590)" d="M 0 0 M1154.91 65.6895 L1168.27 65.6895 L1168.27 19.5497 L1153.73 22.4663 L1153.73 15.0127 L1168.19 12.096 L1176.38 12.096 L1176.38 65.6895 L1189.74 65.6895 L1189.74 72.576 L1154.91 72.576 L1154.91 65.6895 Z" fill="#000000" fill-rule="evenodd" fill-opacity="1" /><path clip-path="url(#clip590)" d="M 0 0 M1198.62 62.2867 L1207.16 62.2867 L1207.16 72.576 L1198.62 72.576 L1198.62 62.2867 Z" fill="#000000" fill-rule="evenodd" fill-opacity="1" /><path clip-path="url(#clip590)" d="M 0 0 M1213.97 12.096 L1252.86 12.096 L1252.86 15.5798 L1230.9 72.576 L1222.35 72.576 L1243.01 18.9825 L1213.97 18.9825 L1213.97 12.096 Z" fill="#000000" fill-rule="evenodd" fill-opacity="1" /><path clip-path="url(#clip590)" d="M 0 0 M1261.97 71.3202 L1261.97 63.8666 Q1265.05 65.3249 1268.21 66.0946 Q1271.37 66.8642 1274.41 66.8642 Q1282.51 66.8642 1286.76 61.436 Q1291.06 55.9673 1291.66 44.8678 Q1289.32 48.3516 1285.71 50.215 Q1282.1 52.0784 1277.73 52.0784 Q1268.66 52.0784 1263.35 46.6097 Q1258.08 41.1005 1258.08 31.5808 Q1258.08 22.2638 1263.59 16.633 Q1269.1 11.0023 1278.26 11.0023 Q1288.75 11.0023 1294.26 19.0636 Q1299.81 27.0843 1299.81 42.3968 Q1299.81 56.6965 1293 65.2439 Q1286.24 73.7508 1274.77 73.7508 Q1271.69 73.7508 1268.53 73.1431 Q1265.37 72.5355 1261.97 71.3202 M1278.26 45.678 Q1283.77 45.678 1286.97 41.9107 Q1290.21 38.1433 1290.21 31.5808 Q1290.21 25.0589 1286.97 21.2916 Q1283.77 17.4837 1278.26 17.4837 Q1272.75 17.4837 1269.51 21.2916 Q1266.31 25.0589 1266.31 31.5808 Q1266.31 38.1433 1269.51 41.9107 Q1272.75 45.678 1278.26 45.678 Z" fill="#000000" fill-rule="evenodd" fill-opacity="1" /><path clip-path="url(#clip590)" d="M 0 0 M1346.43 48.0275 L1346.43 51.6733 L1312.16 51.6733 Q1312.65 59.3701 1316.78 63.421 Q1320.95 67.4314 1328.37 67.4314 Q1332.66 67.4314 1336.67 66.3781 Q1340.72 65.3249 1344.69 63.2184 L1344.69 70.267 Q1340.68 71.9684 1336.47 72.8596 Q1332.25 73.7508 1327.92 73.7508 Q1317.06 73.7508 1310.7 67.4314 Q1304.38 61.1119 1304.38 50.3365 Q1304.38 39.1965 1310.38 32.6746 Q1316.42 26.1121 1326.62 26.1121 Q1335.78 26.1121 1341.09 32.0264 Q1346.43 37.9003 1346.43 48.0275 M1338.98 45.84 Q1338.9 39.7232 1335.54 36.0774 Q1332.21 32.4315 1326.71 32.4315 Q1320.47 32.4315 1316.7 35.9558 Q1312.97 39.4801 1312.41 45.8805 L1338.98 45.84 Z" fill="#000000" fill-rule="evenodd" fill-opacity="1" /><path clip-path="url(#clip590)" d="M 0 0 M1350.48 46.5287 L1372.32 46.5287 L1372.32 53.1722 L1350.48 53.1722 L1350.48 46.5287 Z" fill="#000000" fill-rule="evenodd" fill-opacity="1" /><path clip-path="url(#clip590)" d="M 0 0 M1398.69 17.4837 Q1392.37 17.4837 1389.17 23.7221 Q1386.01 29.92 1386.01 42.3968 Q1386.01 54.833 1389.17 61.0714 Q1392.37 67.2693 1398.69 67.2693 Q1405.05 67.2693 1408.21 61.0714 Q1411.41 54.833 1411.41 42.3968 Q1411.41 29.92 1408.21 23.7221 Q1405.05 17.4837 1398.69 17.4837 M1398.69 11.0023 Q1408.86 11.0023 1414.2 19.0636 Q1419.59 27.0843 1419.59 42.3968 Q1419.59 57.6687 1414.2 65.73 Q1408.86 73.7508 1398.69 73.7508 Q1388.52 73.7508 1383.13 65.73 Q1377.79 57.6687 1377.79 42.3968 Q1377.79 27.0843 1383.13 19.0636 Q1388.52 11.0023 1398.69 11.0023 Z" fill="#000000" fill-rule="evenodd" fill-opacity="1" /><path clip-path="url(#clip590)" d="M 0 0 M1426.4 12.096 L1465.29 12.096 L1465.29 15.5798 L1443.33 72.576 L1434.78 72.576 L1455.44 18.9825 L1426.4 18.9825 L1426.4 12.096 Z" fill="#000000" fill-rule="evenodd" fill-opacity="1" /><path clip-path="url(#clip590)" d="M 0 0 M1251.57 1510.27 L1251.57 1520.4 L1263.64 1520.4 L1263.64 1524.95 L1251.57 1524.95 L1251.57 1544.3 Q1251.57 1548.66 1252.75 1549.9 Q1253.96 1551.14 1257.62 1551.14 L1263.64 1551.14 L1263.64 1556.04 L1257.62 1556.04 Q1250.84 1556.04 1248.26 1553.53 Q1245.69 1550.98 1245.69 1544.3 L1245.69 1524.95 L1241.39 1524.95 L1241.39 1520.4 L1245.69 1520.4 L1245.69 1510.27 L1251.57 1510.27 Z" fill="#000000" fill-rule="evenodd" fill-opacity="1" /><circle clip-path="url(#clip592)" cx="173.404" cy="1096.85" r="7" fill="#009af9" fill-rule="evenodd" fill-opacity="1" stroke="#000000" stroke-opacity="1" stroke-width="3.2"/>
<circle clip-path="url(#clip592)" cx="176.091" cy="910.613" r="7" fill="#009af9" fill-rule="evenodd" fill-opacity="1" stroke="#000000" stroke-opacity="1" stroke-width="3.2"/>
<circle clip-path="url(#clip592)" cx="187.984" cy="1039.67" r="7" fill="#009af9" fill-rule="evenodd" fill-opacity="1" stroke="#000000" stroke-opacity="1" stroke-width="3.2"/>
<circle clip-path="url(#clip592)" cx="199.054" cy="935.336" r="7" fill="#009af9" fill-rule="evenodd" fill-opacity="1" stroke="#000000" stroke-opacity="1" stroke-width="3.2"/>
<circle clip-path="url(#clip592)" cx="206.713" cy="888.751" r="7" fill="#009af9" fill-rule="evenodd" fill-opacity="1" stroke="#000000" stroke-opacity="1" stroke-width="3.2"/>
<circle clip-path="url(#clip592)" cx="226.86" cy="779.077" r="7" fill="#009af9" fill-rule="evenodd" fill-opacity="1" stroke="#000000" stroke-opacity="1" stroke-width="3.2"/>
<circle clip-path="url(#clip592)" cx="228.789" cy="729.497" r="7" fill="#009af9" fill-rule="evenodd" fill-opacity="1" stroke="#000000" stroke-opacity="1" stroke-width="3.2"/>
<circle clip-path="url(#clip592)" cx="241.523" cy="747.094" r="7" fill="#009af9" fill-rule="evenodd" fill-opacity="1" stroke="#000000" stroke-opacity="1" stroke-width="3.2"/>
<circle clip-path="url(#clip592)" cx="258.719" cy="922.841" r="7" fill="#009af9" fill-rule="evenodd" fill-opacity="1" stroke="#000000" stroke-opacity="1" stroke-width="3.2"/>
<circle clip-path="url(#clip592)" cx="259.18" cy="751.056" r="7" fill="#009af9" fill-rule="evenodd" fill-opacity="1" stroke="#000000" stroke-opacity="1" stroke-width="3.2"/>
<circle clip-path="url(#clip592)" cx="261.349" cy="834.893" r="7" fill="#009af9" fill-rule="evenodd" fill-opacity="1" stroke="#000000" stroke-opacity="1" stroke-width="3.2"/>
<circle clip-path="url(#clip592)" cx="264.562" cy="739.687" r="7" fill="#009af9" fill-rule="evenodd" fill-opacity="1" stroke="#000000" stroke-opacity="1" stroke-width="3.2"/>
<circle clip-path="url(#clip592)" cx="265.233" cy="673.628" r="7" fill="#009af9" fill-rule="evenodd" fill-opacity="1" stroke="#000000" stroke-opacity="1" stroke-width="3.2"/>
<circle clip-path="url(#clip592)" cx="276.54" cy="708.394" r="7" fill="#009af9" fill-rule="evenodd" fill-opacity="1" stroke="#000000" stroke-opacity="1" stroke-width="3.2"/>
<circle clip-path="url(#clip592)" cx="283.078" cy="748.764" r="7" fill="#009af9" fill-rule="evenodd" fill-opacity="1" stroke="#000000" stroke-opacity="1" stroke-width="3.2"/>
<circle clip-path="url(#clip592)" cx="284.355" cy="749.978" r="7" fill="#009af9" fill-rule="evenodd" fill-opacity="1" stroke="#000000" stroke-opacity="1" stroke-width="3.2"/>
<circle clip-path="url(#clip592)" cx="304.142" cy="804.523" r="7" fill="#009af9" fill-rule="evenodd" fill-opacity="1" stroke="#000000" stroke-opacity="1" stroke-width="3.2"/>
<circle clip-path="url(#clip592)" cx="320.461" cy="710.694" r="7" fill="#009af9" fill-rule="evenodd" fill-opacity="1" stroke="#000000" stroke-opacity="1" stroke-width="3.2"/>
<circle clip-path="url(#clip592)" cx="323.181" cy="647.301" r="7" fill="#009af9" fill-rule="evenodd" fill-opacity="1" stroke="#000000" stroke-opacity="1" stroke-width="3.2"/>
<circle clip-path="url(#clip592)" cx="328.46" cy="906.999" r="7" fill="#009af9" fill-rule="evenodd" fill-opacity="1" stroke="#000000" stroke-opacity="1" stroke-width="3.2"/>
<circle clip-path="url(#clip592)" cx="328.784" cy="834.493" r="7" fill="#009af9" fill-rule="evenodd" fill-opacity="1" stroke="#000000" stroke-opacity="1" stroke-width="3.2"/>
<circle clip-path="url(#clip592)" cx="329.869" cy="874.785" r="7" fill="#009af9" fill-rule="evenodd" fill-opacity="1" stroke="#000000" stroke-opacity="1" stroke-width="3.2"/>
<circle clip-path="url(#clip592)" cx="332.861" cy="715.088" r="7" fill="#009af9" fill-rule="evenodd" fill-opacity="1" stroke="#000000" stroke-opacity="1" stroke-width="3.2"/>
<circle clip-path="url(#clip592)" cx="337.783" cy="728.322" r="7" fill="#009af9" fill-rule="evenodd" fill-opacity="1" stroke="#000000" stroke-opacity="1" stroke-width="3.2"/>
<circle clip-path="url(#clip592)" cx="344.634" cy="660.553" r="7" fill="#009af9" fill-rule="evenodd" fill-opacity="1" stroke="#000000" stroke-opacity="1" stroke-width="3.2"/>
<circle clip-path="url(#clip592)" cx="354.22" cy="693.553" r="7" fill="#009af9" fill-rule="evenodd" fill-opacity="1" stroke="#000000" stroke-opacity="1" stroke-width="3.2"/>
<circle clip-path="url(#clip592)" cx="368.71" cy="827.396" r="7" fill="#009af9" fill-rule="evenodd" fill-opacity="1" stroke="#000000" stroke-opacity="1" stroke-width="3.2"/>
<circle clip-path="url(#clip592)" cx="369.909" cy="642.812" r="7" fill="#009af9" fill-rule="evenodd" fill-opacity="1" stroke="#000000" stroke-opacity="1" stroke-width="3.2"/>
<circle clip-path="url(#clip592)" cx="382.312" cy="772.736" r="7" fill="#009af9" fill-rule="evenodd" fill-opacity="1" stroke="#000000" stroke-opacity="1" stroke-width="3.2"/>
<circle clip-path="url(#clip592)" cx="393.725" cy="850.201" r="7" fill="#009af9" fill-rule="evenodd" fill-opacity="1" stroke="#000000" stroke-opacity="1" stroke-width="3.2"/>
<circle clip-path="url(#clip592)" cx="412.636" cy="774.679" r="7" fill="#009af9" fill-rule="evenodd" fill-opacity="1" stroke="#000000" stroke-opacity="1" stroke-width="3.2"/>
<circle clip-path="url(#clip592)" cx="430.936" cy="689.396" r="7" fill="#009af9" fill-rule="evenodd" fill-opacity="1" stroke="#000000" stroke-opacity="1" stroke-width="3.2"/>
<circle clip-path="url(#clip592)" cx="437.814" cy="941.804" r="7" fill="#009af9" fill-rule="evenodd" fill-opacity="1" stroke="#000000" stroke-opacity="1" stroke-width="3.2"/>
<circle clip-path="url(#clip592)" cx="437.92" cy="842.142" r="7" fill="#009af9" fill-rule="evenodd" fill-opacity="1" stroke="#000000" stroke-opacity="1" stroke-width="3.2"/>
<circle clip-path="url(#clip592)" cx="440.281" cy="812.213" r="7" fill="#009af9" fill-rule="evenodd" fill-opacity="1" stroke="#000000" stroke-opacity="1" stroke-width="3.2"/>
<circle clip-path="url(#clip592)" cx="451.789" cy="939.713" r="7" fill="#009af9" fill-rule="evenodd" fill-opacity="1" stroke="#000000" stroke-opacity="1" stroke-width="3.2"/>
<circle clip-path="url(#clip592)" cx="456.537" cy="772.419" r="7" fill="#009af9" fill-rule="evenodd" fill-opacity="1" stroke="#000000" stroke-opacity="1" stroke-width="3.2"/>
<circle clip-path="url(#clip592)" cx="458.693" cy="953.554" r="7" fill="#009af9" fill-rule="evenodd" fill-opacity="1" stroke="#000000" stroke-opacity="1" stroke-width="3.2"/>
<circle clip-path="url(#clip592)" cx="472.75" cy="781.591" r="7" fill="#009af9" fill-rule="evenodd" fill-opacity="1" stroke="#000000" stroke-opacity="1" stroke-width="3.2"/>
<circle clip-path="url(#clip592)" cx="476.418" cy="794.442" r="7" fill="#009af9" fill-rule="evenodd" fill-opacity="1" stroke="#000000" stroke-opacity="1" stroke-width="3.2"/>
<circle clip-path="url(#clip592)" cx="478.735" cy="961.29" r="7" fill="#009af9" fill-rule="evenodd" fill-opacity="1" stroke="#000000" stroke-opacity="1" stroke-width="3.2"/>
<circle clip-path="url(#clip592)" cx="479.799" cy="887.298" r="7" fill="#009af9" fill-rule="evenodd" fill-opacity="1" stroke="#000000" stroke-opacity="1" stroke-width="3.2"/>
<circle clip-path="url(#clip592)" cx="494.362" cy="847.818" r="7" fill="#009af9" fill-rule="evenodd" fill-opacity="1" stroke="#000000" stroke-opacity="1" stroke-width="3.2"/>
<circle clip-path="url(#clip592)" cx="497.601" cy="722.253" r="7" fill="#009af9" fill-rule="evenodd" fill-opacity="1" stroke="#000000" stroke-opacity="1" stroke-width="3.2"/>
<circle clip-path="url(#clip592)" cx="507.286" cy="969.671" r="7" fill="#009af9" fill-rule="evenodd" fill-opacity="1" stroke="#000000" stroke-opacity="1" stroke-width="3.2"/>
<circle clip-path="url(#clip592)" cx="507.97" cy="864.37" r="7" fill="#009af9" fill-rule="evenodd" fill-opacity="1" stroke="#000000" stroke-opacity="1" stroke-width="3.2"/>
<circle clip-path="url(#clip592)" cx="515.172" cy="845.661" r="7" fill="#009af9" fill-rule="evenodd" fill-opacity="1" stroke="#000000" stroke-opacity="1" stroke-width="3.2"/>
<circle clip-path="url(#clip592)" cx="518.814" cy="750.346" r="7" fill="#009af9" fill-rule="evenodd" fill-opacity="1" stroke="#000000" stroke-opacity="1" stroke-width="3.2"/>
<circle clip-path="url(#clip592)" cx="528.355" cy="969.163" r="7" fill="#009af9" fill-rule="evenodd" fill-opacity="1" stroke="#000000" stroke-opacity="1" stroke-width="3.2"/>
<circle clip-path="url(#clip592)" cx="530.534" cy="888.756" r="7" fill="#009af9" fill-rule="evenodd" fill-opacity="1" stroke="#000000" stroke-opacity="1" stroke-width="3.2"/>
<circle clip-path="url(#clip592)" cx="532.525" cy="992.481" r="7" fill="#009af9" fill-rule="evenodd" fill-opacity="1" stroke="#000000" stroke-opacity="1" stroke-width="3.2"/>
<circle clip-path="url(#clip592)" cx="537.75" cy="879.563" r="7" fill="#009af9" fill-rule="evenodd" fill-opacity="1" stroke="#000000" stroke-opacity="1" stroke-width="3.2"/>
<circle clip-path="url(#clip592)" cx="544.55" cy="913.436" r="7" fill="#009af9" fill-rule="evenodd" fill-opacity="1" stroke="#000000" stroke-opacity="1" stroke-width="3.2"/>
<circle clip-path="url(#clip592)" cx="545.123" cy="918.037" r="7" fill="#009af9" fill-rule="evenodd" fill-opacity="1" stroke="#000000" stroke-opacity="1" stroke-width="3.2"/>
<circle clip-path="url(#clip592)" cx="545.923" cy="911.394" r="7" fill="#009af9" fill-rule="evenodd" fill-opacity="1" stroke="#000000" stroke-opacity="1" stroke-width="3.2"/>
<circle clip-path="url(#clip592)" cx="546.053" cy="899.247" r="7" fill="#009af9" fill-rule="evenodd" fill-opacity="1" stroke="#000000" stroke-opacity="1" stroke-width="3.2"/>
<circle clip-path="url(#clip592)" cx="548.704" cy="903.194" r="7" fill="#009af9" fill-rule="evenodd" fill-opacity="1" stroke="#000000" stroke-opacity="1" stroke-width="3.2"/>
<circle clip-path="url(#clip592)" cx="552.401" cy="966.801" r="7" fill="#009af9" fill-rule="evenodd" fill-opacity="1" stroke="#000000" stroke-opacity="1" stroke-width="3.2"/>
<circle clip-path="url(#clip592)" cx="564.17" cy="827.385" r="7" fill="#009af9" fill-rule="evenodd" fill-opacity="1" stroke="#000000" stroke-opacity="1" stroke-width="3.2"/>
<circle clip-path="url(#clip592)" cx="588.673" cy="940.547" r="7" fill="#009af9" fill-rule="evenodd" fill-opacity="1" stroke="#000000" stroke-opacity="1" stroke-width="3.2"/>
<circle clip-path="url(#clip592)" cx="591.057" cy="944.154" r="7" fill="#009af9" fill-rule="evenodd" fill-opacity="1" stroke="#000000" stroke-opacity="1" stroke-width="3.2"/>
<circle clip-path="url(#clip592)" cx="608.268" cy="946.876" r="7" fill="#009af9" fill-rule="evenodd" fill-opacity="1" stroke="#000000" stroke-opacity="1" stroke-width="3.2"/>
<circle clip-path="url(#clip592)" cx="613.347" cy="981.358" r="7" fill="#009af9" fill-rule="evenodd" fill-opacity="1" stroke="#000000" stroke-opacity="1" stroke-width="3.2"/>
<circle clip-path="url(#clip592)" cx="615.206" cy="1031.28" r="7" fill="#009af9" fill-rule="evenodd" fill-opacity="1" stroke="#000000" stroke-opacity="1" stroke-width="3.2"/>
<circle clip-path="url(#clip592)" cx="616.113" cy="984.166" r="7" fill="#009af9" fill-rule="evenodd" fill-opacity="1" stroke="#000000" stroke-opacity="1" stroke-width="3.2"/>
<circle clip-path="url(#clip592)" cx="617.508" cy="1026.05" r="7" fill="#009af9" fill-rule="evenodd" fill-opacity="1" stroke="#000000" stroke-opacity="1" stroke-width="3.2"/>
<circle clip-path="url(#clip592)" cx="649.085" cy="1046.74" r="7" fill="#009af9" fill-rule="evenodd" fill-opacity="1" stroke="#000000" stroke-opacity="1" stroke-width="3.2"/>
<circle clip-path="url(#clip592)" cx="650.908" cy="986.438" r="7" fill="#009af9" fill-rule="evenodd" fill-opacity="1" stroke="#000000" stroke-opacity="1" stroke-width="3.2"/>
<circle clip-path="url(#clip592)" cx="676.108" cy="1054.86" r="7" fill="#009af9" fill-rule="evenodd" fill-opacity="1" stroke="#000000" stroke-opacity="1" stroke-width="3.2"/>
<circle clip-path="url(#clip592)" cx="679.633" cy="1079.29" r="7" fill="#009af9" fill-rule="evenodd" fill-opacity="1" stroke="#000000" stroke-opacity="1" stroke-width="3.2"/>
<circle clip-path="url(#clip592)" cx="682.238" cy="987.571" r="7" fill="#009af9" fill-rule="evenodd" fill-opacity="1" stroke="#000000" stroke-opacity="1" stroke-width="3.2"/>
<circle clip-path="url(#clip592)" cx="688.683" cy="1038.88" r="7" fill="#009af9" fill-rule="evenodd" fill-opacity="1" stroke="#000000" stroke-opacity="1" stroke-width="3.2"/>
<circle clip-path="url(#clip592)" cx="689.157" cy="944.742" r="7" fill="#009af9" fill-rule="evenodd" fill-opacity="1" stroke="#000000" stroke-opacity="1" stroke-width="3.2"/>
<circle clip-path="url(#clip592)" cx="706.052" cy="1023.48" r="7" fill="#009af9" fill-rule="evenodd" fill-opacity="1" stroke="#000000" stroke-opacity="1" stroke-width="3.2"/>
<circle clip-path="url(#clip592)" cx="709.509" cy="1046.31" r="7" fill="#009af9" fill-rule="evenodd" fill-opacity="1" stroke="#000000" stroke-opacity="1" stroke-width="3.2"/>
<circle clip-path="url(#clip592)" cx="712.558" cy="997.953" r="7" fill="#009af9" fill-rule="evenodd" fill-opacity="1" stroke="#000000" stroke-opacity="1" stroke-width="3.2"/>
<circle clip-path="url(#clip592)" cx="716.622" cy="1021.48" r="7" fill="#009af9" fill-rule="evenodd" fill-opacity="1" stroke="#000000" stroke-opacity="1" stroke-width="3.2"/>
<circle clip-path="url(#clip592)" cx="719.152" cy="1052.26" r="7" fill="#009af9" fill-rule="evenodd" fill-opacity="1" stroke="#000000" stroke-opacity="1" stroke-width="3.2"/>
<circle clip-path="url(#clip592)" cx="724.956" cy="966.439" r="7" fill="#009af9" fill-rule="evenodd" fill-opacity="1" stroke="#000000" stroke-opacity="1" stroke-width="3.2"/>
<circle clip-path="url(#clip592)" cx="727.173" cy="1046.66" r="7" fill="#009af9" fill-rule="evenodd" fill-opacity="1" stroke="#000000" stroke-opacity="1" stroke-width="3.2"/>
<circle clip-path="url(#clip592)" cx="728.171" cy="1075.81" r="7" fill="#009af9" fill-rule="evenodd" fill-opacity="1" stroke="#000000" stroke-opacity="1" stroke-width="3.2"/>
<circle clip-path="url(#clip592)" cx="729.84" cy="835.641" r="7" fill="#009af9" fill-rule="evenodd" fill-opacity="1" stroke="#000000" stroke-opacity="1" stroke-width="3.2"/>
<circle clip-path="url(#clip592)" cx="732.593" cy="1008.69" r="7" fill="#009af9" fill-rule="evenodd" fill-opacity="1" stroke="#000000" stroke-opacity="1" stroke-width="3.2"/>
<circle clip-path="url(#clip592)" cx="735.405" cy="1173.14" r="7" fill="#009af9" fill-rule="evenodd" fill-opacity="1" stroke="#000000" stroke-opacity="1" stroke-width="3.2"/>
<circle clip-path="url(#clip592)" cx="738.569" cy="1082.39" r="7" fill="#009af9" fill-rule="evenodd" fill-opacity="1" stroke="#000000" stroke-opacity="1" stroke-width="3.2"/>
<circle clip-path="url(#clip592)" cx="744.139" cy="1120.13" r="7" fill="#009af9" fill-rule="evenodd" fill-opacity="1" stroke="#000000" stroke-opacity="1" stroke-width="3.2"/>
<circle clip-path="url(#clip592)" cx="748.177" cy="1123.93" r="7" fill="#009af9" fill-rule="evenodd" fill-opacity="1" stroke="#000000" stroke-opacity="1" stroke-width="3.2"/>
<circle clip-path="url(#clip592)" cx="752.552" cy="920.772" r="7" fill="#009af9" fill-rule="evenodd" fill-opacity="1" stroke="#000000" stroke-opacity="1" stroke-width="3.2"/>
<circle clip-path="url(#clip592)" cx="763.625" cy="962.706" r="7" fill="#009af9" fill-rule="evenodd" fill-opacity="1" stroke="#000000" stroke-opacity="1" stroke-width="3.2"/>
<circle clip-path="url(#clip592)" cx="778.843" cy="1029.69" r="7" fill="#009af9" fill-rule="evenodd" fill-opacity="1" stroke="#000000" stroke-opacity="1" stroke-width="3.2"/>
<circle clip-path="url(#clip592)" cx="790.414" cy="1056.21" r="7" fill="#009af9" fill-rule="evenodd" fill-opacity="1" stroke="#000000" stroke-opacity="1" stroke-width="3.2"/>
<circle clip-path="url(#clip592)" cx="790.586" cy="1073.1" r="7" fill="#009af9" fill-rule="evenodd" fill-opacity="1" stroke="#000000" stroke-opacity="1" stroke-width="3.2"/>
<circle clip-path="url(#clip592)" cx="790.748" cy="881.888" r="7" fill="#009af9" fill-rule="evenodd" fill-opacity="1" stroke="#000000" stroke-opacity="1" stroke-width="3.2"/>
<circle clip-path="url(#clip592)" cx="806.091" cy="1032.02" r="7" fill="#009af9" fill-rule="evenodd" fill-opacity="1" stroke="#000000" stroke-opacity="1" stroke-width="3.2"/>
<circle clip-path="url(#clip592)" cx="809.829" cy="1130.63" r="7" fill="#009af9" fill-rule="evenodd" fill-opacity="1" stroke="#000000" stroke-opacity="1" stroke-width="3.2"/>
<circle clip-path="url(#clip592)" cx="813.804" cy="1099.35" r="7" fill="#009af9" fill-rule="evenodd" fill-opacity="1" stroke="#000000" stroke-opacity="1" stroke-width="3.2"/>
<circle clip-path="url(#clip592)" cx="814.91" cy="965.331" r="7" fill="#009af9" fill-rule="evenodd" fill-opacity="1" stroke="#000000" stroke-opacity="1" stroke-width="3.2"/>
<circle clip-path="url(#clip592)" cx="828.323" cy="1027.58" r="7" fill="#009af9" fill-rule="evenodd" fill-opacity="1" stroke="#000000" stroke-opacity="1" stroke-width="3.2"/>
<circle clip-path="url(#clip592)" cx="830.957" cy="1058.42" r="7" fill="#009af9" fill-rule="evenodd" fill-opacity="1" stroke="#000000" stroke-opacity="1" stroke-width="3.2"/>
<circle clip-path="url(#clip592)" cx="833.032" cy="1085.03" r="7" fill="#009af9" fill-rule="evenodd" fill-opacity="1" stroke="#000000" stroke-opacity="1" stroke-width="3.2"/>
<circle clip-path="url(#clip592)" cx="838.096" cy="1128.11" r="7" fill="#009af9" fill-rule="evenodd" fill-opacity="1" stroke="#000000" stroke-opacity="1" stroke-width="3.2"/>
<circle clip-path="url(#clip592)" cx="846.182" cy="1136.89" r="7" fill="#009af9" fill-rule="evenodd" fill-opacity="1" stroke="#000000" stroke-opacity="1" stroke-width="3.2"/>
<circle clip-path="url(#clip592)" cx="849.187" cy="994.485" r="7" fill="#009af9" fill-rule="evenodd" fill-opacity="1" stroke="#000000" stroke-opacity="1" stroke-width="3.2"/>
<circle clip-path="url(#clip592)" cx="854.843" cy="1121.7" r="7" fill="#009af9" fill-rule="evenodd" fill-opacity="1" stroke="#000000" stroke-opacity="1" stroke-width="3.2"/>
<circle clip-path="url(#clip592)" cx="860.669" cy="959.131" r="7" fill="#009af9" fill-rule="evenodd" fill-opacity="1" stroke="#000000" stroke-opacity="1" stroke-width="3.2"/>
<circle clip-path="url(#clip592)" cx="866.421" cy="1028.2" r="7" fill="#009af9" fill-rule="evenodd" fill-opacity="1" stroke="#000000" stroke-opacity="1" stroke-width="3.2"/>
<circle clip-path="url(#clip592)" cx="867.851" cy="970.435" r="7" fill="#009af9" fill-rule="evenodd" fill-opacity="1" stroke="#000000" stroke-opacity="1" stroke-width="3.2"/>
<circle clip-path="url(#clip592)" cx="871.736" cy="1016.78" r="7" fill="#009af9" fill-rule="evenodd" fill-opacity="1" stroke="#000000" stroke-opacity="1" stroke-width="3.2"/>
<circle clip-path="url(#clip592)" cx="883.631" cy="1112.19" r="7" fill="#009af9" fill-rule="evenodd" fill-opacity="1" stroke="#000000" stroke-opacity="1" stroke-width="3.2"/>
<circle clip-path="url(#clip592)" cx="885.818" cy="1169.25" r="7" fill="#009af9" fill-rule="evenodd" fill-opacity="1" stroke="#000000" stroke-opacity="1" stroke-width="3.2"/>
<circle clip-path="url(#clip592)" cx="890.067" cy="977.212" r="7" fill="#009af9" fill-rule="evenodd" fill-opacity="1" stroke="#000000" stroke-opacity="1" stroke-width="3.2"/>
<circle clip-path="url(#clip592)" cx="890.36" cy="1128.4" r="7" fill="#009af9" fill-rule="evenodd" fill-opacity="1" stroke="#000000" stroke-opacity="1" stroke-width="3.2"/>
<circle clip-path="url(#clip592)" cx="927.614" cy="1124.56" r="7" fill="#009af9" fill-rule="evenodd" fill-opacity="1" stroke="#000000" stroke-opacity="1" stroke-width="3.2"/>
<circle clip-path="url(#clip592)" cx="933.791" cy="1061.94" r="7" fill="#009af9" fill-rule="evenodd" fill-opacity="1" stroke="#000000" stroke-opacity="1" stroke-width="3.2"/>
<circle clip-path="url(#clip592)" cx="944.096" cy="1091.51" r="7" fill="#009af9" fill-rule="evenodd" fill-opacity="1" stroke="#000000" stroke-opacity="1" stroke-width="3.2"/>
<circle clip-path="url(#clip592)" cx="961.808" cy="875.831" r="7" fill="#009af9" fill-rule="evenodd" fill-opacity="1" stroke="#000000" stroke-opacity="1" stroke-width="3.2"/>
<circle clip-path="url(#clip592)" cx="965.455" cy="1051.25" r="7" fill="#009af9" fill-rule="evenodd" fill-opacity="1" stroke="#000000" stroke-opacity="1" stroke-width="3.2"/>
<circle clip-path="url(#clip592)" cx="970.645" cy="969.024" r="7" fill="#009af9" fill-rule="evenodd" fill-opacity="1" stroke="#000000" stroke-opacity="1" stroke-width="3.2"/>
<circle clip-path="url(#clip592)" cx="975.101" cy="888.766" r="7" fill="#009af9" fill-rule="evenodd" fill-opacity="1" stroke="#000000" stroke-opacity="1" stroke-width="3.2"/>
<circle clip-path="url(#clip592)" cx="977.567" cy="887.794" r="7" fill="#009af9" fill-rule="evenodd" fill-opacity="1" stroke="#000000" stroke-opacity="1" stroke-width="3.2"/>
<circle clip-path="url(#clip592)" cx="993.104" cy="985.07" r="7" fill="#009af9" fill-rule="evenodd" fill-opacity="1" stroke="#000000" stroke-opacity="1" stroke-width="3.2"/>
<circle clip-path="url(#clip592)" cx="1002.25" cy="921.412" r="7" fill="#009af9" fill-rule="evenodd" fill-opacity="1" stroke="#000000" stroke-opacity="1" stroke-width="3.2"/>
<circle clip-path="url(#clip592)" cx="1002.75" cy="947.777" r="7" fill="#009af9" fill-rule="evenodd" fill-opacity="1" stroke="#000000" stroke-opacity="1" stroke-width="3.2"/>
<circle clip-path="url(#clip592)" cx="1005.59" cy="962.695" r="7" fill="#009af9" fill-rule="evenodd" fill-opacity="1" stroke="#000000" stroke-opacity="1" stroke-width="3.2"/>
<circle clip-path="url(#clip592)" cx="1014.78" cy="852.539" r="7" fill="#009af9" fill-rule="evenodd" fill-opacity="1" stroke="#000000" stroke-opacity="1" stroke-width="3.2"/>
<circle clip-path="url(#clip592)" cx="1026.18" cy="979.791" r="7" fill="#009af9" fill-rule="evenodd" fill-opacity="1" stroke="#000000" stroke-opacity="1" stroke-width="3.2"/>
<circle clip-path="url(#clip592)" cx="1028.27" cy="1108.23" r="7" fill="#009af9" fill-rule="evenodd" fill-opacity="1" stroke="#000000" stroke-opacity="1" stroke-width="3.2"/>
<circle clip-path="url(#clip592)" cx="1028.38" cy="839.695" r="7" fill="#009af9" fill-rule="evenodd" fill-opacity="1" stroke="#000000" stroke-opacity="1" stroke-width="3.2"/>
<circle clip-path="url(#clip592)" cx="1029.96" cy="995.995" r="7" fill="#009af9" fill-rule="evenodd" fill-opacity="1" stroke="#000000" stroke-opacity="1" stroke-width="3.2"/>
<circle clip-path="url(#clip592)" cx="1056.45" cy="969.471" r="7" fill="#009af9" fill-rule="evenodd" fill-opacity="1" stroke="#000000" stroke-opacity="1" stroke-width="3.2"/>
<circle clip-path="url(#clip592)" cx="1068.68" cy="1117.89" r="7" fill="#009af9" fill-rule="evenodd" fill-opacity="1" stroke="#000000" stroke-opacity="1" stroke-width="3.2"/>
<circle clip-path="url(#clip592)" cx="1071.23" cy="976.02" r="7" fill="#009af9" fill-rule="evenodd" fill-opacity="1" stroke="#000000" stroke-opacity="1" stroke-width="3.2"/>
<circle clip-path="url(#clip592)" cx="1073.17" cy="980.035" r="7" fill="#009af9" fill-rule="evenodd" fill-opacity="1" stroke="#000000" stroke-opacity="1" stroke-width="3.2"/>
<circle clip-path="url(#clip592)" cx="1081.49" cy="952.789" r="7" fill="#009af9" fill-rule="evenodd" fill-opacity="1" stroke="#000000" stroke-opacity="1" stroke-width="3.2"/>
<circle clip-path="url(#clip592)" cx="1087.13" cy="1087.81" r="7" fill="#009af9" fill-rule="evenodd" fill-opacity="1" stroke="#000000" stroke-opacity="1" stroke-width="3.2"/>
<circle clip-path="url(#clip592)" cx="1092.1" cy="1062.65" r="7" fill="#009af9" fill-rule="evenodd" fill-opacity="1" stroke="#000000" stroke-opacity="1" stroke-width="3.2"/>
<circle clip-path="url(#clip592)" cx="1093.91" cy="1074.57" r="7" fill="#009af9" fill-rule="evenodd" fill-opacity="1" stroke="#000000" stroke-opacity="1" stroke-width="3.2"/>
<circle clip-path="url(#clip592)" cx="1114.54" cy="967.851" r="7" fill="#009af9" fill-rule="evenodd" fill-opacity="1" stroke="#000000" stroke-opacity="1" stroke-width="3.2"/>
<circle clip-path="url(#clip592)" cx="1118.03" cy="1106.82" r="7" fill="#009af9" fill-rule="evenodd" fill-opacity="1" stroke="#000000" stroke-opacity="1" stroke-width="3.2"/>
<circle clip-path="url(#clip592)" cx="1125.34" cy="1044.82" r="7" fill="#009af9" fill-rule="evenodd" fill-opacity="1" stroke="#000000" stroke-opacity="1" stroke-width="3.2"/>
<circle clip-path="url(#clip592)" cx="1132.99" cy="1033.28" r="7" fill="#009af9" fill-rule="evenodd" fill-opacity="1" stroke="#000000" stroke-opacity="1" stroke-width="3.2"/>
<circle clip-path="url(#clip592)" cx="1145.46" cy="1043.83" r="7" fill="#009af9" fill-rule="evenodd" fill-opacity="1" stroke="#000000" stroke-opacity="1" stroke-width="3.2"/>
<circle clip-path="url(#clip592)" cx="1150.22" cy="916.097" r="7" fill="#009af9" fill-rule="evenodd" fill-opacity="1" stroke="#000000" stroke-opacity="1" stroke-width="3.2"/>
<circle clip-path="url(#clip592)" cx="1162.21" cy="864.836" r="7" fill="#009af9" fill-rule="evenodd" fill-opacity="1" stroke="#000000" stroke-opacity="1" stroke-width="3.2"/>
<circle clip-path="url(#clip592)" cx="1162.93" cy="846.103" r="7" fill="#009af9" fill-rule="evenodd" fill-opacity="1" stroke="#000000" stroke-opacity="1" stroke-width="3.2"/>
<circle clip-path="url(#clip592)" cx="1164" cy="914.453" r="7" fill="#009af9" fill-rule="evenodd" fill-opacity="1" stroke="#000000" stroke-opacity="1" stroke-width="3.2"/>
<circle clip-path="url(#clip592)" cx="1172.49" cy="1101.48" r="7" fill="#009af9" fill-rule="evenodd" fill-opacity="1" stroke="#000000" stroke-opacity="1" stroke-width="3.2"/>
<circle clip-path="url(#clip592)" cx="1176.23" cy="1078.98" r="7" fill="#009af9" fill-rule="evenodd" fill-opacity="1" stroke="#000000" stroke-opacity="1" stroke-width="3.2"/>
<circle clip-path="url(#clip592)" cx="1180.21" cy="1021.2" r="7" fill="#009af9" fill-rule="evenodd" fill-opacity="1" stroke="#000000" stroke-opacity="1" stroke-width="3.2"/>
<circle clip-path="url(#clip592)" cx="1182.21" cy="1012.37" r="7" fill="#009af9" fill-rule="evenodd" fill-opacity="1" stroke="#000000" stroke-opacity="1" stroke-width="3.2"/>
<circle clip-path="url(#clip592)" cx="1188.53" cy="813.601" r="7" fill="#009af9" fill-rule="evenodd" fill-opacity="1" stroke="#000000" stroke-opacity="1" stroke-width="3.2"/>
<circle clip-path="url(#clip592)" cx="1191.89" cy="869.242" r="7" fill="#009af9" fill-rule="evenodd" fill-opacity="1" stroke="#000000" stroke-opacity="1" stroke-width="3.2"/>
<circle clip-path="url(#clip592)" cx="1196.21" cy="907.495" r="7" fill="#009af9" fill-rule="evenodd" fill-opacity="1" stroke="#000000" stroke-opacity="1" stroke-width="3.2"/>
<circle clip-path="url(#clip592)" cx="1199.43" cy="890.319" r="7" fill="#009af9" fill-rule="evenodd" fill-opacity="1" stroke="#000000" stroke-opacity="1" stroke-width="3.2"/>
<circle clip-path="url(#clip592)" cx="1211.59" cy="1122.35" r="7" fill="#009af9" fill-rule="evenodd" fill-opacity="1" stroke="#000000" stroke-opacity="1" stroke-width="3.2"/>
<circle clip-path="url(#clip592)" cx="1216.08" cy="961.33" r="7" fill="#009af9" fill-rule="evenodd" fill-opacity="1" stroke="#000000" stroke-opacity="1" stroke-width="3.2"/>
<circle clip-path="url(#clip592)" cx="1234.85" cy="1049.04" r="7" fill="#009af9" fill-rule="evenodd" fill-opacity="1" stroke="#000000" stroke-opacity="1" stroke-width="3.2"/>
<circle clip-path="url(#clip592)" cx="1241.8" cy="749.417" r="7" fill="#009af9" fill-rule="evenodd" fill-opacity="1" stroke="#000000" stroke-opacity="1" stroke-width="3.2"/>
<circle clip-path="url(#clip592)" cx="1246.13" cy="953.956" r="7" fill="#009af9" fill-rule="evenodd" fill-opacity="1" stroke="#000000" stroke-opacity="1" stroke-width="3.2"/>
<circle clip-path="url(#clip592)" cx="1257.82" cy="974.872" r="7" fill="#009af9" fill-rule="evenodd" fill-opacity="1" stroke="#000000" stroke-opacity="1" stroke-width="3.2"/>
<circle clip-path="url(#clip592)" cx="1272.6" cy="1046.48" r="7" fill="#009af9" fill-rule="evenodd" fill-opacity="1" stroke="#000000" stroke-opacity="1" stroke-width="3.2"/>
<circle clip-path="url(#clip592)" cx="1283.01" cy="885.282" r="7" fill="#009af9" fill-rule="evenodd" fill-opacity="1" stroke="#000000" stroke-opacity="1" stroke-width="3.2"/>
<circle clip-path="url(#clip592)" cx="1283.09" cy="1026.17" r="7" fill="#009af9" fill-rule="evenodd" fill-opacity="1" stroke="#000000" stroke-opacity="1" stroke-width="3.2"/>
<circle clip-path="url(#clip592)" cx="1291.86" cy="1086.35" r="7" fill="#009af9" fill-rule="evenodd" fill-opacity="1" stroke="#000000" stroke-opacity="1" stroke-width="3.2"/>
<circle clip-path="url(#clip592)" cx="1296.66" cy="982.129" r="7" fill="#009af9" fill-rule="evenodd" fill-opacity="1" stroke="#000000" stroke-opacity="1" stroke-width="3.2"/>
<circle clip-path="url(#clip592)" cx="1304.83" cy="961.216" r="7" fill="#009af9" fill-rule="evenodd" fill-opacity="1" stroke="#000000" stroke-opacity="1" stroke-width="3.2"/>
<circle clip-path="url(#clip592)" cx="1309.09" cy="1069" r="7" fill="#009af9" fill-rule="evenodd" fill-opacity="1" stroke="#000000" stroke-opacity="1" stroke-width="3.2"/>
<circle clip-path="url(#clip592)" cx="1310.72" cy="796.658" r="7" fill="#009af9" fill-rule="evenodd" fill-opacity="1" stroke="#000000" stroke-opacity="1" stroke-width="3.2"/>
<circle clip-path="url(#clip592)" cx="1310.99" cy="907.67" r="7" fill="#009af9" fill-rule="evenodd" fill-opacity="1" stroke="#000000" stroke-opacity="1" stroke-width="3.2"/>
<circle clip-path="url(#clip592)" cx="1312.95" cy="1173.98" r="7" fill="#009af9" fill-rule="evenodd" fill-opacity="1" stroke="#000000" stroke-opacity="1" stroke-width="3.2"/>
<circle clip-path="url(#clip592)" cx="1316.39" cy="900.148" r="7" fill="#009af9" fill-rule="evenodd" fill-opacity="1" stroke="#000000" stroke-opacity="1" stroke-width="3.2"/>
<circle clip-path="url(#clip592)" cx="1317.03" cy="967.525" r="7" fill="#009af9" fill-rule="evenodd" fill-opacity="1" stroke="#000000" stroke-opacity="1" stroke-width="3.2"/>
<circle clip-path="url(#clip592)" cx="1319.37" cy="855.462" r="7" fill="#009af9" fill-rule="evenodd" fill-opacity="1" stroke="#000000" stroke-opacity="1" stroke-width="3.2"/>
<circle clip-path="url(#clip592)" cx="1350.13" cy="948.726" r="7" fill="#009af9" fill-rule="evenodd" fill-opacity="1" stroke="#000000" stroke-opacity="1" stroke-width="3.2"/>
<circle clip-path="url(#clip592)" cx="1355.52" cy="881.112" r="7" fill="#009af9" fill-rule="evenodd" fill-opacity="1" stroke="#000000" stroke-opacity="1" stroke-width="3.2"/>
<circle clip-path="url(#clip592)" cx="1356.5" cy="958.381" r="7" fill="#009af9" fill-rule="evenodd" fill-opacity="1" stroke="#000000" stroke-opacity="1" stroke-width="3.2"/>
<circle clip-path="url(#clip592)" cx="1380.62" cy="953.571" r="7" fill="#009af9" fill-rule="evenodd" fill-opacity="1" stroke="#000000" stroke-opacity="1" stroke-width="3.2"/>
<circle clip-path="url(#clip592)" cx="1392.94" cy="890.355" r="7" fill="#009af9" fill-rule="evenodd" fill-opacity="1" stroke="#000000" stroke-opacity="1" stroke-width="3.2"/>
<circle clip-path="url(#clip592)" cx="1398.18" cy="1020.33" r="7" fill="#009af9" fill-rule="evenodd" fill-opacity="1" stroke="#000000" stroke-opacity="1" stroke-width="3.2"/>
<circle clip-path="url(#clip592)" cx="1399.76" cy="878.86" r="7" fill="#009af9" fill-rule="evenodd" fill-opacity="1" stroke="#000000" stroke-opacity="1" stroke-width="3.2"/>
<circle clip-path="url(#clip592)" cx="1400.58" cy="990.804" r="7" fill="#009af9" fill-rule="evenodd" fill-opacity="1" stroke="#000000" stroke-opacity="1" stroke-width="3.2"/>
<circle clip-path="url(#clip592)" cx="1418.34" cy="892.086" r="7" fill="#009af9" fill-rule="evenodd" fill-opacity="1" stroke="#000000" stroke-opacity="1" stroke-width="3.2"/>
<circle clip-path="url(#clip592)" cx="1421.23" cy="825.042" r="7" fill="#009af9" fill-rule="evenodd" fill-opacity="1" stroke="#000000" stroke-opacity="1" stroke-width="3.2"/>
<circle clip-path="url(#clip592)" cx="1422.01" cy="929.838" r="7" fill="#009af9" fill-rule="evenodd" fill-opacity="1" stroke="#000000" stroke-opacity="1" stroke-width="3.2"/>
<circle clip-path="url(#clip592)" cx="1424.37" cy="1051.84" r="7" fill="#009af9" fill-rule="evenodd" fill-opacity="1" stroke="#000000" stroke-opacity="1" stroke-width="3.2"/>
<circle clip-path="url(#clip592)" cx="1438.84" cy="1079.32" r="7" fill="#009af9" fill-rule="evenodd" fill-opacity="1" stroke="#000000" stroke-opacity="1" stroke-width="3.2"/>
<circle clip-path="url(#clip592)" cx="1438.93" cy="971.867" r="7" fill="#009af9" fill-rule="evenodd" fill-opacity="1" stroke="#000000" stroke-opacity="1" stroke-width="3.2"/>
<circle clip-path="url(#clip592)" cx="1440.7" cy="1175.83" r="7" fill="#009af9" fill-rule="evenodd" fill-opacity="1" stroke="#000000" stroke-opacity="1" stroke-width="3.2"/>
<circle clip-path="url(#clip592)" cx="1450.37" cy="972.814" r="7" fill="#009af9" fill-rule="evenodd" fill-opacity="1" stroke="#000000" stroke-opacity="1" stroke-width="3.2"/>
<circle clip-path="url(#clip592)" cx="1455.64" cy="918.225" r="7" fill="#009af9" fill-rule="evenodd" fill-opacity="1" stroke="#000000" stroke-opacity="1" stroke-width="3.2"/>
<circle clip-path="url(#clip592)" cx="1499.31" cy="988.028" r="7" fill="#009af9" fill-rule="evenodd" fill-opacity="1" stroke="#000000" stroke-opacity="1" stroke-width="3.2"/>
<circle clip-path="url(#clip592)" cx="1500.02" cy="1089.85" r="7" fill="#009af9" fill-rule="evenodd" fill-opacity="1" stroke="#000000" stroke-opacity="1" stroke-width="3.2"/>
<circle clip-path="url(#clip592)" cx="1507.67" cy="1078.95" r="7" fill="#009af9" fill-rule="evenodd" fill-opacity="1" stroke="#000000" stroke-opacity="1" stroke-width="3.2"/>
<circle clip-path="url(#clip592)" cx="1511.78" cy="885.366" r="7" fill="#009af9" fill-rule="evenodd" fill-opacity="1" stroke="#000000" stroke-opacity="1" stroke-width="3.2"/>
<circle clip-path="url(#clip592)" cx="1515.3" cy="939.539" r="7" fill="#009af9" fill-rule="evenodd" fill-opacity="1" stroke="#000000" stroke-opacity="1" stroke-width="3.2"/>
<circle clip-path="url(#clip592)" cx="1516.17" cy="1058.08" r="7" fill="#009af9" fill-rule="evenodd" fill-opacity="1" stroke="#000000" stroke-opacity="1" stroke-width="3.2"/>
<circle clip-path="url(#clip592)" cx="1517.44" cy="1113.34" r="7" fill="#009af9" fill-rule="evenodd" fill-opacity="1" stroke="#000000" stroke-opacity="1" stroke-width="3.2"/>
<circle clip-path="url(#clip592)" cx="1530.56" cy="1029.68" r="7" fill="#009af9" fill-rule="evenodd" fill-opacity="1" stroke="#000000" stroke-opacity="1" stroke-width="3.2"/>
<circle clip-path="url(#clip592)" cx="1544.33" cy="1043.46" r="7" fill="#009af9" fill-rule="evenodd" fill-opacity="1" stroke="#000000" stroke-opacity="1" stroke-width="3.2"/>
<circle clip-path="url(#clip592)" cx="1546.26" cy="1015.93" r="7" fill="#009af9" fill-rule="evenodd" fill-opacity="1" stroke="#000000" stroke-opacity="1" stroke-width="3.2"/>
<circle clip-path="url(#clip592)" cx="1564.28" cy="1048.15" r="7" fill="#009af9" fill-rule="evenodd" fill-opacity="1" stroke="#000000" stroke-opacity="1" stroke-width="3.2"/>
<circle clip-path="url(#clip592)" cx="1567.34" cy="908.549" r="7" fill="#009af9" fill-rule="evenodd" fill-opacity="1" stroke="#000000" stroke-opacity="1" stroke-width="3.2"/>
<circle clip-path="url(#clip592)" cx="1576.8" cy="1036.8" r="7" fill="#009af9" fill-rule="evenodd" fill-opacity="1" stroke="#000000" stroke-opacity="1" stroke-width="3.2"/>
<circle clip-path="url(#clip592)" cx="1579.72" cy="1036.46" r="7" fill="#009af9" fill-rule="evenodd" fill-opacity="1" stroke="#000000" stroke-opacity="1" stroke-width="3.2"/>
<circle clip-path="url(#clip592)" cx="1592.74" cy="1098.13" r="7" fill="#009af9" fill-rule="evenodd" fill-opacity="1" stroke="#000000" stroke-opacity="1" stroke-width="3.2"/>
<circle clip-path="url(#clip592)" cx="1594.27" cy="1324.8" r="7" fill="#009af9" fill-rule="evenodd" fill-opacity="1" stroke="#000000" stroke-opacity="1" stroke-width="3.2"/>
<circle clip-path="url(#clip592)" cx="1613.7" cy="1162.2" r="7" fill="#009af9" fill-rule="evenodd" fill-opacity="1" stroke="#000000" stroke-opacity="1" stroke-width="3.2"/>
<circle clip-path="url(#clip592)" cx="1637.48" cy="1126.21" r="7" fill="#009af9" fill-rule="evenodd" fill-opacity="1" stroke="#000000" stroke-opacity="1" stroke-width="3.2"/>
<circle clip-path="url(#clip592)" cx="1651.24" cy="1040.98" r="7" fill="#009af9" fill-rule="evenodd" fill-opacity="1" stroke="#000000" stroke-opacity="1" stroke-width="3.2"/>
<circle clip-path="url(#clip592)" cx="1654.59" cy="1233.75" r="7" fill="#009af9" fill-rule="evenodd" fill-opacity="1" stroke="#000000" stroke-opacity="1" stroke-width="3.2"/>
<circle clip-path="url(#clip592)" cx="1664.38" cy="976.708" r="7" fill="#009af9" fill-rule="evenodd" fill-opacity="1" stroke="#000000" stroke-opacity="1" stroke-width="3.2"/>
<circle clip-path="url(#clip592)" cx="1669.4" cy="1246.42" r="7" fill="#009af9" fill-rule="evenodd" fill-opacity="1" stroke="#000000" stroke-opacity="1" stroke-width="3.2"/>
<circle clip-path="url(#clip592)" cx="1674.48" cy="1344.43" r="7" fill="#009af9" fill-rule="evenodd" fill-opacity="1" stroke="#000000" stroke-opacity="1" stroke-width="3.2"/>
<circle clip-path="url(#clip592)" cx="1678.28" cy="1117.92" r="7" fill="#009af9" fill-rule="evenodd" fill-opacity="1" stroke="#000000" stroke-opacity="1" stroke-width="3.2"/>
<circle clip-path="url(#clip592)" cx="1687.14" cy="1183.28" r="7" fill="#009af9" fill-rule="evenodd" fill-opacity="1" stroke="#000000" stroke-opacity="1" stroke-width="3.2"/>
<circle clip-path="url(#clip592)" cx="1688.68" cy="1148.24" r="7" fill="#009af9" fill-rule="evenodd" fill-opacity="1" stroke="#000000" stroke-opacity="1" stroke-width="3.2"/>
<circle clip-path="url(#clip592)" cx="1712.65" cy="1177.11" r="7" fill="#009af9" fill-rule="evenodd" fill-opacity="1" stroke="#000000" stroke-opacity="1" stroke-width="3.2"/>
<circle clip-path="url(#clip592)" cx="1722.8" cy="1386.4" r="7" fill="#009af9" fill-rule="evenodd" fill-opacity="1" stroke="#000000" stroke-opacity="1" stroke-width="3.2"/>
<circle clip-path="url(#clip592)" cx="1737.81" cy="1276.3" r="7" fill="#009af9" fill-rule="evenodd" fill-opacity="1" stroke="#000000" stroke-opacity="1" stroke-width="3.2"/>
<circle clip-path="url(#clip592)" cx="1750.68" cy="1211.86" r="7" fill="#009af9" fill-rule="evenodd" fill-opacity="1" stroke="#000000" stroke-opacity="1" stroke-width="3.2"/>
<circle clip-path="url(#clip592)" cx="1752.22" cy="1182.01" r="7" fill="#009af9" fill-rule="evenodd" fill-opacity="1" stroke="#000000" stroke-opacity="1" stroke-width="3.2"/>
<circle clip-path="url(#clip592)" cx="1763.2" cy="1139.07" r="7" fill="#009af9" fill-rule="evenodd" fill-opacity="1" stroke="#000000" stroke-opacity="1" stroke-width="3.2"/>
<circle clip-path="url(#clip592)" cx="1766.13" cy="1220.38" r="7" fill="#009af9" fill-rule="evenodd" fill-opacity="1" stroke="#000000" stroke-opacity="1" stroke-width="3.2"/>
<circle clip-path="url(#clip592)" cx="1770.02" cy="1303.65" r="7" fill="#009af9" fill-rule="evenodd" fill-opacity="1" stroke="#000000" stroke-opacity="1" stroke-width="3.2"/>
<circle clip-path="url(#clip592)" cx="1778.33" cy="1219.37" r="7" fill="#009af9" fill-rule="evenodd" fill-opacity="1" stroke="#000000" stroke-opacity="1" stroke-width="3.2"/>
<circle clip-path="url(#clip592)" cx="1782.19" cy="1217.02" r="7" fill="#009af9" fill-rule="evenodd" fill-opacity="1" stroke="#000000" stroke-opacity="1" stroke-width="3.2"/>
<circle clip-path="url(#clip592)" cx="1788.29" cy="1174.82" r="7" fill="#009af9" fill-rule="evenodd" fill-opacity="1" stroke="#000000" stroke-opacity="1" stroke-width="3.2"/>
<circle clip-path="url(#clip592)" cx="1789.8" cy="1272.72" r="7" fill="#009af9" fill-rule="evenodd" fill-opacity="1" stroke="#000000" stroke-opacity="1" stroke-width="3.2"/>
<circle clip-path="url(#clip592)" cx="1806.04" cy="1288.99" r="7" fill="#009af9" fill-rule="evenodd" fill-opacity="1" stroke="#000000" stroke-opacity="1" stroke-width="3.2"/>
<circle clip-path="url(#clip592)" cx="1825.68" cy="1118.7" r="7" fill="#009af9" fill-rule="evenodd" fill-opacity="1" stroke="#000000" stroke-opacity="1" stroke-width="3.2"/>
<circle clip-path="url(#clip592)" cx="1833" cy="1223.32" r="7" fill="#009af9" fill-rule="evenodd" fill-opacity="1" stroke="#000000" stroke-opacity="1" stroke-width="3.2"/>
<circle clip-path="url(#clip592)" cx="1835.88" cy="1319.46" r="7" fill="#009af9" fill-rule="evenodd" fill-opacity="1" stroke="#000000" stroke-opacity="1" stroke-width="3.2"/>
<circle clip-path="url(#clip592)" cx="1856.38" cy="1262.37" r="7" fill="#009af9" fill-rule="evenodd" fill-opacity="1" stroke="#000000" stroke-opacity="1" stroke-width="3.2"/>
<circle clip-path="url(#clip592)" cx="1863.01" cy="1082.45" r="7" fill="#009af9" fill-rule="evenodd" fill-opacity="1" stroke="#000000" stroke-opacity="1" stroke-width="3.2"/>
<circle clip-path="url(#clip592)" cx="1869.54" cy="1216.3" r="7" fill="#009af9" fill-rule="evenodd" fill-opacity="1" stroke="#000000" stroke-opacity="1" stroke-width="3.2"/>
<circle clip-path="url(#clip592)" cx="1870.94" cy="1131.68" r="7" fill="#009af9" fill-rule="evenodd" fill-opacity="1" stroke="#000000" stroke-opacity="1" stroke-width="3.2"/>
<circle clip-path="url(#clip592)" cx="1908.08" cy="1019.37" r="7" fill="#009af9" fill-rule="evenodd" fill-opacity="1" stroke="#000000" stroke-opacity="1" stroke-width="3.2"/>
<circle clip-path="url(#clip592)" cx="1913.67" cy="1056.43" r="7" fill="#009af9" fill-rule="evenodd" fill-opacity="1" stroke="#000000" stroke-opacity="1" stroke-width="3.2"/>
<circle clip-path="url(#clip592)" cx="1923.27" cy="932.374" r="7" fill="#009af9" fill-rule="evenodd" fill-opacity="1" stroke="#000000" stroke-opacity="1" stroke-width="3.2"/>
<circle clip-path="url(#clip592)" cx="1930.92" cy="1011.36" r="7" fill="#009af9" fill-rule="evenodd" fill-opacity="1" stroke="#000000" stroke-opacity="1" stroke-width="3.2"/>
<circle clip-path="url(#clip592)" cx="1938.62" cy="913.01" r="7" fill="#009af9" fill-rule="evenodd" fill-opacity="1" stroke="#000000" stroke-opacity="1" stroke-width="3.2"/>
<circle clip-path="url(#clip592)" cx="1949.09" cy="1058.89" r="7" fill="#009af9" fill-rule="evenodd" fill-opacity="1" stroke="#000000" stroke-opacity="1" stroke-width="3.2"/>
<circle clip-path="url(#clip592)" cx="1954.14" cy="958.282" r="7" fill="#009af9" fill-rule="evenodd" fill-opacity="1" stroke="#000000" stroke-opacity="1" stroke-width="3.2"/>
<circle clip-path="url(#clip592)" cx="1955.97" cy="819.182" r="7" fill="#009af9" fill-rule="evenodd" fill-opacity="1" stroke="#000000" stroke-opacity="1" stroke-width="3.2"/>
<circle clip-path="url(#clip592)" cx="1958.41" cy="946.212" r="7" fill="#009af9" fill-rule="evenodd" fill-opacity="1" stroke="#000000" stroke-opacity="1" stroke-width="3.2"/>
<circle clip-path="url(#clip592)" cx="1959.42" cy="955.154" r="7" fill="#009af9" fill-rule="evenodd" fill-opacity="1" stroke="#000000" stroke-opacity="1" stroke-width="3.2"/>
<circle clip-path="url(#clip592)" cx="1963.83" cy="827.657" r="7" fill="#009af9" fill-rule="evenodd" fill-opacity="1" stroke="#000000" stroke-opacity="1" stroke-width="3.2"/>
<circle clip-path="url(#clip592)" cx="1975.47" cy="810.438" r="7" fill="#009af9" fill-rule="evenodd" fill-opacity="1" stroke="#000000" stroke-opacity="1" stroke-width="3.2"/>
<circle clip-path="url(#clip592)" cx="1975.91" cy="712.398" r="7" fill="#009af9" fill-rule="evenodd" fill-opacity="1" stroke="#000000" stroke-opacity="1" stroke-width="3.2"/>
<circle clip-path="url(#clip592)" cx="1985.16" cy="762.614" r="7" fill="#009af9" fill-rule="evenodd" fill-opacity="1" stroke="#000000" stroke-opacity="1" stroke-width="3.2"/>
<circle clip-path="url(#clip592)" cx="1985.22" cy="750.471" r="7" fill="#009af9" fill-rule="evenodd" fill-opacity="1" stroke="#000000" stroke-opacity="1" stroke-width="3.2"/>
<circle clip-path="url(#clip592)" cx="1992.42" cy="1003.15" r="7" fill="#009af9" fill-rule="evenodd" fill-opacity="1" stroke="#000000" stroke-opacity="1" stroke-width="3.2"/>
<circle clip-path="url(#clip592)" cx="1993.13" cy="839.888" r="7" fill="#009af9" fill-rule="evenodd" fill-opacity="1" stroke="#000000" stroke-opacity="1" stroke-width="3.2"/>
<circle clip-path="url(#clip592)" cx="2007.37" cy="834.876" r="7" fill="#009af9" fill-rule="evenodd" fill-opacity="1" stroke="#000000" stroke-opacity="1" stroke-width="3.2"/>
<circle clip-path="url(#clip592)" cx="2022.22" cy="843.512" r="7" fill="#009af9" fill-rule="evenodd" fill-opacity="1" stroke="#000000" stroke-opacity="1" stroke-width="3.2"/>
<circle clip-path="url(#clip592)" cx="2022.82" cy="739.07" r="7" fill="#009af9" fill-rule="evenodd" fill-opacity="1" stroke="#000000" stroke-opacity="1" stroke-width="3.2"/>
<circle clip-path="url(#clip592)" cx="2023.47" cy="736.311" r="7" fill="#009af9" fill-rule="evenodd" fill-opacity="1" stroke="#000000" stroke-opacity="1" stroke-width="3.2"/>
<circle clip-path="url(#clip592)" cx="2024.15" cy="716.801" r="7" fill="#009af9" fill-rule="evenodd" fill-opacity="1" stroke="#000000" stroke-opacity="1" stroke-width="3.2"/>
<circle clip-path="url(#clip592)" cx="2037.71" cy="583.132" r="7" fill="#009af9" fill-rule="evenodd" fill-opacity="1" stroke="#000000" stroke-opacity="1" stroke-width="3.2"/>
<circle clip-path="url(#clip592)" cx="2053.84" cy="706.651" r="7" fill="#009af9" fill-rule="evenodd" fill-opacity="1" stroke="#000000" stroke-opacity="1" stroke-width="3.2"/>
<circle clip-path="url(#clip592)" cx="2060.59" cy="593.034" r="7" fill="#009af9" fill-rule="evenodd" fill-opacity="1" stroke="#000000" stroke-opacity="1" stroke-width="3.2"/>
<circle clip-path="url(#clip592)" cx="2070.89" cy="429.7" r="7" fill="#009af9" fill-rule="evenodd" fill-opacity="1" stroke="#000000" stroke-opacity="1" stroke-width="3.2"/>
<circle clip-path="url(#clip592)" cx="2072.77" cy="598.383" r="7" fill="#009af9" fill-rule="evenodd" fill-opacity="1" stroke="#000000" stroke-opacity="1" stroke-width="3.2"/>
<circle clip-path="url(#clip592)" cx="2080.25" cy="415.327" r="7" fill="#009af9" fill-rule="evenodd" fill-opacity="1" stroke="#000000" stroke-opacity="1" stroke-width="3.2"/>
<circle clip-path="url(#clip592)" cx="2117.1" cy="353.655" r="7" fill="#009af9" fill-rule="evenodd" fill-opacity="1" stroke="#000000" stroke-opacity="1" stroke-width="3.2"/>
<circle clip-path="url(#clip592)" cx="2120.62" cy="295.924" r="7" fill="#009af9" fill-rule="evenodd" fill-opacity="1" stroke="#000000" stroke-opacity="1" stroke-width="3.2"/>
<circle clip-path="url(#clip592)" cx="2131.39" cy="367.208" r="7" fill="#009af9" fill-rule="evenodd" fill-opacity="1" stroke="#000000" stroke-opacity="1" stroke-width="3.2"/>
<circle clip-path="url(#clip592)" cx="2132.75" cy="329.141" r="7" fill="#009af9" fill-rule="evenodd" fill-opacity="1" stroke="#000000" stroke-opacity="1" stroke-width="3.2"/>
<circle clip-path="url(#clip592)" cx="2140.32" cy="332.353" r="7" fill="#009af9" fill-rule="evenodd" fill-opacity="1" stroke="#000000" stroke-opacity="1" stroke-width="3.2"/>
<circle clip-path="url(#clip592)" cx="2174.41" cy="395.282" r="7" fill="#009af9" fill-rule="evenodd" fill-opacity="1" stroke="#000000" stroke-opacity="1" stroke-width="3.2"/>
<circle clip-path="url(#clip592)" cx="2179.41" cy="356.29" r="7" fill="#009af9" fill-rule="evenodd" fill-opacity="1" stroke="#000000" stroke-opacity="1" stroke-width="3.2"/>
<circle clip-path="url(#clip592)" cx="2180.21" cy="462.429" r="7" fill="#009af9" fill-rule="evenodd" fill-opacity="1" stroke="#000000" stroke-opacity="1" stroke-width="3.2"/>
<circle clip-path="url(#clip592)" cx="2190.67" cy="390.767" r="7" fill="#009af9" fill-rule="evenodd" fill-opacity="1" stroke="#000000" stroke-opacity="1" stroke-width="3.2"/>
<circle clip-path="url(#clip592)" cx="2192.7" cy="314.379" r="7" fill="#009af9" fill-rule="evenodd" fill-opacity="1" stroke="#000000" stroke-opacity="1" stroke-width="3.2"/>
<circle clip-path="url(#clip592)" cx="2211.24" cy="239.933" r="7" fill="#009af9" fill-rule="evenodd" fill-opacity="1" stroke="#000000" stroke-opacity="1" stroke-width="3.2"/>
<circle clip-path="url(#clip592)" cx="2212.02" cy="271.712" r="7" fill="#009af9" fill-rule="evenodd" fill-opacity="1" stroke="#000000" stroke-opacity="1" stroke-width="3.2"/>
<circle clip-path="url(#clip592)" cx="2213.59" cy="430.431" r="7" fill="#009af9" fill-rule="evenodd" fill-opacity="1" stroke="#000000" stroke-opacity="1" stroke-width="3.2"/>
<circle clip-path="url(#clip592)" cx="2217.61" cy="322.413" r="7" fill="#009af9" fill-rule="evenodd" fill-opacity="1" stroke="#000000" stroke-opacity="1" stroke-width="3.2"/>
<circle clip-path="url(#clip592)" cx="2219.28" cy="356.105" r="7" fill="#009af9" fill-rule="evenodd" fill-opacity="1" stroke="#000000" stroke-opacity="1" stroke-width="3.2"/>
<circle clip-path="url(#clip592)" cx="2228.2" cy="160.256" r="7" fill="#009af9" fill-rule="evenodd" fill-opacity="1" stroke="#000000" stroke-opacity="1" stroke-width="3.2"/>
<circle clip-path="url(#clip592)" cx="2233.09" cy="405.944" r="7" fill="#009af9" fill-rule="evenodd" fill-opacity="1" stroke="#000000" stroke-opacity="1" stroke-width="3.2"/>
<circle clip-path="url(#clip592)" cx="2239.22" cy="382.252" r="7" fill="#009af9" fill-rule="evenodd" fill-opacity="1" stroke="#000000" stroke-opacity="1" stroke-width="3.2"/>
<circle clip-path="url(#clip592)" cx="2250.86" cy="476.436" r="7" fill="#009af9" fill-rule="evenodd" fill-opacity="1" stroke="#000000" stroke-opacity="1" stroke-width="3.2"/>
<circle clip-path="url(#clip592)" cx="2258.36" cy="394.087" r="7" fill="#009af9" fill-rule="evenodd" fill-opacity="1" stroke="#000000" stroke-opacity="1" stroke-width="3.2"/>
<circle clip-path="url(#clip592)" cx="2262.17" cy="439.899" r="7" fill="#009af9" fill-rule="evenodd" fill-opacity="1" stroke="#000000" stroke-opacity="1" stroke-width="3.2"/>
<circle clip-path="url(#clip592)" cx="2273.83" cy="484.594" r="7" fill="#009af9" fill-rule="evenodd" fill-opacity="1" stroke="#000000" stroke-opacity="1" stroke-width="3.2"/>
<circle clip-path="url(#clip592)" cx="2277.79" cy="501.243" r="7" fill="#009af9" fill-rule="evenodd" fill-opacity="1" stroke="#000000" stroke-opacity="1" stroke-width="3.2"/>
<circle clip-path="url(#clip592)" cx="2279.36" cy="258.997" r="7" fill="#009af9" fill-rule="evenodd" fill-opacity="1" stroke="#000000" stroke-opacity="1" stroke-width="3.2"/>
<circle clip-path="url(#clip592)" cx="2284.48" cy="428.967" r="7" fill="#009af9" fill-rule="evenodd" fill-opacity="1" stroke="#000000" stroke-opacity="1" stroke-width="3.2"/>
<circle clip-path="url(#clip592)" cx="2289.46" cy="537.544" r="7" fill="#009af9" fill-rule="evenodd" fill-opacity="1" stroke="#000000" stroke-opacity="1" stroke-width="3.2"/>
<circle clip-path="url(#clip592)" cx="2301.58" cy="496.818" r="7" fill="#009af9" fill-rule="evenodd" fill-opacity="1" stroke="#000000" stroke-opacity="1" stroke-width="3.2"/>
<circle clip-path="url(#clip592)" cx="2303.02" cy="579.672" r="7" fill="#009af9" fill-rule="evenodd" fill-opacity="1" stroke="#000000" stroke-opacity="1" stroke-width="3.2"/>
<circle clip-path="url(#clip592)" cx="2310.55" cy="535.623" r="7" fill="#009af9" fill-rule="evenodd" fill-opacity="1" stroke="#000000" stroke-opacity="1" stroke-width="3.2"/>
<circle clip-path="url(#clip592)" cx="2315.4" cy="659.165" r="7" fill="#009af9" fill-rule="evenodd" fill-opacity="1" stroke="#000000" stroke-opacity="1" stroke-width="3.2"/>
<circle clip-path="url(#clip592)" cx="2318.73" cy="464.032" r="7" fill="#009af9" fill-rule="evenodd" fill-opacity="1" stroke="#000000" stroke-opacity="1" stroke-width="3.2"/>
<circle clip-path="url(#clip592)" cx="2323.29" cy="675.867" r="7" fill="#009af9" fill-rule="evenodd" fill-opacity="1" stroke="#000000" stroke-opacity="1" stroke-width="3.2"/>
<circle clip-path="url(#clip592)" cx="2330.28" cy="551.894" r="7" fill="#009af9" fill-rule="evenodd" fill-opacity="1" stroke="#000000" stroke-opacity="1" stroke-width="3.2"/>
<circle clip-path="url(#clip592)" cx="2334.86" cy="716.254" r="7" fill="#009af9" fill-rule="evenodd" fill-opacity="1" stroke="#000000" stroke-opacity="1" stroke-width="3.2"/>
<circle clip-path="url(#clip592)" cx="2349.01" cy="797.096" r="7" fill="#009af9" fill-rule="evenodd" fill-opacity="1" stroke="#000000" stroke-opacity="1" stroke-width="3.2"/>
<circle clip-path="url(#clip592)" cx="2351.55" cy="816.833" r="7" fill="#009af9" fill-rule="evenodd" fill-opacity="1" stroke="#000000" stroke-opacity="1" stroke-width="3.2"/>
<polyline clip-path="url(#clip592)" style="stroke:#000000; stroke-width:4; stroke-opacity:1; fill:none" stroke-dasharray="16, 10" points="
  152.27,1039.51 159.605,1016.72 166.939,994.585 174.274,973.151 181.609,952.469 188.944,932.584 196.279,913.535 203.614,895.36 210.949,878.091 218.284,861.756 
  225.619,846.381 232.954,831.986 240.289,818.586 247.624,806.196 254.959,794.822 262.294,784.47 269.629,775.141 276.964,766.831 284.299,759.536 291.634,753.245 
  298.969,747.945 306.304,743.62 313.639,740.252 320.974,737.817 328.308,736.291 335.643,735.647 342.978,735.856 350.313,736.885 357.648,738.701 364.983,741.268 
  372.318,744.549 379.653,748.505 386.988,753.097 394.323,758.283 401.658,764.021 408.993,770.269 416.328,776.983 423.663,784.121 430.998,791.639 438.333,799.493 
  445.668,807.641 453.003,816.038 460.338,824.644 467.673,833.416 475.008,842.314 482.343,851.297 489.677,860.328 497.012,869.368 504.347,878.382 511.682,887.334 
  519.017,896.193 526.352,904.926 533.687,913.504 541.022,921.899 548.357,930.085 555.692,938.038 563.027,945.736 570.362,953.159 577.697,960.288 585.032,967.108 
  592.367,973.605 599.702,979.766 607.037,985.581 614.372,991.044 621.707,996.146 629.042,1000.89 636.377,1005.26 643.712,1009.27 651.046,1012.91 658.381,1016.19 
  665.716,1019.11 673.051,1021.68 680.386,1023.91 687.721,1025.8 695.056,1027.37 702.391,1028.63 709.726,1029.58 717.061,1030.25 724.396,1030.64 731.731,1030.78 
  739.066,1030.68 746.401,1030.35 753.736,1029.81 761.071,1029.08 768.406,1028.17 775.741,1027.11 783.076,1025.91 790.411,1024.58 797.746,1023.15 805.081,1021.64 
  812.415,1020.04 819.75,1018.4 827.085,1016.71 834.42,1014.99 841.755,1013.27 849.09,1011.55 856.425,1009.84 863.76,1008.15 871.095,1006.51 878.43,1004.91 
  885.765,1003.37 893.1,1001.89 900.435,1000.49 907.77,999.157 915.105,997.911 922.44,996.75 929.775,995.678 937.11,994.696 944.445,993.806 951.78,993.007 
  959.115,992.297 966.45,991.676 973.784,991.139 981.119,990.682 988.454,990.302 995.789,989.993 1003.12,989.749 1010.46,989.562 1017.79,989.427 1025.13,989.335 
  1032.46,989.279 1039.8,989.249 1047.13,989.237 1054.47,989.236 1061.8,989.234 1069.14,989.225 1076.47,989.199 1083.81,989.147 1091.14,989.061 1098.48,988.933 
  1105.81,988.755 1113.15,988.52 1120.48,988.221 1127.82,987.852 1135.15,987.408 1142.49,986.884 1149.82,986.275 1157.16,985.579 1164.49,984.794 1171.83,983.918 
  1179.16,982.95 1186.5,981.892 1193.83,980.745 1201.17,979.511 1208.5,978.195 1215.84,976.8 1223.17,975.333 1230.51,973.801 1237.84,972.211 1245.18,970.573 
  1252.51,968.895 1259.85,967.19 1267.18,965.468 1274.52,963.742 1281.85,962.025 1289.19,960.332 1296.52,958.677 1303.86,957.076 1311.19,955.545 1318.53,954.1 
  1325.86,952.758 1333.2,951.535 1340.53,950.45 1347.87,949.52 1355.2,948.761 1362.54,948.192 1369.87,947.829 1377.21,947.689 1384.54,947.789 1391.88,948.144 
  1399.21,948.769 1406.55,949.679 1413.88,950.888 1421.22,952.408 1428.55,954.25 1435.89,956.426 1443.22,958.943 1450.56,961.811 1457.89,965.036 1465.23,968.622 
  1472.56,972.572 1479.9,976.889 1487.23,981.572 1494.57,986.619 1501.9,992.026 1509.24,997.788 1516.57,1003.9 1523.91,1010.34 1531.24,1017.11 1538.58,1024.2 
  1545.91,1031.57 1553.25,1039.23 1560.58,1047.15 1567.92,1055.3 1575.25,1063.66 1582.59,1072.21 1589.92,1080.93 1597.26,1089.77 1604.59,1098.71 1611.93,1107.71 
  1619.26,1116.75 1626.6,1125.79 1633.93,1134.78 1641.27,1143.69 1648.6,1152.49 1655.94,1161.12 1663.27,1169.55 1670.61,1177.74 1677.94,1185.64 1685.28,1193.22 
  1692.61,1200.42 1699.94,1207.2 1707.28,1213.52 1714.61,1219.34 1721.95,1224.61 1729.28,1229.3 1736.62,1233.36 1743.95,1236.74 1751.29,1239.42 1758.62,1241.36 
  1765.96,1242.51 1773.29,1242.85 1780.63,1242.34 1787.96,1240.95 1795.3,1238.65 1802.63,1235.43 1809.97,1231.25 1817.3,1226.11 1824.64,1219.97 1831.97,1212.83 
  1839.31,1204.68 1846.64,1195.5 1853.98,1185.31 1861.31,1174.09 1868.65,1161.86 1875.98,1148.61 1883.32,1134.37 1890.65,1119.14 1897.99,1102.96 1905.32,1085.83 
  1912.66,1067.79 1919.99,1048.87 1927.33,1029.11 1934.66,1008.55 1942,987.231 1949.33,965.199 1956.67,942.509 1964,919.215 1971.34,895.377 1978.67,871.058 
  1986.01,846.324 1993.34,821.244 2000.68,795.892 2008.01,770.343 2015.35,744.674 2022.68,718.968 2030.02,693.307 2037.35,667.775 2044.69,642.461 2052.02,617.453 
  2059.36,592.84 2066.69,568.713 2074.03,545.165 2081.36,522.286 2088.7,500.17 2096.03,478.907 2103.37,458.591 2110.7,439.31 2118.04,421.155 2125.37,404.213 
  2132.71,388.571 2140.04,374.312 2147.38,361.519 2154.71,350.269 2162.05,340.638 2169.38,332.699 2176.72,326.519 2184.05,322.162 2191.39,319.689 2198.72,319.154 
  2206.06,320.608 2213.39,324.095 2220.73,329.654 2228.06,337.319 2235.4,347.118 2242.73,359.071 2250.07,373.195 2257.4,389.496 2264.74,407.977 2272.07,428.631 
  2279.41,451.447 2286.74,476.405 2294.08,503.478 2301.41,532.632 2308.75,563.825 2316.08,597.009 2323.42,632.127 2330.75,669.116 2338.09,707.906 2345.42,748.417 
  2352.76,790.566 
  "/>
<polyline clip-path="url(#clip592)" style="stroke:#ff0000; stroke-width:8; stroke-opacity:1; fill:none" points="
  173.404,982.33 176.091,974.659 187.984,940.852 199.054,909.909 206.713,889.166 226.86,839.593 228.789,835.365 241.523,810.218 258.719,783.72 259.18,783.122 
  261.349,780.377 264.562,776.545 265.233,775.78 276.54,764.778 283.078,759.979 284.355,759.167 304.142,751.051 320.461,749.274 323.181,749.318 328.46,749.624 
  328.784,749.65 329.869,749.744 332.861,750.051 337.783,750.742 344.634,752.192 354.22,755.371 368.71,762.813 369.909,763.561 382.312,772.328 393.725,781.627 
  412.636,798.424 430.936,815.524 437.814,821.915 437.92,822.012 440.281,824.156 451.789,834.09 456.537,837.9 458.693,839.576 472.75,849.876 476.418,852.469 
  478.735,854.1 479.799,854.847 494.362,865.216 497.601,867.642 507.286,875.308 507.97,875.87 515.172,881.963 518.814,885.171 528.355,893.921 530.534,895.959 
  532.525,897.827 537.75,902.748 544.55,909.211 545.123,909.758 545.923,910.524 546.053,910.649 548.704,913.194 552.401,916.766 564.17,928.35 588.673,953.646 
  591.057,956.125 608.268,973.517 613.347,978.339 615.206,980.051 616.113,980.874 617.508,982.126 649.085,1005.3 650.908,1006.33 676.108,1017.46 679.633,1018.58 
  682.238,1019.36 688.683,1021.11 689.157,1021.23 706.052,1025.1 709.509,1025.8 712.558,1026.41 716.622,1027.2 719.152,1027.68 724.956,1028.78 727.173,1029.2 
  728.171,1029.39 729.84,1029.7 732.593,1030.22 735.405,1030.73 738.569,1031.28 744.139,1032.15 748.177,1032.72 752.552,1033.29 763.625,1034.91 778.843,1038.01 
  790.414,1041.18 790.586,1041.23 790.748,1041.28 806.091,1046.37 809.829,1047.63 813.804,1048.93 814.91,1049.28 828.323,1053.09 830.957,1053.7 833.032,1054.15 
  838.096,1055.05 846.182,1055.95 849.187,1056.12 854.843,1056.2 860.669,1056.01 866.421,1055.58 867.851,1055.44 871.736,1054.99 883.631,1052.63 885.818,1051.99 
  890.067,1050.51 890.36,1050.4 927.614,1025.57 933.791,1019.65 944.096,1009.06 961.808,990.831 965.455,987.451 970.645,983.022 975.101,979.645 977.567,977.97 
  993.104,970.79 1002.25,969.315 1002.75,969.294 1005.59,969.293 1014.78,970.607 1026.18,974.726 1028.27,975.717 1028.38,975.766 1029.96,976.56 1056.45,992.454 
  1068.68,999.56 1071.23,1000.85 1073.17,1001.78 1081.49,1005.17 1087.13,1006.82 1092.1,1007.75 1093.91,1007.96 1114.54,1005.53 1118.03,1004.31 1125.34,1001.05 
  1132.99,996.786 1145.46,988.649 1150.22,985.411 1162.21,977.668 1162.93,977.241 1164,976.62 1172.49,972.062 1176.23,970.223 1180.21,968.375 1182.21,967.491 
  1188.53,964.973 1191.89,963.852 1196.21,962.656 1199.43,961.937 1211.59,960.258 1216.08,959.905 1234.85,959.522 1241.8,959.831 1246.13,960.177 1257.82,961.457 
  1272.6,962.804 1283.01,962.885 1283.09,962.882 1291.86,962.173 1296.66,961.45 1304.83,959.743 1309.09,958.668 1310.72,958.234 1310.99,958.16 1312.95,957.622 
  1316.39,956.65 1317.03,956.469 1319.37,955.8 1350.13,948.815 1355.52,948.257 1356.5,948.186 1380.62,949.66 1392.94,952.894 1398.18,954.804 1399.76,955.439 
  1400.58,955.778 1418.34,964.812 1421.23,966.56 1422.01,967.049 1424.37,968.534 1438.84,977.859 1438.93,977.919 1440.7,979.009 1450.37,984.679 1455.64,987.619 
  1499.31,1011.24 1500.02,1011.63 1507.67,1015.92 1511.78,1018.3 1515.3,1020.41 1516.17,1020.94 1517.44,1021.73 1530.56,1030.4 1544.33,1040.94 1546.26,1042.57 
  1564.28,1059.76 1567.34,1063.07 1576.8,1073.96 1579.72,1077.49 1592.74,1093.46 1594.27,1095.31 1613.7,1117.56 1637.48,1142.37 1651.24,1156.47 1654.59,1159.96 
  1664.38,1170.2 1669.4,1175.5 1674.48,1180.8 1678.28,1184.7 1687.14,1193.54 1688.68,1195.04 1712.65,1216.12 1722.8,1223.09 1737.81,1230.36 1750.68,1234 
  1752.22,1234.3 1763.2,1235.82 1766.13,1236.03 1770.02,1236.17 1778.33,1235.88 1782.19,1235.46 1788.29,1234.37 1789.8,1234.02 1806.04,1227.77 1825.68,1212.99 
  1833,1205.25 1835.88,1201.83 1856.38,1171.09 1863.01,1158.8 1869.54,1145.68 1870.94,1142.75 1908.08,1052.25 1913.67,1037.12 1923.27,1010.66 1930.92,989.244 
  1938.62,967.395 1949.09,937.294 1954.14,922.569 1955.97,917.199 1958.41,910.069 1959.42,907.101 1963.83,894.1 1975.47,859.85 1975.91,858.568 1985.16,831.414 
  1985.22,831.231 1992.42,809.832 1993.13,807.721 2007.37,763.394 2022.22,713.753 2022.82,711.698 2023.47,709.432 2024.15,707.055 2037.71,658.468 2053.84,599.222 
  2060.59,574.467 2070.89,537.405 2072.77,530.801 2080.25,505.206 2117.1,401.389 2120.62,393.911 2131.39,374.052 2132.75,371.862 2140.32,360.967 2174.41,334.479 
  2179.41,333.048 2180.21,332.867 2190.67,331.721 2192.7,331.786 2211.24,337.726 2212.02,338.217 2213.59,339.272 2217.61,342.363 2219.28,343.815 2228.2,353.337 
  2233.09,359.836 2239.22,369.21 2250.86,390.479 2258.36,406.44 2262.17,415.206 2273.83,444.916 2277.79,456.009 2279.36,460.561 2284.48,475.926 2289.46,491.669 
  2301.58,533.017 2303.02,538.19 2310.55,566.048 2315.4,584.647 2318.73,597.693 2323.29,615.891 2330.28,644.424 2334.86,663.491 2349.01,723.345 2351.55,734.133 
  
  "/>
<path clip-path="url(#clip590)" d="
M224.27 448.912 L744.662 448.912 L744.662 206.992 L224.27 206.992  Z
  " fill="#ffffff" fill-rule="evenodd" fill-opacity="1"/>
<polyline clip-path="url(#clip590)" style="stroke:#000000; stroke-width:4; stroke-opacity:1; fill:none" points="
  224.27,448.912 744.662,448.912 744.662,206.992 224.27,206.992 224.27,448.912 
  "/>
<circle clip-path="url(#clip590)" cx="332.27" cy="267.472" r="23" fill="#009af9" fill-rule="evenodd" fill-opacity="1" stroke="#000000" stroke-opacity="1" stroke-width="10.24"/>
<path clip-path="url(#clip590)" d="M 0 0 M432.288 253.363 Q427.195 253.363 424.186 257.16 Q421.2 260.956 421.2 267.507 Q421.2 274.035 424.186 277.831 Q427.195 281.627 432.288 281.627 Q437.381 281.627 440.343 277.831 Q443.33 274.035 443.33 267.507 Q443.33 260.956 440.343 257.16 Q437.381 253.363 432.288 253.363 M432.288 249.567 Q439.556 249.567 443.908 254.451 Q448.26 259.312 448.26 267.507 Q448.26 275.678 443.908 280.562 Q439.556 285.423 432.288 285.423 Q424.996 285.423 420.621 280.562 Q416.27 275.701 416.27 267.507 Q416.27 259.312 420.621 254.451 Q424.996 249.567 432.288 249.567 Z" fill="#000000" fill-rule="evenodd" fill-opacity="1" /><path clip-path="url(#clip590)" d="M 0 0 M471.339 271.812 Q471.339 267.113 469.394 264.451 Q467.473 261.766 464.093 261.766 Q460.714 261.766 458.769 264.451 Q456.848 267.113 456.848 271.812 Q456.848 276.511 458.769 279.197 Q460.714 281.859 464.093 281.859 Q467.473 281.859 469.394 279.197 Q471.339 276.511 471.339 271.812 M456.848 262.762 Q458.191 260.447 460.228 259.336 Q462.288 258.201 465.135 258.201 Q469.857 258.201 472.797 261.951 Q475.76 265.701 475.76 271.812 Q475.76 277.923 472.797 281.673 Q469.857 285.423 465.135 285.423 Q462.288 285.423 460.228 284.312 Q458.191 283.178 456.848 280.863 L456.848 284.752 L452.566 284.752 L452.566 248.734 L456.848 248.734 L456.848 262.762 Z" fill="#000000" fill-rule="evenodd" fill-opacity="1" /><path clip-path="url(#clip590)" d="M 0 0 M496.755 259.59 L496.755 263.618 Q494.95 262.692 493.005 262.229 Q491.061 261.766 488.977 261.766 Q485.806 261.766 484.209 262.738 Q482.635 263.711 482.635 265.655 Q482.635 267.136 483.769 267.993 Q484.903 268.826 488.329 269.59 L489.788 269.914 Q494.325 270.886 496.223 272.669 Q498.144 274.428 498.144 277.599 Q498.144 281.21 495.274 283.317 Q492.427 285.423 487.427 285.423 Q485.343 285.423 483.075 285.007 Q480.829 284.613 478.329 283.803 L478.329 279.405 Q480.691 280.632 482.982 281.257 Q485.274 281.859 487.519 281.859 Q490.528 281.859 492.149 280.84 Q493.769 279.798 493.769 277.923 Q493.769 276.187 492.589 275.261 Q491.431 274.336 487.473 273.479 L485.991 273.132 Q482.033 272.298 480.274 270.586 Q478.515 268.849 478.515 265.84 Q478.515 262.183 481.107 260.192 Q483.7 258.201 488.468 258.201 Q490.829 258.201 492.913 258.549 Q494.996 258.896 496.755 259.59 Z" fill="#000000" fill-rule="evenodd" fill-opacity="1" /><path clip-path="url(#clip590)" d="M 0 0 M524.787 270.724 L524.787 272.808 L505.204 272.808 Q505.482 277.206 507.843 279.521 Q510.227 281.812 514.463 281.812 Q516.917 281.812 519.209 281.21 Q521.524 280.609 523.792 279.405 L523.792 283.433 Q521.5 284.405 519.093 284.914 Q516.686 285.423 514.209 285.423 Q508.005 285.423 504.371 281.812 Q500.76 278.201 500.76 272.044 Q500.76 265.678 504.186 261.951 Q507.635 258.201 513.468 258.201 Q518.7 258.201 521.732 261.581 Q524.787 264.937 524.787 270.724 M520.528 269.474 Q520.482 265.979 518.561 263.896 Q516.663 261.812 513.514 261.812 Q509.95 261.812 507.797 263.826 Q505.667 265.84 505.343 269.498 L520.528 269.474 Z" fill="#000000" fill-rule="evenodd" fill-opacity="1" /><path clip-path="url(#clip590)" d="M 0 0 M544.278 262.808 Q543.561 262.391 542.704 262.206 Q541.871 261.998 540.852 261.998 Q537.241 261.998 535.297 264.359 Q533.375 266.697 533.375 271.095 L533.375 284.752 L529.093 284.752 L529.093 258.826 L533.375 258.826 L533.375 262.854 Q534.718 260.493 536.871 259.359 Q539.024 258.201 542.102 258.201 Q542.542 258.201 543.074 258.271 Q543.607 258.317 544.255 258.433 L544.278 262.808 Z" fill="#000000" fill-rule="evenodd" fill-opacity="1" /><path clip-path="url(#clip590)" d="M 0 0 M545.69 258.826 L550.204 258.826 L558.306 280.585 L566.408 258.826 L570.922 258.826 L561.199 284.752 L555.412 284.752 L545.69 258.826 Z" fill="#000000" fill-rule="evenodd" fill-opacity="1" /><path clip-path="url(#clip590)" d="M 0 0 M587.171 271.72 Q582.009 271.72 580.019 272.9 Q578.028 274.081 578.028 276.928 Q578.028 279.197 579.509 280.539 Q581.014 281.859 583.583 281.859 Q587.125 281.859 589.255 279.359 Q591.408 276.836 591.408 272.669 L591.408 271.72 L587.171 271.72 M595.667 269.961 L595.667 284.752 L591.408 284.752 L591.408 280.817 Q589.949 283.178 587.773 284.312 Q585.597 285.423 582.449 285.423 Q578.468 285.423 576.107 283.201 Q573.769 280.956 573.769 277.206 Q573.769 272.831 576.685 270.609 Q579.625 268.386 585.435 268.386 L591.408 268.386 L591.408 267.97 Q591.408 265.03 589.463 263.433 Q587.542 261.812 584.046 261.812 Q581.824 261.812 579.718 262.345 Q577.611 262.877 575.667 263.942 L575.667 260.007 Q578.005 259.104 580.204 258.664 Q582.403 258.201 584.486 258.201 Q590.111 258.201 592.889 261.118 Q595.667 264.035 595.667 269.961 Z" fill="#000000" fill-rule="evenodd" fill-opacity="1" /><path clip-path="url(#clip590)" d="M 0 0 M604.347 251.465 L604.347 258.826 L613.12 258.826 L613.12 262.137 L604.347 262.137 L604.347 276.211 Q604.347 279.382 605.204 280.285 Q606.083 281.187 608.745 281.187 L613.12 281.187 L613.12 284.752 L608.745 284.752 Q603.815 284.752 601.94 282.923 Q600.065 281.072 600.065 276.211 L600.065 262.137 L596.94 262.137 L596.94 258.826 L600.065 258.826 L600.065 251.465 L604.347 251.465 Z" fill="#000000" fill-rule="evenodd" fill-opacity="1" /><path clip-path="url(#clip590)" d="M 0 0 M617.588 258.826 L621.847 258.826 L621.847 284.752 L617.588 284.752 L617.588 258.826 M617.588 248.734 L621.847 248.734 L621.847 254.127 L617.588 254.127 L617.588 248.734 Z" fill="#000000" fill-rule="evenodd" fill-opacity="1" /><path clip-path="url(#clip590)" d="M 0 0 M636.361 261.812 Q632.935 261.812 630.944 264.498 Q628.954 267.16 628.954 271.812 Q628.954 276.465 630.921 279.15 Q632.912 281.812 636.361 281.812 Q639.764 281.812 641.754 279.127 Q643.745 276.442 643.745 271.812 Q643.745 267.206 641.754 264.521 Q639.764 261.812 636.361 261.812 M636.361 258.201 Q641.916 258.201 645.088 261.812 Q648.259 265.424 648.259 271.812 Q648.259 278.178 645.088 281.812 Q641.916 285.423 636.361 285.423 Q630.782 285.423 627.611 281.812 Q624.463 278.178 624.463 271.812 Q624.463 265.424 627.611 261.812 Q630.782 258.201 636.361 258.201 Z" fill="#000000" fill-rule="evenodd" fill-opacity="1" /><path clip-path="url(#clip590)" d="M 0 0 M674.277 269.104 L674.277 284.752 L670.018 284.752 L670.018 269.243 Q670.018 265.562 668.583 263.734 Q667.148 261.905 664.277 261.905 Q660.828 261.905 658.838 264.104 Q656.847 266.303 656.847 270.099 L656.847 284.752 L652.565 284.752 L652.565 258.826 L656.847 258.826 L656.847 262.854 Q658.375 260.516 660.435 259.359 Q662.518 258.201 665.227 258.201 Q669.694 258.201 671.986 260.979 Q674.277 263.734 674.277 269.104 Z" fill="#000000" fill-rule="evenodd" fill-opacity="1" /><path clip-path="url(#clip590)" d="M 0 0 M695.273 259.59 L695.273 263.618 Q693.467 262.692 691.523 262.229 Q689.578 261.766 687.495 261.766 Q684.324 261.766 682.726 262.738 Q681.152 263.711 681.152 265.655 Q681.152 267.136 682.287 267.993 Q683.421 268.826 686.847 269.59 L688.305 269.914 Q692.842 270.886 694.74 272.669 Q696.662 274.428 696.662 277.599 Q696.662 281.21 693.791 283.317 Q690.944 285.423 685.944 285.423 Q683.861 285.423 681.592 285.007 Q679.347 284.613 676.847 283.803 L676.847 279.405 Q679.208 280.632 681.5 281.257 Q683.791 281.859 686.037 281.859 Q689.046 281.859 690.666 280.84 Q692.287 279.798 692.287 277.923 Q692.287 276.187 691.106 275.261 Q689.949 274.336 685.99 273.479 L684.509 273.132 Q680.551 272.298 678.791 270.586 Q677.032 268.849 677.032 265.84 Q677.032 262.183 679.625 260.192 Q682.217 258.201 686.986 258.201 Q689.347 258.201 691.43 258.549 Q693.513 258.896 695.273 259.59 Z" fill="#000000" fill-rule="evenodd" fill-opacity="1" /><polyline clip-path="url(#clip590)" style="stroke:#000000; stroke-width:4; stroke-opacity:1; fill:none" stroke-dasharray="16, 10" points="
  248.27,327.952 392.27,327.952 
  "/>
<path clip-path="url(#clip590)" d="M 0 0 M432.774 309.214 L432.774 312.755 L428.7 312.755 Q426.408 312.755 425.506 313.681 Q424.626 314.607 424.626 317.015 L424.626 319.306 L431.64 319.306 L431.64 322.617 L424.626 322.617 L424.626 345.232 L420.344 345.232 L420.344 322.617 L416.27 322.617 L416.27 319.306 L420.344 319.306 L420.344 317.501 Q420.344 313.172 422.357 311.205 Q424.371 309.214 428.746 309.214 L432.774 309.214 Z" fill="#000000" fill-rule="evenodd" fill-opacity="1" /><path clip-path="url(#clip590)" d="M 0 0 M447.473 309.26 Q444.371 314.584 442.867 319.792 Q441.362 325.001 441.362 330.348 Q441.362 335.695 442.867 340.95 Q444.394 346.181 447.473 351.482 L443.769 351.482 Q440.297 346.042 438.561 340.788 Q436.848 335.533 436.848 330.348 Q436.848 325.186 438.561 319.954 Q440.274 314.723 443.769 309.26 L447.473 309.26 Z" fill="#000000" fill-rule="evenodd" fill-opacity="1" /><path clip-path="url(#clip590)" d="M 0 0 M456.154 311.945 L456.154 319.306 L464.927 319.306 L464.927 322.617 L456.154 322.617 L456.154 336.691 Q456.154 339.862 457.01 340.765 Q457.89 341.667 460.552 341.667 L464.927 341.667 L464.927 345.232 L460.552 345.232 Q455.621 345.232 453.746 343.403 Q451.871 341.552 451.871 336.691 L451.871 322.617 L448.746 322.617 L448.746 319.306 L451.871 319.306 L451.871 311.945 L456.154 311.945 Z" fill="#000000" fill-rule="evenodd" fill-opacity="1" /><path clip-path="url(#clip590)" d="M 0 0 M468.723 309.26 L472.427 309.26 Q475.899 314.723 477.612 319.954 Q479.348 325.186 479.348 330.348 Q479.348 335.533 477.612 340.788 Q475.899 346.042 472.427 351.482 L468.723 351.482 Q471.802 346.181 473.306 340.95 Q474.834 335.695 474.834 330.348 Q474.834 325.001 473.306 319.792 Q471.802 314.584 468.723 309.26 Z" fill="#000000" fill-rule="evenodd" fill-opacity="1" /><polyline clip-path="url(#clip590)" style="stroke:#ff0000; stroke-width:4; stroke-opacity:1; fill:none" points="
  248.27,388.432 392.27,388.432 
  "/>
<path clip-path="url(#clip590)" d="M 0 0 M432.774 369.694 L432.774 373.235 L428.7 373.235 Q426.408 373.235 425.506 374.161 Q424.626 375.087 424.626 377.495 L424.626 379.786 L431.64 379.786 L431.64 383.097 L424.626 383.097 L424.626 405.712 L420.344 405.712 L420.344 383.097 L416.27 383.097 L416.27 379.786 L420.344 379.786 L420.344 377.981 Q420.344 373.652 422.357 371.685 Q424.371 369.694 428.746 369.694 L432.774 369.694 Z" fill="#000000" fill-rule="evenodd" fill-opacity="1" /><path clip-path="url(#clip590)" d="M 0 0 M437.242 379.786 L441.501 379.786 L441.501 405.712 L437.242 405.712 L437.242 379.786 M437.242 369.694 L441.501 369.694 L441.501 375.087 L437.242 375.087 L437.242 369.694 Z" fill="#000000" fill-rule="evenodd" fill-opacity="1" /><path clip-path="url(#clip590)" d="M 0 0 M450.181 372.425 L450.181 379.786 L458.955 379.786 L458.955 383.097 L450.181 383.097 L450.181 397.171 Q450.181 400.342 451.038 401.245 Q451.918 402.147 454.58 402.147 L458.955 402.147 L458.955 405.712 L454.58 405.712 Q449.649 405.712 447.774 403.883 Q445.899 402.032 445.899 397.171 L445.899 383.097 L442.774 383.097 L442.774 379.786 L445.899 379.786 L445.899 372.425 L450.181 372.425 Z" fill="#000000" fill-rule="evenodd" fill-opacity="1" /></svg>
