<?xml version="1.0" encoding="utf-8"?>
<svg xmlns="http://www.w3.org/2000/svg" xmlns:xlink="http://www.w3.org/1999/xlink" width="600" height="400" viewBox="0 0 2400 1600">
<defs>
  <clipPath id="clip670">
    <rect x="0" y="0" width="2400" height="1600"/>
  </clipPath>
</defs>
<path clip-path="url(#clip670)" d="M0 1600 L2400 1600 L2400 0 L0 0  Z" fill="#ffffff" fill-rule="evenodd" fill-opacity="1"/>
<defs>
  <clipPath id="clip671">
    <rect x="480" y="0" width="1681" height="1600"/>
  </clipPath>
</defs>
<path clip-path="url(#clip670)" d="M220.19 1161.73 L2352.76 1161.73 L2352.76 308.699 L220.19 308.699  Z" fill="#808080" fill-rule="evenodd" fill-opacity="1"/>
<defs>
  <clipPath id="clip672">
    <rect x="220" y="308" width="2134" height="854"/>
  </clipPath>
</defs>
<polyline clip-path="url(#clip672)" style="stroke:#000000; stroke-linecap:round; stroke-linejoin:round; stroke-width:4; stroke-opacity:1; fill:none" points="220.19,1161.73 220.19,308.699 "/>
<polyline clip-path="url(#clip672)" style="stroke:#000000; stroke-linecap:round; stroke-linejoin:round; stroke-width:4; stroke-opacity:1; fill:none" points="326.819,1161.73 326.819,308.699 "/>
<polyline clip-path="url(#clip672)" style="stroke:#000000; stroke-linecap:round; stroke-linejoin:round; stroke-width:4; stroke-opacity:1; fill:none" points="433.447,1161.73 433.447,308.699 "/>
<polyline clip-path="url(#clip672)" style="stroke:#000000; stroke-linecap:round; stroke-linejoin:round; stroke-width:4; stroke-opacity:1; fill:none" points="540.075,1161.73 540.075,308.699 "/>
<polyline clip-path="url(#clip672)" style="stroke:#000000; stroke-linecap:round; stroke-linejoin:round; stroke-width:4; stroke-opacity:1; fill:none" points="646.703,1161.73 646.703,308.699 "/>
<polyline clip-path="url(#clip672)" style="stroke:#000000; stroke-linecap:round; stroke-linejoin:round; stroke-width:4; stroke-opacity:1; fill:none" points="753.332,1161.73 753.332,308.699 "/>
<polyline clip-path="url(#clip672)" style="stroke:#000000; stroke-linecap:round; stroke-linejoin:round; stroke-width:4; stroke-opacity:1; fill:none" points="859.96,1161.73 859.96,308.699 "/>
<polyline clip-path="url(#clip672)" style="stroke:#000000; stroke-linecap:round; stroke-linejoin:round; stroke-width:4; stroke-opacity:1; fill:none" points="966.588,1161.73 966.588,308.699 "/>
<polyline clip-path="url(#clip672)" style="stroke:#000000; stroke-linecap:round; stroke-linejoin:round; stroke-width:4; stroke-opacity:1; fill:none" points="1073.22,1161.73 1073.22,308.699 "/>
<polyline clip-path="url(#clip672)" style="stroke:#000000; stroke-linecap:round; stroke-linejoin:round; stroke-width:4; stroke-opacity:1; fill:none" points="1179.84,1161.73 1179.84,308.699 "/>
<polyline clip-path="url(#clip672)" style="stroke:#000000; stroke-linecap:round; stroke-linejoin:round; stroke-width:4; stroke-opacity:1; fill:none" points="1286.47,1161.73 1286.47,308.699 "/>
<polyline clip-path="url(#clip672)" style="stroke:#000000; stroke-linecap:round; stroke-linejoin:round; stroke-width:4; stroke-opacity:1; fill:none" points="1393.1,1161.73 1393.1,308.699 "/>
<polyline clip-path="url(#clip672)" style="stroke:#000000; stroke-linecap:round; stroke-linejoin:round; stroke-width:4; stroke-opacity:1; fill:none" points="1499.73,1161.73 1499.73,308.699 "/>
<polyline clip-path="url(#clip672)" style="stroke:#000000; stroke-linecap:round; stroke-linejoin:round; stroke-width:4; stroke-opacity:1; fill:none" points="1606.36,1161.73 1606.36,308.699 "/>
<polyline clip-path="url(#clip672)" style="stroke:#000000; stroke-linecap:round; stroke-linejoin:round; stroke-width:4; stroke-opacity:1; fill:none" points="1712.99,1161.73 1712.99,308.699 "/>
<polyline clip-path="url(#clip672)" style="stroke:#000000; stroke-linecap:round; stroke-linejoin:round; stroke-width:4; stroke-opacity:1; fill:none" points="1819.61,1161.73 1819.61,308.699 "/>
<polyline clip-path="url(#clip672)" style="stroke:#000000; stroke-linecap:round; stroke-linejoin:round; stroke-width:4; stroke-opacity:1; fill:none" points="1926.24,1161.73 1926.24,308.699 "/>
<polyline clip-path="url(#clip672)" style="stroke:#000000; stroke-linecap:round; stroke-linejoin:round; stroke-width:4; stroke-opacity:1; fill:none" points="2032.87,1161.73 2032.87,308.699 "/>
<polyline clip-path="url(#clip672)" style="stroke:#000000; stroke-linecap:round; stroke-linejoin:round; stroke-width:4; stroke-opacity:1; fill:none" points="2139.5,1161.73 2139.5,308.699 "/>
<polyline clip-path="url(#clip672)" style="stroke:#000000; stroke-linecap:round; stroke-linejoin:round; stroke-width:4; stroke-opacity:1; fill:none" points="2246.13,1161.73 2246.13,308.699 "/>
<polyline clip-path="url(#clip672)" style="stroke:#000000; stroke-linecap:round; stroke-linejoin:round; stroke-width:4; stroke-opacity:1; fill:none" points="2352.76,1161.73 2352.76,308.699 "/>
<polyline clip-path="url(#clip670)" style="stroke:#000000; stroke-linecap:round; stroke-linejoin:round; stroke-width:4; stroke-opacity:1; fill:none" points="220.19,1161.73 2352.76,1161.73 "/>
<polyline clip-path="url(#clip670)" style="stroke:#000000; stroke-linecap:round; stroke-linejoin:round; stroke-width:4; stroke-opacity:1; fill:none" points="220.19,1161.73 220.19,1150.01 "/>
<polyline clip-path="url(#clip670)" style="stroke:#000000; stroke-linecap:round; stroke-linejoin:round; stroke-width:4; stroke-opacity:1; fill:none" points="326.819,1161.73 326.819,1150.01 "/>
<polyline clip-path="url(#clip670)" style="stroke:#000000; stroke-linecap:round; stroke-linejoin:round; stroke-width:4; stroke-opacity:1; fill:none" points="433.447,1161.73 433.447,1150.01 "/>
<polyline clip-path="url(#clip670)" style="stroke:#000000; stroke-linecap:round; stroke-linejoin:round; stroke-width:4; stroke-opacity:1; fill:none" points="540.075,1161.73 540.075,1150.01 "/>
<polyline clip-path="url(#clip670)" style="stroke:#000000; stroke-linecap:round; stroke-linejoin:round; stroke-width:4; stroke-opacity:1; fill:none" points="646.703,1161.73 646.703,1150.01 "/>
<polyline clip-path="url(#clip670)" style="stroke:#000000; stroke-linecap:round; stroke-linejoin:round; stroke-width:4; stroke-opacity:1; fill:none" points="753.332,1161.73 753.332,1150.01 "/>
<polyline clip-path="url(#clip670)" style="stroke:#000000; stroke-linecap:round; stroke-linejoin:round; stroke-width:4; stroke-opacity:1; fill:none" points="859.96,1161.73 859.96,1150.01 "/>
<polyline clip-path="url(#clip670)" style="stroke:#000000; stroke-linecap:round; stroke-linejoin:round; stroke-width:4; stroke-opacity:1; fill:none" points="966.588,1161.73 966.588,1150.01 "/>
<polyline clip-path="url(#clip670)" style="stroke:#000000; stroke-linecap:round; stroke-linejoin:round; stroke-width:4; stroke-opacity:1; fill:none" points="1073.22,1161.73 1073.22,1150.01 "/>
<polyline clip-path="url(#clip670)" style="stroke:#000000; stroke-linecap:round; stroke-linejoin:round; stroke-width:4; stroke-opacity:1; fill:none" points="1179.84,1161.73 1179.84,1150.01 "/>
<polyline clip-path="url(#clip670)" style="stroke:#000000; stroke-linecap:round; stroke-linejoin:round; stroke-width:4; stroke-opacity:1; fill:none" points="1286.47,1161.73 1286.47,1150.01 "/>
<polyline clip-path="url(#clip670)" style="stroke:#000000; stroke-linecap:round; stroke-linejoin:round; stroke-width:4; stroke-opacity:1; fill:none" points="1393.1,1161.73 1393.1,1150.01 "/>
<polyline clip-path="url(#clip670)" style="stroke:#000000; stroke-linecap:round; stroke-linejoin:round; stroke-width:4; stroke-opacity:1; fill:none" points="1499.73,1161.73 1499.73,1150.01 "/>
<polyline clip-path="url(#clip670)" style="stroke:#000000; stroke-linecap:round; stroke-linejoin:round; stroke-width:4; stroke-opacity:1; fill:none" points="1606.36,1161.73 1606.36,1150.01 "/>
<polyline clip-path="url(#clip670)" style="stroke:#000000; stroke-linecap:round; stroke-linejoin:round; stroke-width:4; stroke-opacity:1; fill:none" points="1712.99,1161.73 1712.99,1150.01 "/>
<polyline clip-path="url(#clip670)" style="stroke:#000000; stroke-linecap:round; stroke-linejoin:round; stroke-width:4; stroke-opacity:1; fill:none" points="1819.61,1161.73 1819.61,1150.01 "/>
<polyline clip-path="url(#clip670)" style="stroke:#000000; stroke-linecap:round; stroke-linejoin:round; stroke-width:4; stroke-opacity:1; fill:none" points="1926.24,1161.73 1926.24,1150.01 "/>
<polyline clip-path="url(#clip670)" style="stroke:#000000; stroke-linecap:round; stroke-linejoin:round; stroke-width:4; stroke-opacity:1; fill:none" points="2032.87,1161.73 2032.87,1150.01 "/>
<polyline clip-path="url(#clip670)" style="stroke:#000000; stroke-linecap:round; stroke-linejoin:round; stroke-width:4; stroke-opacity:1; fill:none" points="2139.5,1161.73 2139.5,1150.01 "/>
<polyline clip-path="url(#clip670)" style="stroke:#000000; stroke-linecap:round; stroke-linejoin:round; stroke-width:4; stroke-opacity:1; fill:none" points="2246.13,1161.73 2246.13,1150.01 "/>
<polyline clip-path="url(#clip670)" style="stroke:#000000; stroke-linecap:round; stroke-linejoin:round; stroke-width:4; stroke-opacity:1; fill:none" points="2352.76,1161.73 2352.76,1150.01 "/>
<path clip-path="url(#clip670)" d="M197.575 1192.64 Q193.964 1192.64 192.135 1196.21 Q190.329 1199.75 190.329 1206.88 Q190.329 1213.99 192.135 1217.55 Q193.964 1221.09 197.575 1221.09 Q201.209 1221.09 203.015 1217.55 Q204.843 1213.99 204.843 1206.88 Q204.843 1199.75 203.015 1196.21 Q201.209 1192.64 197.575 1192.64 M197.575 1188.94 Q203.385 1188.94 206.44 1193.55 Q209.519 1198.13 209.519 1206.88 Q209.519 1215.61 206.44 1220.21 Q203.385 1224.8 197.575 1224.8 Q191.765 1224.8 188.686 1220.21 Q185.63 1215.61 185.63 1206.88 Q185.63 1198.13 188.686 1193.55 Q191.765 1188.94 197.575 1188.94 Z" fill="#000000" fill-rule="nonzero" fill-opacity="1" /><path clip-path="url(#clip670)" d="M217.737 1218.25 L222.621 1218.25 L222.621 1224.13 L217.737 1224.13 L217.737 1218.25 Z" fill="#000000" fill-rule="nonzero" fill-opacity="1" /><path clip-path="url(#clip670)" d="M242.806 1192.64 Q239.195 1192.64 237.366 1196.21 Q235.561 1199.75 235.561 1206.88 Q235.561 1213.99 237.366 1217.55 Q239.195 1221.09 242.806 1221.09 Q246.44 1221.09 248.246 1217.55 Q250.074 1213.99 250.074 1206.88 Q250.074 1199.75 248.246 1196.21 Q246.44 1192.64 242.806 1192.64 M242.806 1188.94 Q248.616 1188.94 251.672 1193.55 Q254.75 1198.13 254.75 1206.88 Q254.75 1215.61 251.672 1220.21 Q248.616 1224.8 242.806 1224.8 Q236.996 1224.8 233.917 1220.21 Q230.862 1215.61 230.862 1206.88 Q230.862 1198.13 233.917 1193.55 Q236.996 1188.94 242.806 1188.94 Z" fill="#000000" fill-rule="nonzero" fill-opacity="1" /><path clip-path="url(#clip670)" d="M304.701 1192.64 Q301.09 1192.64 299.261 1196.21 Q297.455 1199.75 297.455 1206.88 Q297.455 1213.99 299.261 1217.55 Q301.09 1221.09 304.701 1221.09 Q308.335 1221.09 310.14 1217.55 Q311.969 1213.99 311.969 1206.88 Q311.969 1199.75 310.14 1196.21 Q308.335 1192.64 304.701 1192.64 M304.701 1188.94 Q310.511 1188.94 313.566 1193.55 Q316.645 1198.13 316.645 1206.88 Q316.645 1215.61 313.566 1220.21 Q310.511 1224.8 304.701 1224.8 Q298.891 1224.8 295.812 1220.21 Q292.756 1215.61 292.756 1206.88 Q292.756 1198.13 295.812 1193.55 Q298.891 1188.94 304.701 1188.94 Z" fill="#000000" fill-rule="nonzero" fill-opacity="1" /><path clip-path="url(#clip670)" d="M324.863 1218.25 L329.747 1218.25 L329.747 1224.13 L324.863 1224.13 L324.863 1218.25 Z" fill="#000000" fill-rule="nonzero" fill-opacity="1" /><path clip-path="url(#clip670)" d="M339.978 1189.57 L358.335 1189.57 L358.335 1193.5 L344.261 1193.5 L344.261 1201.97 Q345.279 1201.63 346.298 1201.46 Q347.316 1201.28 348.335 1201.28 Q354.122 1201.28 357.501 1204.45 Q360.881 1207.62 360.881 1213.04 Q360.881 1218.62 357.409 1221.72 Q353.937 1224.8 347.617 1224.8 Q345.441 1224.8 343.173 1224.43 Q340.927 1224.06 338.52 1223.31 L338.52 1218.62 Q340.603 1219.75 342.825 1220.31 Q345.048 1220.86 347.525 1220.86 Q351.529 1220.86 353.867 1218.75 Q356.205 1216.65 356.205 1213.04 Q356.205 1209.43 353.867 1207.32 Q351.529 1205.21 347.525 1205.21 Q345.65 1205.21 343.775 1205.63 Q341.923 1206.05 339.978 1206.93 L339.978 1189.57 Z" fill="#000000" fill-rule="nonzero" fill-opacity="1" /><path clip-path="url(#clip670)" d="M400.6 1220.19 L408.239 1220.19 L408.239 1193.82 L399.929 1195.49 L399.929 1191.23 L408.192 1189.57 L412.868 1189.57 L412.868 1220.19 L420.507 1220.19 L420.507 1224.13 L400.6 1224.13 L400.6 1220.19 Z" fill="#000000" fill-rule="nonzero" fill-opacity="1" /><path clip-path="url(#clip670)" d="M429.952 1218.25 L434.836 1218.25 L434.836 1224.13 L429.952 1224.13 L429.952 1218.25 Z" fill="#000000" fill-rule="nonzero" fill-opacity="1" /><path clip-path="url(#clip670)" d="M455.021 1192.64 Q451.41 1192.64 449.581 1196.21 Q447.776 1199.75 447.776 1206.88 Q447.776 1213.99 449.581 1217.55 Q451.41 1221.09 455.021 1221.09 Q458.655 1221.09 460.461 1217.55 Q462.289 1213.99 462.289 1206.88 Q462.289 1199.75 460.461 1196.21 Q458.655 1192.64 455.021 1192.64 M455.021 1188.94 Q460.831 1188.94 463.887 1193.55 Q466.965 1198.13 466.965 1206.88 Q466.965 1215.61 463.887 1220.21 Q460.831 1224.8 455.021 1224.8 Q449.211 1224.8 446.132 1220.21 Q443.076 1215.61 443.076 1206.88 Q443.076 1198.13 446.132 1193.55 Q449.211 1188.94 455.021 1188.94 Z" fill="#000000" fill-rule="nonzero" fill-opacity="1" /><path clip-path="url(#clip670)" d="M507.726 1220.19 L515.365 1220.19 L515.365 1193.82 L507.055 1195.49 L507.055 1191.23 L515.318 1189.57 L519.994 1189.57 L519.994 1220.19 L527.633 1220.19 L527.633 1224.13 L507.726 1224.13 L507.726 1220.19 Z" fill="#000000" fill-rule="nonzero" fill-opacity="1" /><path clip-path="url(#clip670)" d="M537.078 1218.25 L541.962 1218.25 L541.962 1224.13 L537.078 1224.13 L537.078 1218.25 Z" fill="#000000" fill-rule="nonzero" fill-opacity="1" /><path clip-path="url(#clip670)" d="M552.193 1189.57 L570.55 1189.57 L570.55 1193.5 L556.476 1193.5 L556.476 1201.97 Q557.494 1201.63 558.513 1201.46 Q559.531 1201.28 560.55 1201.28 Q566.337 1201.28 569.716 1204.45 Q573.096 1207.62 573.096 1213.04 Q573.096 1218.62 569.624 1221.72 Q566.151 1224.8 559.832 1224.8 Q557.656 1224.8 555.388 1224.43 Q553.142 1224.06 550.735 1223.31 L550.735 1218.62 Q552.818 1219.75 555.04 1220.31 Q557.263 1220.86 559.739 1220.86 Q563.744 1220.86 566.082 1218.75 Q568.42 1216.65 568.42 1213.04 Q568.42 1209.43 566.082 1207.32 Q563.744 1205.21 559.739 1205.21 Q557.864 1205.21 555.989 1205.63 Q554.138 1206.05 552.193 1206.93 L552.193 1189.57 Z" fill="#000000" fill-rule="nonzero" fill-opacity="1" /><path clip-path="url(#clip670)" d="M617.942 1220.19 L634.261 1220.19 L634.261 1224.13 L612.317 1224.13 L612.317 1220.19 Q614.979 1217.44 619.562 1212.81 Q624.169 1208.15 625.349 1206.81 Q627.595 1204.29 628.474 1202.55 Q629.377 1200.79 629.377 1199.1 Q629.377 1196.35 627.433 1194.61 Q625.511 1192.88 622.41 1192.88 Q620.211 1192.88 617.757 1193.64 Q615.326 1194.4 612.549 1195.95 L612.549 1191.23 Q615.373 1190.1 617.826 1189.52 Q620.28 1188.94 622.317 1188.94 Q627.687 1188.94 630.882 1191.63 Q634.076 1194.31 634.076 1198.8 Q634.076 1200.93 633.266 1202.85 Q632.479 1204.75 630.373 1207.34 Q629.794 1208.01 626.692 1211.23 Q623.59 1214.43 617.942 1220.19 Z" fill="#000000" fill-rule="nonzero" fill-opacity="1" /><path clip-path="url(#clip670)" d="M644.076 1218.25 L648.96 1218.25 L648.96 1224.13 L644.076 1224.13 L644.076 1218.25 Z" fill="#000000" fill-rule="nonzero" fill-opacity="1" /><path clip-path="url(#clip670)" d="M669.145 1192.64 Q665.534 1192.64 663.706 1196.21 Q661.9 1199.75 661.9 1206.88 Q661.9 1213.99 663.706 1217.55 Q665.534 1221.09 669.145 1221.09 Q672.78 1221.09 674.585 1217.55 Q676.414 1213.99 676.414 1206.88 Q676.414 1199.75 674.585 1196.21 Q672.78 1192.64 669.145 1192.64 M669.145 1188.94 Q674.956 1188.94 678.011 1193.55 Q681.09 1198.13 681.09 1206.88 Q681.09 1215.61 678.011 1220.21 Q674.956 1224.8 669.145 1224.8 Q663.335 1224.8 660.257 1220.21 Q657.201 1215.61 657.201 1206.88 Q657.201 1198.13 660.257 1193.55 Q663.335 1188.94 669.145 1188.94 Z" fill="#000000" fill-rule="nonzero" fill-opacity="1" /><path clip-path="url(#clip670)" d="M725.068 1220.19 L741.387 1220.19 L741.387 1224.13 L719.443 1224.13 L719.443 1220.19 Q722.105 1217.44 726.688 1212.81 Q731.295 1208.15 732.475 1206.81 Q734.721 1204.29 735.6 1202.55 Q736.503 1200.79 736.503 1199.1 Q736.503 1196.35 734.559 1194.61 Q732.637 1192.88 729.536 1192.88 Q727.336 1192.88 724.883 1193.64 Q722.452 1194.4 719.675 1195.95 L719.675 1191.23 Q722.499 1190.1 724.952 1189.52 Q727.406 1188.94 729.443 1188.94 Q734.813 1188.94 738.008 1191.63 Q741.202 1194.31 741.202 1198.8 Q741.202 1200.93 740.392 1202.85 Q739.605 1204.75 737.498 1207.34 Q736.92 1208.01 733.818 1211.23 Q730.716 1214.43 725.068 1220.19 Z" fill="#000000" fill-rule="nonzero" fill-opacity="1" /><path clip-path="url(#clip670)" d="M751.202 1218.25 L756.086 1218.25 L756.086 1224.13 L751.202 1224.13 L751.202 1218.25 Z" fill="#000000" fill-rule="nonzero" fill-opacity="1" /><path clip-path="url(#clip670)" d="M766.318 1189.57 L784.674 1189.57 L784.674 1193.5 L770.6 1193.5 L770.6 1201.97 Q771.619 1201.63 772.637 1201.46 Q773.656 1201.28 774.674 1201.28 Q780.461 1201.28 783.841 1204.45 Q787.22 1207.62 787.22 1213.04 Q787.22 1218.62 783.748 1221.72 Q780.276 1224.8 773.957 1224.8 Q771.781 1224.8 769.512 1224.43 Q767.267 1224.06 764.859 1223.31 L764.859 1218.62 Q766.943 1219.75 769.165 1220.31 Q771.387 1220.86 773.864 1220.86 Q777.869 1220.86 780.207 1218.75 Q782.545 1216.65 782.545 1213.04 Q782.545 1209.43 780.207 1207.32 Q777.869 1205.21 773.864 1205.21 Q771.989 1205.21 770.114 1205.63 Q768.262 1206.05 766.318 1206.93 L766.318 1189.57 Z" fill="#000000" fill-rule="nonzero" fill-opacity="1" /><path clip-path="url(#clip670)" d="M841.268 1205.49 Q844.624 1206.21 846.499 1208.48 Q848.398 1210.75 848.398 1214.08 Q848.398 1219.19 844.879 1222 Q841.361 1224.8 834.879 1224.8 Q832.703 1224.8 830.388 1224.36 Q828.097 1223.94 825.643 1223.08 L825.643 1218.57 Q827.587 1219.7 829.902 1220.28 Q832.217 1220.86 834.74 1220.86 Q839.138 1220.86 841.43 1219.13 Q843.745 1217.39 843.745 1214.08 Q843.745 1211.02 841.592 1209.31 Q839.462 1207.57 835.643 1207.57 L831.615 1207.57 L831.615 1203.73 L835.828 1203.73 Q839.277 1203.73 841.106 1202.37 Q842.935 1200.98 842.935 1198.38 Q842.935 1195.72 841.036 1194.31 Q839.162 1192.88 835.643 1192.88 Q833.722 1192.88 831.523 1193.29 Q829.324 1193.71 826.685 1194.59 L826.685 1190.42 Q829.347 1189.68 831.662 1189.31 Q833.999 1188.94 836.06 1188.94 Q841.384 1188.94 844.486 1191.37 Q847.587 1193.78 847.587 1197.9 Q847.587 1200.77 845.944 1202.76 Q844.3 1204.73 841.268 1205.49 Z" fill="#000000" fill-rule="nonzero" fill-opacity="1" /><path clip-path="url(#clip670)" d="M857.263 1218.25 L862.147 1218.25 L862.147 1224.13 L857.263 1224.13 L857.263 1218.25 Z" fill="#000000" fill-rule="nonzero" fill-opacity="1" /><path clip-path="url(#clip670)" d="M882.333 1192.64 Q878.721 1192.64 876.893 1196.21 Q875.087 1199.75 875.087 1206.88 Q875.087 1213.99 876.893 1217.55 Q878.721 1221.09 882.333 1221.09 Q885.967 1221.09 887.772 1217.55 Q889.601 1213.99 889.601 1206.88 Q889.601 1199.75 887.772 1196.21 Q885.967 1192.64 882.333 1192.64 M882.333 1188.94 Q888.143 1188.94 891.198 1193.55 Q894.277 1198.13 894.277 1206.88 Q894.277 1215.61 891.198 1220.21 Q888.143 1224.8 882.333 1224.8 Q876.522 1224.8 873.444 1220.21 Q870.388 1215.61 870.388 1206.88 Q870.388 1198.13 873.444 1193.55 Q876.522 1188.94 882.333 1188.94 Z" fill="#000000" fill-rule="nonzero" fill-opacity="1" /><path clip-path="url(#clip670)" d="M948.394 1205.49 Q951.75 1206.21 953.625 1208.48 Q955.524 1210.75 955.524 1214.08 Q955.524 1219.19 952.005 1222 Q948.487 1224.8 942.005 1224.8 Q939.829 1224.8 937.514 1224.36 Q935.223 1223.94 932.769 1223.08 L932.769 1218.57 Q934.713 1219.7 937.028 1220.28 Q939.343 1220.86 941.866 1220.86 Q946.264 1220.86 948.556 1219.13 Q950.871 1217.39 950.871 1214.08 Q950.871 1211.02 948.718 1209.31 Q946.588 1207.57 942.769 1207.57 L938.741 1207.57 L938.741 1203.73 L942.954 1203.73 Q946.403 1203.73 948.232 1202.37 Q950.061 1200.98 950.061 1198.38 Q950.061 1195.72 948.162 1194.31 Q946.287 1192.88 942.769 1192.88 Q940.848 1192.88 938.649 1193.29 Q936.45 1193.71 933.811 1194.59 L933.811 1190.42 Q936.473 1189.68 938.788 1189.31 Q941.125 1188.94 943.186 1188.94 Q948.51 1188.94 951.612 1191.37 Q954.713 1193.78 954.713 1197.9 Q954.713 1200.77 953.07 1202.76 Q951.426 1204.73 948.394 1205.49 Z" fill="#000000" fill-rule="nonzero" fill-opacity="1" /><path clip-path="url(#clip670)" d="M964.389 1218.25 L969.273 1218.25 L969.273 1224.13 L964.389 1224.13 L964.389 1218.25 Z" fill="#000000" fill-rule="nonzero" fill-opacity="1" /><path clip-path="url(#clip670)" d="M979.505 1189.57 L997.861 1189.57 L997.861 1193.5 L983.787 1193.5 L983.787 1201.97 Q984.806 1201.63 985.824 1201.46 Q986.843 1201.28 987.861 1201.28 Q993.648 1201.28 997.028 1204.45 Q1000.41 1207.62 1000.41 1213.04 Q1000.41 1218.62 996.935 1221.72 Q993.463 1224.8 987.144 1224.8 Q984.968 1224.8 982.699 1224.43 Q980.454 1224.06 978.047 1223.31 L978.047 1218.62 Q980.13 1219.75 982.352 1220.31 Q984.574 1220.86 987.051 1220.86 Q991.056 1220.86 993.394 1218.75 Q995.732 1216.65 995.732 1213.04 Q995.732 1209.43 993.394 1207.32 Q991.056 1205.21 987.051 1205.21 Q985.176 1205.21 983.301 1205.63 Q981.449 1206.05 979.505 1206.93 L979.505 1189.57 Z" fill="#000000" fill-rule="nonzero" fill-opacity="1" /><path clip-path="url(#clip670)" d="M1053.85 1193.64 L1042.05 1212.09 L1053.85 1212.09 L1053.85 1193.64 M1052.63 1189.57 L1058.51 1189.57 L1058.51 1212.09 L1063.44 1212.09 L1063.44 1215.98 L1058.51 1215.98 L1058.51 1224.13 L1053.85 1224.13 L1053.85 1215.98 L1038.25 1215.98 L1038.25 1211.46 L1052.63 1189.57 Z" fill="#000000" fill-rule="nonzero" fill-opacity="1" /><path clip-path="url(#clip670)" d="M1071.17 1218.25 L1076.05 1218.25 L1076.05 1224.13 L1071.17 1224.13 L1071.17 1218.25 Z" fill="#000000" fill-rule="nonzero" fill-opacity="1" /><path clip-path="url(#clip670)" d="M1096.24 1192.64 Q1092.63 1192.64 1090.8 1196.21 Q1088.99 1199.75 1088.99 1206.88 Q1088.99 1213.99 1090.8 1217.55 Q1092.63 1221.09 1096.24 1221.09 Q1099.87 1221.09 1101.68 1217.55 Q1103.51 1213.99 1103.51 1206.88 Q1103.51 1199.75 1101.68 1196.21 Q1099.87 1192.64 1096.24 1192.64 M1096.24 1188.94 Q1102.05 1188.94 1105.1 1193.55 Q1108.18 1198.13 1108.18 1206.88 Q1108.18 1215.61 1105.1 1220.21 Q1102.05 1224.8 1096.24 1224.8 Q1090.43 1224.8 1087.35 1220.21 Q1084.29 1215.61 1084.29 1206.88 Q1084.29 1198.13 1087.35 1193.55 Q1090.43 1188.94 1096.24 1188.94 Z" fill="#000000" fill-rule="nonzero" fill-opacity="1" /><path clip-path="url(#clip670)" d="M1160.98 1193.64 L1149.17 1212.09 L1160.98 1212.09 L1160.98 1193.64 M1159.75 1189.57 L1165.63 1189.57 L1165.63 1212.09 L1170.56 1212.09 L1170.56 1215.98 L1165.63 1215.98 L1165.63 1224.13 L1160.98 1224.13 L1160.98 1215.98 L1145.38 1215.98 L1145.38 1211.46 L1159.75 1189.57 Z" fill="#000000" fill-rule="nonzero" fill-opacity="1" /><path clip-path="url(#clip670)" d="M1178.29 1218.25 L1183.18 1218.25 L1183.18 1224.13 L1178.29 1224.13 L1178.29 1218.25 Z" fill="#000000" fill-rule="nonzero" fill-opacity="1" /><path clip-path="url(#clip670)" d="M1193.41 1189.57 L1211.77 1189.57 L1211.77 1193.5 L1197.69 1193.5 L1197.69 1201.97 Q1198.71 1201.63 1199.73 1201.46 Q1200.75 1201.28 1201.77 1201.28 Q1207.55 1201.28 1210.93 1204.45 Q1214.31 1207.62 1214.31 1213.04 Q1214.31 1218.62 1210.84 1221.72 Q1207.37 1224.8 1201.05 1224.8 Q1198.87 1224.8 1196.6 1224.43 Q1194.36 1224.06 1191.95 1223.31 L1191.95 1218.62 Q1194.03 1219.75 1196.26 1220.31 Q1198.48 1220.86 1200.96 1220.86 Q1204.96 1220.86 1207.3 1218.75 Q1209.64 1216.65 1209.64 1213.04 Q1209.64 1209.43 1207.3 1207.32 Q1204.96 1205.21 1200.96 1205.21 Q1199.08 1205.21 1197.21 1205.63 Q1195.35 1206.05 1193.41 1206.93 L1193.41 1189.57 Z" fill="#000000" fill-rule="nonzero" fill-opacity="1" /><path clip-path="url(#clip670)" d="M1253.64 1189.57 L1271.99 1189.57 L1271.99 1193.5 L1257.92 1193.5 L1257.92 1201.97 Q1258.94 1201.63 1259.96 1201.46 Q1260.98 1201.28 1261.99 1201.28 Q1267.78 1201.28 1271.16 1204.45 Q1274.54 1207.62 1274.54 1213.04 Q1274.54 1218.62 1271.07 1221.72 Q1267.6 1224.8 1261.28 1224.8 Q1259.1 1224.8 1256.83 1224.43 Q1254.59 1224.06 1252.18 1223.31 L1252.18 1218.62 Q1254.26 1219.75 1256.48 1220.31 Q1258.71 1220.86 1261.18 1220.86 Q1265.19 1220.86 1267.53 1218.75 Q1269.86 1216.65 1269.86 1213.04 Q1269.86 1209.43 1267.53 1207.32 Q1265.19 1205.21 1261.18 1205.21 Q1259.31 1205.21 1257.43 1205.63 Q1255.58 1206.05 1253.64 1206.93 L1253.64 1189.57 Z" fill="#000000" fill-rule="nonzero" fill-opacity="1" /><path clip-path="url(#clip670)" d="M1283.75 1218.25 L1288.64 1218.25 L1288.64 1224.13 L1283.75 1224.13 L1283.75 1218.25 Z" fill="#000000" fill-rule="nonzero" fill-opacity="1" /><path clip-path="url(#clip670)" d="M1308.82 1192.64 Q1305.21 1192.64 1303.38 1196.21 Q1301.58 1199.75 1301.58 1206.88 Q1301.58 1213.99 1303.38 1217.55 Q1305.21 1221.09 1308.82 1221.09 Q1312.46 1221.09 1314.26 1217.55 Q1316.09 1213.99 1316.09 1206.88 Q1316.09 1199.75 1314.26 1196.21 Q1312.46 1192.64 1308.82 1192.64 M1308.82 1188.94 Q1314.63 1188.94 1317.69 1193.55 Q1320.77 1198.13 1320.77 1206.88 Q1320.77 1215.61 1317.69 1220.21 Q1314.63 1224.8 1308.82 1224.8 Q1303.01 1224.8 1299.93 1220.21 Q1296.88 1215.61 1296.88 1206.88 Q1296.88 1198.13 1299.93 1193.55 Q1303.01 1188.94 1308.82 1188.94 Z" fill="#000000" fill-rule="nonzero" fill-opacity="1" /><path clip-path="url(#clip670)" d="M1360.76 1189.57 L1379.12 1189.57 L1379.12 1193.5 L1365.05 1193.5 L1365.05 1201.97 Q1366.06 1201.63 1367.08 1201.46 Q1368.1 1201.28 1369.12 1201.28 Q1374.91 1201.28 1378.29 1204.45 Q1381.67 1207.62 1381.67 1213.04 Q1381.67 1218.62 1378.19 1221.72 Q1374.72 1224.8 1368.4 1224.8 Q1366.23 1224.8 1363.96 1224.43 Q1361.71 1224.06 1359.31 1223.31 L1359.31 1218.62 Q1361.39 1219.75 1363.61 1220.31 Q1365.83 1220.86 1368.31 1220.86 Q1372.31 1220.86 1374.65 1218.75 Q1376.99 1216.65 1376.99 1213.04 Q1376.99 1209.43 1374.65 1207.32 Q1372.31 1205.21 1368.31 1205.21 Q1366.43 1205.21 1364.56 1205.63 Q1362.71 1206.05 1360.76 1206.93 L1360.76 1189.57 Z" fill="#000000" fill-rule="nonzero" fill-opacity="1" /><path clip-path="url(#clip670)" d="M1390.88 1218.25 L1395.76 1218.25 L1395.76 1224.13 L1390.88 1224.13 L1390.88 1218.25 Z" fill="#000000" fill-rule="nonzero" fill-opacity="1" /><path clip-path="url(#clip670)" d="M1405.99 1189.57 L1424.35 1189.57 L1424.35 1193.5 L1410.28 1193.5 L1410.28 1201.97 Q1411.3 1201.63 1412.31 1201.46 Q1413.33 1201.28 1414.35 1201.28 Q1420.14 1201.28 1423.52 1204.45 Q1426.9 1207.62 1426.9 1213.04 Q1426.9 1218.62 1423.43 1221.72 Q1419.95 1224.8 1413.63 1224.8 Q1411.46 1224.8 1409.19 1224.43 Q1406.94 1224.06 1404.54 1223.31 L1404.54 1218.62 Q1406.62 1219.75 1408.84 1220.31 Q1411.06 1220.86 1413.54 1220.86 Q1417.55 1220.86 1419.88 1218.75 Q1422.22 1216.65 1422.22 1213.04 Q1422.22 1209.43 1419.88 1207.32 Q1417.55 1205.21 1413.54 1205.21 Q1411.67 1205.21 1409.79 1205.63 Q1407.94 1206.05 1405.99 1206.93 L1405.99 1189.57 Z" fill="#000000" fill-rule="nonzero" fill-opacity="1" /><path clip-path="url(#clip670)" d="M1477.6 1204.98 Q1474.45 1204.98 1472.6 1207.13 Q1470.77 1209.29 1470.77 1213.04 Q1470.77 1216.76 1472.6 1218.94 Q1474.45 1221.09 1477.6 1221.09 Q1480.75 1221.09 1482.58 1218.94 Q1484.43 1216.76 1484.43 1213.04 Q1484.43 1209.29 1482.58 1207.13 Q1480.75 1204.98 1477.6 1204.98 M1486.88 1190.33 L1486.88 1194.59 Q1485.12 1193.75 1483.32 1193.32 Q1481.54 1192.88 1479.78 1192.88 Q1475.15 1192.88 1472.69 1196 Q1470.26 1199.13 1469.92 1205.44 Q1471.28 1203.43 1473.34 1202.37 Q1475.4 1201.28 1477.88 1201.28 Q1483.09 1201.28 1486.1 1204.45 Q1489.13 1207.6 1489.13 1213.04 Q1489.13 1218.36 1485.98 1221.58 Q1482.83 1224.8 1477.6 1224.8 Q1471.6 1224.8 1468.43 1220.21 Q1465.26 1215.61 1465.26 1206.88 Q1465.26 1198.69 1469.15 1193.82 Q1473.04 1188.94 1479.59 1188.94 Q1481.35 1188.94 1483.13 1189.29 Q1484.94 1189.63 1486.88 1190.33 Z" fill="#000000" fill-rule="nonzero" fill-opacity="1" /><path clip-path="url(#clip670)" d="M1497.18 1218.25 L1502.07 1218.25 L1502.07 1224.13 L1497.18 1224.13 L1497.18 1218.25 Z" fill="#000000" fill-rule="nonzero" fill-opacity="1" /><path clip-path="url(#clip670)" d="M1522.25 1192.64 Q1518.64 1192.64 1516.81 1196.21 Q1515.01 1199.75 1515.01 1206.88 Q1515.01 1213.99 1516.81 1217.55 Q1518.64 1221.09 1522.25 1221.09 Q1525.89 1221.09 1527.69 1217.55 Q1529.52 1213.99 1529.52 1206.88 Q1529.52 1199.75 1527.69 1196.21 Q1525.89 1192.64 1522.25 1192.64 M1522.25 1188.94 Q1528.06 1188.94 1531.12 1193.55 Q1534.2 1198.13 1534.2 1206.88 Q1534.2 1215.61 1531.12 1220.21 Q1528.06 1224.8 1522.25 1224.8 Q1516.44 1224.8 1513.36 1220.21 Q1510.31 1215.61 1510.31 1206.88 Q1510.31 1198.13 1513.36 1193.55 Q1516.44 1188.94 1522.25 1188.94 Z" fill="#000000" fill-rule="nonzero" fill-opacity="1" /><path clip-path="url(#clip670)" d="M1584.73 1204.98 Q1581.58 1204.98 1579.73 1207.13 Q1577.9 1209.29 1577.9 1213.04 Q1577.9 1216.76 1579.73 1218.94 Q1581.58 1221.09 1584.73 1221.09 Q1587.87 1221.09 1589.7 1218.94 Q1591.55 1216.76 1591.55 1213.04 Q1591.55 1209.29 1589.7 1207.13 Q1587.87 1204.98 1584.73 1204.98 M1594.01 1190.33 L1594.01 1194.59 Q1592.25 1193.75 1590.44 1193.32 Q1588.66 1192.88 1586.9 1192.88 Q1582.27 1192.88 1579.82 1196 Q1577.39 1199.13 1577.04 1205.44 Q1578.41 1203.43 1580.47 1202.37 Q1582.53 1201.28 1585 1201.28 Q1590.21 1201.28 1593.22 1204.45 Q1596.25 1207.6 1596.25 1213.04 Q1596.25 1218.36 1593.11 1221.58 Q1589.96 1224.8 1584.73 1224.8 Q1578.73 1224.8 1575.56 1220.21 Q1572.39 1215.61 1572.39 1206.88 Q1572.39 1198.69 1576.28 1193.82 Q1580.17 1188.94 1586.72 1188.94 Q1588.48 1188.94 1590.26 1189.29 Q1592.06 1189.63 1594.01 1190.33 Z" fill="#000000" fill-rule="nonzero" fill-opacity="1" /><path clip-path="url(#clip670)" d="M1604.31 1218.25 L1609.19 1218.25 L1609.19 1224.13 L1604.31 1224.13 L1604.31 1218.25 Z" fill="#000000" fill-rule="nonzero" fill-opacity="1" /><path clip-path="url(#clip670)" d="M1619.43 1189.57 L1637.78 1189.57 L1637.78 1193.5 L1623.71 1193.5 L1623.71 1201.97 Q1624.73 1201.63 1625.74 1201.46 Q1626.76 1201.28 1627.78 1201.28 Q1633.57 1201.28 1636.95 1204.45 Q1640.33 1207.62 1640.33 1213.04 Q1640.33 1218.62 1636.86 1221.72 Q1633.38 1224.8 1627.06 1224.8 Q1624.89 1224.8 1622.62 1224.43 Q1620.37 1224.06 1617.97 1223.31 L1617.97 1218.62 Q1620.05 1219.75 1622.27 1220.31 Q1624.49 1220.86 1626.97 1220.86 Q1630.98 1220.86 1633.31 1218.75 Q1635.65 1216.65 1635.65 1213.04 Q1635.65 1209.43 1633.31 1207.32 Q1630.98 1205.21 1626.97 1205.21 Q1625.1 1205.21 1623.22 1205.63 Q1621.37 1206.05 1619.43 1206.93 L1619.43 1189.57 Z" fill="#000000" fill-rule="nonzero" fill-opacity="1" /><path clip-path="url(#clip670)" d="M1678.81 1189.57 L1701.03 1189.57 L1701.03 1191.56 L1688.48 1224.13 L1683.6 1224.13 L1695.41 1193.5 L1678.81 1193.5 L1678.81 1189.57 Z" fill="#000000" fill-rule="nonzero" fill-opacity="1" /><path clip-path="url(#clip670)" d="M1710.15 1218.25 L1715.03 1218.25 L1715.03 1224.13 L1710.15 1224.13 L1710.15 1218.25 Z" fill="#000000" fill-rule="nonzero" fill-opacity="1" /><path clip-path="url(#clip670)" d="M1735.22 1192.64 Q1731.61 1192.64 1729.78 1196.21 Q1727.97 1199.75 1727.97 1206.88 Q1727.97 1213.99 1729.78 1217.55 Q1731.61 1221.09 1735.22 1221.09 Q1738.85 1221.09 1740.66 1217.55 Q1742.49 1213.99 1742.49 1206.88 Q1742.49 1199.75 1740.66 1196.21 Q1738.85 1192.64 1735.22 1192.64 M1735.22 1188.94 Q1741.03 1188.94 1744.09 1193.55 Q1747.16 1198.13 1747.16 1206.88 Q1747.16 1215.61 1744.09 1220.21 Q1741.03 1224.8 1735.22 1224.8 Q1729.41 1224.8 1726.33 1220.21 Q1723.28 1215.61 1723.28 1206.88 Q1723.28 1198.13 1726.33 1193.55 Q1729.41 1188.94 1735.22 1188.94 Z" fill="#000000" fill-rule="nonzero" fill-opacity="1" /><path clip-path="url(#clip670)" d="M1785.93 1189.57 L1808.16 1189.57 L1808.16 1191.56 L1795.61 1224.13 L1790.73 1224.13 L1802.53 1193.5 L1785.93 1193.5 L1785.93 1189.57 Z" fill="#000000" fill-rule="nonzero" fill-opacity="1" /><path clip-path="url(#clip670)" d="M1817.28 1218.25 L1822.16 1218.25 L1822.16 1224.13 L1817.28 1224.13 L1817.28 1218.25 Z" fill="#000000" fill-rule="nonzero" fill-opacity="1" /><path clip-path="url(#clip670)" d="M1832.39 1189.57 L1850.75 1189.57 L1850.75 1193.5 L1836.67 1193.5 L1836.67 1201.97 Q1837.69 1201.63 1838.71 1201.46 Q1839.73 1201.28 1840.75 1201.28 Q1846.54 1201.28 1849.92 1204.45 Q1853.29 1207.62 1853.29 1213.04 Q1853.29 1218.62 1849.82 1221.72 Q1846.35 1224.8 1840.03 1224.8 Q1837.86 1224.8 1835.59 1224.43 Q1833.34 1224.06 1830.93 1223.31 L1830.93 1218.62 Q1833.02 1219.75 1835.24 1220.31 Q1837.46 1220.86 1839.94 1220.86 Q1843.94 1220.86 1846.28 1218.75 Q1848.62 1216.65 1848.62 1213.04 Q1848.62 1209.43 1846.28 1207.32 Q1843.94 1205.21 1839.94 1205.21 Q1838.06 1205.21 1836.19 1205.63 Q1834.34 1206.05 1832.39 1206.93 L1832.39 1189.57 Z" fill="#000000" fill-rule="nonzero" fill-opacity="1" /><path clip-path="url(#clip670)" d="M1903.58 1207.71 Q1900.25 1207.71 1898.33 1209.5 Q1896.43 1211.28 1896.43 1214.4 Q1896.43 1217.53 1898.33 1219.31 Q1900.25 1221.09 1903.58 1221.09 Q1906.91 1221.09 1908.84 1219.31 Q1910.76 1217.5 1910.76 1214.4 Q1910.76 1211.28 1908.84 1209.5 Q1906.94 1207.71 1903.58 1207.71 M1898.9 1205.72 Q1895.9 1204.98 1894.21 1202.92 Q1892.54 1200.86 1892.54 1197.9 Q1892.54 1193.75 1895.48 1191.35 Q1898.44 1188.94 1903.58 1188.94 Q1908.74 1188.94 1911.68 1191.35 Q1914.62 1193.75 1914.62 1197.9 Q1914.62 1200.86 1912.93 1202.92 Q1911.27 1204.98 1908.28 1205.72 Q1911.66 1206.51 1913.53 1208.8 Q1915.43 1211.09 1915.43 1214.4 Q1915.43 1219.43 1912.35 1222.11 Q1909.3 1224.8 1903.58 1224.8 Q1897.86 1224.8 1894.78 1222.11 Q1891.73 1219.43 1891.73 1214.4 Q1891.73 1211.09 1893.63 1208.8 Q1895.53 1206.51 1898.9 1205.72 M1897.19 1198.34 Q1897.19 1201.02 1898.86 1202.53 Q1900.55 1204.03 1903.58 1204.03 Q1906.59 1204.03 1908.28 1202.53 Q1909.99 1201.02 1909.99 1198.34 Q1909.99 1195.65 1908.28 1194.15 Q1906.59 1192.64 1903.58 1192.64 Q1900.55 1192.64 1898.86 1194.15 Q1897.19 1195.65 1897.19 1198.34 Z" fill="#000000" fill-rule="nonzero" fill-opacity="1" /><path clip-path="url(#clip670)" d="M1923.74 1218.25 L1928.63 1218.25 L1928.63 1224.13 L1923.74 1224.13 L1923.74 1218.25 Z" fill="#000000" fill-rule="nonzero" fill-opacity="1" /><path clip-path="url(#clip670)" d="M1948.81 1192.64 Q1945.2 1192.64 1943.37 1196.21 Q1941.57 1199.75 1941.57 1206.88 Q1941.57 1213.99 1943.37 1217.55 Q1945.2 1221.09 1948.81 1221.09 Q1952.45 1221.09 1954.25 1217.55 Q1956.08 1213.99 1956.08 1206.88 Q1956.08 1199.75 1954.25 1196.21 Q1952.45 1192.64 1948.81 1192.64 M1948.81 1188.94 Q1954.62 1188.94 1957.68 1193.55 Q1960.76 1198.13 1960.76 1206.88 Q1960.76 1215.61 1957.68 1220.21 Q1954.62 1224.8 1948.81 1224.8 Q1943 1224.8 1939.92 1220.21 Q1936.87 1215.61 1936.87 1206.88 Q1936.87 1198.13 1939.92 1193.55 Q1943 1188.94 1948.81 1188.94 Z" fill="#000000" fill-rule="nonzero" fill-opacity="1" /><path clip-path="url(#clip670)" d="M2010.71 1207.71 Q2007.37 1207.71 2005.45 1209.5 Q2003.55 1211.28 2003.55 1214.4 Q2003.55 1217.53 2005.45 1219.31 Q2007.37 1221.09 2010.71 1221.09 Q2014.04 1221.09 2015.96 1219.31 Q2017.88 1217.5 2017.88 1214.4 Q2017.88 1211.28 2015.96 1209.5 Q2014.06 1207.71 2010.71 1207.71 M2006.03 1205.72 Q2003.02 1204.98 2001.33 1202.92 Q1999.67 1200.86 1999.67 1197.9 Q1999.67 1193.75 2002.61 1191.35 Q2005.57 1188.94 2010.71 1188.94 Q2015.87 1188.94 2018.81 1191.35 Q2021.75 1193.75 2021.75 1197.9 Q2021.75 1200.86 2020.06 1202.92 Q2018.39 1204.98 2015.41 1205.72 Q2018.79 1206.51 2020.66 1208.8 Q2022.56 1211.09 2022.56 1214.4 Q2022.56 1219.43 2019.48 1222.11 Q2016.42 1224.8 2010.71 1224.8 Q2004.99 1224.8 2001.91 1222.11 Q1998.86 1219.43 1998.86 1214.4 Q1998.86 1211.09 2000.75 1208.8 Q2002.65 1206.51 2006.03 1205.72 M2004.32 1198.34 Q2004.32 1201.02 2005.98 1202.53 Q2007.67 1204.03 2010.71 1204.03 Q2013.72 1204.03 2015.41 1202.53 Q2017.12 1201.02 2017.12 1198.34 Q2017.12 1195.65 2015.41 1194.15 Q2013.72 1192.64 2010.71 1192.64 Q2007.67 1192.64 2005.98 1194.15 Q2004.32 1195.65 2004.32 1198.34 Z" fill="#000000" fill-rule="nonzero" fill-opacity="1" /><path clip-path="url(#clip670)" d="M2030.87 1218.25 L2035.75 1218.25 L2035.75 1224.13 L2030.87 1224.13 L2030.87 1218.25 Z" fill="#000000" fill-rule="nonzero" fill-opacity="1" /><path clip-path="url(#clip670)" d="M2045.98 1189.57 L2064.34 1189.57 L2064.34 1193.5 L2050.27 1193.5 L2050.27 1201.97 Q2051.29 1201.63 2052.3 1201.46 Q2053.32 1201.28 2054.34 1201.28 Q2060.13 1201.28 2063.51 1204.45 Q2066.89 1207.62 2066.89 1213.04 Q2066.89 1218.62 2063.41 1221.72 Q2059.94 1224.8 2053.62 1224.8 Q2051.45 1224.8 2049.18 1224.43 Q2046.93 1224.06 2044.53 1223.31 L2044.53 1218.62 Q2046.61 1219.75 2048.83 1220.31 Q2051.05 1220.86 2053.53 1220.86 Q2057.54 1220.86 2059.87 1218.75 Q2062.21 1216.65 2062.21 1213.04 Q2062.21 1209.43 2059.87 1207.32 Q2057.54 1205.21 2053.53 1205.21 Q2051.66 1205.21 2049.78 1205.63 Q2047.93 1206.05 2045.98 1206.93 L2045.98 1189.57 Z" fill="#000000" fill-rule="nonzero" fill-opacity="1" /><path clip-path="url(#clip670)" d="M2107.09 1223.41 L2107.09 1219.15 Q2108.85 1219.98 2110.66 1220.42 Q2112.46 1220.86 2114.2 1220.86 Q2118.83 1220.86 2121.26 1217.76 Q2123.71 1214.63 2124.06 1208.29 Q2122.72 1210.28 2120.66 1211.35 Q2118.6 1212.41 2116.1 1212.41 Q2110.91 1212.41 2107.88 1209.29 Q2104.87 1206.14 2104.87 1200.7 Q2104.87 1195.38 2108.02 1192.16 Q2111.17 1188.94 2116.4 1188.94 Q2122.39 1188.94 2125.54 1193.55 Q2128.71 1198.13 2128.71 1206.88 Q2128.71 1215.05 2124.82 1219.94 Q2120.96 1224.8 2114.41 1224.8 Q2112.65 1224.8 2110.84 1224.45 Q2109.04 1224.1 2107.09 1223.41 M2116.4 1208.75 Q2119.55 1208.75 2121.37 1206.6 Q2123.23 1204.45 2123.23 1200.7 Q2123.23 1196.97 2121.37 1194.82 Q2119.55 1192.64 2116.4 1192.64 Q2113.25 1192.64 2111.4 1194.82 Q2109.57 1196.97 2109.57 1200.7 Q2109.57 1204.45 2111.4 1206.6 Q2113.25 1208.75 2116.4 1208.75 Z" fill="#000000" fill-rule="nonzero" fill-opacity="1" /><path clip-path="url(#clip670)" d="M2137.12 1218.25 L2142 1218.25 L2142 1224.13 L2137.12 1224.13 L2137.12 1218.25 Z" fill="#000000" fill-rule="nonzero" fill-opacity="1" /><path clip-path="url(#clip670)" d="M2162.18 1192.64 Q2158.57 1192.64 2156.74 1196.21 Q2154.94 1199.75 2154.94 1206.88 Q2154.94 1213.99 2156.74 1217.55 Q2158.57 1221.09 2162.18 1221.09 Q2165.82 1221.09 2167.62 1217.55 Q2169.45 1213.99 2169.45 1206.88 Q2169.45 1199.75 2167.62 1196.21 Q2165.82 1192.64 2162.18 1192.64 M2162.18 1188.94 Q2167.99 1188.94 2171.05 1193.55 Q2174.13 1198.13 2174.13 1206.88 Q2174.13 1215.61 2171.05 1220.21 Q2167.99 1224.8 2162.18 1224.8 Q2156.37 1224.8 2153.3 1220.21 Q2150.24 1215.61 2150.24 1206.88 Q2150.24 1198.13 2153.3 1193.55 Q2156.37 1188.94 2162.18 1188.94 Z" fill="#000000" fill-rule="nonzero" fill-opacity="1" /><path clip-path="url(#clip670)" d="M2214.22 1223.41 L2214.22 1219.15 Q2215.98 1219.98 2217.78 1220.42 Q2219.59 1220.86 2221.32 1220.86 Q2225.95 1220.86 2228.38 1217.76 Q2230.84 1214.63 2231.19 1208.29 Q2229.84 1210.28 2227.78 1211.35 Q2225.72 1212.41 2223.22 1212.41 Q2218.04 1212.41 2215.01 1209.29 Q2212 1206.14 2212 1200.7 Q2212 1195.38 2215.14 1192.16 Q2218.29 1188.94 2223.52 1188.94 Q2229.52 1188.94 2232.67 1193.55 Q2235.84 1198.13 2235.84 1206.88 Q2235.84 1215.05 2231.95 1219.94 Q2228.08 1224.8 2221.53 1224.8 Q2219.77 1224.8 2217.97 1224.45 Q2216.16 1224.1 2214.22 1223.41 M2223.52 1208.75 Q2226.67 1208.75 2228.5 1206.6 Q2230.35 1204.45 2230.35 1200.7 Q2230.35 1196.97 2228.5 1194.82 Q2226.67 1192.64 2223.52 1192.64 Q2220.38 1192.64 2218.52 1194.82 Q2216.69 1196.97 2216.69 1200.7 Q2216.69 1204.45 2218.52 1206.6 Q2220.38 1208.75 2223.52 1208.75 Z" fill="#000000" fill-rule="nonzero" fill-opacity="1" /><path clip-path="url(#clip670)" d="M2244.24 1218.25 L2249.13 1218.25 L2249.13 1224.13 L2244.24 1224.13 L2244.24 1218.25 Z" fill="#000000" fill-rule="nonzero" fill-opacity="1" /><path clip-path="url(#clip670)" d="M2259.36 1189.57 L2277.71 1189.57 L2277.71 1193.5 L2263.64 1193.5 L2263.64 1201.97 Q2264.66 1201.63 2265.68 1201.46 Q2266.69 1201.28 2267.71 1201.28 Q2273.5 1201.28 2276.88 1204.45 Q2280.26 1207.62 2280.26 1213.04 Q2280.26 1218.62 2276.79 1221.72 Q2273.31 1224.8 2267 1224.8 Q2264.82 1224.8 2262.55 1224.43 Q2260.31 1224.06 2257.9 1223.31 L2257.9 1218.62 Q2259.98 1219.75 2262.2 1220.31 Q2264.43 1220.86 2266.9 1220.86 Q2270.91 1220.86 2273.25 1218.75 Q2275.58 1216.65 2275.58 1213.04 Q2275.58 1209.43 2273.25 1207.32 Q2270.91 1205.21 2266.9 1205.21 Q2265.03 1205.21 2263.15 1205.63 Q2261.3 1206.05 2259.36 1206.93 L2259.36 1189.57 Z" fill="#000000" fill-rule="nonzero" fill-opacity="1" /><path clip-path="url(#clip670)" d="M2304.83 1220.19 L2312.47 1220.19 L2312.47 1193.82 L2304.16 1195.49 L2304.16 1191.23 L2312.42 1189.57 L2317.1 1189.57 L2317.1 1220.19 L2324.74 1220.19 L2324.74 1224.13 L2304.83 1224.13 L2304.83 1220.19 Z" fill="#000000" fill-rule="nonzero" fill-opacity="1" /><path clip-path="url(#clip670)" d="M2344.18 1192.64 Q2340.57 1192.64 2338.74 1196.21 Q2336.93 1199.75 2336.93 1206.88 Q2336.93 1213.99 2338.74 1217.55 Q2340.57 1221.09 2344.18 1221.09 Q2347.81 1221.09 2349.62 1217.55 Q2351.45 1213.99 2351.45 1206.88 Q2351.45 1199.75 2349.62 1196.21 Q2347.81 1192.64 2344.18 1192.64 M2344.18 1188.94 Q2349.99 1188.94 2353.05 1193.55 Q2356.12 1198.13 2356.12 1206.88 Q2356.12 1215.61 2353.05 1220.21 Q2349.99 1224.8 2344.18 1224.8 Q2338.37 1224.8 2335.29 1220.21 Q2332.24 1215.61 2332.24 1206.88 Q2332.24 1198.13 2335.29 1193.55 Q2338.37 1188.94 2344.18 1188.94 Z" fill="#000000" fill-rule="nonzero" fill-opacity="1" /><path clip-path="url(#clip670)" d="M2364.34 1218.25 L2369.23 1218.25 L2369.23 1224.13 L2364.34 1224.13 L2364.34 1218.25 Z" fill="#000000" fill-rule="nonzero" fill-opacity="1" /><path clip-path="url(#clip670)" d="M2389.41 1192.64 Q2385.8 1192.64 2383.97 1196.21 Q2382.17 1199.75 2382.17 1206.88 Q2382.17 1213.99 2383.97 1217.55 Q2385.8 1221.09 2389.41 1221.09 Q2393.05 1221.09 2394.85 1217.55 Q2396.68 1213.99 2396.68 1206.88 Q2396.68 1199.75 2394.85 1196.21 Q2393.05 1192.64 2389.41 1192.64 M2389.41 1188.94 Q2395.22 1188.94 2398.28 1193.55 Q2401.36 1198.13 2401.36 1206.88 Q2401.36 1215.61 2398.28 1220.21 Q2395.22 1224.8 2389.41 1224.8 Q2383.6 1224.8 2380.52 1220.21 Q2377.47 1215.61 2377.47 1206.88 Q2377.47 1198.13 2380.52 1193.55 Q2383.6 1188.94 2389.41 1188.94 Z" fill="#000000" fill-rule="nonzero" fill-opacity="1" /><path clip-path="url(#clip670)" d="M1303.09 1270.94 L1290.2 1288.29 L1303.76 1306.59 L1296.85 1306.59 L1286.47 1292.58 L1276.1 1306.59 L1269.19 1306.59 L1283.04 1287.94 L1270.37 1270.94 L1277.27 1270.94 L1286.73 1283.64 L1296.18 1270.94 L1303.09 1270.94 Z" fill="#000000" fill-rule="nonzero" fill-opacity="1" /><polyline clip-path="url(#clip672)" style="stroke:#000000; stroke-linecap:round; stroke-linejoin:round; stroke-width:4; stroke-opacity:1; fill:none" points="220.19,1161.73 2352.76,1161.73 "/>
<polyline clip-path="url(#clip672)" style="stroke:#000000; stroke-linecap:round; stroke-linejoin:round; stroke-width:4; stroke-opacity:1; fill:none" points="220.19,1055.1 2352.76,1055.1 "/>
<polyline clip-path="url(#clip672)" style="stroke:#000000; stroke-linecap:round; stroke-linejoin:round; stroke-width:4; stroke-opacity:1; fill:none" points="220.19,948.469 2352.76,948.469 "/>
<polyline clip-path="url(#clip672)" style="stroke:#000000; stroke-linecap:round; stroke-linejoin:round; stroke-width:4; stroke-opacity:1; fill:none" points="220.19,841.84 2352.76,841.84 "/>
<polyline clip-path="url(#clip672)" style="stroke:#000000; stroke-linecap:round; stroke-linejoin:round; stroke-width:4; stroke-opacity:1; fill:none" points="220.19,735.212 2352.76,735.212 "/>
<polyline clip-path="url(#clip672)" style="stroke:#000000; stroke-linecap:round; stroke-linejoin:round; stroke-width:4; stroke-opacity:1; fill:none" points="220.19,628.584 2352.76,628.584 "/>
<polyline clip-path="url(#clip672)" style="stroke:#000000; stroke-linecap:round; stroke-linejoin:round; stroke-width:4; stroke-opacity:1; fill:none" points="220.19,521.955 2352.76,521.955 "/>
<polyline clip-path="url(#clip672)" style="stroke:#000000; stroke-linecap:round; stroke-linejoin:round; stroke-width:4; stroke-opacity:1; fill:none" points="220.19,415.327 2352.76,415.327 "/>
<polyline clip-path="url(#clip672)" style="stroke:#000000; stroke-linecap:round; stroke-linejoin:round; stroke-width:4; stroke-opacity:1; fill:none" points="220.19,308.699 2352.76,308.699 "/>
<polyline clip-path="url(#clip670)" style="stroke:#000000; stroke-linecap:round; stroke-linejoin:round; stroke-width:4; stroke-opacity:1; fill:none" points="220.19,1161.73 220.19,308.699 "/>
<polyline clip-path="url(#clip670)" style="stroke:#000000; stroke-linecap:round; stroke-linejoin:round; stroke-width:4; stroke-opacity:1; fill:none" points="220.19,1161.73 239.088,1161.73 "/>
<polyline clip-path="url(#clip670)" style="stroke:#000000; stroke-linecap:round; stroke-linejoin:round; stroke-width:4; stroke-opacity:1; fill:none" points="220.19,1055.1 239.088,1055.1 "/>
<polyline clip-path="url(#clip670)" style="stroke:#000000; stroke-linecap:round; stroke-linejoin:round; stroke-width:4; stroke-opacity:1; fill:none" points="220.19,948.469 239.088,948.469 "/>
<polyline clip-path="url(#clip670)" style="stroke:#000000; stroke-linecap:round; stroke-linejoin:round; stroke-width:4; stroke-opacity:1; fill:none" points="220.19,841.84 239.088,841.84 "/>
<polyline clip-path="url(#clip670)" style="stroke:#000000; stroke-linecap:round; stroke-linejoin:round; stroke-width:4; stroke-opacity:1; fill:none" points="220.19,735.212 239.088,735.212 "/>
<polyline clip-path="url(#clip670)" style="stroke:#000000; stroke-linecap:round; stroke-linejoin:round; stroke-width:4; stroke-opacity:1; fill:none" points="220.19,628.584 239.088,628.584 "/>
<polyline clip-path="url(#clip670)" style="stroke:#000000; stroke-linecap:round; stroke-linejoin:round; stroke-width:4; stroke-opacity:1; fill:none" points="220.19,521.955 239.088,521.955 "/>
<polyline clip-path="url(#clip670)" style="stroke:#000000; stroke-linecap:round; stroke-linejoin:round; stroke-width:4; stroke-opacity:1; fill:none" points="220.19,415.327 239.088,415.327 "/>
<polyline clip-path="url(#clip670)" style="stroke:#000000; stroke-linecap:round; stroke-linejoin:round; stroke-width:4; stroke-opacity:1; fill:none" points="220.19,308.699 239.088,308.699 "/>
<path clip-path="url(#clip670)" d="M127.015 1147.52 Q123.404 1147.52 121.575 1151.09 Q119.769 1154.63 119.769 1161.76 Q119.769 1168.87 121.575 1172.43 Q123.404 1175.97 127.015 1175.97 Q130.649 1175.97 132.455 1172.43 Q134.283 1168.87 134.283 1161.76 Q134.283 1154.63 132.455 1151.09 Q130.649 1147.52 127.015 1147.52 M127.015 1143.82 Q132.825 1143.82 135.88 1148.43 Q138.959 1153.01 138.959 1161.76 Q138.959 1170.49 135.88 1175.09 Q132.825 1179.68 127.015 1179.68 Q121.205 1179.68 118.126 1175.09 Q115.07 1170.49 115.07 1161.76 Q115.07 1153.01 118.126 1148.43 Q121.205 1143.82 127.015 1143.82 Z" fill="#000000" fill-rule="nonzero" fill-opacity="1" /><path clip-path="url(#clip670)" d="M147.177 1173.13 L152.061 1173.13 L152.061 1179.01 L147.177 1179.01 L147.177 1173.13 Z" fill="#000000" fill-rule="nonzero" fill-opacity="1" /><path clip-path="url(#clip670)" d="M172.246 1147.52 Q168.635 1147.52 166.806 1151.09 Q165.001 1154.63 165.001 1161.76 Q165.001 1168.87 166.806 1172.43 Q168.635 1175.97 172.246 1175.97 Q175.88 1175.97 177.686 1172.43 Q179.514 1168.87 179.514 1161.76 Q179.514 1154.63 177.686 1151.09 Q175.88 1147.52 172.246 1147.52 M172.246 1143.82 Q178.056 1143.82 181.112 1148.43 Q184.19 1153.01 184.19 1161.76 Q184.19 1170.49 181.112 1175.09 Q178.056 1179.68 172.246 1179.68 Q166.436 1179.68 163.357 1175.09 Q160.302 1170.49 160.302 1161.76 Q160.302 1153.01 163.357 1148.43 Q166.436 1143.82 172.246 1143.82 Z" fill="#000000" fill-rule="nonzero" fill-opacity="1" /><path clip-path="url(#clip670)" d="M128.01 1040.9 Q124.399 1040.9 122.57 1044.46 Q120.765 1048 120.765 1055.13 Q120.765 1062.24 122.57 1065.8 Q124.399 1069.34 128.01 1069.34 Q131.644 1069.34 133.45 1065.8 Q135.279 1062.24 135.279 1055.13 Q135.279 1048 133.45 1044.46 Q131.644 1040.9 128.01 1040.9 M128.01 1037.19 Q133.82 1037.19 136.876 1041.8 Q139.954 1046.38 139.954 1055.13 Q139.954 1063.86 136.876 1068.46 Q133.82 1073.05 128.01 1073.05 Q122.2 1073.05 119.121 1068.46 Q116.066 1063.86 116.066 1055.13 Q116.066 1046.38 119.121 1041.8 Q122.2 1037.19 128.01 1037.19 Z" fill="#000000" fill-rule="nonzero" fill-opacity="1" /><path clip-path="url(#clip670)" d="M148.172 1066.5 L153.056 1066.5 L153.056 1072.38 L148.172 1072.38 L148.172 1066.5 Z" fill="#000000" fill-rule="nonzero" fill-opacity="1" /><path clip-path="url(#clip670)" d="M163.288 1037.82 L181.644 1037.82 L181.644 1041.75 L167.57 1041.75 L167.57 1050.22 Q168.589 1049.88 169.607 1049.71 Q170.626 1049.53 171.644 1049.53 Q177.431 1049.53 180.811 1052.7 Q184.19 1055.87 184.19 1061.29 Q184.19 1066.87 180.718 1069.97 Q177.246 1073.05 170.927 1073.05 Q168.751 1073.05 166.482 1072.68 Q164.237 1072.31 161.829 1071.57 L161.829 1066.87 Q163.913 1068 166.135 1068.56 Q168.357 1069.11 170.834 1069.11 Q174.839 1069.11 177.176 1067.01 Q179.514 1064.9 179.514 1061.29 Q179.514 1057.68 177.176 1055.57 Q174.839 1053.46 170.834 1053.46 Q168.959 1053.46 167.084 1053.88 Q165.232 1054.3 163.288 1055.18 L163.288 1037.82 Z" fill="#000000" fill-rule="nonzero" fill-opacity="1" /><path clip-path="url(#clip670)" d="M117.825 961.813 L125.464 961.813 L125.464 935.448 L117.154 937.114 L117.154 932.855 L125.418 931.189 L130.093 931.189 L130.093 961.813 L137.732 961.813 L137.732 965.749 L117.825 965.749 L117.825 961.813 Z" fill="#000000" fill-rule="nonzero" fill-opacity="1" /><path clip-path="url(#clip670)" d="M147.177 959.869 L152.061 959.869 L152.061 965.749 L147.177 965.749 L147.177 959.869 Z" fill="#000000" fill-rule="nonzero" fill-opacity="1" /><path clip-path="url(#clip670)" d="M172.246 934.267 Q168.635 934.267 166.806 937.832 Q165.001 941.374 165.001 948.503 Q165.001 955.61 166.806 959.174 Q168.635 962.716 172.246 962.716 Q175.88 962.716 177.686 959.174 Q179.514 955.61 179.514 948.503 Q179.514 941.374 177.686 937.832 Q175.88 934.267 172.246 934.267 M172.246 930.564 Q178.056 930.564 181.112 935.17 Q184.19 939.753 184.19 948.503 Q184.19 957.23 181.112 961.837 Q178.056 966.42 172.246 966.42 Q166.436 966.42 163.357 961.837 Q160.302 957.23 160.302 948.503 Q160.302 939.753 163.357 935.17 Q166.436 930.564 172.246 930.564 Z" fill="#000000" fill-rule="nonzero" fill-opacity="1" /><path clip-path="url(#clip670)" d="M118.82 855.185 L126.459 855.185 L126.459 828.819 L118.149 830.486 L118.149 826.227 L126.413 824.56 L131.089 824.56 L131.089 855.185 L138.728 855.185 L138.728 859.12 L118.82 859.12 L118.82 855.185 Z" fill="#000000" fill-rule="nonzero" fill-opacity="1" /><path clip-path="url(#clip670)" d="M148.172 853.241 L153.056 853.241 L153.056 859.12 L148.172 859.12 L148.172 853.241 Z" fill="#000000" fill-rule="nonzero" fill-opacity="1" /><path clip-path="url(#clip670)" d="M163.288 824.56 L181.644 824.56 L181.644 828.495 L167.57 828.495 L167.57 836.968 Q168.589 836.62 169.607 836.458 Q170.626 836.273 171.644 836.273 Q177.431 836.273 180.811 839.444 Q184.19 842.616 184.19 848.032 Q184.19 853.611 180.718 856.713 Q177.246 859.792 170.927 859.792 Q168.751 859.792 166.482 859.421 Q164.237 859.051 161.829 858.31 L161.829 853.611 Q163.913 854.745 166.135 855.301 Q168.357 855.856 170.834 855.856 Q174.839 855.856 177.176 853.75 Q179.514 851.643 179.514 848.032 Q179.514 844.421 177.176 842.315 Q174.839 840.208 170.834 840.208 Q168.959 840.208 167.084 840.625 Q165.232 841.042 163.288 841.921 L163.288 824.56 Z" fill="#000000" fill-rule="nonzero" fill-opacity="1" /><path clip-path="url(#clip670)" d="M121.043 748.557 L137.362 748.557 L137.362 752.492 L115.418 752.492 L115.418 748.557 Q118.08 745.802 122.663 741.173 Q127.269 736.52 128.45 735.177 Q130.695 732.654 131.575 730.918 Q132.478 729.159 132.478 727.469 Q132.478 724.714 130.533 722.978 Q128.612 721.242 125.51 721.242 Q123.311 721.242 120.857 722.006 Q118.427 722.77 115.649 724.321 L115.649 719.599 Q118.473 718.464 120.927 717.886 Q123.38 717.307 125.418 717.307 Q130.788 717.307 133.982 719.992 Q137.177 722.677 137.177 727.168 Q137.177 729.298 136.367 731.219 Q135.579 733.117 133.473 735.71 Q132.894 736.381 129.792 739.599 Q126.691 742.793 121.043 748.557 Z" fill="#000000" fill-rule="nonzero" fill-opacity="1" /><path clip-path="url(#clip670)" d="M147.177 746.612 L152.061 746.612 L152.061 752.492 L147.177 752.492 L147.177 746.612 Z" fill="#000000" fill-rule="nonzero" fill-opacity="1" /><path clip-path="url(#clip670)" d="M172.246 721.011 Q168.635 721.011 166.806 724.575 Q165.001 728.117 165.001 735.247 Q165.001 742.353 166.806 745.918 Q168.635 749.46 172.246 749.46 Q175.88 749.46 177.686 745.918 Q179.514 742.353 179.514 735.247 Q179.514 728.117 177.686 724.575 Q175.88 721.011 172.246 721.011 M172.246 717.307 Q178.056 717.307 181.112 721.913 Q184.19 726.497 184.19 735.247 Q184.19 743.973 181.112 748.58 Q178.056 753.163 172.246 753.163 Q166.436 753.163 163.357 748.58 Q160.302 743.973 160.302 735.247 Q160.302 726.497 163.357 721.913 Q166.436 717.307 172.246 717.307 Z" fill="#000000" fill-rule="nonzero" fill-opacity="1" /><path clip-path="url(#clip670)" d="M122.038 641.929 L138.357 641.929 L138.357 645.864 L116.413 645.864 L116.413 641.929 Q119.075 639.174 123.658 634.544 Q128.265 629.892 129.445 628.549 Q131.691 626.026 132.57 624.29 Q133.473 622.53 133.473 620.841 Q133.473 618.086 131.529 616.35 Q129.607 614.614 126.505 614.614 Q124.306 614.614 121.853 615.378 Q119.422 616.142 116.644 617.693 L116.644 612.97 Q119.468 611.836 121.922 611.257 Q124.376 610.679 126.413 610.679 Q131.783 610.679 134.978 613.364 Q138.172 616.049 138.172 620.54 Q138.172 622.669 137.362 624.591 Q136.575 626.489 134.468 629.081 Q133.89 629.753 130.788 632.97 Q127.686 636.165 122.038 641.929 Z" fill="#000000" fill-rule="nonzero" fill-opacity="1" /><path clip-path="url(#clip670)" d="M148.172 639.984 L153.056 639.984 L153.056 645.864 L148.172 645.864 L148.172 639.984 Z" fill="#000000" fill-rule="nonzero" fill-opacity="1" /><path clip-path="url(#clip670)" d="M163.288 611.304 L181.644 611.304 L181.644 615.239 L167.57 615.239 L167.57 623.711 Q168.589 623.364 169.607 623.202 Q170.626 623.017 171.644 623.017 Q177.431 623.017 180.811 626.188 Q184.19 629.359 184.19 634.776 Q184.19 640.354 180.718 643.456 Q177.246 646.535 170.927 646.535 Q168.751 646.535 166.482 646.165 Q164.237 645.794 161.829 645.054 L161.829 640.354 Q163.913 641.489 166.135 642.044 Q168.357 642.6 170.834 642.6 Q174.839 642.6 177.176 640.493 Q179.514 638.387 179.514 634.776 Q179.514 631.165 177.176 629.058 Q174.839 626.952 170.834 626.952 Q168.959 626.952 167.084 627.368 Q165.232 627.785 163.288 628.665 L163.288 611.304 Z" fill="#000000" fill-rule="nonzero" fill-opacity="1" /><path clip-path="url(#clip670)" d="M131.181 520.601 Q134.538 521.319 136.413 523.587 Q138.311 525.856 138.311 529.189 Q138.311 534.305 134.792 537.106 Q131.274 539.907 124.793 539.907 Q122.617 539.907 120.302 539.467 Q118.01 539.05 115.556 538.194 L115.556 533.68 Q117.501 534.814 119.816 535.393 Q122.13 535.972 124.654 535.972 Q129.052 535.972 131.343 534.235 Q133.658 532.499 133.658 529.189 Q133.658 526.134 131.505 524.421 Q129.376 522.685 125.556 522.685 L121.529 522.685 L121.529 518.842 L125.742 518.842 Q129.191 518.842 131.019 517.476 Q132.848 516.087 132.848 513.495 Q132.848 510.833 130.95 509.421 Q129.075 507.986 125.556 507.986 Q123.635 507.986 121.436 508.402 Q119.237 508.819 116.598 509.699 L116.598 505.532 Q119.26 504.791 121.575 504.421 Q123.913 504.05 125.973 504.05 Q131.297 504.05 134.399 506.481 Q137.501 508.888 137.501 513.009 Q137.501 515.879 135.857 517.87 Q134.214 519.837 131.181 520.601 Z" fill="#000000" fill-rule="nonzero" fill-opacity="1" /><path clip-path="url(#clip670)" d="M147.177 533.356 L152.061 533.356 L152.061 539.235 L147.177 539.235 L147.177 533.356 Z" fill="#000000" fill-rule="nonzero" fill-opacity="1" /><path clip-path="url(#clip670)" d="M172.246 507.754 Q168.635 507.754 166.806 511.319 Q165.001 514.861 165.001 521.99 Q165.001 529.097 166.806 532.661 Q168.635 536.203 172.246 536.203 Q175.88 536.203 177.686 532.661 Q179.514 529.097 179.514 521.99 Q179.514 514.861 177.686 511.319 Q175.88 507.754 172.246 507.754 M172.246 504.05 Q178.056 504.05 181.112 508.657 Q184.19 513.24 184.19 521.99 Q184.19 530.717 181.112 535.323 Q178.056 539.907 172.246 539.907 Q166.436 539.907 163.357 535.323 Q160.302 530.717 160.302 521.99 Q160.302 513.24 163.357 508.657 Q166.436 504.05 172.246 504.05 Z" fill="#000000" fill-rule="nonzero" fill-opacity="1" /><path clip-path="url(#clip670)" d="M132.177 413.973 Q135.533 414.691 137.408 416.959 Q139.306 419.228 139.306 422.561 Q139.306 427.677 135.788 430.478 Q132.269 433.278 125.788 433.278 Q123.612 433.278 121.297 432.839 Q119.006 432.422 116.552 431.565 L116.552 427.052 Q118.496 428.186 120.811 428.765 Q123.126 429.343 125.649 429.343 Q130.047 429.343 132.339 427.607 Q134.654 425.871 134.654 422.561 Q134.654 419.505 132.501 417.792 Q130.371 416.056 126.552 416.056 L122.524 416.056 L122.524 412.214 L126.737 412.214 Q130.186 412.214 132.015 410.848 Q133.843 409.459 133.843 406.867 Q133.843 404.205 131.945 402.792 Q130.07 401.357 126.552 401.357 Q124.63 401.357 122.431 401.774 Q120.232 402.191 117.593 403.07 L117.593 398.904 Q120.255 398.163 122.57 397.793 Q124.908 397.422 126.968 397.422 Q132.292 397.422 135.394 399.853 Q138.496 402.26 138.496 406.38 Q138.496 409.251 136.853 411.242 Q135.209 413.209 132.177 413.973 Z" fill="#000000" fill-rule="nonzero" fill-opacity="1" /><path clip-path="url(#clip670)" d="M148.172 426.728 L153.056 426.728 L153.056 432.607 L148.172 432.607 L148.172 426.728 Z" fill="#000000" fill-rule="nonzero" fill-opacity="1" /><path clip-path="url(#clip670)" d="M163.288 398.047 L181.644 398.047 L181.644 401.982 L167.57 401.982 L167.57 410.454 Q168.589 410.107 169.607 409.945 Q170.626 409.76 171.644 409.76 Q177.431 409.76 180.811 412.931 Q184.19 416.103 184.19 421.519 Q184.19 427.098 180.718 430.2 Q177.246 433.278 170.927 433.278 Q168.751 433.278 166.482 432.908 Q164.237 432.538 161.829 431.797 L161.829 427.098 Q163.913 428.232 166.135 428.788 Q168.357 429.343 170.834 429.343 Q174.839 429.343 177.176 427.237 Q179.514 425.13 179.514 421.519 Q179.514 417.908 177.176 415.802 Q174.839 413.695 170.834 413.695 Q168.959 413.695 167.084 414.112 Q165.232 414.529 163.288 415.408 L163.288 398.047 Z" fill="#000000" fill-rule="nonzero" fill-opacity="1" /><path clip-path="url(#clip670)" d="M129.862 295.493 L118.056 313.942 L129.862 313.942 L129.862 295.493 M128.635 291.419 L134.515 291.419 L134.515 313.942 L139.445 313.942 L139.445 317.831 L134.515 317.831 L134.515 325.979 L129.862 325.979 L129.862 317.831 L114.26 317.831 L114.26 313.317 L128.635 291.419 Z" fill="#000000" fill-rule="nonzero" fill-opacity="1" /><path clip-path="url(#clip670)" d="M147.177 320.099 L152.061 320.099 L152.061 325.979 L147.177 325.979 L147.177 320.099 Z" fill="#000000" fill-rule="nonzero" fill-opacity="1" /><path clip-path="url(#clip670)" d="M172.246 294.498 Q168.635 294.498 166.806 298.062 Q165.001 301.604 165.001 308.734 Q165.001 315.84 166.806 319.405 Q168.635 322.946 172.246 322.946 Q175.88 322.946 177.686 319.405 Q179.514 315.84 179.514 308.734 Q179.514 301.604 177.686 298.062 Q175.88 294.498 172.246 294.498 M172.246 290.794 Q178.056 290.794 181.112 295.4 Q184.19 299.984 184.19 308.734 Q184.19 317.46 181.112 322.067 Q178.056 326.65 172.246 326.65 Q166.436 326.65 163.357 322.067 Q160.302 317.46 160.302 308.734 Q160.302 299.984 163.357 295.4 Q166.436 290.794 172.246 290.794 Z" fill="#000000" fill-rule="nonzero" fill-opacity="1" /><path clip-path="url(#clip670)" d="M67.3143 733.525 Q73.68 736.008 75.6216 738.363 Q77.5631 740.718 77.5631 744.665 L77.5631 749.344 L72.6615 749.344 L72.6615 745.906 Q72.6615 743.487 71.5157 742.151 Q70.3699 740.814 66.1048 739.191 L63.4312 738.14 L28.3562 752.559 L28.3562 746.352 L56.238 735.212 L28.3562 724.072 L28.3562 717.865 L67.3143 733.525 Z" fill="#000000" fill-rule="nonzero" fill-opacity="1" /><circle clip-path="url(#clip672)" cx="220.19" cy="1161.73" r="14.4" fill="#009af9" fill-rule="evenodd" fill-opacity="0" stroke="#000000" stroke-opacity="0" stroke-width="3.2"/>
<circle clip-path="url(#clip672)" cx="220.19" cy="1055.1" r="14.4" fill="#009af9" fill-rule="evenodd" fill-opacity="0" stroke="#000000" stroke-opacity="0" stroke-width="3.2"/>
<circle clip-path="url(#clip672)" cx="220.19" cy="948.469" r="14.4" fill="#009af9" fill-rule="evenodd" fill-opacity="0" stroke="#000000" stroke-opacity="0" stroke-width="3.2"/>
<circle clip-path="url(#clip672)" cx="220.19" cy="841.84" r="14.4" fill="#009af9" fill-rule="evenodd" fill-opacity="0" stroke="#000000" stroke-opacity="0" stroke-width="3.2"/>
<circle clip-path="url(#clip672)" cx="220.19" cy="735.212" r="14.4" fill="#009af9" fill-rule="evenodd" fill-opacity="0" stroke="#000000" stroke-opacity="0" stroke-width="3.2"/>
<circle clip-path="url(#clip672)" cx="220.19" cy="628.584" r="14.4" fill="#009af9" fill-rule="evenodd" fill-opacity="0" stroke="#000000" stroke-opacity="0" stroke-width="3.2"/>
<circle clip-path="url(#clip672)" cx="220.19" cy="521.955" r="14.4" fill="#009af9" fill-rule="evenodd" fill-opacity="0" stroke="#000000" stroke-opacity="0" stroke-width="3.2"/>
<circle clip-path="url(#clip672)" cx="220.19" cy="415.327" r="14.4" fill="#009af9" fill-rule="evenodd" fill-opacity="0" stroke="#000000" stroke-opacity="0" stroke-width="3.2"/>
<circle clip-path="url(#clip672)" cx="220.19" cy="308.699" r="14.4" fill="#009af9" fill-rule="evenodd" fill-opacity="0" stroke="#000000" stroke-opacity="0" stroke-width="3.2"/>
<circle clip-path="url(#clip672)" cx="326.819" cy="1161.73" r="14.4" fill="#009af9" fill-rule="evenodd" fill-opacity="0" stroke="#000000" stroke-opacity="0" stroke-width="3.2"/>
<circle clip-path="url(#clip672)" cx="326.819" cy="1055.1" r="14.4" fill="#009af9" fill-rule="evenodd" fill-opacity="0" stroke="#000000" stroke-opacity="0" stroke-width="3.2"/>
<circle clip-path="url(#clip672)" cx="326.819" cy="948.469" r="14.4" fill="#009af9" fill-rule="evenodd" fill-opacity="0" stroke="#000000" stroke-opacity="0" stroke-width="3.2"/>
<circle clip-path="url(#clip672)" cx="326.819" cy="841.84" r="14.4" fill="#009af9" fill-rule="evenodd" fill-opacity="0" stroke="#000000" stroke-opacity="0" stroke-width="3.2"/>
<circle clip-path="url(#clip672)" cx="326.819" cy="735.212" r="14.4" fill="#009af9" fill-rule="evenodd" fill-opacity="0" stroke="#000000" stroke-opacity="0" stroke-width="3.2"/>
<circle clip-path="url(#clip672)" cx="326.819" cy="628.584" r="14.4" fill="#009af9" fill-rule="evenodd" fill-opacity="0" stroke="#000000" stroke-opacity="0" stroke-width="3.2"/>
<circle clip-path="url(#clip672)" cx="326.819" cy="521.955" r="14.4" fill="#009af9" fill-rule="evenodd" fill-opacity="0" stroke="#000000" stroke-opacity="0" stroke-width="3.2"/>
<circle clip-path="url(#clip672)" cx="326.819" cy="415.327" r="14.4" fill="#009af9" fill-rule="evenodd" fill-opacity="0" stroke="#000000" stroke-opacity="0" stroke-width="3.2"/>
<circle clip-path="url(#clip672)" cx="326.819" cy="308.699" r="14.4" fill="#009af9" fill-rule="evenodd" fill-opacity="0" stroke="#000000" stroke-opacity="0" stroke-width="3.2"/>
<circle clip-path="url(#clip672)" cx="433.447" cy="1161.73" r="14.4" fill="#009af9" fill-rule="evenodd" fill-opacity="0" stroke="#000000" stroke-opacity="0" stroke-width="3.2"/>
<circle clip-path="url(#clip672)" cx="433.447" cy="1055.1" r="14.4" fill="#009af9" fill-rule="evenodd" fill-opacity="0" stroke="#000000" stroke-opacity="0" stroke-width="3.2"/>
<circle clip-path="url(#clip672)" cx="433.447" cy="948.469" r="14.4" fill="#009af9" fill-rule="evenodd" fill-opacity="0" stroke="#000000" stroke-opacity="0" stroke-width="3.2"/>
<circle clip-path="url(#clip672)" cx="433.447" cy="841.84" r="14.4" fill="#009af9" fill-rule="evenodd" fill-opacity="0" stroke="#000000" stroke-opacity="0" stroke-width="3.2"/>
<circle clip-path="url(#clip672)" cx="433.447" cy="735.212" r="14.4" fill="#009af9" fill-rule="evenodd" fill-opacity="0" stroke="#000000" stroke-opacity="0" stroke-width="3.2"/>
<circle clip-path="url(#clip672)" cx="433.447" cy="628.584" r="14.4" fill="#009af9" fill-rule="evenodd" fill-opacity="0" stroke="#000000" stroke-opacity="0" stroke-width="3.2"/>
<circle clip-path="url(#clip672)" cx="433.447" cy="521.955" r="14.4" fill="#009af9" fill-rule="evenodd" fill-opacity="0" stroke="#000000" stroke-opacity="0" stroke-width="3.2"/>
<circle clip-path="url(#clip672)" cx="433.447" cy="415.327" r="14.4" fill="#009af9" fill-rule="evenodd" fill-opacity="0" stroke="#000000" stroke-opacity="0" stroke-width="3.2"/>
<circle clip-path="url(#clip672)" cx="433.447" cy="308.699" r="14.4" fill="#009af9" fill-rule="evenodd" fill-opacity="0" stroke="#000000" stroke-opacity="0" stroke-width="3.2"/>
<circle clip-path="url(#clip672)" cx="540.075" cy="1161.73" r="14.4" fill="#009af9" fill-rule="evenodd" fill-opacity="0" stroke="#000000" stroke-opacity="0" stroke-width="3.2"/>
<circle clip-path="url(#clip672)" cx="540.075" cy="1055.1" r="14.4" fill="#009af9" fill-rule="evenodd" fill-opacity="0" stroke="#000000" stroke-opacity="0" stroke-width="3.2"/>
<circle clip-path="url(#clip672)" cx="540.075" cy="948.469" r="14.4" fill="#009af9" fill-rule="evenodd" fill-opacity="0" stroke="#000000" stroke-opacity="0" stroke-width="3.2"/>
<circle clip-path="url(#clip672)" cx="540.075" cy="841.84" r="14.4" fill="#009af9" fill-rule="evenodd" fill-opacity="0" stroke="#000000" stroke-opacity="0" stroke-width="3.2"/>
<circle clip-path="url(#clip672)" cx="540.075" cy="735.212" r="14.4" fill="#009af9" fill-rule="evenodd" fill-opacity="0" stroke="#000000" stroke-opacity="0" stroke-width="3.2"/>
<circle clip-path="url(#clip672)" cx="540.075" cy="628.584" r="14.4" fill="#009af9" fill-rule="evenodd" fill-opacity="0" stroke="#000000" stroke-opacity="0" stroke-width="3.2"/>
<circle clip-path="url(#clip672)" cx="540.075" cy="521.955" r="14.4" fill="#009af9" fill-rule="evenodd" fill-opacity="0" stroke="#000000" stroke-opacity="0" stroke-width="3.2"/>
<circle clip-path="url(#clip672)" cx="540.075" cy="415.327" r="14.4" fill="#009af9" fill-rule="evenodd" fill-opacity="0" stroke="#000000" stroke-opacity="0" stroke-width="3.2"/>
<circle clip-path="url(#clip672)" cx="540.075" cy="308.699" r="14.4" fill="#009af9" fill-rule="evenodd" fill-opacity="0" stroke="#000000" stroke-opacity="0" stroke-width="3.2"/>
<circle clip-path="url(#clip672)" cx="646.703" cy="1161.73" r="14.4" fill="#009af9" fill-rule="evenodd" fill-opacity="0" stroke="#000000" stroke-opacity="0" stroke-width="3.2"/>
<circle clip-path="url(#clip672)" cx="646.703" cy="1055.1" r="14.4" fill="#009af9" fill-rule="evenodd" fill-opacity="0" stroke="#000000" stroke-opacity="0" stroke-width="3.2"/>
<circle clip-path="url(#clip672)" cx="646.703" cy="948.469" r="14.4" fill="#009af9" fill-rule="evenodd" fill-opacity="0" stroke="#000000" stroke-opacity="0" stroke-width="3.2"/>
<circle clip-path="url(#clip672)" cx="646.703" cy="841.84" r="14.4" fill="#009af9" fill-rule="evenodd" fill-opacity="0" stroke="#000000" stroke-opacity="0" stroke-width="3.2"/>
<circle clip-path="url(#clip672)" cx="646.703" cy="735.212" r="14.4" fill="#009af9" fill-rule="evenodd" fill-opacity="0" stroke="#000000" stroke-opacity="0" stroke-width="3.2"/>
<circle clip-path="url(#clip672)" cx="646.703" cy="628.584" r="14.4" fill="#009af9" fill-rule="evenodd" fill-opacity="0" stroke="#000000" stroke-opacity="0" stroke-width="3.2"/>
<circle clip-path="url(#clip672)" cx="646.703" cy="521.955" r="14.4" fill="#009af9" fill-rule="evenodd" fill-opacity="0" stroke="#000000" stroke-opacity="0" stroke-width="3.2"/>
<circle clip-path="url(#clip672)" cx="646.703" cy="415.327" r="14.4" fill="#009af9" fill-rule="evenodd" fill-opacity="0" stroke="#000000" stroke-opacity="0" stroke-width="3.2"/>
<circle clip-path="url(#clip672)" cx="646.703" cy="308.699" r="14.4" fill="#009af9" fill-rule="evenodd" fill-opacity="0" stroke="#000000" stroke-opacity="0" stroke-width="3.2"/>
<circle clip-path="url(#clip672)" cx="753.332" cy="1161.73" r="14.4" fill="#009af9" fill-rule="evenodd" fill-opacity="0" stroke="#000000" stroke-opacity="0" stroke-width="3.2"/>
<circle clip-path="url(#clip672)" cx="753.332" cy="1055.1" r="14.4" fill="#009af9" fill-rule="evenodd" fill-opacity="0" stroke="#000000" stroke-opacity="0" stroke-width="3.2"/>
<circle clip-path="url(#clip672)" cx="753.332" cy="948.469" r="14.4" fill="#009af9" fill-rule="evenodd" fill-opacity="0" stroke="#000000" stroke-opacity="0" stroke-width="3.2"/>
<circle clip-path="url(#clip672)" cx="753.332" cy="841.84" r="14.4" fill="#009af9" fill-rule="evenodd" fill-opacity="0" stroke="#000000" stroke-opacity="0" stroke-width="3.2"/>
<circle clip-path="url(#clip672)" cx="753.332" cy="735.212" r="14.4" fill="#009af9" fill-rule="evenodd" fill-opacity="0" stroke="#000000" stroke-opacity="0" stroke-width="3.2"/>
<circle clip-path="url(#clip672)" cx="753.332" cy="628.584" r="14.4" fill="#009af9" fill-rule="evenodd" fill-opacity="0" stroke="#000000" stroke-opacity="0" stroke-width="3.2"/>
<circle clip-path="url(#clip672)" cx="753.332" cy="521.955" r="14.4" fill="#009af9" fill-rule="evenodd" fill-opacity="0" stroke="#000000" stroke-opacity="0" stroke-width="3.2"/>
<circle clip-path="url(#clip672)" cx="753.332" cy="415.327" r="14.4" fill="#009af9" fill-rule="evenodd" fill-opacity="0" stroke="#000000" stroke-opacity="0" stroke-width="3.2"/>
<circle clip-path="url(#clip672)" cx="753.332" cy="308.699" r="14.4" fill="#009af9" fill-rule="evenodd" fill-opacity="0" stroke="#000000" stroke-opacity="0" stroke-width="3.2"/>
<circle clip-path="url(#clip672)" cx="859.96" cy="1161.73" r="14.4" fill="#009af9" fill-rule="evenodd" fill-opacity="0" stroke="#000000" stroke-opacity="0" stroke-width="3.2"/>
<circle clip-path="url(#clip672)" cx="859.96" cy="1055.1" r="14.4" fill="#009af9" fill-rule="evenodd" fill-opacity="0" stroke="#000000" stroke-opacity="0" stroke-width="3.2"/>
<circle clip-path="url(#clip672)" cx="859.96" cy="948.469" r="14.4" fill="#009af9" fill-rule="evenodd" fill-opacity="0" stroke="#000000" stroke-opacity="0" stroke-width="3.2"/>
<circle clip-path="url(#clip672)" cx="859.96" cy="841.84" r="14.4" fill="#009af9" fill-rule="evenodd" fill-opacity="0" stroke="#000000" stroke-opacity="0" stroke-width="3.2"/>
<circle clip-path="url(#clip672)" cx="859.96" cy="735.212" r="14.4" fill="#009af9" fill-rule="evenodd" fill-opacity="0" stroke="#000000" stroke-opacity="0" stroke-width="3.2"/>
<circle clip-path="url(#clip672)" cx="859.96" cy="628.584" r="14.4" fill="#009af9" fill-rule="evenodd" fill-opacity="0" stroke="#000000" stroke-opacity="0" stroke-width="3.2"/>
<circle clip-path="url(#clip672)" cx="859.96" cy="521.955" r="14.4" fill="#009af9" fill-rule="evenodd" fill-opacity="0" stroke="#000000" stroke-opacity="0" stroke-width="3.2"/>
<circle clip-path="url(#clip672)" cx="859.96" cy="415.327" r="14.4" fill="#009af9" fill-rule="evenodd" fill-opacity="0" stroke="#000000" stroke-opacity="0" stroke-width="3.2"/>
<circle clip-path="url(#clip672)" cx="859.96" cy="308.699" r="14.4" fill="#009af9" fill-rule="evenodd" fill-opacity="0" stroke="#000000" stroke-opacity="0" stroke-width="3.2"/>
<circle clip-path="url(#clip672)" cx="966.588" cy="1161.73" r="14.4" fill="#009af9" fill-rule="evenodd" fill-opacity="0" stroke="#000000" stroke-opacity="0" stroke-width="3.2"/>
<circle clip-path="url(#clip672)" cx="966.588" cy="1055.1" r="14.4" fill="#009af9" fill-rule="evenodd" fill-opacity="0" stroke="#000000" stroke-opacity="0" stroke-width="3.2"/>
<circle clip-path="url(#clip672)" cx="966.588" cy="948.469" r="14.4" fill="#009af9" fill-rule="evenodd" fill-opacity="0" stroke="#000000" stroke-opacity="0" stroke-width="3.2"/>
<circle clip-path="url(#clip672)" cx="966.588" cy="841.84" r="14.4" fill="#009af9" fill-rule="evenodd" fill-opacity="0" stroke="#000000" stroke-opacity="0" stroke-width="3.2"/>
<circle clip-path="url(#clip672)" cx="966.588" cy="735.212" r="14.4" fill="#009af9" fill-rule="evenodd" fill-opacity="0" stroke="#000000" stroke-opacity="0" stroke-width="3.2"/>
<circle clip-path="url(#clip672)" cx="966.588" cy="628.584" r="14.4" fill="#009af9" fill-rule="evenodd" fill-opacity="0" stroke="#000000" stroke-opacity="0" stroke-width="3.2"/>
<circle clip-path="url(#clip672)" cx="966.588" cy="521.955" r="14.4" fill="#009af9" fill-rule="evenodd" fill-opacity="0" stroke="#000000" stroke-opacity="0" stroke-width="3.2"/>
<circle clip-path="url(#clip672)" cx="966.588" cy="415.327" r="14.4" fill="#009af9" fill-rule="evenodd" fill-opacity="0" stroke="#000000" stroke-opacity="0" stroke-width="3.2"/>
<circle clip-path="url(#clip672)" cx="966.588" cy="308.699" r="14.4" fill="#009af9" fill-rule="evenodd" fill-opacity="0" stroke="#000000" stroke-opacity="0" stroke-width="3.2"/>
<circle clip-path="url(#clip672)" cx="1073.22" cy="1161.73" r="14.4" fill="#009af9" fill-rule="evenodd" fill-opacity="0" stroke="#000000" stroke-opacity="0" stroke-width="3.2"/>
<circle clip-path="url(#clip672)" cx="1073.22" cy="1055.1" r="14.4" fill="#009af9" fill-rule="evenodd" fill-opacity="0" stroke="#000000" stroke-opacity="0" stroke-width="3.2"/>
<circle clip-path="url(#clip672)" cx="1073.22" cy="948.469" r="14.4" fill="#009af9" fill-rule="evenodd" fill-opacity="0" stroke="#000000" stroke-opacity="0" stroke-width="3.2"/>
<circle clip-path="url(#clip672)" cx="1073.22" cy="841.84" r="14.4" fill="#009af9" fill-rule="evenodd" fill-opacity="0" stroke="#000000" stroke-opacity="0" stroke-width="3.2"/>
<circle clip-path="url(#clip672)" cx="1073.22" cy="735.212" r="14.4" fill="#009af9" fill-rule="evenodd" fill-opacity="0" stroke="#000000" stroke-opacity="0" stroke-width="3.2"/>
<circle clip-path="url(#clip672)" cx="1073.22" cy="628.584" r="14.4" fill="#009af9" fill-rule="evenodd" fill-opacity="0" stroke="#000000" stroke-opacity="0" stroke-width="3.2"/>
<circle clip-path="url(#clip672)" cx="1073.22" cy="521.955" r="14.4" fill="#009af9" fill-rule="evenodd" fill-opacity="0" stroke="#000000" stroke-opacity="0" stroke-width="3.2"/>
<circle clip-path="url(#clip672)" cx="1073.22" cy="415.327" r="14.4" fill="#009af9" fill-rule="evenodd" fill-opacity="0" stroke="#000000" stroke-opacity="0" stroke-width="3.2"/>
<circle clip-path="url(#clip672)" cx="1073.22" cy="308.699" r="14.4" fill="#009af9" fill-rule="evenodd" fill-opacity="0" stroke="#000000" stroke-opacity="0" stroke-width="3.2"/>
<circle clip-path="url(#clip672)" cx="1179.84" cy="1161.73" r="14.4" fill="#009af9" fill-rule="evenodd" fill-opacity="0" stroke="#000000" stroke-opacity="0" stroke-width="3.2"/>
<circle clip-path="url(#clip672)" cx="1179.84" cy="1055.1" r="14.4" fill="#009af9" fill-rule="evenodd" fill-opacity="0" stroke="#000000" stroke-opacity="0" stroke-width="3.2"/>
<circle clip-path="url(#clip672)" cx="1179.84" cy="948.469" r="14.4" fill="#009af9" fill-rule="evenodd" fill-opacity="0" stroke="#000000" stroke-opacity="0" stroke-width="3.2"/>
<circle clip-path="url(#clip672)" cx="1179.84" cy="841.84" r="14.4" fill="#009af9" fill-rule="evenodd" fill-opacity="0" stroke="#000000" stroke-opacity="0" stroke-width="3.2"/>
<circle clip-path="url(#clip672)" cx="1179.84" cy="735.212" r="14.4" fill="#009af9" fill-rule="evenodd" fill-opacity="0" stroke="#000000" stroke-opacity="0" stroke-width="3.2"/>
<circle clip-path="url(#clip672)" cx="1179.84" cy="628.584" r="14.4" fill="#009af9" fill-rule="evenodd" fill-opacity="0" stroke="#000000" stroke-opacity="0" stroke-width="3.2"/>
<circle clip-path="url(#clip672)" cx="1179.84" cy="521.955" r="14.4" fill="#009af9" fill-rule="evenodd" fill-opacity="0" stroke="#000000" stroke-opacity="0" stroke-width="3.2"/>
<circle clip-path="url(#clip672)" cx="1179.84" cy="415.327" r="14.4" fill="#009af9" fill-rule="evenodd" fill-opacity="0" stroke="#000000" stroke-opacity="0" stroke-width="3.2"/>
<circle clip-path="url(#clip672)" cx="1179.84" cy="308.699" r="14.4" fill="#009af9" fill-rule="evenodd" fill-opacity="0" stroke="#000000" stroke-opacity="0" stroke-width="3.2"/>
<circle clip-path="url(#clip672)" cx="1286.47" cy="1161.73" r="14.4" fill="#009af9" fill-rule="evenodd" fill-opacity="0" stroke="#000000" stroke-opacity="0" stroke-width="3.2"/>
<circle clip-path="url(#clip672)" cx="1286.47" cy="1055.1" r="14.4" fill="#009af9" fill-rule="evenodd" fill-opacity="0" stroke="#000000" stroke-opacity="0" stroke-width="3.2"/>
<circle clip-path="url(#clip672)" cx="1286.47" cy="948.469" r="14.4" fill="#009af9" fill-rule="evenodd" fill-opacity="0" stroke="#000000" stroke-opacity="0" stroke-width="3.2"/>
<circle clip-path="url(#clip672)" cx="1286.47" cy="841.84" r="14.4" fill="#009af9" fill-rule="evenodd" fill-opacity="0" stroke="#000000" stroke-opacity="0" stroke-width="3.2"/>
<circle clip-path="url(#clip672)" cx="1286.47" cy="735.212" r="14.4" fill="#009af9" fill-rule="evenodd" fill-opacity="0" stroke="#000000" stroke-opacity="0" stroke-width="3.2"/>
<circle clip-path="url(#clip672)" cx="1286.47" cy="628.584" r="14.4" fill="#009af9" fill-rule="evenodd" fill-opacity="0" stroke="#000000" stroke-opacity="0" stroke-width="3.2"/>
<circle clip-path="url(#clip672)" cx="1286.47" cy="521.955" r="14.4" fill="#009af9" fill-rule="evenodd" fill-opacity="0" stroke="#000000" stroke-opacity="0" stroke-width="3.2"/>
<circle clip-path="url(#clip672)" cx="1286.47" cy="415.327" r="14.4" fill="#009af9" fill-rule="evenodd" fill-opacity="0" stroke="#000000" stroke-opacity="0" stroke-width="3.2"/>
<circle clip-path="url(#clip672)" cx="1286.47" cy="308.699" r="14.4" fill="#009af9" fill-rule="evenodd" fill-opacity="0" stroke="#000000" stroke-opacity="0" stroke-width="3.2"/>
<circle clip-path="url(#clip672)" cx="1393.1" cy="1161.73" r="14.4" fill="#009af9" fill-rule="evenodd" fill-opacity="0" stroke="#000000" stroke-opacity="0" stroke-width="3.2"/>
<circle clip-path="url(#clip672)" cx="1393.1" cy="1055.1" r="14.4" fill="#009af9" fill-rule="evenodd" fill-opacity="0" stroke="#000000" stroke-opacity="0" stroke-width="3.2"/>
<circle clip-path="url(#clip672)" cx="1393.1" cy="948.469" r="14.4" fill="#009af9" fill-rule="evenodd" fill-opacity="0" stroke="#000000" stroke-opacity="0" stroke-width="3.2"/>
<circle clip-path="url(#clip672)" cx="1393.1" cy="841.84" r="14.4" fill="#009af9" fill-rule="evenodd" fill-opacity="0" stroke="#000000" stroke-opacity="0" stroke-width="3.2"/>
<circle clip-path="url(#clip672)" cx="1393.1" cy="735.212" r="14.4" fill="#009af9" fill-rule="evenodd" fill-opacity="0" stroke="#000000" stroke-opacity="0" stroke-width="3.2"/>
<circle clip-path="url(#clip672)" cx="1393.1" cy="628.584" r="14.4" fill="#009af9" fill-rule="evenodd" fill-opacity="0" stroke="#000000" stroke-opacity="0" stroke-width="3.2"/>
<circle clip-path="url(#clip672)" cx="1393.1" cy="521.955" r="14.4" fill="#009af9" fill-rule="evenodd" fill-opacity="0" stroke="#000000" stroke-opacity="0" stroke-width="3.2"/>
<circle clip-path="url(#clip672)" cx="1393.1" cy="415.327" r="14.4" fill="#009af9" fill-rule="evenodd" fill-opacity="0" stroke="#000000" stroke-opacity="0" stroke-width="3.2"/>
<circle clip-path="url(#clip672)" cx="1393.1" cy="308.699" r="14.4" fill="#009af9" fill-rule="evenodd" fill-opacity="0" stroke="#000000" stroke-opacity="0" stroke-width="3.2"/>
<circle clip-path="url(#clip672)" cx="1499.73" cy="1161.73" r="14.4" fill="#009af9" fill-rule="evenodd" fill-opacity="0" stroke="#000000" stroke-opacity="0" stroke-width="3.2"/>
<circle clip-path="url(#clip672)" cx="1499.73" cy="1055.1" r="14.4" fill="#009af9" fill-rule="evenodd" fill-opacity="0" stroke="#000000" stroke-opacity="0" stroke-width="3.2"/>
<circle clip-path="url(#clip672)" cx="1499.73" cy="948.469" r="14.4" fill="#009af9" fill-rule="evenodd" fill-opacity="0" stroke="#000000" stroke-opacity="0" stroke-width="3.2"/>
<circle clip-path="url(#clip672)" cx="1499.73" cy="841.84" r="14.4" fill="#009af9" fill-rule="evenodd" fill-opacity="0" stroke="#000000" stroke-opacity="0" stroke-width="3.2"/>
<circle clip-path="url(#clip672)" cx="1499.73" cy="735.212" r="14.4" fill="#009af9" fill-rule="evenodd" fill-opacity="0" stroke="#000000" stroke-opacity="0" stroke-width="3.2"/>
<circle clip-path="url(#clip672)" cx="1499.73" cy="628.584" r="14.4" fill="#009af9" fill-rule="evenodd" fill-opacity="0" stroke="#000000" stroke-opacity="0" stroke-width="3.2"/>
<circle clip-path="url(#clip672)" cx="1499.73" cy="521.955" r="14.4" fill="#009af9" fill-rule="evenodd" fill-opacity="0" stroke="#000000" stroke-opacity="0" stroke-width="3.2"/>
<circle clip-path="url(#clip672)" cx="1499.73" cy="415.327" r="14.4" fill="#009af9" fill-rule="evenodd" fill-opacity="0" stroke="#000000" stroke-opacity="0" stroke-width="3.2"/>
<circle clip-path="url(#clip672)" cx="1499.73" cy="308.699" r="14.4" fill="#009af9" fill-rule="evenodd" fill-opacity="0" stroke="#000000" stroke-opacity="0" stroke-width="3.2"/>
<circle clip-path="url(#clip672)" cx="1606.36" cy="1161.73" r="14.4" fill="#009af9" fill-rule="evenodd" fill-opacity="0" stroke="#000000" stroke-opacity="0" stroke-width="3.2"/>
<circle clip-path="url(#clip672)" cx="1606.36" cy="1055.1" r="14.4" fill="#009af9" fill-rule="evenodd" fill-opacity="0" stroke="#000000" stroke-opacity="0" stroke-width="3.2"/>
<circle clip-path="url(#clip672)" cx="1606.36" cy="948.469" r="14.4" fill="#009af9" fill-rule="evenodd" fill-opacity="0" stroke="#000000" stroke-opacity="0" stroke-width="3.2"/>
<circle clip-path="url(#clip672)" cx="1606.36" cy="841.84" r="14.4" fill="#009af9" fill-rule="evenodd" fill-opacity="0" stroke="#000000" stroke-opacity="0" stroke-width="3.2"/>
<circle clip-path="url(#clip672)" cx="1606.36" cy="735.212" r="14.4" fill="#009af9" fill-rule="evenodd" fill-opacity="0" stroke="#000000" stroke-opacity="0" stroke-width="3.2"/>
<circle clip-path="url(#clip672)" cx="1606.36" cy="628.584" r="14.4" fill="#009af9" fill-rule="evenodd" fill-opacity="0" stroke="#000000" stroke-opacity="0" stroke-width="3.2"/>
<circle clip-path="url(#clip672)" cx="1606.36" cy="521.955" r="14.4" fill="#009af9" fill-rule="evenodd" fill-opacity="0" stroke="#000000" stroke-opacity="0" stroke-width="3.2"/>
<circle clip-path="url(#clip672)" cx="1606.36" cy="415.327" r="14.4" fill="#009af9" fill-rule="evenodd" fill-opacity="0" stroke="#000000" stroke-opacity="0" stroke-width="3.2"/>
<circle clip-path="url(#clip672)" cx="1606.36" cy="308.699" r="14.4" fill="#009af9" fill-rule="evenodd" fill-opacity="0" stroke="#000000" stroke-opacity="0" stroke-width="3.2"/>
<circle clip-path="url(#clip672)" cx="1712.99" cy="1161.73" r="14.4" fill="#009af9" fill-rule="evenodd" fill-opacity="0" stroke="#000000" stroke-opacity="0" stroke-width="3.2"/>
<circle clip-path="url(#clip672)" cx="1712.99" cy="1055.1" r="14.4" fill="#009af9" fill-rule="evenodd" fill-opacity="0" stroke="#000000" stroke-opacity="0" stroke-width="3.2"/>
<circle clip-path="url(#clip672)" cx="1712.99" cy="948.469" r="14.4" fill="#009af9" fill-rule="evenodd" fill-opacity="0" stroke="#000000" stroke-opacity="0" stroke-width="3.2"/>
<circle clip-path="url(#clip672)" cx="1712.99" cy="841.84" r="14.4" fill="#009af9" fill-rule="evenodd" fill-opacity="0" stroke="#000000" stroke-opacity="0" stroke-width="3.2"/>
<circle clip-path="url(#clip672)" cx="1712.99" cy="735.212" r="14.4" fill="#009af9" fill-rule="evenodd" fill-opacity="0" stroke="#000000" stroke-opacity="0" stroke-width="3.2"/>
<circle clip-path="url(#clip672)" cx="1712.99" cy="628.584" r="14.4" fill="#009af9" fill-rule="evenodd" fill-opacity="0" stroke="#000000" stroke-opacity="0" stroke-width="3.2"/>
<circle clip-path="url(#clip672)" cx="1712.99" cy="521.955" r="14.4" fill="#009af9" fill-rule="evenodd" fill-opacity="0" stroke="#000000" stroke-opacity="0" stroke-width="3.2"/>
<circle clip-path="url(#clip672)" cx="1712.99" cy="415.327" r="14.4" fill="#009af9" fill-rule="evenodd" fill-opacity="0" stroke="#000000" stroke-opacity="0" stroke-width="3.2"/>
<circle clip-path="url(#clip672)" cx="1712.99" cy="308.699" r="14.4" fill="#009af9" fill-rule="evenodd" fill-opacity="0" stroke="#000000" stroke-opacity="0" stroke-width="3.2"/>
<circle clip-path="url(#clip672)" cx="1819.61" cy="1161.73" r="14.4" fill="#009af9" fill-rule="evenodd" fill-opacity="0" stroke="#000000" stroke-opacity="0" stroke-width="3.2"/>
<circle clip-path="url(#clip672)" cx="1819.61" cy="1055.1" r="14.4" fill="#009af9" fill-rule="evenodd" fill-opacity="0" stroke="#000000" stroke-opacity="0" stroke-width="3.2"/>
<circle clip-path="url(#clip672)" cx="1819.61" cy="948.469" r="14.4" fill="#009af9" fill-rule="evenodd" fill-opacity="0" stroke="#000000" stroke-opacity="0" stroke-width="3.2"/>
<circle clip-path="url(#clip672)" cx="1819.61" cy="841.84" r="14.4" fill="#009af9" fill-rule="evenodd" fill-opacity="0" stroke="#000000" stroke-opacity="0" stroke-width="3.2"/>
<circle clip-path="url(#clip672)" cx="1819.61" cy="735.212" r="14.4" fill="#009af9" fill-rule="evenodd" fill-opacity="0" stroke="#000000" stroke-opacity="0" stroke-width="3.2"/>
<circle clip-path="url(#clip672)" cx="1819.61" cy="628.584" r="14.4" fill="#009af9" fill-rule="evenodd" fill-opacity="0" stroke="#000000" stroke-opacity="0" stroke-width="3.2"/>
<circle clip-path="url(#clip672)" cx="1819.61" cy="521.955" r="14.4" fill="#009af9" fill-rule="evenodd" fill-opacity="0" stroke="#000000" stroke-opacity="0" stroke-width="3.2"/>
<circle clip-path="url(#clip672)" cx="1819.61" cy="415.327" r="14.4" fill="#009af9" fill-rule="evenodd" fill-opacity="0" stroke="#000000" stroke-opacity="0" stroke-width="3.2"/>
<circle clip-path="url(#clip672)" cx="1819.61" cy="308.699" r="14.4" fill="#009af9" fill-rule="evenodd" fill-opacity="0" stroke="#000000" stroke-opacity="0" stroke-width="3.2"/>
<circle clip-path="url(#clip672)" cx="1926.24" cy="1161.73" r="14.4" fill="#009af9" fill-rule="evenodd" fill-opacity="0" stroke="#000000" stroke-opacity="0" stroke-width="3.2"/>
<circle clip-path="url(#clip672)" cx="1926.24" cy="1055.1" r="14.4" fill="#009af9" fill-rule="evenodd" fill-opacity="0" stroke="#000000" stroke-opacity="0" stroke-width="3.2"/>
<circle clip-path="url(#clip672)" cx="1926.24" cy="948.469" r="14.4" fill="#009af9" fill-rule="evenodd" fill-opacity="0" stroke="#000000" stroke-opacity="0" stroke-width="3.2"/>
<circle clip-path="url(#clip672)" cx="1926.24" cy="841.84" r="14.4" fill="#009af9" fill-rule="evenodd" fill-opacity="0" stroke="#000000" stroke-opacity="0" stroke-width="3.2"/>
<circle clip-path="url(#clip672)" cx="1926.24" cy="735.212" r="14.4" fill="#009af9" fill-rule="evenodd" fill-opacity="0" stroke="#000000" stroke-opacity="0" stroke-width="3.2"/>
<circle clip-path="url(#clip672)" cx="1926.24" cy="628.584" r="14.4" fill="#009af9" fill-rule="evenodd" fill-opacity="0" stroke="#000000" stroke-opacity="0" stroke-width="3.2"/>
<circle clip-path="url(#clip672)" cx="1926.24" cy="521.955" r="14.4" fill="#009af9" fill-rule="evenodd" fill-opacity="0" stroke="#000000" stroke-opacity="0" stroke-width="3.2"/>
<circle clip-path="url(#clip672)" cx="1926.24" cy="415.327" r="14.4" fill="#009af9" fill-rule="evenodd" fill-opacity="0" stroke="#000000" stroke-opacity="0" stroke-width="3.2"/>
<circle clip-path="url(#clip672)" cx="1926.24" cy="308.699" r="14.4" fill="#009af9" fill-rule="evenodd" fill-opacity="0" stroke="#000000" stroke-opacity="0" stroke-width="3.2"/>
<circle clip-path="url(#clip672)" cx="2032.87" cy="1161.73" r="14.4" fill="#009af9" fill-rule="evenodd" fill-opacity="0" stroke="#000000" stroke-opacity="0" stroke-width="3.2"/>
<circle clip-path="url(#clip672)" cx="2032.87" cy="1055.1" r="14.4" fill="#009af9" fill-rule="evenodd" fill-opacity="0" stroke="#000000" stroke-opacity="0" stroke-width="3.2"/>
<circle clip-path="url(#clip672)" cx="2032.87" cy="948.469" r="14.4" fill="#009af9" fill-rule="evenodd" fill-opacity="0" stroke="#000000" stroke-opacity="0" stroke-width="3.2"/>
<circle clip-path="url(#clip672)" cx="2032.87" cy="841.84" r="14.4" fill="#009af9" fill-rule="evenodd" fill-opacity="0" stroke="#000000" stroke-opacity="0" stroke-width="3.2"/>
<circle clip-path="url(#clip672)" cx="2032.87" cy="735.212" r="14.4" fill="#009af9" fill-rule="evenodd" fill-opacity="0" stroke="#000000" stroke-opacity="0" stroke-width="3.2"/>
<circle clip-path="url(#clip672)" cx="2032.87" cy="628.584" r="14.4" fill="#009af9" fill-rule="evenodd" fill-opacity="0" stroke="#000000" stroke-opacity="0" stroke-width="3.2"/>
<circle clip-path="url(#clip672)" cx="2032.87" cy="521.955" r="14.4" fill="#009af9" fill-rule="evenodd" fill-opacity="0" stroke="#000000" stroke-opacity="0" stroke-width="3.2"/>
<circle clip-path="url(#clip672)" cx="2032.87" cy="415.327" r="14.4" fill="#009af9" fill-rule="evenodd" fill-opacity="0" stroke="#000000" stroke-opacity="0" stroke-width="3.2"/>
<circle clip-path="url(#clip672)" cx="2032.87" cy="308.699" r="14.4" fill="#009af9" fill-rule="evenodd" fill-opacity="0" stroke="#000000" stroke-opacity="0" stroke-width="3.2"/>
<circle clip-path="url(#clip672)" cx="2139.5" cy="1161.73" r="14.4" fill="#009af9" fill-rule="evenodd" fill-opacity="0" stroke="#000000" stroke-opacity="0" stroke-width="3.2"/>
<circle clip-path="url(#clip672)" cx="2139.5" cy="1055.1" r="14.4" fill="#009af9" fill-rule="evenodd" fill-opacity="0" stroke="#000000" stroke-opacity="0" stroke-width="3.2"/>
<circle clip-path="url(#clip672)" cx="2139.5" cy="948.469" r="14.4" fill="#009af9" fill-rule="evenodd" fill-opacity="0" stroke="#000000" stroke-opacity="0" stroke-width="3.2"/>
<circle clip-path="url(#clip672)" cx="2139.5" cy="841.84" r="14.4" fill="#009af9" fill-rule="evenodd" fill-opacity="0" stroke="#000000" stroke-opacity="0" stroke-width="3.2"/>
<circle clip-path="url(#clip672)" cx="2139.5" cy="735.212" r="14.4" fill="#009af9" fill-rule="evenodd" fill-opacity="0" stroke="#000000" stroke-opacity="0" stroke-width="3.2"/>
<circle clip-path="url(#clip672)" cx="2139.5" cy="628.584" r="14.4" fill="#009af9" fill-rule="evenodd" fill-opacity="0" stroke="#000000" stroke-opacity="0" stroke-width="3.2"/>
<circle clip-path="url(#clip672)" cx="2139.5" cy="521.955" r="14.4" fill="#009af9" fill-rule="evenodd" fill-opacity="0" stroke="#000000" stroke-opacity="0" stroke-width="3.2"/>
<circle clip-path="url(#clip672)" cx="2139.5" cy="415.327" r="14.4" fill="#009af9" fill-rule="evenodd" fill-opacity="0" stroke="#000000" stroke-opacity="0" stroke-width="3.2"/>
<circle clip-path="url(#clip672)" cx="2139.5" cy="308.699" r="14.4" fill="#009af9" fill-rule="evenodd" fill-opacity="0" stroke="#000000" stroke-opacity="0" stroke-width="3.2"/>
<circle clip-path="url(#clip672)" cx="2246.13" cy="1161.73" r="14.4" fill="#009af9" fill-rule="evenodd" fill-opacity="0" stroke="#000000" stroke-opacity="0" stroke-width="3.2"/>
<circle clip-path="url(#clip672)" cx="2246.13" cy="1055.1" r="14.4" fill="#009af9" fill-rule="evenodd" fill-opacity="0" stroke="#000000" stroke-opacity="0" stroke-width="3.2"/>
<circle clip-path="url(#clip672)" cx="2246.13" cy="948.469" r="14.4" fill="#009af9" fill-rule="evenodd" fill-opacity="0" stroke="#000000" stroke-opacity="0" stroke-width="3.2"/>
<circle clip-path="url(#clip672)" cx="2246.13" cy="841.84" r="14.4" fill="#009af9" fill-rule="evenodd" fill-opacity="0" stroke="#000000" stroke-opacity="0" stroke-width="3.2"/>
<circle clip-path="url(#clip672)" cx="2246.13" cy="735.212" r="14.4" fill="#009af9" fill-rule="evenodd" fill-opacity="0" stroke="#000000" stroke-opacity="0" stroke-width="3.2"/>
<circle clip-path="url(#clip672)" cx="2246.13" cy="628.584" r="14.4" fill="#009af9" fill-rule="evenodd" fill-opacity="0" stroke="#000000" stroke-opacity="0" stroke-width="3.2"/>
<circle clip-path="url(#clip672)" cx="2246.13" cy="521.955" r="14.4" fill="#009af9" fill-rule="evenodd" fill-opacity="0" stroke="#000000" stroke-opacity="0" stroke-width="3.2"/>
<circle clip-path="url(#clip672)" cx="2246.13" cy="415.327" r="14.4" fill="#009af9" fill-rule="evenodd" fill-opacity="0" stroke="#000000" stroke-opacity="0" stroke-width="3.2"/>
<circle clip-path="url(#clip672)" cx="2246.13" cy="308.699" r="14.4" fill="#009af9" fill-rule="evenodd" fill-opacity="0" stroke="#000000" stroke-opacity="0" stroke-width="3.2"/>
<circle clip-path="url(#clip672)" cx="2352.76" cy="1161.73" r="14.4" fill="#009af9" fill-rule="evenodd" fill-opacity="0" stroke="#000000" stroke-opacity="0" stroke-width="3.2"/>
<circle clip-path="url(#clip672)" cx="2352.76" cy="1055.1" r="14.4" fill="#009af9" fill-rule="evenodd" fill-opacity="0" stroke="#000000" stroke-opacity="0" stroke-width="3.2"/>
<circle clip-path="url(#clip672)" cx="2352.76" cy="948.469" r="14.4" fill="#009af9" fill-rule="evenodd" fill-opacity="0" stroke="#000000" stroke-opacity="0" stroke-width="3.2"/>
<circle clip-path="url(#clip672)" cx="2352.76" cy="841.84" r="14.4" fill="#009af9" fill-rule="evenodd" fill-opacity="0" stroke="#000000" stroke-opacity="0" stroke-width="3.2"/>
<circle clip-path="url(#clip672)" cx="2352.76" cy="735.212" r="14.4" fill="#009af9" fill-rule="evenodd" fill-opacity="0" stroke="#000000" stroke-opacity="0" stroke-width="3.2"/>
<circle clip-path="url(#clip672)" cx="2352.76" cy="628.584" r="14.4" fill="#009af9" fill-rule="evenodd" fill-opacity="0" stroke="#000000" stroke-opacity="0" stroke-width="3.2"/>
<circle clip-path="url(#clip672)" cx="2352.76" cy="521.955" r="14.4" fill="#009af9" fill-rule="evenodd" fill-opacity="0" stroke="#000000" stroke-opacity="0" stroke-width="3.2"/>
<circle clip-path="url(#clip672)" cx="2352.76" cy="415.327" r="14.4" fill="#009af9" fill-rule="evenodd" fill-opacity="0" stroke="#000000" stroke-opacity="0" stroke-width="3.2"/>
<circle clip-path="url(#clip672)" cx="2352.76" cy="308.699" r="14.4" fill="#009af9" fill-rule="evenodd" fill-opacity="0" stroke="#000000" stroke-opacity="0" stroke-width="3.2"/>
</svg>
