<?xml version="1.0" encoding="utf-8"?>
<svg xmlns="http://www.w3.org/2000/svg" xmlns:xlink="http://www.w3.org/1999/xlink" width="600" height="400" viewBox="0 0 2400 1600">
<defs>
  <clipPath id="clip630">
    <rect x="0" y="0" width="2400" height="1600"/>
  </clipPath>
</defs>
<path clip-path="url(#clip630)" d="M0 1600 L2400 1600 L2400 0 L0 0  Z" fill="#ffffff" fill-rule="evenodd" fill-opacity="1"/>
<defs>
  <clipPath id="clip631">
    <rect x="480" y="0" width="1681" height="1600"/>
  </clipPath>
</defs>
<path clip-path="url(#clip630)" d="M219.866 1423.18 L2352.76 1423.18 L2352.76 47.2441 L219.866 47.2441  Z" fill="#ffffff" fill-rule="evenodd" fill-opacity="1"/>
<defs>
  <clipPath id="clip632">
    <rect x="219" y="47" width="2134" height="1377"/>
  </clipPath>
</defs>
<polyline clip-path="url(#clip632)" style="stroke:#000000; stroke-linecap:round; stroke-linejoin:round; stroke-width:2; stroke-opacity:0.1; fill:none" points="668.896,1423.18 668.896,47.2441 "/>
<polyline clip-path="url(#clip632)" style="stroke:#000000; stroke-linecap:round; stroke-linejoin:round; stroke-width:2; stroke-opacity:0.1; fill:none" points="1230.18,1423.18 1230.18,47.2441 "/>
<polyline clip-path="url(#clip632)" style="stroke:#000000; stroke-linecap:round; stroke-linejoin:round; stroke-width:2; stroke-opacity:0.1; fill:none" points="1791.47,1423.18 1791.47,47.2441 "/>
<polyline clip-path="url(#clip632)" style="stroke:#000000; stroke-linecap:round; stroke-linejoin:round; stroke-width:2; stroke-opacity:0.1; fill:none" points="2352.76,1423.18 2352.76,47.2441 "/>
<polyline clip-path="url(#clip630)" style="stroke:#000000; stroke-linecap:round; stroke-linejoin:round; stroke-width:4; stroke-opacity:1; fill:none" points="219.866,1423.18 2352.76,1423.18 "/>
<polyline clip-path="url(#clip630)" style="stroke:#000000; stroke-linecap:round; stroke-linejoin:round; stroke-width:4; stroke-opacity:1; fill:none" points="668.896,1423.18 668.896,1404.28 "/>
<polyline clip-path="url(#clip630)" style="stroke:#000000; stroke-linecap:round; stroke-linejoin:round; stroke-width:4; stroke-opacity:1; fill:none" points="1230.18,1423.18 1230.18,1404.28 "/>
<polyline clip-path="url(#clip630)" style="stroke:#000000; stroke-linecap:round; stroke-linejoin:round; stroke-width:4; stroke-opacity:1; fill:none" points="1791.47,1423.18 1791.47,1404.28 "/>
<polyline clip-path="url(#clip630)" style="stroke:#000000; stroke-linecap:round; stroke-linejoin:round; stroke-width:4; stroke-opacity:1; fill:none" points="2352.76,1423.18 2352.76,1404.28 "/>
<path clip-path="url(#clip630)" d="M628.514 1451.02 L646.87 1451.02 L646.87 1454.96 L632.796 1454.96 L632.796 1463.43 Q633.815 1463.08 634.833 1462.92 Q635.852 1462.73 636.87 1462.73 Q642.657 1462.73 646.037 1465.9 Q649.417 1469.08 649.417 1474.49 Q649.417 1480.07 645.944 1483.17 Q642.472 1486.25 636.153 1486.25 Q633.977 1486.25 631.708 1485.88 Q629.463 1485.51 627.056 1484.77 L627.056 1480.07 Q629.139 1481.2 631.361 1481.76 Q633.583 1482.32 636.06 1482.32 Q640.065 1482.32 642.403 1480.21 Q644.741 1478.1 644.741 1474.49 Q644.741 1470.88 642.403 1468.77 Q640.065 1466.67 636.06 1466.67 Q634.185 1466.67 632.31 1467.08 Q630.458 1467.5 628.514 1468.38 L628.514 1451.02 Z" fill="#000000" fill-rule="nonzero" fill-opacity="1" /><path clip-path="url(#clip630)" d="M668.629 1454.1 Q665.018 1454.1 663.19 1457.66 Q661.384 1461.2 661.384 1468.33 Q661.384 1475.44 663.19 1479.01 Q665.018 1482.55 668.629 1482.55 Q672.264 1482.55 674.069 1479.01 Q675.898 1475.44 675.898 1468.33 Q675.898 1461.2 674.069 1457.66 Q672.264 1454.1 668.629 1454.1 M668.629 1450.39 Q674.44 1450.39 677.495 1455 Q680.574 1459.58 680.574 1468.33 Q680.574 1477.06 677.495 1481.67 Q674.44 1486.25 668.629 1486.25 Q662.819 1486.25 659.741 1481.67 Q656.685 1477.06 656.685 1468.33 Q656.685 1459.58 659.741 1455 Q662.819 1450.39 668.629 1450.39 Z" fill="#000000" fill-rule="nonzero" fill-opacity="1" /><path clip-path="url(#clip630)" d="M698.791 1454.1 Q695.18 1454.1 693.352 1457.66 Q691.546 1461.2 691.546 1468.33 Q691.546 1475.44 693.352 1479.01 Q695.18 1482.55 698.791 1482.55 Q702.426 1482.55 704.231 1479.01 Q706.06 1475.44 706.06 1468.33 Q706.06 1461.2 704.231 1457.66 Q702.426 1454.1 698.791 1454.1 M698.791 1450.39 Q704.601 1450.39 707.657 1455 Q710.736 1459.58 710.736 1468.33 Q710.736 1477.06 707.657 1481.67 Q704.601 1486.25 698.791 1486.25 Q692.981 1486.25 689.902 1481.67 Q686.847 1477.06 686.847 1468.33 Q686.847 1459.58 689.902 1455 Q692.981 1450.39 698.791 1450.39 Z" fill="#000000" fill-rule="nonzero" fill-opacity="1" /><path clip-path="url(#clip630)" d="M1174.71 1481.64 L1182.35 1481.64 L1182.35 1455.28 L1174.04 1456.95 L1174.04 1452.69 L1182.3 1451.02 L1186.98 1451.02 L1186.98 1481.64 L1194.62 1481.64 L1194.62 1485.58 L1174.71 1485.58 L1174.71 1481.64 Z" fill="#000000" fill-rule="nonzero" fill-opacity="1" /><path clip-path="url(#clip630)" d="M1214.06 1454.1 Q1210.45 1454.1 1208.62 1457.66 Q1206.81 1461.2 1206.81 1468.33 Q1206.81 1475.44 1208.62 1479.01 Q1210.45 1482.55 1214.06 1482.55 Q1217.69 1482.55 1219.5 1479.01 Q1221.33 1475.44 1221.33 1468.33 Q1221.33 1461.2 1219.5 1457.66 Q1217.69 1454.1 1214.06 1454.1 M1214.06 1450.39 Q1219.87 1450.39 1222.93 1455 Q1226 1459.58 1226 1468.33 Q1226 1477.06 1222.93 1481.67 Q1219.87 1486.25 1214.06 1486.25 Q1208.25 1486.25 1205.17 1481.67 Q1202.12 1477.06 1202.12 1468.33 Q1202.12 1459.58 1205.17 1455 Q1208.25 1450.39 1214.06 1450.39 Z" fill="#000000" fill-rule="nonzero" fill-opacity="1" /><path clip-path="url(#clip630)" d="M1244.22 1454.1 Q1240.61 1454.1 1238.78 1457.66 Q1236.98 1461.2 1236.98 1468.33 Q1236.98 1475.44 1238.78 1479.01 Q1240.61 1482.55 1244.22 1482.55 Q1247.86 1482.55 1249.66 1479.01 Q1251.49 1475.44 1251.49 1468.33 Q1251.49 1461.2 1249.66 1457.66 Q1247.86 1454.1 1244.22 1454.1 M1244.22 1450.39 Q1250.03 1450.39 1253.09 1455 Q1256.17 1459.58 1256.17 1468.33 Q1256.17 1477.06 1253.09 1481.67 Q1250.03 1486.25 1244.22 1486.25 Q1238.41 1486.25 1235.33 1481.67 Q1232.28 1477.06 1232.28 1468.33 Q1232.28 1459.58 1235.33 1455 Q1238.41 1450.39 1244.22 1450.39 Z" fill="#000000" fill-rule="nonzero" fill-opacity="1" /><path clip-path="url(#clip630)" d="M1274.38 1454.1 Q1270.77 1454.1 1268.94 1457.66 Q1267.14 1461.2 1267.14 1468.33 Q1267.14 1475.44 1268.94 1479.01 Q1270.77 1482.55 1274.38 1482.55 Q1278.02 1482.55 1279.82 1479.01 Q1281.65 1475.44 1281.65 1468.33 Q1281.65 1461.2 1279.82 1457.66 Q1278.02 1454.1 1274.38 1454.1 M1274.38 1450.39 Q1280.19 1450.39 1283.25 1455 Q1286.33 1459.58 1286.33 1468.33 Q1286.33 1477.06 1283.25 1481.67 Q1280.19 1486.25 1274.38 1486.25 Q1268.57 1486.25 1265.49 1481.67 Q1262.44 1477.06 1262.44 1468.33 Q1262.44 1459.58 1265.49 1455 Q1268.57 1450.39 1274.38 1450.39 Z" fill="#000000" fill-rule="nonzero" fill-opacity="1" /><path clip-path="url(#clip630)" d="M1735.99 1481.64 L1743.63 1481.64 L1743.63 1455.28 L1735.32 1456.95 L1735.32 1452.69 L1743.59 1451.02 L1748.26 1451.02 L1748.26 1481.64 L1755.9 1481.64 L1755.9 1485.58 L1735.99 1485.58 L1735.99 1481.64 Z" fill="#000000" fill-rule="nonzero" fill-opacity="1" /><path clip-path="url(#clip630)" d="M1765.39 1451.02 L1783.75 1451.02 L1783.75 1454.96 L1769.68 1454.96 L1769.68 1463.43 Q1770.69 1463.08 1771.71 1462.92 Q1772.73 1462.73 1773.75 1462.73 Q1779.54 1462.73 1782.92 1465.9 Q1786.3 1469.08 1786.3 1474.49 Q1786.3 1480.07 1782.82 1483.17 Q1779.35 1486.25 1773.03 1486.25 Q1770.86 1486.25 1768.59 1485.88 Q1766.34 1485.51 1763.93 1484.77 L1763.93 1480.07 Q1766.02 1481.2 1768.24 1481.76 Q1770.46 1482.32 1772.94 1482.32 Q1776.94 1482.32 1779.28 1480.21 Q1781.62 1478.1 1781.62 1474.49 Q1781.62 1470.88 1779.28 1468.77 Q1776.94 1466.67 1772.94 1466.67 Q1771.06 1466.67 1769.19 1467.08 Q1767.34 1467.5 1765.39 1468.38 L1765.39 1451.02 Z" fill="#000000" fill-rule="nonzero" fill-opacity="1" /><path clip-path="url(#clip630)" d="M1805.51 1454.1 Q1801.9 1454.1 1800.07 1457.66 Q1798.26 1461.2 1798.26 1468.33 Q1798.26 1475.44 1800.07 1479.01 Q1801.9 1482.55 1805.51 1482.55 Q1809.14 1482.55 1810.95 1479.01 Q1812.78 1475.44 1812.78 1468.33 Q1812.78 1461.2 1810.95 1457.66 Q1809.14 1454.1 1805.51 1454.1 M1805.51 1450.39 Q1811.32 1450.39 1814.37 1455 Q1817.45 1459.58 1817.45 1468.33 Q1817.45 1477.06 1814.37 1481.67 Q1811.32 1486.25 1805.51 1486.25 Q1799.7 1486.25 1796.62 1481.67 Q1793.56 1477.06 1793.56 1468.33 Q1793.56 1459.58 1796.62 1455 Q1799.7 1450.39 1805.51 1450.39 Z" fill="#000000" fill-rule="nonzero" fill-opacity="1" /><path clip-path="url(#clip630)" d="M1835.67 1454.1 Q1832.06 1454.1 1830.23 1457.66 Q1828.42 1461.2 1828.42 1468.33 Q1828.42 1475.44 1830.23 1479.01 Q1832.06 1482.55 1835.67 1482.55 Q1839.3 1482.55 1841.11 1479.01 Q1842.94 1475.44 1842.94 1468.33 Q1842.94 1461.2 1841.11 1457.66 Q1839.3 1454.1 1835.67 1454.1 M1835.67 1450.39 Q1841.48 1450.39 1844.54 1455 Q1847.61 1459.58 1847.61 1468.33 Q1847.61 1477.06 1844.54 1481.67 Q1841.48 1486.25 1835.67 1486.25 Q1829.86 1486.25 1826.78 1481.67 Q1823.73 1477.06 1823.73 1468.33 Q1823.73 1459.58 1826.78 1455 Q1829.86 1450.39 1835.67 1450.39 Z" fill="#000000" fill-rule="nonzero" fill-opacity="1" /><path clip-path="url(#clip630)" d="M2301.37 1481.64 L2317.69 1481.64 L2317.69 1485.58 L2295.74 1485.58 L2295.74 1481.64 Q2298.4 1478.89 2302.99 1474.26 Q2307.59 1469.61 2308.77 1468.27 Q2311.02 1465.74 2311.9 1464.01 Q2312.8 1462.25 2312.8 1460.56 Q2312.8 1457.8 2310.86 1456.07 Q2308.94 1454.33 2305.83 1454.33 Q2303.64 1454.33 2301.18 1455.09 Q2298.75 1455.86 2295.97 1457.41 L2295.97 1452.69 Q2298.8 1451.55 2301.25 1450.97 Q2303.71 1450.39 2305.74 1450.39 Q2311.11 1450.39 2314.31 1453.08 Q2317.5 1455.77 2317.5 1460.26 Q2317.5 1462.39 2316.69 1464.31 Q2315.9 1466.2 2313.8 1468.8 Q2313.22 1469.47 2310.12 1472.69 Q2307.02 1475.88 2301.37 1481.64 Z" fill="#000000" fill-rule="nonzero" fill-opacity="1" /><path clip-path="url(#clip630)" d="M2337.5 1454.1 Q2333.89 1454.1 2332.06 1457.66 Q2330.26 1461.2 2330.26 1468.33 Q2330.26 1475.44 2332.06 1479.01 Q2333.89 1482.55 2337.5 1482.55 Q2341.14 1482.55 2342.94 1479.01 Q2344.77 1475.44 2344.77 1468.33 Q2344.77 1461.2 2342.94 1457.66 Q2341.14 1454.1 2337.5 1454.1 M2337.5 1450.39 Q2343.31 1450.39 2346.37 1455 Q2349.45 1459.58 2349.45 1468.33 Q2349.45 1477.06 2346.37 1481.67 Q2343.31 1486.25 2337.5 1486.25 Q2331.69 1486.25 2328.61 1481.67 Q2325.56 1477.06 2325.56 1468.33 Q2325.56 1459.58 2328.61 1455 Q2331.69 1450.39 2337.5 1450.39 Z" fill="#000000" fill-rule="nonzero" fill-opacity="1" /><path clip-path="url(#clip630)" d="M2367.66 1454.1 Q2364.05 1454.1 2362.22 1457.66 Q2360.42 1461.2 2360.42 1468.33 Q2360.42 1475.44 2362.22 1479.01 Q2364.05 1482.55 2367.66 1482.55 Q2371.3 1482.55 2373.1 1479.01 Q2374.93 1475.44 2374.93 1468.33 Q2374.93 1461.2 2373.1 1457.66 Q2371.3 1454.1 2367.66 1454.1 M2367.66 1450.39 Q2373.47 1450.39 2376.53 1455 Q2379.61 1459.58 2379.61 1468.33 Q2379.61 1477.06 2376.53 1481.67 Q2373.47 1486.25 2367.66 1486.25 Q2361.85 1486.25 2358.77 1481.67 Q2355.72 1477.06 2355.72 1468.33 Q2355.72 1459.58 2358.77 1455 Q2361.85 1450.39 2367.66 1450.39 Z" fill="#000000" fill-rule="nonzero" fill-opacity="1" /><path clip-path="url(#clip630)" d="M2397.83 1454.1 Q2394.21 1454.1 2392.39 1457.66 Q2390.58 1461.2 2390.58 1468.33 Q2390.58 1475.44 2392.39 1479.01 Q2394.21 1482.55 2397.83 1482.55 Q2401.46 1482.55 2403.26 1479.01 Q2405.09 1475.44 2405.09 1468.33 Q2405.09 1461.2 2403.26 1457.66 Q2401.46 1454.1 2397.83 1454.1 M2397.83 1450.39 Q2403.64 1450.39 2406.69 1455 Q2409.77 1459.58 2409.77 1468.33 Q2409.77 1477.06 2406.69 1481.67 Q2403.64 1486.25 2397.83 1486.25 Q2392.01 1486.25 2388.94 1481.67 Q2385.88 1477.06 2385.88 1468.33 Q2385.88 1459.58 2388.94 1455 Q2392.01 1450.39 2397.83 1450.39 Z" fill="#000000" fill-rule="nonzero" fill-opacity="1" /><path clip-path="url(#clip630)" d="M1046.53 1520.52 L1073.84 1520.52 L1073.84 1525.93 L1052.96 1525.93 L1052.96 1539.94 L1071.8 1539.94 L1071.8 1545.35 L1052.96 1545.35 L1052.96 1568.04 L1046.53 1568.04 L1046.53 1520.52 Z" fill="#000000" fill-rule="nonzero" fill-opacity="1" /><path clip-path="url(#clip630)" d="M1099.68 1537.87 Q1098.7 1537.3 1097.52 1537.04 Q1096.37 1536.76 1094.97 1536.76 Q1090.01 1536.76 1087.34 1540 Q1084.69 1543.22 1084.69 1549.27 L1084.69 1568.04 L1078.8 1568.04 L1078.8 1532.4 L1084.69 1532.4 L1084.69 1537.93 Q1086.54 1534.69 1089.5 1533.13 Q1092.46 1531.54 1096.69 1531.54 Q1097.3 1531.54 1098.03 1531.63 Q1098.76 1531.7 1099.65 1531.85 L1099.68 1537.87 Z" fill="#000000" fill-rule="nonzero" fill-opacity="1" /><path clip-path="url(#clip630)" d="M1134.89 1548.76 L1134.89 1551.62 L1107.96 1551.62 Q1108.34 1557.67 1111.59 1560.85 Q1114.87 1564 1120.69 1564 Q1124.07 1564 1127.22 1563.17 Q1130.4 1562.35 1133.52 1560.69 L1133.52 1566.23 Q1130.37 1567.57 1127.06 1568.27 Q1123.75 1568.97 1120.34 1568.97 Q1111.81 1568.97 1106.81 1564 Q1101.85 1559.04 1101.85 1550.57 Q1101.85 1541.82 1106.56 1536.69 Q1111.3 1531.54 1119.32 1531.54 Q1126.52 1531.54 1130.69 1536.18 Q1134.89 1540.8 1134.89 1548.76 M1129.03 1547.04 Q1128.97 1542.23 1126.32 1539.37 Q1123.72 1536.5 1119.39 1536.5 Q1114.48 1536.5 1111.52 1539.27 Q1108.6 1542.04 1108.15 1547.07 L1129.03 1547.04 Z" fill="#000000" fill-rule="nonzero" fill-opacity="1" /><path clip-path="url(#clip630)" d="M1148 1550.25 Q1148 1556.71 1150.64 1560.4 Q1153.32 1564.07 1157.96 1564.07 Q1162.61 1564.07 1165.28 1560.4 Q1167.96 1556.71 1167.96 1550.25 Q1167.96 1543.79 1165.28 1540.13 Q1162.61 1536.44 1157.96 1536.44 Q1153.32 1536.44 1150.64 1540.13 Q1148 1543.79 1148 1550.25 M1167.96 1562.7 Q1166.11 1565.88 1163.28 1567.44 Q1160.48 1568.97 1156.53 1568.97 Q1150.07 1568.97 1145.99 1563.81 Q1141.95 1558.65 1141.95 1550.25 Q1141.95 1541.85 1145.99 1536.69 Q1150.07 1531.54 1156.53 1531.54 Q1160.48 1531.54 1163.28 1533.1 Q1166.11 1534.62 1167.96 1537.81 L1167.96 1532.4 L1173.81 1532.4 L1173.81 1581.6 L1167.96 1581.6 L1167.96 1562.7 Z" fill="#000000" fill-rule="nonzero" fill-opacity="1" /><path clip-path="url(#clip630)" d="M1185.27 1553.98 L1185.27 1532.4 L1191.13 1532.4 L1191.13 1553.75 Q1191.13 1558.81 1193.1 1561.36 Q1195.07 1563.87 1199.02 1563.87 Q1203.76 1563.87 1206.5 1560.85 Q1209.27 1557.83 1209.27 1552.61 L1209.27 1532.4 L1215.13 1532.4 L1215.13 1568.04 L1209.27 1568.04 L1209.27 1562.57 Q1207.14 1565.82 1204.3 1567.41 Q1201.5 1568.97 1197.78 1568.97 Q1191.64 1568.97 1188.45 1565.15 Q1185.27 1561.33 1185.27 1553.98 M1200.01 1531.54 L1200.01 1531.54 Z" fill="#000000" fill-rule="nonzero" fill-opacity="1" /><path clip-path="url(#clip630)" d="M1257.68 1548.76 L1257.68 1551.62 L1230.75 1551.62 Q1231.14 1557.67 1234.38 1560.85 Q1237.66 1564 1243.49 1564 Q1246.86 1564 1250.01 1563.17 Q1253.19 1562.35 1256.31 1560.69 L1256.31 1566.23 Q1253.16 1567.57 1249.85 1568.27 Q1246.54 1568.97 1243.14 1568.97 Q1234.61 1568.97 1229.61 1564 Q1224.64 1559.04 1224.64 1550.57 Q1224.64 1541.82 1229.35 1536.69 Q1234.1 1531.54 1242.12 1531.54 Q1249.31 1531.54 1253.48 1536.18 Q1257.68 1540.8 1257.68 1548.76 M1251.82 1547.04 Q1251.76 1542.23 1249.12 1539.37 Q1246.51 1536.5 1242.18 1536.5 Q1237.28 1536.5 1234.32 1539.27 Q1231.39 1542.04 1230.95 1547.07 L1251.82 1547.04 Z" fill="#000000" fill-rule="nonzero" fill-opacity="1" /><path clip-path="url(#clip630)" d="M1296.93 1546.53 L1296.93 1568.04 L1291.07 1568.04 L1291.07 1546.72 Q1291.07 1541.66 1289.1 1539.14 Q1287.12 1536.63 1283.18 1536.63 Q1278.43 1536.63 1275.7 1539.65 Q1272.96 1542.68 1272.96 1547.9 L1272.96 1568.04 L1267.07 1568.04 L1267.07 1532.4 L1272.96 1532.4 L1272.96 1537.93 Q1275.06 1534.72 1277.89 1533.13 Q1280.76 1531.54 1284.48 1531.54 Q1290.62 1531.54 1293.77 1535.36 Q1296.93 1539.14 1296.93 1546.53 Z" fill="#000000" fill-rule="nonzero" fill-opacity="1" /><path clip-path="url(#clip630)" d="M1334.26 1533.76 L1334.26 1539.24 Q1331.78 1537.87 1329.26 1537.2 Q1326.78 1536.5 1324.23 1536.5 Q1318.54 1536.5 1315.39 1540.13 Q1312.24 1543.73 1312.24 1550.25 Q1312.24 1556.78 1315.39 1560.4 Q1318.54 1564 1324.23 1564 Q1326.78 1564 1329.26 1563.33 Q1331.78 1562.63 1334.26 1561.26 L1334.26 1566.68 Q1331.81 1567.82 1329.17 1568.39 Q1326.56 1568.97 1323.6 1568.97 Q1315.55 1568.97 1310.8 1563.91 Q1306.06 1558.85 1306.06 1550.25 Q1306.06 1541.53 1310.83 1536.53 Q1315.64 1531.54 1323.98 1531.54 Q1326.69 1531.54 1329.26 1532.11 Q1331.84 1532.65 1334.26 1533.76 Z" fill="#000000" fill-rule="nonzero" fill-opacity="1" /><path clip-path="url(#clip630)" d="M1359.28 1571.35 Q1356.8 1577.72 1354.44 1579.66 Q1352.08 1581.6 1348.14 1581.6 L1343.46 1581.6 L1343.46 1576.7 L1346.9 1576.7 Q1349.32 1576.7 1350.65 1575.56 Q1351.99 1574.41 1353.61 1570.14 L1354.66 1567.47 L1340.24 1532.4 L1346.45 1532.4 L1357.59 1560.28 L1368.73 1532.4 L1374.94 1532.4 L1359.28 1571.35 Z" fill="#000000" fill-rule="nonzero" fill-opacity="1" /><path clip-path="url(#clip630)" d="M1417.81 1518.58 Q1413.55 1525.9 1411.48 1533.06 Q1409.41 1540.23 1409.41 1547.58 Q1409.41 1554.93 1411.48 1562.16 Q1413.58 1569.35 1417.81 1576.64 L1412.72 1576.64 Q1407.94 1569.16 1405.56 1561.93 Q1403.2 1554.71 1403.2 1547.58 Q1403.2 1540.48 1405.56 1533.29 Q1407.91 1526.09 1412.72 1518.58 L1417.81 1518.58 Z" fill="#000000" fill-rule="nonzero" fill-opacity="1" /><path clip-path="url(#clip630)" d="M1429.43 1520.52 L1435.86 1520.52 L1435.86 1540 L1459.22 1540 L1459.22 1520.52 L1465.65 1520.52 L1465.65 1568.04 L1459.22 1568.04 L1459.22 1545.41 L1435.86 1545.41 L1435.86 1568.04 L1429.43 1568.04 L1429.43 1520.52 Z" fill="#000000" fill-rule="nonzero" fill-opacity="1" /><path clip-path="url(#clip630)" d="M1475.64 1532.4 L1503.46 1532.4 L1503.46 1537.74 L1481.44 1563.37 L1503.46 1563.37 L1503.46 1568.04 L1474.85 1568.04 L1474.85 1562.7 L1496.87 1537.07 L1475.64 1537.07 L1475.64 1532.4 Z" fill="#000000" fill-rule="nonzero" fill-opacity="1" /><path clip-path="url(#clip630)" d="M1511.48 1518.58 L1516.57 1518.58 Q1521.35 1526.09 1523.7 1533.29 Q1526.09 1540.48 1526.09 1547.58 Q1526.09 1554.71 1523.7 1561.93 Q1521.35 1569.16 1516.57 1576.64 L1511.48 1576.64 Q1515.72 1569.35 1517.78 1562.16 Q1519.88 1554.93 1519.88 1547.58 Q1519.88 1540.23 1517.78 1533.06 Q1515.72 1525.9 1511.48 1518.58 Z" fill="#000000" fill-rule="nonzero" fill-opacity="1" /><polyline clip-path="url(#clip632)" style="stroke:#000000; stroke-linecap:round; stroke-linejoin:round; stroke-width:2; stroke-opacity:0.1; fill:none" points="219.866,1191.41 2352.76,1191.41 "/>
<polyline clip-path="url(#clip632)" style="stroke:#000000; stroke-linecap:round; stroke-linejoin:round; stroke-width:2; stroke-opacity:0.1; fill:none" points="219.866,865.039 2352.76,865.039 "/>
<polyline clip-path="url(#clip632)" style="stroke:#000000; stroke-linecap:round; stroke-linejoin:round; stroke-width:2; stroke-opacity:0.1; fill:none" points="219.866,538.665 2352.76,538.665 "/>
<polyline clip-path="url(#clip632)" style="stroke:#000000; stroke-linecap:round; stroke-linejoin:round; stroke-width:2; stroke-opacity:0.1; fill:none" points="219.866,212.292 2352.76,212.292 "/>
<polyline clip-path="url(#clip630)" style="stroke:#000000; stroke-linecap:round; stroke-linejoin:round; stroke-width:4; stroke-opacity:1; fill:none" points="219.866,1423.18 219.866,47.2441 "/>
<polyline clip-path="url(#clip630)" style="stroke:#000000; stroke-linecap:round; stroke-linejoin:round; stroke-width:4; stroke-opacity:1; fill:none" points="219.866,1191.41 238.764,1191.41 "/>
<polyline clip-path="url(#clip630)" style="stroke:#000000; stroke-linecap:round; stroke-linejoin:round; stroke-width:4; stroke-opacity:1; fill:none" points="219.866,865.039 238.764,865.039 "/>
<polyline clip-path="url(#clip630)" style="stroke:#000000; stroke-linecap:round; stroke-linejoin:round; stroke-width:4; stroke-opacity:1; fill:none" points="219.866,538.665 238.764,538.665 "/>
<polyline clip-path="url(#clip630)" style="stroke:#000000; stroke-linecap:round; stroke-linejoin:round; stroke-width:4; stroke-opacity:1; fill:none" points="219.866,212.292 238.764,212.292 "/>
<path clip-path="url(#clip630)" d="M126.691 1177.21 Q123.08 1177.21 121.251 1180.78 Q119.445 1184.32 119.445 1191.45 Q119.445 1198.55 121.251 1202.12 Q123.08 1205.66 126.691 1205.66 Q130.325 1205.66 132.13 1202.12 Q133.959 1198.55 133.959 1191.45 Q133.959 1184.32 132.13 1180.78 Q130.325 1177.21 126.691 1177.21 M126.691 1173.51 Q132.501 1173.51 135.556 1178.11 Q138.635 1182.7 138.635 1191.45 Q138.635 1200.17 135.556 1204.78 Q132.501 1209.36 126.691 1209.36 Q120.88 1209.36 117.802 1204.78 Q114.746 1200.17 114.746 1191.45 Q114.746 1182.7 117.802 1178.11 Q120.88 1173.51 126.691 1173.51 Z" fill="#000000" fill-rule="nonzero" fill-opacity="1" /><path clip-path="url(#clip630)" d="M146.853 1202.81 L151.737 1202.81 L151.737 1208.69 L146.853 1208.69 L146.853 1202.81 Z" fill="#000000" fill-rule="nonzero" fill-opacity="1" /><path clip-path="url(#clip630)" d="M171.922 1177.21 Q168.311 1177.21 166.482 1180.78 Q164.677 1184.32 164.677 1191.45 Q164.677 1198.55 166.482 1202.12 Q168.311 1205.66 171.922 1205.66 Q175.556 1205.66 177.362 1202.12 Q179.19 1198.55 179.19 1191.45 Q179.19 1184.32 177.362 1180.78 Q175.556 1177.21 171.922 1177.21 M171.922 1173.51 Q177.732 1173.51 180.788 1178.11 Q183.866 1182.7 183.866 1191.45 Q183.866 1200.17 180.788 1204.78 Q177.732 1209.36 171.922 1209.36 Q166.112 1209.36 163.033 1204.78 Q159.978 1200.17 159.978 1191.45 Q159.978 1182.7 163.033 1178.11 Q166.112 1173.51 171.922 1173.51 Z" fill="#000000" fill-rule="nonzero" fill-opacity="1" /><path clip-path="url(#clip630)" d="M128.288 850.837 Q124.677 850.837 122.848 854.402 Q121.043 857.944 121.043 865.074 Q121.043 872.18 122.848 875.745 Q124.677 879.286 128.288 879.286 Q131.922 879.286 133.728 875.745 Q135.556 872.18 135.556 865.074 Q135.556 857.944 133.728 854.402 Q131.922 850.837 128.288 850.837 M128.288 847.134 Q134.098 847.134 137.154 851.74 Q140.232 856.324 140.232 865.074 Q140.232 873.8 137.154 878.407 Q134.098 882.99 128.288 882.99 Q122.478 882.99 119.399 878.407 Q116.343 873.8 116.343 865.074 Q116.343 856.324 119.399 851.74 Q122.478 847.134 128.288 847.134 Z" fill="#000000" fill-rule="nonzero" fill-opacity="1" /><path clip-path="url(#clip630)" d="M148.45 876.439 L153.334 876.439 L153.334 882.319 L148.45 882.319 L148.45 876.439 Z" fill="#000000" fill-rule="nonzero" fill-opacity="1" /><path clip-path="url(#clip630)" d="M167.547 878.384 L183.866 878.384 L183.866 882.319 L161.922 882.319 L161.922 878.384 Q164.584 875.629 169.167 870.999 Q173.774 866.347 174.954 865.004 Q177.2 862.481 178.079 860.745 Q178.982 858.986 178.982 857.296 Q178.982 854.541 177.038 852.805 Q175.116 851.069 172.014 851.069 Q169.815 851.069 167.362 851.833 Q164.931 852.597 162.153 854.148 L162.153 849.425 Q164.977 848.291 167.431 847.712 Q169.885 847.134 171.922 847.134 Q177.292 847.134 180.487 849.819 Q183.681 852.504 183.681 856.995 Q183.681 859.124 182.871 861.046 Q182.084 862.944 179.977 865.536 Q179.399 866.208 176.297 869.425 Q173.195 872.62 167.547 878.384 Z" fill="#000000" fill-rule="nonzero" fill-opacity="1" /><path clip-path="url(#clip630)" d="M126.205 524.464 Q122.593 524.464 120.765 528.029 Q118.959 531.57 118.959 538.7 Q118.959 545.807 120.765 549.371 Q122.593 552.913 126.205 552.913 Q129.839 552.913 131.644 549.371 Q133.473 545.807 133.473 538.7 Q133.473 531.57 131.644 528.029 Q129.839 524.464 126.205 524.464 M126.205 520.76 Q132.015 520.76 135.07 525.367 Q138.149 529.95 138.149 538.7 Q138.149 547.427 135.07 552.033 Q132.015 556.617 126.205 556.617 Q120.394 556.617 117.316 552.033 Q114.26 547.427 114.26 538.7 Q114.26 529.95 117.316 525.367 Q120.394 520.76 126.205 520.76 Z" fill="#000000" fill-rule="nonzero" fill-opacity="1" /><path clip-path="url(#clip630)" d="M146.366 550.066 L151.251 550.066 L151.251 555.945 L146.366 555.945 L146.366 550.066 Z" fill="#000000" fill-rule="nonzero" fill-opacity="1" /><path clip-path="url(#clip630)" d="M174.283 525.459 L162.477 543.908 L174.283 543.908 L174.283 525.459 M173.056 521.385 L178.936 521.385 L178.936 543.908 L183.866 543.908 L183.866 547.797 L178.936 547.797 L178.936 555.945 L174.283 555.945 L174.283 547.797 L158.681 547.797 L158.681 543.283 L173.056 521.385 Z" fill="#000000" fill-rule="nonzero" fill-opacity="1" /><path clip-path="url(#clip630)" d="M126.529 198.091 Q122.918 198.091 121.089 201.655 Q119.283 205.197 119.283 212.327 Q119.283 219.433 121.089 222.998 Q122.918 226.54 126.529 226.54 Q130.163 226.54 131.968 222.998 Q133.797 219.433 133.797 212.327 Q133.797 205.197 131.968 201.655 Q130.163 198.091 126.529 198.091 M126.529 194.387 Q132.339 194.387 135.394 198.993 Q138.473 203.577 138.473 212.327 Q138.473 221.053 135.394 225.66 Q132.339 230.243 126.529 230.243 Q120.718 230.243 117.64 225.66 Q114.584 221.053 114.584 212.327 Q114.584 203.577 117.64 198.993 Q120.718 194.387 126.529 194.387 Z" fill="#000000" fill-rule="nonzero" fill-opacity="1" /><path clip-path="url(#clip630)" d="M146.691 223.692 L151.575 223.692 L151.575 229.572 L146.691 229.572 L146.691 223.692 Z" fill="#000000" fill-rule="nonzero" fill-opacity="1" /><path clip-path="url(#clip630)" d="M172.339 210.429 Q169.19 210.429 167.339 212.581 Q165.51 214.734 165.51 218.484 Q165.51 222.211 167.339 224.387 Q169.19 226.54 172.339 226.54 Q175.487 226.54 177.315 224.387 Q179.167 222.211 179.167 218.484 Q179.167 214.734 177.315 212.581 Q175.487 210.429 172.339 210.429 M181.621 195.776 L181.621 200.035 Q179.862 199.202 178.056 198.762 Q176.274 198.322 174.514 198.322 Q169.885 198.322 167.431 201.447 Q165.001 204.572 164.653 210.891 Q166.019 208.878 168.079 207.813 Q170.139 206.725 172.616 206.725 Q177.825 206.725 180.834 209.896 Q183.866 213.044 183.866 218.484 Q183.866 223.808 180.718 227.026 Q177.57 230.243 172.339 230.243 Q166.343 230.243 163.172 225.66 Q160.001 221.053 160.001 212.327 Q160.001 204.132 163.89 199.271 Q167.778 194.387 174.329 194.387 Q176.089 194.387 177.871 194.734 Q179.676 195.081 181.621 195.776 Z" fill="#000000" fill-rule="nonzero" fill-opacity="1" /><path clip-path="url(#clip630)" d="M16.4842 1287.76 L16.4842 1279.1 L56.238 1258.03 L16.4842 1258.03 L16.4842 1251.79 L64.0042 1251.79 L64.0042 1260.45 L24.2503 1281.52 L64.0042 1281.52 L64.0042 1287.76 L16.4842 1287.76 Z" fill="#000000" fill-rule="nonzero" fill-opacity="1" /><path clip-path="url(#clip630)" d="M32.4621 1225.44 Q32.4621 1230.15 36.1542 1232.88 Q39.8145 1235.62 46.212 1235.62 Q52.6095 1235.62 56.3017 1232.91 Q59.9619 1230.18 59.9619 1225.44 Q59.9619 1220.76 56.2698 1218.02 Q52.5777 1215.28 46.212 1215.28 Q39.8781 1215.28 36.186 1218.02 Q32.4621 1220.76 32.4621 1225.44 M27.4968 1225.44 Q27.4968 1217.8 32.4621 1213.44 Q37.4273 1209.08 46.212 1209.08 Q54.9649 1209.08 59.9619 1213.44 Q64.9272 1217.8 64.9272 1225.44 Q64.9272 1233.11 59.9619 1237.47 Q54.9649 1241.79 46.212 1241.79 Q37.4273 1241.79 32.4621 1237.47 Q27.4968 1233.11 27.4968 1225.44 Z" fill="#000000" fill-rule="nonzero" fill-opacity="1" /><path clip-path="url(#clip630)" d="M33.8307 1178.71 Q33.2578 1179.7 33.0032 1180.88 Q32.7167 1182.02 32.7167 1183.42 Q32.7167 1188.39 35.9632 1191.06 Q39.1779 1193.7 45.2253 1193.7 L64.0042 1193.7 L64.0042 1199.59 L28.3562 1199.59 L28.3562 1193.7 L33.8944 1193.7 Q30.6479 1191.86 29.0883 1188.9 Q27.4968 1185.94 27.4968 1181.7 Q27.4968 1181.1 27.5923 1180.37 Q27.656 1179.63 27.8151 1178.74 L33.8307 1178.71 Z" fill="#000000" fill-rule="nonzero" fill-opacity="1" /><path clip-path="url(#clip630)" d="M35.1993 1145.96 Q31.2526 1143.76 29.3747 1140.71 Q27.4968 1137.65 27.4968 1133.51 Q27.4968 1127.94 31.4117 1124.92 Q35.2948 1121.9 42.4881 1121.9 L64.0042 1121.9 L64.0042 1127.79 L42.679 1127.79 Q37.5546 1127.79 35.072 1129.6 Q32.5894 1131.41 32.5894 1135.14 Q32.5894 1139.69 35.6131 1142.33 Q38.6368 1144.97 43.8567 1144.97 L64.0042 1144.97 L64.0042 1150.86 L42.679 1150.86 Q37.5228 1150.86 35.072 1152.68 Q32.5894 1154.49 32.5894 1158.28 Q32.5894 1162.76 35.6449 1165.41 Q38.6686 1168.05 43.8567 1168.05 L64.0042 1168.05 L64.0042 1173.94 L28.3562 1173.94 L28.3562 1168.05 L33.8944 1168.05 Q30.616 1166.04 29.0564 1163.24 Q27.4968 1160.44 27.4968 1156.59 Q27.4968 1152.71 29.4702 1150 Q31.4436 1147.26 35.1993 1145.96 Z" fill="#000000" fill-rule="nonzero" fill-opacity="1" /><path clip-path="url(#clip630)" d="M46.0847 1094.02 Q46.0847 1101.11 47.7079 1103.85 Q49.3312 1106.59 53.2461 1106.59 Q56.3653 1106.59 58.2114 1104.55 Q60.0256 1102.48 60.0256 1098.95 Q60.0256 1094.08 56.5881 1091.15 Q53.1188 1088.19 47.3897 1088.19 L46.0847 1088.19 L46.0847 1094.02 M43.6657 1082.33 L64.0042 1082.33 L64.0042 1088.19 L58.5933 1088.19 Q61.8398 1090.2 63.3994 1093.19 Q64.9272 1096.18 64.9272 1100.51 Q64.9272 1105.98 61.8716 1109.23 Q58.7843 1112.44 53.6281 1112.44 Q47.6125 1112.44 44.5569 1108.43 Q41.5014 1104.39 41.5014 1096.4 L41.5014 1088.19 L40.9285 1088.19 Q36.8862 1088.19 34.6901 1090.86 Q32.4621 1093.51 32.4621 1098.31 Q32.4621 1101.37 33.1941 1104.26 Q33.9262 1107.16 35.3903 1109.83 L29.9795 1109.83 Q28.7381 1106.62 28.1334 1103.6 Q27.4968 1100.57 27.4968 1097.71 Q27.4968 1089.97 31.5072 1086.15 Q35.5176 1082.33 43.6657 1082.33 Z" fill="#000000" fill-rule="nonzero" fill-opacity="1" /><path clip-path="url(#clip630)" d="M14.479 1070.27 L14.479 1064.41 L64.0042 1064.41 L64.0042 1070.27 L14.479 1070.27 Z" fill="#000000" fill-rule="nonzero" fill-opacity="1" /><path clip-path="url(#clip630)" d="M28.3562 1052.16 L28.3562 1046.3 L64.0042 1046.3 L64.0042 1052.16 L28.3562 1052.16 M14.479 1052.16 L14.479 1046.3 L21.895 1046.3 L21.895 1052.16 L14.479 1052.16 Z" fill="#000000" fill-rule="nonzero" fill-opacity="1" /><path clip-path="url(#clip630)" d="M28.3562 1036.6 L28.3562 1008.78 L33.7034 1008.78 L59.3254 1030.8 L59.3254 1008.78 L64.0042 1008.78 L64.0042 1037.39 L58.657 1037.39 L33.035 1015.37 L33.035 1036.6 L28.3562 1036.6 Z" fill="#000000" fill-rule="nonzero" fill-opacity="1" /><path clip-path="url(#clip630)" d="M44.7161 969.343 L47.5806 969.343 L47.5806 996.27 Q53.6281 995.888 56.8109 992.641 Q59.9619 989.363 59.9619 983.538 Q59.9619 980.164 59.1344 977.013 Q58.3069 973.83 56.6518 970.711 L62.1899 970.711 Q63.5267 973.862 64.227 977.172 Q64.9272 980.483 64.9272 983.888 Q64.9272 992.418 59.9619 997.415 Q54.9967 1002.38 46.5303 1002.38 Q37.7774 1002.38 32.6531 997.67 Q27.4968 992.928 27.4968 984.907 Q27.4968 977.714 32.1438 973.544 Q36.7589 969.343 44.7161 969.343 M42.9973 975.199 Q38.1912 975.263 35.3266 977.905 Q32.4621 980.514 32.4621 984.843 Q32.4621 989.745 35.2312 992.705 Q38.0002 995.633 43.0292 996.079 L42.9973 975.199 Z" fill="#000000" fill-rule="nonzero" fill-opacity="1" /><path clip-path="url(#clip630)" d="M33.7671 936.273 L14.479 936.273 L14.479 930.416 L64.0042 930.416 L64.0042 936.273 L58.657 936.273 Q61.8398 938.119 63.3994 940.952 Q64.9272 943.753 64.9272 947.699 Q64.9272 954.16 59.771 958.235 Q54.6147 962.277 46.212 962.277 Q37.8093 962.277 32.6531 958.235 Q27.4968 954.16 27.4968 947.699 Q27.4968 943.753 29.0564 940.952 Q30.5842 938.119 33.7671 936.273 M46.212 956.229 Q52.6732 956.229 56.3653 953.588 Q60.0256 950.914 60.0256 946.267 Q60.0256 941.62 56.3653 938.946 Q52.6732 936.273 46.212 936.273 Q39.7508 936.273 36.0905 938.946 Q32.3984 941.62 32.3984 946.267 Q32.3984 950.914 36.0905 953.588 Q39.7508 956.229 46.212 956.229 Z" fill="#000000" fill-rule="nonzero" fill-opacity="1" /><path clip-path="url(#clip630)" d="M16.4842 897.378 L16.4842 890.949 L64.0042 890.949 L64.0042 897.378 L16.4842 897.378 Z" fill="#000000" fill-rule="nonzero" fill-opacity="1" /><path clip-path="url(#clip630)" d="M35.1993 850.654 Q31.2526 848.458 29.3747 845.402 Q27.4968 842.347 27.4968 838.209 Q27.4968 832.639 31.4117 829.615 Q35.2948 826.592 42.4881 826.592 L64.0042 826.592 L64.0042 832.48 L42.679 832.48 Q37.5546 832.48 35.072 834.294 Q32.5894 836.108 32.5894 839.832 Q32.5894 844.384 35.6131 847.026 Q38.6368 849.667 43.8567 849.667 L64.0042 849.667 L64.0042 855.556 L42.679 855.556 Q37.5228 855.556 35.072 857.37 Q32.5894 859.184 32.5894 862.972 Q32.5894 867.46 35.6449 870.101 Q38.6686 872.743 43.8567 872.743 L64.0042 872.743 L64.0042 878.631 L28.3562 878.631 L28.3562 872.743 L33.8944 872.743 Q30.616 870.738 29.0564 867.937 Q27.4968 865.136 27.4968 861.285 Q27.4968 857.402 29.4702 854.696 Q31.4436 851.959 35.1993 850.654 Z" fill="#000000" fill-rule="nonzero" fill-opacity="1" /><path clip-path="url(#clip630)" d="M58.657 809.245 L77.5631 809.245 L77.5631 815.133 L28.3562 815.133 L28.3562 809.245 L33.7671 809.245 Q30.5842 807.399 29.0564 804.598 Q27.4968 801.765 27.4968 797.851 Q27.4968 791.358 32.6531 787.315 Q37.8093 783.241 46.212 783.241 Q54.6147 783.241 59.771 787.315 Q64.9272 791.358 64.9272 797.851 Q64.9272 801.765 63.3994 804.598 Q61.8398 807.399 58.657 809.245 M46.212 789.32 Q39.7508 789.32 36.0905 791.994 Q32.3984 794.636 32.3984 799.283 Q32.3984 803.93 36.0905 806.603 Q39.7508 809.245 46.212 809.245 Q52.6732 809.245 56.3653 806.603 Q60.0256 803.93 60.0256 799.283 Q60.0256 794.636 56.3653 791.994 Q52.6732 789.32 46.212 789.32 Z" fill="#000000" fill-rule="nonzero" fill-opacity="1" /><path clip-path="url(#clip630)" d="M44.7161 743.042 L47.5806 743.042 L47.5806 769.969 Q53.6281 769.587 56.8109 766.34 Q59.9619 763.062 59.9619 757.237 Q59.9619 753.863 59.1344 750.712 Q58.3069 747.53 56.6518 744.41 L62.1899 744.41 Q63.5267 747.561 64.227 750.872 Q64.9272 754.182 64.9272 757.587 Q64.9272 766.117 59.9619 771.115 Q54.9967 776.08 46.5303 776.08 Q37.7774 776.08 32.6531 771.369 Q27.4968 766.627 27.4968 758.606 Q27.4968 751.413 32.1438 747.243 Q36.7589 743.042 44.7161 743.042 M42.9973 748.898 Q38.1912 748.962 35.3266 751.604 Q32.4621 754.214 32.4621 758.542 Q32.4621 763.444 35.2312 766.404 Q38.0002 769.332 43.0292 769.778 L42.9973 748.898 Z" fill="#000000" fill-rule="nonzero" fill-opacity="1" /><path clip-path="url(#clip630)" d="M33.7671 709.972 L14.479 709.972 L14.479 704.115 L64.0042 704.115 L64.0042 709.972 L58.657 709.972 Q61.8398 711.818 63.3994 714.651 Q64.9272 717.452 64.9272 721.398 Q64.9272 727.86 59.771 731.934 Q54.6147 735.976 46.212 735.976 Q37.8093 735.976 32.6531 731.934 Q27.4968 727.86 27.4968 721.398 Q27.4968 717.452 29.0564 714.651 Q30.5842 711.818 33.7671 709.972 M46.212 729.928 Q52.6732 729.928 56.3653 727.287 Q60.0256 724.613 60.0256 719.966 Q60.0256 715.319 56.3653 712.646 Q52.6732 709.972 46.212 709.972 Q39.7508 709.972 36.0905 712.646 Q32.3984 715.319 32.3984 719.966 Q32.3984 724.613 36.0905 727.287 Q39.7508 729.928 46.212 729.928 Z" fill="#000000" fill-rule="nonzero" fill-opacity="1" /><path clip-path="url(#clip630)" d="M46.0847 675.852 Q46.0847 682.95 47.7079 685.687 Q49.3312 688.424 53.2461 688.424 Q56.3653 688.424 58.2114 686.387 Q60.0256 684.318 60.0256 680.785 Q60.0256 675.915 56.5881 672.987 Q53.1188 670.027 47.3897 670.027 L46.0847 670.027 L46.0847 675.852 M43.6657 664.171 L64.0042 664.171 L64.0042 670.027 L58.5933 670.027 Q61.8398 672.032 63.3994 675.024 Q64.9272 678.016 64.9272 682.345 Q64.9272 687.819 61.8716 691.066 Q58.7843 694.28 53.6281 694.28 Q47.6125 694.28 44.5569 690.27 Q41.5014 686.228 41.5014 678.239 L41.5014 670.027 L40.9285 670.027 Q36.8862 670.027 34.6901 672.701 Q32.4621 675.342 32.4621 680.149 Q32.4621 683.204 33.1941 686.101 Q33.9262 688.997 35.3903 691.671 L29.9795 691.671 Q28.7381 688.456 28.1334 685.432 Q27.4968 682.408 27.4968 679.544 Q27.4968 671.81 31.5072 667.99 Q35.5176 664.171 43.6657 664.171 Z" fill="#000000" fill-rule="nonzero" fill-opacity="1" /><path clip-path="url(#clip630)" d="M42.4881 622.475 L64.0042 622.475 L64.0042 628.332 L42.679 628.332 Q37.6183 628.332 35.1038 630.305 Q32.5894 632.278 32.5894 636.225 Q32.5894 640.968 35.6131 643.705 Q38.6368 646.442 43.8567 646.442 L64.0042 646.442 L64.0042 652.33 L28.3562 652.33 L28.3562 646.442 L33.8944 646.442 Q30.6797 644.342 29.0883 641.509 Q27.4968 638.644 27.4968 634.92 Q27.4968 628.777 31.3163 625.626 Q35.1038 622.475 42.4881 622.475 Z" fill="#000000" fill-rule="nonzero" fill-opacity="1" /><path clip-path="url(#clip630)" d="M29.7248 585.14 L35.1993 585.14 Q33.8307 587.623 33.1623 590.138 Q32.4621 592.62 32.4621 595.166 Q32.4621 600.864 36.0905 604.015 Q39.6872 607.166 46.212 607.166 Q52.7369 607.166 56.3653 604.015 Q59.9619 600.864 59.9619 595.166 Q59.9619 592.62 59.2935 590.138 Q58.5933 587.623 57.2247 585.14 L62.6355 585.14 Q63.7814 587.591 64.3543 590.233 Q64.9272 592.843 64.9272 595.803 Q64.9272 603.856 59.8664 608.598 Q54.8057 613.341 46.212 613.341 Q37.491 613.341 32.4939 608.566 Q27.4968 603.76 27.4968 595.421 Q27.4968 592.716 28.0697 590.138 Q28.6108 587.559 29.7248 585.14 Z" fill="#000000" fill-rule="nonzero" fill-opacity="1" /><path clip-path="url(#clip630)" d="M44.7161 544.464 L47.5806 544.464 L47.5806 571.391 Q53.6281 571.009 56.8109 567.762 Q59.9619 564.484 59.9619 558.659 Q59.9619 555.285 59.1344 552.134 Q58.3069 548.951 56.6518 545.832 L62.1899 545.832 Q63.5267 548.983 64.227 552.293 Q64.9272 555.604 64.9272 559.009 Q64.9272 567.539 59.9619 572.536 Q54.9967 577.502 46.5303 577.502 Q37.7774 577.502 32.6531 572.791 Q27.4968 568.049 27.4968 560.028 Q27.4968 552.834 32.1438 548.665 Q36.7589 544.464 44.7161 544.464 M42.9973 550.32 Q38.1912 550.384 35.3266 553.025 Q32.4621 555.635 32.4621 559.964 Q32.4621 564.866 35.2312 567.826 Q38.0002 570.754 43.0292 571.2 L42.9973 550.32 Z" fill="#000000" fill-rule="nonzero" fill-opacity="1" /><path clip-path="url(#clip630)" d="M43.5384 517.091 L43.5384 499.935 L48.7583 499.935 L48.7583 517.091 L43.5384 517.091 Z" fill="#000000" fill-rule="nonzero" fill-opacity="1" /><path clip-path="url(#clip630)" d="M41.7242 447.1 Q42.4244 445.031 44.7161 443.09 Q47.0077 441.116 51.0181 439.143 L64.0042 432.618 L64.0042 439.525 L51.8138 445.604 Q47.0395 447.959 45.48 450.187 Q43.9204 452.384 43.9204 456.203 L43.9204 463.205 L64.0042 463.205 L64.0042 469.635 L16.4842 469.635 L16.4842 455.121 Q16.4842 446.973 19.8898 442.962 Q23.2955 438.952 30.1704 438.952 Q34.6582 438.952 37.6183 441.053 Q40.5784 443.122 41.7242 447.1 M21.7677 463.205 L38.6368 463.205 L38.6368 455.121 Q38.6368 450.474 36.5043 448.119 Q34.34 445.731 30.1704 445.731 Q26.0009 445.731 23.9002 448.119 Q21.7677 450.474 21.7677 455.121 L21.7677 463.205 Z" fill="#000000" fill-rule="nonzero" fill-opacity="1" /><path clip-path="url(#clip630)" d="M44.7161 397.034 L47.5806 397.034 L47.5806 423.961 Q53.6281 423.579 56.8109 420.332 Q59.9619 417.054 59.9619 411.229 Q59.9619 407.856 59.1344 404.704 Q58.3069 401.522 56.6518 398.402 L62.1899 398.402 Q63.5267 401.553 64.227 404.864 Q64.9272 408.174 64.9272 411.579 Q64.9272 420.109 59.9619 425.107 Q54.9967 430.072 46.5303 430.072 Q37.7774 430.072 32.6531 425.361 Q27.4968 420.619 27.4968 412.598 Q27.4968 405.405 32.1438 401.235 Q36.7589 397.034 44.7161 397.034 M42.9973 402.89 Q38.1912 402.954 35.3266 405.596 Q32.4621 408.206 32.4621 412.534 Q32.4621 417.436 35.2312 420.396 Q38.0002 423.324 43.0292 423.77 L42.9973 402.89 Z" fill="#000000" fill-rule="nonzero" fill-opacity="1" /><path clip-path="url(#clip630)" d="M46.0847 371.221 Q46.0847 378.319 47.7079 381.056 Q49.3312 383.793 53.2461 383.793 Q56.3653 383.793 58.2114 381.756 Q60.0256 379.687 60.0256 376.154 Q60.0256 371.285 56.5881 368.356 Q53.1188 365.396 47.3897 365.396 L46.0847 365.396 L46.0847 371.221 M43.6657 359.54 L64.0042 359.54 L64.0042 365.396 L58.5933 365.396 Q61.8398 367.401 63.3994 370.393 Q64.9272 373.385 64.9272 377.714 Q64.9272 383.188 61.8716 386.435 Q58.7843 389.65 53.6281 389.65 Q47.6125 389.65 44.5569 385.639 Q41.5014 381.597 41.5014 373.608 L41.5014 365.396 L40.9285 365.396 Q36.8862 365.396 34.6901 368.07 Q32.4621 370.712 32.4621 375.518 Q32.4621 378.573 33.1941 381.47 Q33.9262 384.366 35.3903 387.04 L29.9795 387.04 Q28.7381 383.825 28.1334 380.801 Q27.4968 377.778 27.4968 374.913 Q27.4968 367.179 31.5072 363.359 Q35.5176 359.54 43.6657 359.54 Z" fill="#000000" fill-rule="nonzero" fill-opacity="1" /><path clip-path="url(#clip630)" d="M14.479 347.477 L14.479 341.62 L64.0042 341.62 L64.0042 347.477 L14.479 347.477 Z" fill="#000000" fill-rule="nonzero" fill-opacity="1" /><path clip-path="url(#clip630)" d="M58.657 302.98 L77.5631 302.98 L77.5631 308.869 L28.3562 308.869 L28.3562 302.98 L33.7671 302.98 Q30.5842 301.134 29.0564 298.334 Q27.4968 295.501 27.4968 291.586 Q27.4968 285.093 32.6531 281.051 Q37.8093 276.977 46.212 276.977 Q54.6147 276.977 59.771 281.051 Q64.9272 285.093 64.9272 291.586 Q64.9272 295.501 63.3994 298.334 Q61.8398 301.134 58.657 302.98 M46.212 283.056 Q39.7508 283.056 36.0905 285.729 Q32.3984 288.371 32.3984 293.018 Q32.3984 297.665 36.0905 300.339 Q39.7508 302.98 46.212 302.98 Q52.6732 302.98 56.3653 300.339 Q60.0256 297.665 60.0256 293.018 Q60.0256 288.371 56.3653 285.729 Q52.6732 283.056 46.212 283.056 Z" fill="#000000" fill-rule="nonzero" fill-opacity="1" /><path clip-path="url(#clip630)" d="M46.0847 251.068 Q46.0847 258.166 47.7079 260.903 Q49.3312 263.64 53.2461 263.64 Q56.3653 263.64 58.2114 261.603 Q60.0256 259.535 60.0256 256.002 Q60.0256 251.132 56.5881 248.204 Q53.1188 245.244 47.3897 245.244 L46.0847 245.244 L46.0847 251.068 M43.6657 239.387 L64.0042 239.387 L64.0042 245.244 L58.5933 245.244 Q61.8398 247.249 63.3994 250.241 Q64.9272 253.232 64.9272 257.561 Q64.9272 263.036 61.8716 266.282 Q58.7843 269.497 53.6281 269.497 Q47.6125 269.497 44.5569 265.486 Q41.5014 261.444 41.5014 253.455 L41.5014 245.244 L40.9285 245.244 Q36.8862 245.244 34.6901 247.917 Q32.4621 250.559 32.4621 255.365 Q32.4621 258.421 33.1941 261.317 Q33.9262 264.213 35.3903 266.887 L29.9795 266.887 Q28.7381 263.672 28.1334 260.649 Q27.4968 257.625 27.4968 254.76 Q27.4968 247.026 31.5072 243.207 Q35.5176 239.387 43.6657 239.387 Z" fill="#000000" fill-rule="nonzero" fill-opacity="1" /><path clip-path="url(#clip630)" d="M33.8307 206.667 Q33.2578 207.654 33.0032 208.832 Q32.7167 209.978 32.7167 211.378 Q32.7167 216.343 35.9632 219.017 Q39.1779 221.659 45.2253 221.659 L64.0042 221.659 L64.0042 227.547 L28.3562 227.547 L28.3562 221.659 L33.8944 221.659 Q30.6479 219.813 29.0883 216.852 Q27.4968 213.892 27.4968 209.659 Q27.4968 209.054 27.5923 208.322 Q27.656 207.59 27.8151 206.699 L33.8307 206.667 Z" fill="#000000" fill-rule="nonzero" fill-opacity="1" /><path clip-path="url(#clip630)" d="M18.2347 194.732 L28.3562 194.732 L28.3562 182.669 L32.9077 182.669 L32.9077 194.732 L52.2594 194.732 Q56.6199 194.732 57.8613 193.554 Q59.1026 192.345 59.1026 188.684 L59.1026 182.669 L64.0042 182.669 L64.0042 188.684 Q64.0042 195.464 61.4897 198.042 Q58.9434 200.62 52.2594 200.62 L32.9077 200.62 L32.9077 204.917 L28.3562 204.917 L28.3562 200.62 L18.2347 200.62 L18.2347 194.732 Z" fill="#000000" fill-rule="nonzero" fill-opacity="1" /><polyline clip-path="url(#clip632)" style="stroke:#009af9; stroke-linecap:round; stroke-linejoin:round; stroke-width:8; stroke-opacity:1; fill:none" points="219.866,1384.24 222.111,1321.45 224.357,1262.08 226.602,1205.91 228.847,1152.72 231.092,1102.33 233.337,1054.55 235.582,1009.21 237.827,966.179 240.073,925.303 242.318,886.454 244.563,849.514 246.808,814.37 249.053,780.92 251.298,749.066 253.543,718.721 255.789,689.799 258.034,662.225 260.279,635.924 262.524,610.83 264.769,586.878 267.014,564.01 269.259,542.169 271.505,521.304 273.75,501.366 275.995,482.308 278.24,464.088 280.485,446.664 282.73,429.998 284.976,414.055 287.221,398.8 289.466,384.202 291.711,370.229 293.956,356.853 296.201,344.048 298.446,331.787 300.692,320.046 302.937,308.803 305.182,298.035 307.427,287.723 309.672,277.846 311.917,268.386 314.162,259.325 316.408,250.647 318.653,242.335 320.898,234.376 323.143,226.753 325.388,219.454 327.633,212.465 329.878,205.774 332.124,199.369 334.369,193.239 336.614,187.373 338.859,181.761 341.104,176.393 343.349,171.259 345.594,166.351 347.84,161.66 350.085,157.178 352.33,152.896 354.575,148.809 356.82,144.907 359.065,141.185 361.311,137.636 363.556,134.253 365.801,131.031 368.046,127.963 370.291,125.045 372.536,122.27 374.781,119.635 377.027,117.132 379.272,114.759 381.517,112.511 383.762,110.382 386.007,108.37 388.252,106.47 390.497,104.677 392.743,102.989 394.988,101.402 397.233,99.9126 399.478,98.5169 401.723,97.212 403.968,95.995 406.213,94.8628 408.459,93.8125 410.704,92.8416 412.949,91.9472 415.194,91.1269 417.439,90.3781 419.684,89.6986 421.929,89.086 424.175,88.5382 426.42,88.0529 428.665,87.6282 430.91,87.262 433.155,86.9525 435.4,86.6978 437.646,86.4961 439.891,86.3456 442.136,86.2448 444.381,86.192 446.626,86.1857 448.871,86.2243 451.116,86.3063 453.362,86.4305 455.607,86.5954 457.852,86.7997 460.097,87.0421 462.342,87.3215 464.587,87.6365 466.832,87.9861 469.078,88.3691 471.323,88.7845 473.568,89.2312 475.813,89.7083 478.058,90.2146 480.303,90.7493 482.548,91.3114 484.794,91.9001 487.039,92.5144 489.284,93.1537 491.529,93.8169 493.774,94.5034 496.019,95.2124 498.264,95.9431 500.51,96.6949 502.755,97.467 505,98.2587 507.245,99.0695 509.49,99.8986 511.735,100.745 513.981,101.61 516.226,102.49 518.471,103.387 520.716,104.299 522.961,105.226 525.206,106.167 527.451,107.123 529.697,108.091 531.942,109.073 534.187,110.067 536.432,111.074 538.677,112.092 540.922,113.121 543.167,114.161 545.413,115.211 547.658,116.272 549.903,117.342 552.148,118.421 554.393,119.51 556.638,120.607 558.883,121.712 561.129,122.825 563.374,123.946 565.619,125.074 567.864,126.209 570.109,127.351 572.354,128.499 574.599,129.654 576.845,130.814 579.09,131.98 581.335,133.152 583.58,134.329 585.825,135.51 588.07,136.697 590.316,137.888 592.561,139.083 594.806,140.282 597.051,141.485 599.296,142.692 601.541,143.902 603.786,145.115 606.032,146.332 608.277,147.551 610.522,148.773 612.767,149.998 615.012,151.225 617.257,152.454 619.502,153.686 621.748,154.919 623.993,156.154 626.238,157.391 628.483,158.629 630.728,159.869 632.973,161.11 635.218,162.352 637.464,163.595 639.709,164.838 641.954,166.083 644.199,167.328 646.444,168.574 648.689,169.82 650.934,171.066 653.18,172.313 655.425,173.56 657.67,174.806 659.915,176.053 662.16,177.299 664.405,178.545 666.651,179.791 668.896,181.037 671.141,182.281 673.386,183.526 675.631,184.769 677.876,186.012 680.121,187.254 682.367,188.495 684.612,189.735 686.857,190.974 689.102,192.212 691.347,193.449 693.592,194.684 695.837,195.918 698.083,197.151 700.328,198.383 702.573,199.613 704.818,200.841 707.063,202.068 709.308,203.293 711.553,204.517 713.799,205.739 716.044,206.959 718.289,208.177 720.534,209.394 722.779,210.608 725.024,211.821 727.269,213.032 729.515,214.241 731.76,215.447 734.005,216.652 736.25,217.854 738.495,219.054 740.74,220.253 742.986,221.449 745.231,222.642 747.476,223.834 749.721,225.023 751.966,226.209 754.211,227.394 756.456,228.576 758.702,229.755 760.947,230.932 763.192,232.107 765.437,233.279 767.682,234.449 769.927,235.616 772.172,236.781 774.418,237.943 776.663,239.102 778.908,240.259 781.153,241.413 783.398,242.565 785.643,243.714 787.888,244.86 790.134,246.003 792.379,247.144 794.624,248.282 796.869,249.418 799.114,250.55 801.359,251.68 803.604,252.807 805.85,253.932 808.095,255.053 810.34,256.172 812.585,257.288 814.83,258.401 817.075,259.511 819.321,260.619 821.566,261.723 823.811,262.825 826.056,263.924 828.301,265.02 830.546,266.113 832.791,267.203 835.037,268.291 837.282,269.375 839.527,270.457 841.772,271.535 844.017,272.611 846.262,273.684 848.507,274.754 850.753,275.821 852.998,276.885 855.243,277.946 857.488,279.004 859.733,280.059 861.978,281.112 864.223,282.161 866.469,283.208 868.714,284.251 870.959,285.292 873.204,286.329 875.449,287.364 877.694,288.396 879.939,289.425 882.185,290.451 884.43,291.473 886.675,292.493 888.92,293.511 891.165,294.525 893.41,295.536 895.656,296.544 897.901,297.549 900.146,298.552 902.391,299.551 904.636,300.548 906.881,301.541 909.126,302.532 911.372,303.52 913.617,304.505 915.862,305.486 918.107,306.465 920.352,307.442 922.597,308.415 924.842,309.385 927.088,310.352 929.333,311.317 931.578,312.278 933.823,313.237 936.068,314.193 938.313,315.146 940.558,316.096 942.804,317.043 945.049,317.987 947.294,318.929 949.539,319.867 951.784,320.803 954.029,321.736 956.274,322.666 958.52,323.593 960.765,324.517 963.01,325.439 965.255,326.358 967.5,327.273 969.745,328.186 971.991,329.097 974.236,330.004 976.481,330.909 978.726,331.811 980.971,332.71 983.216,333.606 985.461,334.499 987.707,335.39 989.952,336.278 992.197,337.163 994.442,338.046 996.687,338.925 998.932,339.802 1001.18,340.677 1003.42,341.548 1005.67,342.417 1007.91,343.283 1010.16,344.146 1012.4,345.007 1014.65,345.865 1016.89,346.72 1019.14,347.573 1021.38,348.423 1023.63,349.27 1025.87,350.114 1028.12,350.956 1030.36,351.795 1032.61,352.632 1034.85,353.466 1037.1,354.297 1039.34,355.126 1041.59,355.952 1043.84,356.776 1046.08,357.596 1048.33,358.415 1050.57,359.23 1052.82,360.044 1055.06,360.854 1057.31,361.662 1059.55,362.467 1061.8,363.27 1064.04,364.071 1066.29,364.868 1068.53,365.664 1070.78,366.456 1073.02,367.246 1075.27,368.034 1077.51,368.819 1079.76,369.602 1082,370.382 1084.25,371.16 1086.49,371.935 1088.74,372.707 1090.98,373.478 1093.23,374.245 1095.47,375.011 1097.72,375.774 1099.96,376.534 1102.21,377.292 1104.45,378.048 1106.7,378.801 1108.94,379.552 1111.19,380.3 1113.43,381.046 1115.68,381.79 1117.93,382.531 1120.17,383.27 1122.42,384.006 1124.66,384.74 1126.91,385.472 1129.15,386.201 1131.4,386.928 1133.64,387.653 1135.89,388.375 1138.13,389.095 1140.38,389.813 1142.62,390.529 1144.87,391.242 1147.11,391.953 1149.36,392.661 1151.6,393.368 1153.85,394.072 1156.09,394.773 1158.34,395.473 1160.58,396.17 1162.83,396.865 1165.07,397.558 1167.32,398.248 1169.56,398.937 1171.81,399.623 1174.05,400.307 1176.3,400.988 1178.54,401.668 1180.79,402.345 1183.03,403.02 1185.28,403.693 1187.52,404.364 1189.77,405.033 1192.01,405.699 1194.26,406.363 1196.51,407.026 1198.75,407.686 1201,408.344 1203.24,408.999 1205.49,409.653 1207.73,410.305 1209.98,410.954 1212.22,411.601 1214.47,412.247 1216.71,412.89 1218.96,413.531 1221.2,414.17 1223.45,414.807 1225.69,415.442 1227.94,416.075 1230.18,416.706 1232.43,417.334 1234.67,417.961 1236.92,418.586 1239.16,419.208 1241.41,419.829 1243.65,420.448 1245.9,421.064 1248.14,421.679 1250.39,422.292 1252.63,422.903 1254.88,423.511 1257.12,424.118 1259.37,424.723 1261.61,425.326 1263.86,425.927 1266.1,426.526 1268.35,427.123 1270.6,427.718 1272.84,428.311 1275.09,428.902 1277.33,429.491 1279.58,430.079 1281.82,430.664 1284.07,431.248 1286.31,431.83 1288.56,432.409 1290.8,432.987 1293.05,433.564 1295.29,434.138 1297.54,434.71 1299.78,435.281 1302.03,435.849 1304.27,436.416 1306.52,436.981 1308.76,437.544 1311.01,438.105 1313.25,438.665 1315.5,439.223 1317.74,439.779 1319.99,440.333 1322.23,440.885 1324.48,441.435 1326.72,441.984 1328.97,442.531 1331.21,443.076 1333.46,443.619 1335.7,444.161 1337.95,444.701 1340.19,445.239 1342.44,445.775 1344.68,446.31 1346.93,446.843 1349.18,447.374 1351.42,447.903 1353.67,448.431 1355.91,448.957 1358.16,449.481 1360.4,450.004 1362.65,450.525 1364.89,451.044 1367.14,451.561 1369.38,452.077 1371.63,452.591 1373.87,453.104 1376.12,453.614 1378.36,454.123 1380.61,454.631 1382.85,455.137 1385.1,455.641 1387.34,456.143 1389.59,456.644 1391.83,457.143 1394.08,457.641 1396.32,458.137 1398.57,458.631 1400.81,459.124 1403.06,459.615 1405.3,460.105 1407.55,460.593 1409.79,461.079 1412.04,461.564 1414.28,462.047 1416.53,462.529 1418.77,463.009 1421.02,463.487 1423.27,463.964 1425.51,464.439 1427.76,464.913 1430,465.385 1432.25,465.856 1434.49,466.325 1436.74,466.793 1438.98,467.259 1441.23,467.724 1443.47,468.187 1445.72,468.648 1447.96,469.108 1450.21,469.567 1452.45,470.024 1454.7,470.479 1456.94,470.933 1459.19,471.386 1461.43,471.837 1463.68,472.287 1465.92,472.735 1468.17,473.181 1470.41,473.626 1472.66,474.07 1474.9,474.512 1477.15,474.953 1479.39,475.393 1481.64,475.83 1483.88,476.267 1486.13,476.702 1488.37,477.135 1490.62,477.568 1492.86,477.998 1495.11,478.428 1497.35,478.856 1499.6,479.282 1501.85,479.707 1504.09,480.131 1506.34,480.553 1508.58,480.974 1510.83,481.394 1513.07,481.812 1515.32,482.229 1517.56,482.644 1519.81,483.058 1522.05,483.471 1524.3,483.882 1526.54,484.292 1528.79,484.7 1531.03,485.108 1533.28,485.513 1535.52,485.918 1537.77,486.321 1540.01,486.723 1542.26,487.124 1544.5,487.523 1546.75,487.921 1548.99,488.317 1551.24,488.712 1553.48,489.106 1555.73,489.499 1557.97,489.89 1560.22,490.28 1562.46,490.669 1564.71,491.056 1566.95,491.442 1569.2,491.827 1571.44,492.211 1573.69,492.593 1575.94,492.974 1578.18,493.354 1580.43,493.732 1582.67,494.109 1584.92,494.485 1587.16,494.86 1589.41,495.233 1591.65,495.605 1593.9,495.976 1596.14,496.346 1598.39,496.714 1600.63,497.082 1602.88,497.448 1605.12,497.812 1607.37,498.176 1609.61,498.538 1611.86,498.899 1614.1,499.259 1616.35,499.618 1618.59,499.975 1620.84,500.331 1623.08,500.687 1625.33,501.04 1627.57,501.393 1629.82,501.745 1632.06,502.095 1634.31,502.444 1636.55,502.792 1638.8,503.139 1641.04,503.484 1643.29,503.828 1645.53,504.172 1647.78,504.514 1650.02,504.855 1652.27,505.194 1654.52,505.533 1656.76,505.87 1659.01,506.207 1661.25,506.542 1663.5,506.876 1665.74,507.209 1667.99,507.54 1670.23,507.871 1672.48,508.201 1674.72,508.529 1676.97,508.856 1679.21,509.182 1681.46,509.507 1683.7,509.831 1685.95,510.154 1688.19,510.476 1690.44,510.796 1692.68,511.116 1694.93,511.434 1697.17,511.751 1699.42,512.067 1701.66,512.382 1703.91,512.696 1706.15,513.009 1708.4,513.321 1710.64,513.632 1712.89,513.942 1715.13,514.25 1717.38,514.558 1719.62,514.864 1721.87,515.17 1724.11,515.474 1726.36,515.777 1728.61,516.079 1730.85,516.381 1733.1,516.681 1735.34,516.98 1737.59,517.278 1739.83,517.575 1742.08,517.871 1744.32,518.166 1746.57,518.46 1748.81,518.753 1751.06,519.045 1753.3,519.335 1755.55,519.625 1757.79,519.914 1760.04,520.202 1762.28,520.488 1764.53,520.774 1766.77,521.059 1769.02,521.343 1771.26,521.625 1773.51,521.907 1775.75,522.188 1778,522.468 1780.24,522.746 1782.49,523.024 1784.73,523.301 1786.98,523.577 1789.22,523.852 1791.47,524.125 1793.71,524.398 1795.96,524.67 1798.2,524.941 1800.45,525.211 1802.69,525.48 1804.94,525.748 1807.19,526.015 1809.43,526.281 1811.68,526.546 1813.92,526.81 1816.17,527.074 1818.41,527.336 1820.66,527.597 1822.9,527.858 1825.15,528.117 1827.39,528.375 1829.64,528.633 1831.88,528.89 1834.13,529.145 1836.37,529.4 1838.62,529.654 1840.86,529.907 1843.11,530.159 1845.35,530.41 1847.6,530.66 1849.84,530.909 1852.09,531.158 1854.33,531.405 1856.58,531.651 1858.82,531.897 1861.07,532.142 1863.31,532.386 1865.56,532.628 1867.8,532.87 1870.05,533.111 1872.29,533.352 1874.54,533.591 1876.78,533.829 1879.03,534.067 1881.28,534.303 1883.52,534.539 1885.77,534.774 1888.01,535.008 1890.26,535.241 1892.5,535.473 1894.75,535.705 1896.99,535.935 1899.24,536.165 1901.48,536.394 1903.73,536.622 1905.97,536.849 1908.22,537.075 1910.46,537.3 1912.71,537.525 1914.95,537.748 1917.2,537.971 1919.44,538.193 1921.69,538.414 1923.93,538.634 1926.18,538.853 1928.42,539.072 1930.67,539.29 1932.91,539.506 1935.16,539.722 1937.4,539.938 1939.65,540.152 1941.89,540.366 1944.14,540.578 1946.38,540.79 1948.63,541.001 1950.87,541.211 1953.12,541.421 1955.36,541.629 1957.61,541.837 1959.86,542.044 1962.1,542.25 1964.35,542.455 1966.59,542.66 1968.84,542.864 1971.08,543.067 1973.33,543.269 1975.57,543.47 1977.82,543.67 1980.06,543.87 1982.31,544.069 1984.55,544.267 1986.8,544.464 1989.04,544.661 1991.29,544.857 1993.53,545.052 1995.78,545.246 1998.02,545.439 2000.27,545.632 2002.51,545.824 2004.76,546.015 2007,546.205 2009.25,546.394 2011.49,546.583 2013.74,546.771 2015.98,546.958 2018.23,547.145 2020.47,547.33 2022.72,547.515 2024.96,547.699 2027.21,547.883 2029.45,548.065 2031.7,548.247 2033.95,548.428 2036.19,548.608 2038.44,548.788 2040.68,548.967 2042.93,549.145 2045.17,549.322 2047.42,549.499 2049.66,549.675 2051.91,549.85 2054.15,550.024 2056.4,550.198 2058.64,550.37 2060.89,550.543 2063.13,550.714 2065.38,550.885 2067.62,551.055 2069.87,551.224 2072.11,551.392 2074.36,551.56 2076.6,551.727 2078.85,551.893 2081.09,552.059 2083.34,552.224 2085.58,552.388 2087.83,552.551 2090.07,552.714 2092.32,552.876 2094.56,553.037 2096.81,553.198 2099.05,553.358 2101.3,553.517 2103.54,553.675 2105.79,553.833 2108.03,553.99 2110.28,554.146 2112.53,554.302 2114.77,554.457 2117.02,554.611 2119.26,554.764 2121.51,554.917 2123.75,555.069 2126,555.221 2128.24,555.371 2130.49,555.521 2132.73,555.671 2134.98,555.82 2137.22,555.967 2139.47,556.115 2141.71,556.261 2143.96,556.407 2146.2,556.553 2148.45,556.697 2150.69,556.841 2152.94,556.984 2155.18,557.127 2157.43,557.269 2159.67,557.41 2161.92,557.55 2164.16,557.69 2166.41,557.829 2168.65,557.968 2170.9,558.106 2173.14,558.243 2175.39,558.379 2177.63,558.515 2179.88,558.65 2182.12,558.785 2184.37,558.919 2186.62,559.052 2188.86,559.185 2191.11,559.317 2193.35,559.448 2195.6,559.578 2197.84,559.708 2200.09,559.838 2202.33,559.966 2204.58,560.094 2206.82,560.222 2209.07,560.348 2211.31,560.474 2213.56,560.6 2215.8,560.725 2218.05,560.849 2220.29,560.972 2222.54,561.095 2224.78,561.217 2227.03,561.339 2229.27,561.46 2231.52,561.58 2233.76,561.7 2236.01,561.819 2238.25,561.938 2240.5,562.055 2242.74,562.173 2244.99,562.289 2247.23,562.405 2249.48,562.52 2251.72,562.635 2253.97,562.749 2256.21,562.863 2258.46,562.975 2260.7,563.088 2262.95,563.199 2265.2,563.31 2267.44,563.421 2269.69,563.53 2271.93,563.639 2274.18,563.748 2276.42,563.856 2278.67,563.963 2280.91,564.07 2283.16,564.176 2285.4,564.281 2287.65,564.386 2289.89,564.491 2292.14,564.594 2294.38,564.697 2296.63,564.8 2298.87,564.902 2301.12,565.003 2303.36,565.104 2305.61,565.204 2307.85,565.303 2310.1,565.402 2312.34,565.5 2314.59,565.598 2316.83,565.695 2319.08,565.792 2321.32,565.888 2323.57,565.983 2325.81,566.078 2328.06,566.172 2330.3,566.266 2332.55,566.359 2334.79,566.451 2337.04,566.543 2339.29,566.634 2341.53,566.725 2343.78,566.815 2346.02,566.904 2348.27,566.993 2350.51,567.082 2352.76,567.169 2355,567.257 2357.25,567.343 "/>
<polyline clip-path="url(#clip632)" style="stroke:#e26f46; stroke-linecap:round; stroke-linejoin:round; stroke-width:8; stroke-opacity:1; fill:none" stroke-dasharray="32, 20" points="219.866,1384.24 222.111,1321.45 224.357,1262.08 226.602,1205.91 228.847,1152.72 231.092,1102.33 233.337,1054.55 235.582,1009.21 237.827,966.179 240.073,925.303 242.318,886.454 244.563,849.514 246.808,814.37 249.053,780.92 251.298,749.066 253.543,718.721 255.789,689.799 258.034,662.225 260.279,635.924 262.524,610.83 264.769,586.878 267.014,564.01 269.259,542.169 271.505,521.304 273.75,501.366 275.995,482.308 278.24,464.088 280.485,446.664 282.73,429.998 284.976,414.055 287.221,398.8 289.466,384.202 291.711,370.229 293.956,356.853 296.201,344.048 298.446,331.787 300.692,320.046 302.937,308.803 305.182,298.035 307.427,287.723 309.672,277.846 311.917,268.386 314.162,259.325 316.408,250.647 318.653,242.335 320.898,234.376 323.143,226.753 325.388,219.454 327.633,212.465 329.878,205.774 332.124,199.369 334.369,193.239 336.614,187.373 338.859,181.761 341.104,176.393 343.349,171.259 345.594,166.351 347.84,161.66 350.085,157.178 352.33,152.896 354.575,148.809 356.82,144.907 359.065,141.185 361.311,137.636 363.556,134.253 365.801,131.031 368.046,127.963 370.291,125.045 372.536,122.27 374.781,119.635 377.027,117.132 379.272,114.759 381.517,112.511 383.762,110.382 386.007,108.37 388.252,106.47 390.497,104.677 392.743,102.989 394.988,101.402 397.233,99.9126 399.478,98.5169 401.723,97.212 403.968,95.995 406.213,94.8628 408.459,93.8125 410.704,92.8416 412.949,91.9472 415.194,91.1269 417.439,90.3781 419.684,89.6986 421.929,89.086 424.175,88.5382 426.42,88.0529 428.665,87.6282 430.91,87.262 433.155,86.9525 435.4,86.6978 437.646,86.4961 439.891,86.3456 442.136,86.2448 444.381,86.192 446.626,86.1857 448.871,86.2243 451.116,86.3063 453.362,86.4305 455.607,86.5954 457.852,86.7997 460.097,87.0421 462.342,87.3215 464.587,87.6365 466.832,87.9861 469.078,88.3691 471.323,88.7845 473.568,89.2312 475.813,89.7083 478.058,90.2146 480.303,90.7493 482.548,91.3114 484.794,91.9001 487.039,92.5144 489.284,93.1537 491.529,93.8169 493.774,94.5034 496.019,95.2124 498.264,95.9431 500.51,96.6949 502.755,97.467 505,98.2587 507.245,99.0695 509.49,99.8986 511.735,100.745 513.981,101.61 516.226,102.49 518.471,103.387 520.716,104.299 522.961,105.226 525.206,106.167 527.451,107.123 529.697,108.091 531.942,109.073 534.187,110.067 536.432,111.074 538.677,112.092 540.922,113.121 543.167,114.161 545.413,115.211 547.658,116.272 549.903,117.342 552.148,118.421 554.393,119.51 556.638,120.607 558.883,121.712 561.129,122.825 563.374,123.946 565.619,125.074 567.864,126.209 570.109,127.351 572.354,128.499 574.599,129.654 576.845,130.814 579.09,131.98 581.335,133.152 583.58,134.329 585.825,135.51 588.07,136.697 590.316,137.888 592.561,139.083 594.806,140.282 597.051,141.485 599.296,142.692 601.541,143.902 603.786,145.115 606.032,146.332 608.277,147.551 610.522,148.773 612.767,149.998 615.012,151.225 617.257,152.454 619.502,153.686 621.748,154.919 623.993,156.154 626.238,157.391 628.483,158.629 630.728,159.869 632.973,161.11 635.218,162.352 637.464,163.595 639.709,164.838 641.954,166.083 644.199,167.328 646.444,168.574 648.689,169.82 650.934,171.066 653.18,172.313 655.425,173.56 657.67,174.806 659.915,176.053 662.16,177.299 664.405,178.545 666.651,179.791 668.896,181.037 671.141,182.281 673.386,183.526 675.631,184.769 677.876,186.012 680.121,187.254 682.367,188.495 684.612,189.735 686.857,190.974 689.102,192.212 691.347,193.449 693.592,194.684 695.837,195.918 698.083,197.151 700.328,198.383 702.573,199.613 704.818,200.841 707.063,202.068 709.308,203.293 711.553,204.517 713.799,205.739 716.044,206.959 718.289,208.177 720.534,209.394 722.779,210.608 725.024,211.821 727.269,213.032 729.515,214.241 731.76,215.447 734.005,216.652 736.25,217.854 738.495,219.054 740.74,220.253 742.986,221.449 745.231,222.642 747.476,223.834 749.721,225.023 751.966,226.209 754.211,227.394 756.456,228.576 758.702,229.755 760.947,230.932 763.192,232.107 765.437,233.279 767.682,234.449 769.927,235.616 772.172,236.781 774.418,237.943 776.663,239.102 778.908,240.259 781.153,241.413 783.398,242.565 785.643,243.714 787.888,244.86 790.134,246.003 792.379,247.144 794.624,248.282 796.869,249.418 799.114,250.55 801.359,251.68 803.604,252.807 805.85,253.932 808.095,255.053 810.34,256.172 812.585,257.288 814.83,258.401 817.075,259.511 819.321,260.619 821.566,261.723 823.811,262.825 826.056,263.924 828.301,265.02 830.546,266.113 832.791,267.203 835.037,268.291 837.282,269.375 839.527,270.457 841.772,271.535 844.017,272.611 846.262,273.684 848.507,274.754 850.753,275.821 852.998,276.885 855.243,277.946 857.488,279.004 859.733,280.059 861.978,281.112 864.223,282.161 866.469,283.208 868.714,284.251 870.959,285.292 873.204,286.329 875.449,287.364 877.694,288.396 879.939,289.425 882.185,290.451 884.43,291.473 886.675,292.493 888.92,293.511 891.165,294.525 893.41,295.536 895.656,296.544 897.901,297.549 900.146,298.552 902.391,299.551 904.636,300.548 906.881,301.541 909.126,302.532 911.372,303.52 913.617,304.505 915.862,305.486 918.107,306.465 920.352,307.442 922.597,308.415 924.842,309.385 927.088,310.352 929.333,311.317 931.578,312.278 933.823,313.237 936.068,314.193 938.313,315.146 940.558,316.096 942.804,317.043 945.049,317.987 947.294,318.929 949.539,319.867 951.784,320.803 954.029,321.736 956.274,322.666 958.52,323.593 960.765,324.517 963.01,325.439 965.255,326.358 967.5,327.273 969.745,328.186 971.991,329.097 974.236,330.004 976.481,330.909 978.726,331.811 980.971,332.71 983.216,333.606 985.461,334.499 987.707,335.39 989.952,336.278 992.197,337.163 994.442,338.046 996.687,338.925 998.932,339.802 1001.18,340.677 1003.42,341.548 1005.67,342.417 1007.91,343.283 1010.16,344.146 1012.4,345.007 1014.65,345.865 1016.89,346.72 1019.14,347.573 1021.38,348.423 1023.63,349.27 1025.87,350.114 1028.12,350.956 1030.36,351.795 1032.61,352.632 1034.85,353.466 1037.1,354.297 1039.34,355.126 1041.59,355.952 1043.84,356.776 1046.08,357.596 1048.33,358.415 1050.57,359.23 1052.82,360.044 1055.06,360.854 1057.31,361.662 1059.55,362.467 1061.8,363.27 1064.04,364.071 1066.29,364.868 1068.53,365.664 1070.78,366.456 1073.02,367.246 1075.27,368.034 1077.51,368.819 1079.76,369.602 1082,370.382 1084.25,371.16 1086.49,371.935 1088.74,372.707 1090.98,373.478 1093.23,374.245 1095.47,375.011 1097.72,375.774 1099.96,376.534 1102.21,377.292 1104.45,378.048 1106.7,378.801 1108.94,379.552 1111.19,380.3 1113.43,381.046 1115.68,381.79 1117.93,382.531 1120.17,383.27 1122.42,384.006 1124.66,384.74 1126.91,385.472 1129.15,386.201 1131.4,386.928 1133.64,387.653 1135.89,388.375 1138.13,389.095 1140.38,389.813 1142.62,390.529 1144.87,391.242 1147.11,391.953 1149.36,392.661 1151.6,393.368 1153.85,394.072 1156.09,394.773 1158.34,395.473 1160.58,396.17 1162.83,396.865 1165.07,397.558 1167.32,398.248 1169.56,398.937 1171.81,399.623 1174.05,400.307 1176.3,400.988 1178.54,401.668 1180.79,402.345 1183.03,403.02 1185.28,403.693 1187.52,404.364 1189.77,405.033 1192.01,405.699 1194.26,406.363 1196.51,407.026 1198.75,407.686 1201,408.344 1203.24,408.999 1205.49,409.653 1207.73,410.305 1209.98,410.954 1212.22,411.601 1214.47,412.247 1216.71,412.89 1218.96,413.531 1221.2,414.17 1223.45,414.807 1225.69,415.442 1227.94,416.075 1230.18,416.705 1232.43,417.334 1234.67,417.961 1236.92,418.586 1239.16,419.208 1241.41,419.829 1243.65,420.448 1245.9,421.064 1248.14,421.679 1250.39,422.292 1252.63,422.903 1254.88,423.511 1257.12,424.118 1259.37,424.723 1261.61,425.326 1263.86,425.927 1266.1,426.526 1268.35,427.123 1270.6,427.718 1272.84,428.311 1275.09,428.902 1277.33,429.491 1279.58,430.079 1281.82,430.664 1284.07,431.248 1286.31,431.83 1288.56,432.409 1290.8,432.987 1293.05,433.564 1295.29,434.138 1297.54,434.71 1299.78,435.281 1302.03,435.849 1304.27,436.416 1306.52,436.981 1308.76,437.544 1311.01,438.105 1313.25,438.665 1315.5,439.223 1317.74,439.779 1319.99,440.333 1322.23,440.885 1324.48,441.435 1326.72,441.984 1328.97,442.531 1331.21,443.076 1333.46,443.619 1335.7,444.161 1337.95,444.701 1340.19,445.239 1342.44,445.775 1344.68,446.31 1346.93,446.843 1349.18,447.374 1351.42,447.903 1353.67,448.431 1355.91,448.957 1358.16,449.481 1360.4,450.004 1362.65,450.525 1364.89,451.044 1367.14,451.561 1369.38,452.077 1371.63,452.591 1373.87,453.104 1376.12,453.614 1378.36,454.123 1380.61,454.631 1382.85,455.137 1385.1,455.641 1387.34,456.143 1389.59,456.644 1391.83,457.143 1394.08,457.641 1396.32,458.137 1398.57,458.631 1400.81,459.124 1403.06,459.615 1405.3,460.105 1407.55,460.593 1409.79,461.079 1412.04,461.564 1414.28,462.047 1416.53,462.529 1418.77,463.009 1421.02,463.487 1423.27,463.964 1425.51,464.439 1427.76,464.913 1430,465.385 1432.25,465.856 1434.49,466.325 1436.74,466.793 1438.98,467.259 1441.23,467.724 1443.47,468.187 1445.72,468.648 1447.96,469.108 1450.21,469.567 1452.45,470.024 1454.7,470.479 1456.94,470.933 1459.19,471.386 1461.43,471.837 1463.68,472.287 1465.92,472.735 1468.17,473.181 1470.41,473.626 1472.66,474.07 1474.9,474.512 1477.15,474.953 1479.39,475.392 1481.64,475.83 1483.88,476.267 1486.13,476.702 1488.37,477.135 1490.62,477.568 1492.86,477.998 1495.11,478.428 1497.35,478.856 1499.6,479.282 1501.85,479.707 1504.09,480.131 1506.34,480.553 1508.58,480.974 1510.83,481.394 1513.07,481.812 1515.32,482.229 1517.56,482.644 1519.81,483.058 1522.05,483.471 1524.3,483.882 1526.54,484.292 1528.79,484.7 1531.03,485.108 1533.28,485.513 1535.52,485.918 1537.77,486.321 1540.01,486.723 1542.26,487.124 1544.5,487.523 1546.75,487.921 1548.99,488.317 1551.24,488.712 1553.48,489.106 1555.73,489.499 1557.97,489.89 1560.22,490.28 1562.46,490.669 1564.71,491.056 1566.95,491.442 1569.2,491.827 1571.44,492.211 1573.69,492.593 1575.94,492.974 1578.18,493.354 1580.43,493.732 1582.67,494.109 1584.92,494.485 1587.16,494.86 1589.41,495.233 1591.65,495.605 1593.9,495.976 1596.14,496.346 1598.39,496.714 1600.63,497.082 1602.88,497.448 1605.12,497.812 1607.37,498.176 1609.61,498.538 1611.86,498.899 1614.1,499.259 1616.35,499.618 1618.59,499.975 1620.84,500.331 1623.08,500.687 1625.33,501.04 1627.57,501.393 1629.82,501.745 1632.06,502.095 1634.31,502.444 1636.55,502.792 1638.8,503.139 1641.04,503.484 1643.29,503.828 1645.53,504.172 1647.78,504.514 1650.02,504.855 1652.27,505.194 1654.52,505.533 1656.76,505.87 1659.01,506.207 1661.25,506.542 1663.5,506.876 1665.74,507.209 1667.99,507.54 1670.23,507.871 1672.48,508.201 1674.72,508.529 1676.97,508.856 1679.21,509.182 1681.46,509.507 1683.7,509.831 1685.95,510.154 1688.19,510.476 1690.44,510.796 1692.68,511.116 1694.93,511.434 1697.17,511.751 1699.42,512.067 1701.66,512.382 1703.91,512.696 1706.15,513.009 1708.4,513.321 1710.64,513.632 1712.89,513.942 1715.13,514.25 1717.38,514.558 1719.62,514.864 1721.87,515.17 1724.11,515.474 1726.36,515.777 1728.61,516.079 1730.85,516.381 1733.1,516.681 1735.34,516.98 1737.59,517.278 1739.83,517.575 1742.08,517.871 1744.32,518.166 1746.57,518.46 1748.81,518.753 1751.06,519.044 1753.3,519.335 1755.55,519.625 1757.79,519.914 1760.04,520.202 1762.28,520.488 1764.53,520.774 1766.77,521.059 1769.02,521.343 1771.26,521.625 1773.51,521.907 1775.75,522.188 1778,522.468 1780.24,522.746 1782.49,523.024 1784.73,523.301 1786.98,523.577 1789.22,523.852 1791.47,524.125 1793.71,524.398 1795.96,524.67 1798.2,524.941 1800.45,525.211 1802.69,525.48 1804.94,525.748 1807.19,526.015 1809.43,526.281 1811.68,526.546 1813.92,526.81 1816.17,527.074 1818.41,527.336 1820.66,527.597 1822.9,527.858 1825.15,528.117 1827.39,528.375 1829.64,528.633 1831.88,528.89 1834.13,529.145 1836.37,529.4 1838.62,529.654 1840.86,529.907 1843.11,530.159 1845.35,530.41 1847.6,530.66 1849.84,530.909 1852.09,531.158 1854.33,531.405 1856.58,531.651 1858.82,531.897 1861.07,532.142 1863.31,532.385 1865.56,532.628 1867.8,532.87 1870.05,533.111 1872.29,533.352 1874.54,533.591 1876.78,533.829 1879.03,534.067 1881.28,534.303 1883.52,534.539 1885.77,534.774 1888.01,535.008 1890.26,535.241 1892.5,535.473 1894.75,535.705 1896.99,535.935 1899.24,536.165 1901.48,536.394 1903.73,536.622 1905.97,536.849 1908.22,537.075 1910.46,537.3 1912.71,537.525 1914.95,537.748 1917.2,537.971 1919.44,538.193 1921.69,538.414 1923.93,538.634 1926.18,538.853 1928.42,539.072 1930.67,539.29 1932.91,539.506 1935.16,539.722 1937.4,539.938 1939.65,540.152 1941.89,540.366 1944.14,540.578 1946.38,540.79 1948.63,541.001 1950.87,541.211 1953.12,541.421 1955.36,541.629 1957.61,541.837 1959.86,542.044 1962.1,542.25 1964.35,542.455 1966.59,542.66 1968.84,542.864 1971.08,543.067 1973.33,543.269 1975.57,543.47 1977.82,543.67 1980.06,543.87 1982.31,544.069 1984.55,544.267 1986.8,544.464 1989.04,544.661 1991.29,544.857 1993.53,545.052 1995.78,545.246 1998.02,545.439 2000.27,545.632 2002.51,545.824 2004.76,546.015 2007,546.205 2009.25,546.394 2011.49,546.583 2013.74,546.771 2015.98,546.958 2018.23,547.145 2020.47,547.33 2022.72,547.515 2024.96,547.699 2027.21,547.883 2029.45,548.065 2031.7,548.247 2033.95,548.428 2036.19,548.608 2038.44,548.788 2040.68,548.967 2042.93,549.145 2045.17,549.322 2047.42,549.499 2049.66,549.675 2051.91,549.85 2054.15,550.024 2056.4,550.198 2058.64,550.37 2060.89,550.543 2063.13,550.714 2065.38,550.885 2067.62,551.055 2069.87,551.224 2072.11,551.392 2074.36,551.56 2076.6,551.727 2078.85,551.893 2081.09,552.059 2083.34,552.224 2085.58,552.388 2087.83,552.551 2090.07,552.714 2092.32,552.876 2094.56,553.037 2096.81,553.198 2099.05,553.358 2101.3,553.517 2103.54,553.675 2105.79,553.833 2108.03,553.99 2110.28,554.146 2112.53,554.302 2114.77,554.457 2117.02,554.611 2119.26,554.764 2121.51,554.917 2123.75,555.069 2126,555.221 2128.24,555.371 2130.49,555.521 2132.73,555.671 2134.98,555.819 2137.22,555.967 2139.47,556.115 2141.71,556.261 2143.96,556.407 2146.2,556.553 2148.45,556.697 2150.69,556.841 2152.94,556.984 2155.18,557.127 2157.43,557.269 2159.67,557.41 2161.92,557.55 2164.16,557.69 2166.41,557.829 2168.65,557.968 2170.9,558.106 2173.14,558.243 2175.39,558.379 2177.63,558.515 2179.88,558.65 2182.12,558.785 2184.37,558.919 2186.62,559.052 2188.86,559.185 2191.11,559.317 2193.35,559.448 2195.6,559.578 2197.84,559.708 2200.09,559.838 2202.33,559.966 2204.58,560.094 2206.82,560.222 2209.07,560.348 2211.31,560.474 2213.56,560.6 2215.8,560.725 2218.05,560.849 2220.29,560.972 2222.54,561.095 2224.78,561.217 2227.03,561.339 2229.27,561.46 2231.52,561.58 2233.76,561.7 2236.01,561.819 2238.25,561.938 2240.5,562.055 2242.74,562.173 2244.99,562.289 2247.23,562.405 2249.48,562.52 2251.72,562.635 2253.97,562.749 2256.21,562.863 2258.46,562.975 2260.7,563.088 2262.95,563.199 2265.2,563.31 2267.44,563.42 2269.69,563.53 2271.93,563.639 2274.18,563.748 2276.42,563.856 2278.67,563.963 2280.91,564.07 2283.16,564.176 2285.4,564.281 2287.65,564.386 2289.89,564.491 2292.14,564.594 2294.38,564.697 2296.63,564.8 2298.87,564.902 2301.12,565.003 2303.36,565.104 2305.61,565.204 2307.85,565.303 2310.1,565.402 2312.34,565.5 2314.59,565.598 2316.83,565.695 2319.08,565.792 2321.32,565.888 2323.57,565.983 2325.81,566.078 2328.06,566.172 2330.3,566.266 2332.55,566.359 2334.79,566.451 2337.04,566.543 2339.29,566.634 2341.53,566.725 2343.78,566.815 2346.02,566.904 2348.27,566.993 2350.51,567.082 2352.76,567.169 2355,567.257 2357.25,567.343 "/>
<path clip-path="url(#clip630)" d="M1840.39 248.629 L2281.66 248.629 L2281.66 93.1086 L1840.39 93.1086  Z" fill="#ffffff" fill-rule="evenodd" fill-opacity="1"/>
<polyline clip-path="url(#clip630)" style="stroke:#000000; stroke-linecap:round; stroke-linejoin:round; stroke-width:4; stroke-opacity:1; fill:none" points="1840.39,248.629 2281.66,248.629 2281.66,93.1086 1840.39,93.1086 1840.39,248.629 "/>
<polyline clip-path="url(#clip630)" style="stroke:#009af9; stroke-linecap:round; stroke-linejoin:round; stroke-width:8; stroke-opacity:1; fill:none" points="1864.08,144.949 2006.28,144.949 "/>
<path clip-path="url(#clip630)" d="M2045.81 132.275 L2039.47 149.474 L2052.17 149.474 L2045.81 132.275 M2043.17 127.669 L2048.47 127.669 L2061.64 162.229 L2056.78 162.229 L2053.63 153.363 L2038.05 153.363 L2034.91 162.229 L2029.98 162.229 L2043.17 127.669 Z" fill="#000000" fill-rule="nonzero" fill-opacity="1" /><path clip-path="url(#clip630)" d="M2088.05 146.581 L2088.05 162.229 L2083.8 162.229 L2083.8 146.719 Q2083.8 143.039 2082.36 141.21 Q2080.92 139.382 2078.05 139.382 Q2074.61 139.382 2072.61 141.581 Q2070.62 143.78 2070.62 147.576 L2070.62 162.229 L2066.34 162.229 L2066.34 136.303 L2070.62 136.303 L2070.62 140.331 Q2072.15 137.993 2074.21 136.835 Q2076.3 135.678 2079 135.678 Q2083.47 135.678 2085.76 138.456 Q2088.05 141.21 2088.05 146.581 Z" fill="#000000" fill-rule="nonzero" fill-opacity="1" /><path clip-path="url(#clip630)" d="M2108.33 149.196 Q2103.17 149.196 2101.18 150.377 Q2099.19 151.557 2099.19 154.405 Q2099.19 156.673 2100.67 158.016 Q2102.17 159.335 2104.74 159.335 Q2108.29 159.335 2110.42 156.835 Q2112.57 154.312 2112.57 150.145 L2112.57 149.196 L2108.33 149.196 M2116.83 147.437 L2116.83 162.229 L2112.57 162.229 L2112.57 158.293 Q2111.11 160.655 2108.93 161.789 Q2106.76 162.9 2103.61 162.9 Q2099.63 162.9 2097.27 160.678 Q2094.93 158.432 2094.93 154.682 Q2094.93 150.307 2097.85 148.085 Q2100.79 145.863 2106.6 145.863 L2112.57 145.863 L2112.57 145.446 Q2112.57 142.507 2110.62 140.909 Q2108.7 139.289 2105.21 139.289 Q2102.98 139.289 2100.88 139.821 Q2098.77 140.354 2096.83 141.419 L2096.83 137.483 Q2099.17 136.581 2101.36 136.141 Q2103.56 135.678 2105.65 135.678 Q2111.27 135.678 2114.05 138.594 Q2116.83 141.511 2116.83 147.437 Z" fill="#000000" fill-rule="nonzero" fill-opacity="1" /><path clip-path="url(#clip630)" d="M2125.6 126.21 L2129.86 126.21 L2129.86 162.229 L2125.6 162.229 L2125.6 126.21 Z" fill="#000000" fill-rule="nonzero" fill-opacity="1" /><path clip-path="url(#clip630)" d="M2149.56 164.636 Q2147.75 169.266 2146.04 170.678 Q2144.33 172.09 2141.46 172.09 L2138.05 172.09 L2138.05 168.525 L2140.55 168.525 Q2142.31 168.525 2143.29 167.692 Q2144.26 166.858 2145.44 163.756 L2146.2 161.812 L2135.72 136.303 L2140.23 136.303 L2148.33 156.581 L2156.43 136.303 L2160.95 136.303 L2149.56 164.636 Z" fill="#000000" fill-rule="nonzero" fill-opacity="1" /><path clip-path="url(#clip630)" d="M2171.04 128.942 L2171.04 136.303 L2179.81 136.303 L2179.81 139.613 L2171.04 139.613 L2171.04 153.687 Q2171.04 156.858 2171.9 157.761 Q2172.78 158.664 2175.44 158.664 L2179.81 158.664 L2179.81 162.229 L2175.44 162.229 Q2170.51 162.229 2168.63 160.4 Q2166.76 158.548 2166.76 153.687 L2166.76 139.613 L2163.63 139.613 L2163.63 136.303 L2166.76 136.303 L2166.76 128.942 L2171.04 128.942 Z" fill="#000000" fill-rule="nonzero" fill-opacity="1" /><path clip-path="url(#clip630)" d="M2185.41 136.303 L2189.67 136.303 L2189.67 162.229 L2185.41 162.229 L2185.41 136.303 M2185.41 126.21 L2189.67 126.21 L2189.67 131.604 L2185.41 131.604 L2185.41 126.21 Z" fill="#000000" fill-rule="nonzero" fill-opacity="1" /><path clip-path="url(#clip630)" d="M2217.24 137.298 L2217.24 141.28 Q2215.44 140.284 2213.61 139.798 Q2211.8 139.289 2209.95 139.289 Q2205.81 139.289 2203.52 141.928 Q2201.23 144.544 2201.23 149.289 Q2201.23 154.034 2203.52 156.673 Q2205.81 159.289 2209.95 159.289 Q2211.8 159.289 2213.61 158.803 Q2215.44 158.293 2217.24 157.298 L2217.24 161.233 Q2215.46 162.067 2213.54 162.483 Q2211.64 162.9 2209.49 162.9 Q2203.63 162.9 2200.18 159.219 Q2196.73 155.539 2196.73 149.289 Q2196.73 142.946 2200.21 139.312 Q2203.7 135.678 2209.77 135.678 Q2211.73 135.678 2213.61 136.095 Q2215.48 136.488 2217.24 137.298 Z" fill="#000000" fill-rule="nonzero" fill-opacity="1" /><path clip-path="url(#clip630)" d="M2236.43 149.196 Q2231.27 149.196 2229.28 150.377 Q2227.29 151.557 2227.29 154.405 Q2227.29 156.673 2228.77 158.016 Q2230.28 159.335 2232.85 159.335 Q2236.39 159.335 2238.52 156.835 Q2240.67 154.312 2240.67 150.145 L2240.67 149.196 L2236.43 149.196 M2244.93 147.437 L2244.93 162.229 L2240.67 162.229 L2240.67 158.293 Q2239.21 160.655 2237.03 161.789 Q2234.86 162.9 2231.71 162.9 Q2227.73 162.9 2225.37 160.678 Q2223.03 158.432 2223.03 154.682 Q2223.03 150.307 2225.95 148.085 Q2228.89 145.863 2234.7 145.863 L2240.67 145.863 L2240.67 145.446 Q2240.67 142.507 2238.72 140.909 Q2236.8 139.289 2233.31 139.289 Q2231.09 139.289 2228.98 139.821 Q2226.87 140.354 2224.93 141.419 L2224.93 137.483 Q2227.27 136.581 2229.47 136.141 Q2231.66 135.678 2233.75 135.678 Q2239.37 135.678 2242.15 138.594 Q2244.93 141.511 2244.93 147.437 Z" fill="#000000" fill-rule="nonzero" fill-opacity="1" /><path clip-path="url(#clip630)" d="M2253.7 126.21 L2257.96 126.21 L2257.96 162.229 L2253.7 162.229 L2253.7 126.21 Z" fill="#000000" fill-rule="nonzero" fill-opacity="1" /><polyline clip-path="url(#clip630)" style="stroke:#e26f46; stroke-linecap:round; stroke-linejoin:round; stroke-width:8; stroke-opacity:1; fill:none" stroke-dasharray="32, 20" points="1864.08,196.789 2006.28,196.789 "/>
<path clip-path="url(#clip630)" d="M2029.98 179.509 L2049.84 179.509 L2049.84 183.444 L2034.65 183.444 L2034.65 193.629 L2048.36 193.629 L2048.36 197.564 L2034.65 197.564 L2034.65 214.069 L2029.98 214.069 L2029.98 179.509 Z" fill="#000000" fill-rule="nonzero" fill-opacity="1" /><path clip-path="url(#clip630)" d="M2057.24 179.509 L2079.1 179.509 L2079.1 183.444 L2061.92 183.444 L2061.92 193.675 L2078.38 193.675 L2078.38 197.61 L2061.92 197.61 L2061.92 210.133 L2079.51 210.133 L2079.51 214.069 L2057.24 214.069 L2057.24 179.509 Z" fill="#000000" fill-rule="nonzero" fill-opacity="1" /><path clip-path="url(#clip630)" d="M2087.2 179.509 L2094.17 179.509 L2102.98 203.027 L2111.85 179.509 L2118.82 179.509 L2118.82 214.069 L2114.26 214.069 L2114.26 183.722 L2105.35 207.425 L2100.65 207.425 L2091.73 183.722 L2091.73 214.069 L2087.2 214.069 L2087.2 179.509 Z" fill="#000000" fill-rule="nonzero" fill-opacity="1" /></svg>
