<?xml version="1.0" encoding="utf-8"?>
<svg xmlns="http://www.w3.org/2000/svg" xmlns:xlink="http://www.w3.org/1999/xlink" width="600" height="400" viewBox="0 0 2400 1600">
<defs>
  <clipPath id="clip530">
    <rect x="0" y="0" width="2400" height="1600"/>
  </clipPath>
</defs>
<path clip-path="url(#clip530)" d="
M0 1600 L2400 1600 L2400 0 L0 0  Z
  " fill="#ffffff" fill-rule="evenodd" fill-opacity="1"/>
<defs>
  <clipPath id="clip531">
    <rect x="480" y="0" width="1681" height="1600"/>
  </clipPath>
</defs>
<path clip-path="url(#clip530)" d="
M152.27 1423.18 L2352.76 1423.18 L2352.76 47.2441 L152.27 47.2441  Z
  " fill="#ffffff" fill-rule="evenodd" fill-opacity="1"/>
<defs>
  <clipPath id="clip532">
    <rect x="152" y="47" width="2201" height="1377"/>
  </clipPath>
</defs>
<polyline clip-path="url(#clip532)" style="stroke:#000000; stroke-width:2; stroke-opacity:0.1; fill:none" points="
  490.806,1423.18 490.806,47.2441 
  "/>
<polyline clip-path="url(#clip532)" style="stroke:#000000; stroke-width:2; stroke-opacity:0.1; fill:none" points="
  913.976,1423.18 913.976,47.2441 
  "/>
<polyline clip-path="url(#clip532)" style="stroke:#000000; stroke-width:2; stroke-opacity:0.1; fill:none" points="
  1337.15,1423.18 1337.15,47.2441 
  "/>
<polyline clip-path="url(#clip532)" style="stroke:#000000; stroke-width:2; stroke-opacity:0.1; fill:none" points="
  1760.32,1423.18 1760.32,47.2441 
  "/>
<polyline clip-path="url(#clip532)" style="stroke:#000000; stroke-width:2; stroke-opacity:0.1; fill:none" points="
  2183.49,1423.18 2183.49,47.2441 
  "/>
<polyline clip-path="url(#clip532)" style="stroke:#000000; stroke-width:2; stroke-opacity:0.1; fill:none" points="
  152.27,1409.73 2352.76,1409.73 
  "/>
<polyline clip-path="url(#clip532)" style="stroke:#000000; stroke-width:2; stroke-opacity:0.1; fill:none" points="
  152.27,963.785 2352.76,963.785 
  "/>
<polyline clip-path="url(#clip532)" style="stroke:#000000; stroke-width:2; stroke-opacity:0.1; fill:none" points="
  152.27,517.844 2352.76,517.844 
  "/>
<polyline clip-path="url(#clip532)" style="stroke:#000000; stroke-width:2; stroke-opacity:0.1; fill:none" points="
  152.27,71.9027 2352.76,71.9027 
  "/>
<polyline clip-path="url(#clip530)" style="stroke:#000000; stroke-width:4; stroke-opacity:1; fill:none" points="
  152.27,1423.18 2352.76,1423.18 
  "/>
<polyline clip-path="url(#clip530)" style="stroke:#000000; stroke-width:4; stroke-opacity:1; fill:none" points="
  152.27,1423.18 152.27,47.2441 
  "/>
<polyline clip-path="url(#clip530)" style="stroke:#000000; stroke-width:4; stroke-opacity:1; fill:none" points="
  490.806,1423.18 490.806,1406.67 
  "/>
<polyline clip-path="url(#clip530)" style="stroke:#000000; stroke-width:4; stroke-opacity:1; fill:none" points="
  913.976,1423.18 913.976,1406.67 
  "/>
<polyline clip-path="url(#clip530)" style="stroke:#000000; stroke-width:4; stroke-opacity:1; fill:none" points="
  1337.15,1423.18 1337.15,1406.67 
  "/>
<polyline clip-path="url(#clip530)" style="stroke:#000000; stroke-width:4; stroke-opacity:1; fill:none" points="
  1760.32,1423.18 1760.32,1406.67 
  "/>
<polyline clip-path="url(#clip530)" style="stroke:#000000; stroke-width:4; stroke-opacity:1; fill:none" points="
  2183.49,1423.18 2183.49,1406.67 
  "/>
<polyline clip-path="url(#clip530)" style="stroke:#000000; stroke-width:4; stroke-opacity:1; fill:none" points="
  152.27,1409.73 178.675,1409.73 
  "/>
<polyline clip-path="url(#clip530)" style="stroke:#000000; stroke-width:4; stroke-opacity:1; fill:none" points="
  152.27,963.785 178.675,963.785 
  "/>
<polyline clip-path="url(#clip530)" style="stroke:#000000; stroke-width:4; stroke-opacity:1; fill:none" points="
  152.27,517.844 178.675,517.844 
  "/>
<polyline clip-path="url(#clip530)" style="stroke:#000000; stroke-width:4; stroke-opacity:1; fill:none" points="
  152.27,71.9027 178.675,71.9027 
  "/>
<path clip-path="url(#clip530)" d="M 0 0 M458.815 1445.17 Q455.204 1445.17 453.376 1448.74 Q451.57 1452.28 451.57 1459.41 Q451.57 1466.51 453.376 1470.08 Q455.204 1473.62 458.815 1473.62 Q462.45 1473.62 464.255 1470.08 Q466.084 1466.51 466.084 1459.41 Q466.084 1452.28 464.255 1448.74 Q462.45 1445.17 458.815 1445.17 M458.815 1441.47 Q464.626 1441.47 467.681 1446.07 Q470.76 1450.66 470.76 1459.41 Q470.76 1468.13 467.681 1472.74 Q464.626 1477.32 458.815 1477.32 Q453.005 1477.32 449.927 1472.74 Q446.871 1468.13 446.871 1459.41 Q446.871 1450.66 449.927 1446.07 Q453.005 1441.47 458.815 1441.47 Z" fill="#000000" fill-rule="evenodd" fill-opacity="1" /><path clip-path="url(#clip530)" d="M 0 0 M475.829 1470.77 L480.713 1470.77 L480.713 1476.65 L475.829 1476.65 L475.829 1470.77 Z" fill="#000000" fill-rule="evenodd" fill-opacity="1" /><path clip-path="url(#clip530)" d="M 0 0 M495.783 1445.17 Q492.172 1445.17 490.343 1448.74 Q488.537 1452.28 488.537 1459.41 Q488.537 1466.51 490.343 1470.08 Q492.172 1473.62 495.783 1473.62 Q499.417 1473.62 501.223 1470.08 Q503.051 1466.51 503.051 1459.41 Q503.051 1452.28 501.223 1448.74 Q499.417 1445.17 495.783 1445.17 M495.783 1441.47 Q501.593 1441.47 504.648 1446.07 Q507.727 1450.66 507.727 1459.41 Q507.727 1468.13 504.648 1472.74 Q501.593 1477.32 495.783 1477.32 Q489.973 1477.32 486.894 1472.74 Q483.838 1468.13 483.838 1459.41 Q483.838 1450.66 486.894 1446.07 Q489.973 1441.47 495.783 1441.47 Z" fill="#000000" fill-rule="evenodd" fill-opacity="1" /><path clip-path="url(#clip530)" d="M 0 0 M522.796 1445.17 Q519.185 1445.17 517.357 1448.74 Q515.551 1452.28 515.551 1459.41 Q515.551 1466.51 517.357 1470.08 Q519.185 1473.62 522.796 1473.62 Q526.431 1473.62 528.236 1470.08 Q530.065 1466.51 530.065 1459.41 Q530.065 1452.28 528.236 1448.74 Q526.431 1445.17 522.796 1445.17 M522.796 1441.47 Q528.607 1441.47 531.662 1446.07 Q534.741 1450.66 534.741 1459.41 Q534.741 1468.13 531.662 1472.74 Q528.607 1477.32 522.796 1477.32 Q516.986 1477.32 513.908 1472.74 Q510.852 1468.13 510.852 1459.41 Q510.852 1450.66 513.908 1446.07 Q516.986 1441.47 522.796 1441.47 Z" fill="#000000" fill-rule="evenodd" fill-opacity="1" /><path clip-path="url(#clip530)" d="M 0 0 M883.282 1445.17 Q879.671 1445.17 877.842 1448.74 Q876.037 1452.28 876.037 1459.41 Q876.037 1466.51 877.842 1470.08 Q879.671 1473.62 883.282 1473.62 Q886.916 1473.62 888.722 1470.08 Q890.551 1466.51 890.551 1459.41 Q890.551 1452.28 888.722 1448.74 Q886.916 1445.17 883.282 1445.17 M883.282 1441.47 Q889.092 1441.47 892.148 1446.07 Q895.226 1450.66 895.226 1459.41 Q895.226 1468.13 892.148 1472.74 Q889.092 1477.32 883.282 1477.32 Q877.472 1477.32 874.393 1472.74 Q871.338 1468.13 871.338 1459.41 Q871.338 1450.66 874.393 1446.07 Q877.472 1441.47 883.282 1441.47 Z" fill="#000000" fill-rule="evenodd" fill-opacity="1" /><path clip-path="url(#clip530)" d="M 0 0 M900.296 1470.77 L905.18 1470.77 L905.18 1476.65 L900.296 1476.65 L900.296 1470.77 Z" fill="#000000" fill-rule="evenodd" fill-opacity="1" /><path clip-path="url(#clip530)" d="M 0 0 M914.277 1472.72 L930.597 1472.72 L930.597 1476.65 L908.652 1476.65 L908.652 1472.72 Q911.314 1469.96 915.898 1465.33 Q920.504 1460.68 921.685 1459.34 Q923.93 1456.81 924.81 1455.08 Q925.712 1453.32 925.712 1451.63 Q925.712 1448.87 923.768 1447.14 Q921.847 1445.4 918.745 1445.4 Q916.546 1445.4 914.092 1446.17 Q911.662 1446.93 908.884 1448.48 L908.884 1443.76 Q911.708 1442.62 914.162 1442.05 Q916.615 1441.47 918.652 1441.47 Q924.023 1441.47 927.217 1444.15 Q930.411 1446.84 930.411 1451.33 Q930.411 1453.46 929.601 1455.38 Q928.814 1457.28 926.708 1459.87 Q926.129 1460.54 923.027 1463.76 Q919.925 1466.95 914.277 1472.72 Z" fill="#000000" fill-rule="evenodd" fill-opacity="1" /><path clip-path="url(#clip530)" d="M 0 0 M935.712 1442.09 L954.069 1442.09 L954.069 1446.03 L939.995 1446.03 L939.995 1454.5 Q941.013 1454.15 942.032 1453.99 Q943.05 1453.8 944.069 1453.8 Q949.856 1453.8 953.235 1456.98 Q956.615 1460.15 956.615 1465.56 Q956.615 1471.14 953.143 1474.24 Q949.671 1477.32 943.351 1477.32 Q941.175 1477.32 938.907 1476.95 Q936.661 1476.58 934.254 1475.84 L934.254 1471.14 Q936.337 1472.28 938.56 1472.83 Q940.782 1473.39 943.259 1473.39 Q947.263 1473.39 949.601 1471.28 Q951.939 1469.18 951.939 1465.56 Q951.939 1461.95 949.601 1459.85 Q947.263 1457.74 943.259 1457.74 Q941.384 1457.74 939.509 1458.16 Q937.657 1458.57 935.712 1459.45 L935.712 1442.09 Z" fill="#000000" fill-rule="evenodd" fill-opacity="1" /><path clip-path="url(#clip530)" d="M 0 0 M1305.65 1445.17 Q1302.04 1445.17 1300.21 1448.74 Q1298.41 1452.28 1298.41 1459.41 Q1298.41 1466.51 1300.21 1470.08 Q1302.04 1473.62 1305.65 1473.62 Q1309.29 1473.62 1311.09 1470.08 Q1312.92 1466.51 1312.92 1459.41 Q1312.92 1452.28 1311.09 1448.74 Q1309.29 1445.17 1305.65 1445.17 M1305.65 1441.47 Q1311.46 1441.47 1314.52 1446.07 Q1317.6 1450.66 1317.6 1459.41 Q1317.6 1468.13 1314.52 1472.74 Q1311.46 1477.32 1305.65 1477.32 Q1299.84 1477.32 1296.77 1472.74 Q1293.71 1468.13 1293.71 1459.41 Q1293.71 1450.66 1296.77 1446.07 Q1299.84 1441.47 1305.65 1441.47 Z" fill="#000000" fill-rule="evenodd" fill-opacity="1" /><path clip-path="url(#clip530)" d="M 0 0 M1322.67 1470.77 L1327.55 1470.77 L1327.55 1476.65 L1322.67 1476.65 L1322.67 1470.77 Z" fill="#000000" fill-rule="evenodd" fill-opacity="1" /><path clip-path="url(#clip530)" d="M 0 0 M1332.67 1442.09 L1351.02 1442.09 L1351.02 1446.03 L1336.95 1446.03 L1336.95 1454.5 Q1337.97 1454.15 1338.99 1453.99 Q1340.01 1453.8 1341.02 1453.8 Q1346.81 1453.8 1350.19 1456.98 Q1353.57 1460.15 1353.57 1465.56 Q1353.57 1471.14 1350.1 1474.24 Q1346.63 1477.32 1340.31 1477.32 Q1338.13 1477.32 1335.86 1476.95 Q1333.62 1476.58 1331.21 1475.84 L1331.21 1471.14 Q1333.29 1472.28 1335.51 1472.83 Q1337.74 1473.39 1340.21 1473.39 Q1344.22 1473.39 1346.56 1471.28 Q1348.89 1469.18 1348.89 1465.56 Q1348.89 1461.95 1346.56 1459.85 Q1344.22 1457.74 1340.21 1457.74 Q1338.34 1457.74 1336.46 1458.16 Q1334.61 1458.57 1332.67 1459.45 L1332.67 1442.09 Z" fill="#000000" fill-rule="evenodd" fill-opacity="1" /><path clip-path="url(#clip530)" d="M 0 0 M1368.64 1445.17 Q1365.03 1445.17 1363.2 1448.74 Q1361.39 1452.28 1361.39 1459.41 Q1361.39 1466.51 1363.2 1470.08 Q1365.03 1473.62 1368.64 1473.62 Q1372.27 1473.62 1374.08 1470.08 Q1375.91 1466.51 1375.91 1459.41 Q1375.91 1452.28 1374.08 1448.74 Q1372.27 1445.17 1368.64 1445.17 M1368.64 1441.47 Q1374.45 1441.47 1377.51 1446.07 Q1380.58 1450.66 1380.58 1459.41 Q1380.58 1468.13 1377.51 1472.74 Q1374.45 1477.32 1368.64 1477.32 Q1362.83 1477.32 1359.75 1472.74 Q1356.7 1468.13 1356.7 1459.41 Q1356.7 1450.66 1359.75 1446.07 Q1362.83 1441.47 1368.64 1441.47 Z" fill="#000000" fill-rule="evenodd" fill-opacity="1" /><path clip-path="url(#clip530)" d="M 0 0 M1729.28 1445.17 Q1725.66 1445.17 1723.84 1448.74 Q1722.03 1452.28 1722.03 1459.41 Q1722.03 1466.51 1723.84 1470.08 Q1725.66 1473.62 1729.28 1473.62 Q1732.91 1473.62 1734.72 1470.08 Q1736.54 1466.51 1736.54 1459.41 Q1736.54 1452.28 1734.72 1448.74 Q1732.91 1445.17 1729.28 1445.17 M1729.28 1441.47 Q1735.09 1441.47 1738.14 1446.07 Q1741.22 1450.66 1741.22 1459.41 Q1741.22 1468.13 1738.14 1472.74 Q1735.09 1477.32 1729.28 1477.32 Q1723.47 1477.32 1720.39 1472.74 Q1717.33 1468.13 1717.33 1459.41 Q1717.33 1450.66 1720.39 1446.07 Q1723.47 1441.47 1729.28 1441.47 Z" fill="#000000" fill-rule="evenodd" fill-opacity="1" /><path clip-path="url(#clip530)" d="M 0 0 M1746.29 1470.77 L1751.17 1470.77 L1751.17 1476.65 L1746.29 1476.65 L1746.29 1470.77 Z" fill="#000000" fill-rule="evenodd" fill-opacity="1" /><path clip-path="url(#clip530)" d="M 0 0 M1755.06 1442.09 L1777.28 1442.09 L1777.28 1444.08 L1764.74 1476.65 L1759.85 1476.65 L1771.66 1446.03 L1755.06 1446.03 L1755.06 1442.09 Z" fill="#000000" fill-rule="evenodd" fill-opacity="1" /><path clip-path="url(#clip530)" d="M 0 0 M1782.4 1442.09 L1800.76 1442.09 L1800.76 1446.03 L1786.68 1446.03 L1786.68 1454.5 Q1787.7 1454.15 1788.72 1453.99 Q1789.74 1453.8 1790.76 1453.8 Q1796.54 1453.8 1799.92 1456.98 Q1803.3 1460.15 1803.3 1465.56 Q1803.3 1471.14 1799.83 1474.24 Q1796.36 1477.32 1790.04 1477.32 Q1787.86 1477.32 1785.59 1476.95 Q1783.35 1476.58 1780.94 1475.84 L1780.94 1471.14 Q1783.03 1472.28 1785.25 1472.83 Q1787.47 1473.39 1789.95 1473.39 Q1793.95 1473.39 1796.29 1471.28 Q1798.63 1469.18 1798.63 1465.56 Q1798.63 1461.95 1796.29 1459.85 Q1793.95 1457.74 1789.95 1457.74 Q1788.07 1457.74 1786.2 1458.16 Q1784.34 1458.57 1782.4 1459.45 L1782.4 1442.09 Z" fill="#000000" fill-rule="evenodd" fill-opacity="1" /><path clip-path="url(#clip530)" d="M 0 0 M2141.88 1472.72 L2149.52 1472.72 L2149.52 1446.35 L2141.21 1448.02 L2141.21 1443.76 L2149.47 1442.09 L2154.15 1442.09 L2154.15 1472.72 L2161.79 1472.72 L2161.79 1476.65 L2141.88 1476.65 L2141.88 1472.72 Z" fill="#000000" fill-rule="evenodd" fill-opacity="1" /><path clip-path="url(#clip530)" d="M 0 0 M2166.86 1470.77 L2171.74 1470.77 L2171.74 1476.65 L2166.86 1476.65 L2166.86 1470.77 Z" fill="#000000" fill-rule="evenodd" fill-opacity="1" /><path clip-path="url(#clip530)" d="M 0 0 M2186.81 1445.17 Q2183.2 1445.17 2181.37 1448.74 Q2179.56 1452.28 2179.56 1459.41 Q2179.56 1466.51 2181.37 1470.08 Q2183.2 1473.62 2186.81 1473.62 Q2190.44 1473.62 2192.25 1470.08 Q2194.08 1466.51 2194.08 1459.41 Q2194.08 1452.28 2192.25 1448.74 Q2190.44 1445.17 2186.81 1445.17 M2186.81 1441.47 Q2192.62 1441.47 2195.68 1446.07 Q2198.75 1450.66 2198.75 1459.41 Q2198.75 1468.13 2195.68 1472.74 Q2192.62 1477.32 2186.81 1477.32 Q2181 1477.32 2177.92 1472.74 Q2174.87 1468.13 2174.87 1459.41 Q2174.87 1450.66 2177.92 1446.07 Q2181 1441.47 2186.81 1441.47 Z" fill="#000000" fill-rule="evenodd" fill-opacity="1" /><path clip-path="url(#clip530)" d="M 0 0 M2213.82 1445.17 Q2210.21 1445.17 2208.38 1448.74 Q2206.58 1452.28 2206.58 1459.41 Q2206.58 1466.51 2208.38 1470.08 Q2210.21 1473.62 2213.82 1473.62 Q2217.46 1473.62 2219.26 1470.08 Q2221.09 1466.51 2221.09 1459.41 Q2221.09 1452.28 2219.26 1448.74 Q2217.46 1445.17 2213.82 1445.17 M2213.82 1441.47 Q2219.63 1441.47 2222.69 1446.07 Q2225.77 1450.66 2225.77 1459.41 Q2225.77 1468.13 2222.69 1472.74 Q2219.63 1477.32 2213.82 1477.32 Q2208.01 1477.32 2204.93 1472.74 Q2201.88 1468.13 2201.88 1459.41 Q2201.88 1450.66 2204.93 1446.07 Q2208.01 1441.47 2213.82 1441.47 Z" fill="#000000" fill-rule="evenodd" fill-opacity="1" /><path clip-path="url(#clip530)" d="M 0 0 M62.9921 1412.12 L75.4689 1412.12 L75.4689 1415.92 L62.9921 1415.92 L62.9921 1412.12 Z" fill="#000000" fill-rule="evenodd" fill-opacity="1" /><path clip-path="url(#clip530)" d="M 0 0 M81.3485 1423.07 L88.9874 1423.07 L88.9874 1396.7 L80.6772 1398.37 L80.6772 1394.11 L88.9411 1392.45 L93.617 1392.45 L93.617 1423.07 L101.256 1423.07 L101.256 1427.01 L81.3485 1427.01 L81.3485 1423.07 Z" fill="#000000" fill-rule="evenodd" fill-opacity="1" /><path clip-path="url(#clip530)" d="M 0 0 M116.325 1395.52 Q112.714 1395.52 110.885 1399.09 Q109.08 1402.63 109.08 1409.76 Q109.08 1416.87 110.885 1420.43 Q112.714 1423.97 116.325 1423.97 Q119.959 1423.97 121.765 1420.43 Q123.594 1416.87 123.594 1409.76 Q123.594 1402.63 121.765 1399.09 Q119.959 1395.52 116.325 1395.52 M116.325 1391.82 Q122.135 1391.82 125.191 1396.43 Q128.27 1401.01 128.27 1409.76 Q128.27 1418.49 125.191 1423.09 Q122.135 1427.68 116.325 1427.68 Q110.515 1427.68 107.436 1423.09 Q104.381 1418.49 104.381 1409.76 Q104.381 1401.01 107.436 1396.43 Q110.515 1391.82 116.325 1391.82 Z" fill="#000000" fill-rule="evenodd" fill-opacity="1" /><path clip-path="url(#clip530)" d="M 0 0 M116.325 949.583 Q112.714 949.583 110.885 953.148 Q109.08 956.69 109.08 963.819 Q109.08 970.926 110.885 974.491 Q112.714 978.032 116.325 978.032 Q119.959 978.032 121.765 974.491 Q123.594 970.926 123.594 963.819 Q123.594 956.69 121.765 953.148 Q119.959 949.583 116.325 949.583 M116.325 945.88 Q122.135 945.88 125.191 950.486 Q128.27 955.069 128.27 963.819 Q128.27 972.546 125.191 977.153 Q122.135 981.736 116.325 981.736 Q110.515 981.736 107.436 977.153 Q104.381 972.546 104.381 963.819 Q104.381 955.069 107.436 950.486 Q110.515 945.88 116.325 945.88 Z" fill="#000000" fill-rule="evenodd" fill-opacity="1" /><path clip-path="url(#clip530)" d="M 0 0 M81.3485 531.189 L88.9874 531.189 L88.9874 504.823 L80.6772 506.49 L80.6772 502.23 L88.9411 500.564 L93.617 500.564 L93.617 531.189 L101.256 531.189 L101.256 535.124 L81.3485 535.124 L81.3485 531.189 Z" fill="#000000" fill-rule="evenodd" fill-opacity="1" /><path clip-path="url(#clip530)" d="M 0 0 M116.325 503.642 Q112.714 503.642 110.885 507.207 Q109.08 510.749 109.08 517.878 Q109.08 524.985 110.885 528.55 Q112.714 532.091 116.325 532.091 Q119.959 532.091 121.765 528.55 Q123.594 524.985 123.594 517.878 Q123.594 510.749 121.765 507.207 Q119.959 503.642 116.325 503.642 M116.325 499.939 Q122.135 499.939 125.191 504.545 Q128.27 509.128 128.27 517.878 Q128.27 526.605 125.191 531.212 Q122.135 535.795 116.325 535.795 Q110.515 535.795 107.436 531.212 Q104.381 526.605 104.381 517.878 Q104.381 509.128 107.436 504.545 Q110.515 499.939 116.325 499.939 Z" fill="#000000" fill-rule="evenodd" fill-opacity="1" /><path clip-path="url(#clip530)" d="M 0 0 M84.9365 85.2475 L101.256 85.2475 L101.256 89.1827 L79.3115 89.1827 L79.3115 85.2475 Q81.9735 82.4929 86.5568 77.8633 Q91.1633 73.2106 92.3438 71.868 Q94.5892 69.3448 95.4688 67.6087 Q96.3716 65.8495 96.3716 64.1597 Q96.3716 61.4051 94.4271 59.669 Q92.5059 57.9329 89.404 57.9329 Q87.205 57.9329 84.7513 58.6968 Q82.3207 59.4606 79.543 61.0116 L79.543 56.2894 Q82.367 55.1551 84.8207 54.5764 Q87.2744 53.9977 89.3114 53.9977 Q94.6818 53.9977 97.8762 56.6829 Q101.071 59.368 101.071 63.8588 Q101.071 65.9884 100.26 67.9097 Q99.4734 69.8078 97.3669 72.4004 Q96.7882 73.0717 93.6864 76.2893 Q90.5846 79.4837 84.9365 85.2475 Z" fill="#000000" fill-rule="evenodd" fill-opacity="1" /><path clip-path="url(#clip530)" d="M 0 0 M116.325 57.7014 Q112.714 57.7014 110.885 61.2662 Q109.08 64.8078 109.08 71.9374 Q109.08 79.0439 110.885 82.6087 Q112.714 86.1503 116.325 86.1503 Q119.959 86.1503 121.765 82.6087 Q123.594 79.0439 123.594 71.9374 Q123.594 64.8078 121.765 61.2662 Q119.959 57.7014 116.325 57.7014 M116.325 53.9977 Q122.135 53.9977 125.191 58.6042 Q128.27 63.1875 128.27 71.9374 Q128.27 80.6642 125.191 85.2707 Q122.135 89.854 116.325 89.854 Q110.515 89.854 107.436 85.2707 Q104.381 80.6642 104.381 71.9374 Q104.381 63.1875 107.436 58.6042 Q110.515 53.9977 116.325 53.9977 Z" fill="#000000" fill-rule="evenodd" fill-opacity="1" /><path clip-path="url(#clip530)" d="M 0 0 M1251.57 1510.27 L1251.57 1520.4 L1263.64 1520.4 L1263.64 1524.95 L1251.57 1524.95 L1251.57 1544.3 Q1251.57 1548.66 1252.75 1549.9 Q1253.96 1551.14 1257.62 1551.14 L1263.64 1551.14 L1263.64 1556.04 L1257.62 1556.04 Q1250.84 1556.04 1248.26 1553.53 Q1245.69 1550.98 1245.69 1544.3 L1245.69 1524.95 L1241.39 1524.95 L1241.39 1520.4 L1245.69 1520.4 L1245.69 1510.27 L1251.57 1510.27 Z" fill="#000000" fill-rule="evenodd" fill-opacity="1" /><circle clip-path="url(#clip532)" cx="173.404" cy="1077.71" r="7" fill="#009af9" fill-rule="evenodd" fill-opacity="1" stroke="#000000" stroke-opacity="1" stroke-width="3.2"/>
<circle clip-path="url(#clip532)" cx="176.091" cy="880.55" r="7" fill="#009af9" fill-rule="evenodd" fill-opacity="1" stroke="#000000" stroke-opacity="1" stroke-width="3.2"/>
<circle clip-path="url(#clip532)" cx="187.984" cy="1017.17" r="7" fill="#009af9" fill-rule="evenodd" fill-opacity="1" stroke="#000000" stroke-opacity="1" stroke-width="3.2"/>
<circle clip-path="url(#clip532)" cx="199.054" cy="906.724" r="7" fill="#009af9" fill-rule="evenodd" fill-opacity="1" stroke="#000000" stroke-opacity="1" stroke-width="3.2"/>
<circle clip-path="url(#clip532)" cx="206.713" cy="857.407" r="7" fill="#009af9" fill-rule="evenodd" fill-opacity="1" stroke="#000000" stroke-opacity="1" stroke-width="3.2"/>
<circle clip-path="url(#clip532)" cx="226.86" cy="741.301" r="7" fill="#009af9" fill-rule="evenodd" fill-opacity="1" stroke="#000000" stroke-opacity="1" stroke-width="3.2"/>
<circle clip-path="url(#clip532)" cx="228.789" cy="688.812" r="7" fill="#009af9" fill-rule="evenodd" fill-opacity="1" stroke="#000000" stroke-opacity="1" stroke-width="3.2"/>
<circle clip-path="url(#clip532)" cx="241.523" cy="707.442" r="7" fill="#009af9" fill-rule="evenodd" fill-opacity="1" stroke="#000000" stroke-opacity="1" stroke-width="3.2"/>
<circle clip-path="url(#clip532)" cx="258.719" cy="893.496" r="7" fill="#009af9" fill-rule="evenodd" fill-opacity="1" stroke="#000000" stroke-opacity="1" stroke-width="3.2"/>
<circle clip-path="url(#clip532)" cx="259.18" cy="711.636" r="7" fill="#009af9" fill-rule="evenodd" fill-opacity="1" stroke="#000000" stroke-opacity="1" stroke-width="3.2"/>
<circle clip-path="url(#clip532)" cx="261.349" cy="800.39" r="7" fill="#009af9" fill-rule="evenodd" fill-opacity="1" stroke="#000000" stroke-opacity="1" stroke-width="3.2"/>
<circle clip-path="url(#clip532)" cx="264.562" cy="699.6" r="7" fill="#009af9" fill-rule="evenodd" fill-opacity="1" stroke="#000000" stroke-opacity="1" stroke-width="3.2"/>
<circle clip-path="url(#clip532)" cx="265.233" cy="629.667" r="7" fill="#009af9" fill-rule="evenodd" fill-opacity="1" stroke="#000000" stroke-opacity="1" stroke-width="3.2"/>
<circle clip-path="url(#clip532)" cx="276.54" cy="666.471" r="7" fill="#009af9" fill-rule="evenodd" fill-opacity="1" stroke="#000000" stroke-opacity="1" stroke-width="3.2"/>
<circle clip-path="url(#clip532)" cx="283.078" cy="709.209" r="7" fill="#009af9" fill-rule="evenodd" fill-opacity="1" stroke="#000000" stroke-opacity="1" stroke-width="3.2"/>
<circle clip-path="url(#clip532)" cx="284.355" cy="710.495" r="7" fill="#009af9" fill-rule="evenodd" fill-opacity="1" stroke="#000000" stroke-opacity="1" stroke-width="3.2"/>
<circle clip-path="url(#clip532)" cx="304.142" cy="768.239" r="7" fill="#009af9" fill-rule="evenodd" fill-opacity="1" stroke="#000000" stroke-opacity="1" stroke-width="3.2"/>
<circle clip-path="url(#clip532)" cx="320.461" cy="668.906" r="7" fill="#009af9" fill-rule="evenodd" fill-opacity="1" stroke="#000000" stroke-opacity="1" stroke-width="3.2"/>
<circle clip-path="url(#clip532)" cx="323.181" cy="601.796" r="7" fill="#009af9" fill-rule="evenodd" fill-opacity="1" stroke="#000000" stroke-opacity="1" stroke-width="3.2"/>
<circle clip-path="url(#clip532)" cx="328.46" cy="876.725" r="7" fill="#009af9" fill-rule="evenodd" fill-opacity="1" stroke="#000000" stroke-opacity="1" stroke-width="3.2"/>
<circle clip-path="url(#clip532)" cx="328.784" cy="799.966" r="7" fill="#009af9" fill-rule="evenodd" fill-opacity="1" stroke="#000000" stroke-opacity="1" stroke-width="3.2"/>
<circle clip-path="url(#clip532)" cx="329.869" cy="842.622" r="7" fill="#009af9" fill-rule="evenodd" fill-opacity="1" stroke="#000000" stroke-opacity="1" stroke-width="3.2"/>
<circle clip-path="url(#clip532)" cx="332.861" cy="673.558" r="7" fill="#009af9" fill-rule="evenodd" fill-opacity="1" stroke="#000000" stroke-opacity="1" stroke-width="3.2"/>
<circle clip-path="url(#clip532)" cx="337.783" cy="687.569" r="7" fill="#009af9" fill-rule="evenodd" fill-opacity="1" stroke="#000000" stroke-opacity="1" stroke-width="3.2"/>
<circle clip-path="url(#clip532)" cx="344.634" cy="615.825" r="7" fill="#009af9" fill-rule="evenodd" fill-opacity="1" stroke="#000000" stroke-opacity="1" stroke-width="3.2"/>
<circle clip-path="url(#clip532)" cx="354.22" cy="650.76" r="7" fill="#009af9" fill-rule="evenodd" fill-opacity="1" stroke="#000000" stroke-opacity="1" stroke-width="3.2"/>
<circle clip-path="url(#clip532)" cx="368.71" cy="792.453" r="7" fill="#009af9" fill-rule="evenodd" fill-opacity="1" stroke="#000000" stroke-opacity="1" stroke-width="3.2"/>
<circle clip-path="url(#clip532)" cx="369.909" cy="597.043" r="7" fill="#009af9" fill-rule="evenodd" fill-opacity="1" stroke="#000000" stroke-opacity="1" stroke-width="3.2"/>
<circle clip-path="url(#clip532)" cx="382.312" cy="734.587" r="7" fill="#009af9" fill-rule="evenodd" fill-opacity="1" stroke="#000000" stroke-opacity="1" stroke-width="3.2"/>
<circle clip-path="url(#clip532)" cx="393.725" cy="816.596" r="7" fill="#009af9" fill-rule="evenodd" fill-opacity="1" stroke="#000000" stroke-opacity="1" stroke-width="3.2"/>
<circle clip-path="url(#clip532)" cx="412.636" cy="736.644" r="7" fill="#009af9" fill-rule="evenodd" fill-opacity="1" stroke="#000000" stroke-opacity="1" stroke-width="3.2"/>
<circle clip-path="url(#clip532)" cx="430.936" cy="646.359" r="7" fill="#009af9" fill-rule="evenodd" fill-opacity="1" stroke="#000000" stroke-opacity="1" stroke-width="3.2"/>
<circle clip-path="url(#clip532)" cx="437.814" cy="913.571" r="7" fill="#009af9" fill-rule="evenodd" fill-opacity="1" stroke="#000000" stroke-opacity="1" stroke-width="3.2"/>
<circle clip-path="url(#clip532)" cx="437.92" cy="808.064" r="7" fill="#009af9" fill-rule="evenodd" fill-opacity="1" stroke="#000000" stroke-opacity="1" stroke-width="3.2"/>
<circle clip-path="url(#clip532)" cx="440.281" cy="776.38" r="7" fill="#009af9" fill-rule="evenodd" fill-opacity="1" stroke="#000000" stroke-opacity="1" stroke-width="3.2"/>
<circle clip-path="url(#clip532)" cx="451.789" cy="911.358" r="7" fill="#009af9" fill-rule="evenodd" fill-opacity="1" stroke="#000000" stroke-opacity="1" stroke-width="3.2"/>
<circle clip-path="url(#clip532)" cx="456.537" cy="734.252" r="7" fill="#009af9" fill-rule="evenodd" fill-opacity="1" stroke="#000000" stroke-opacity="1" stroke-width="3.2"/>
<circle clip-path="url(#clip532)" cx="458.693" cy="926.011" r="7" fill="#009af9" fill-rule="evenodd" fill-opacity="1" stroke="#000000" stroke-opacity="1" stroke-width="3.2"/>
<circle clip-path="url(#clip532)" cx="472.75" cy="743.962" r="7" fill="#009af9" fill-rule="evenodd" fill-opacity="1" stroke="#000000" stroke-opacity="1" stroke-width="3.2"/>
<circle clip-path="url(#clip532)" cx="476.418" cy="757.566" r="7" fill="#009af9" fill-rule="evenodd" fill-opacity="1" stroke="#000000" stroke-opacity="1" stroke-width="3.2"/>
<circle clip-path="url(#clip532)" cx="478.735" cy="934.2" r="7" fill="#009af9" fill-rule="evenodd" fill-opacity="1" stroke="#000000" stroke-opacity="1" stroke-width="3.2"/>
<circle clip-path="url(#clip532)" cx="479.799" cy="855.868" r="7" fill="#009af9" fill-rule="evenodd" fill-opacity="1" stroke="#000000" stroke-opacity="1" stroke-width="3.2"/>
<circle clip-path="url(#clip532)" cx="494.362" cy="814.073" r="7" fill="#009af9" fill-rule="evenodd" fill-opacity="1" stroke="#000000" stroke-opacity="1" stroke-width="3.2"/>
<circle clip-path="url(#clip532)" cx="497.601" cy="681.144" r="7" fill="#009af9" fill-rule="evenodd" fill-opacity="1" stroke="#000000" stroke-opacity="1" stroke-width="3.2"/>
<circle clip-path="url(#clip532)" cx="507.286" cy="943.073" r="7" fill="#009af9" fill-rule="evenodd" fill-opacity="1" stroke="#000000" stroke-opacity="1" stroke-width="3.2"/>
<circle clip-path="url(#clip532)" cx="507.97" cy="831.595" r="7" fill="#009af9" fill-rule="evenodd" fill-opacity="1" stroke="#000000" stroke-opacity="1" stroke-width="3.2"/>
<circle clip-path="url(#clip532)" cx="515.172" cy="811.789" r="7" fill="#009af9" fill-rule="evenodd" fill-opacity="1" stroke="#000000" stroke-opacity="1" stroke-width="3.2"/>
<circle clip-path="url(#clip532)" cx="518.814" cy="710.884" r="7" fill="#009af9" fill-rule="evenodd" fill-opacity="1" stroke="#000000" stroke-opacity="1" stroke-width="3.2"/>
<circle clip-path="url(#clip532)" cx="528.355" cy="942.535" r="7" fill="#009af9" fill-rule="evenodd" fill-opacity="1" stroke="#000000" stroke-opacity="1" stroke-width="3.2"/>
<circle clip-path="url(#clip532)" cx="530.534" cy="857.412" r="7" fill="#009af9" fill-rule="evenodd" fill-opacity="1" stroke="#000000" stroke-opacity="1" stroke-width="3.2"/>
<circle clip-path="url(#clip532)" cx="532.525" cy="967.221" r="7" fill="#009af9" fill-rule="evenodd" fill-opacity="1" stroke="#000000" stroke-opacity="1" stroke-width="3.2"/>
<circle clip-path="url(#clip532)" cx="537.75" cy="847.68" r="7" fill="#009af9" fill-rule="evenodd" fill-opacity="1" stroke="#000000" stroke-opacity="1" stroke-width="3.2"/>
<circle clip-path="url(#clip532)" cx="544.55" cy="883.54" r="7" fill="#009af9" fill-rule="evenodd" fill-opacity="1" stroke="#000000" stroke-opacity="1" stroke-width="3.2"/>
<circle clip-path="url(#clip532)" cx="545.123" cy="888.411" r="7" fill="#009af9" fill-rule="evenodd" fill-opacity="1" stroke="#000000" stroke-opacity="1" stroke-width="3.2"/>
<circle clip-path="url(#clip532)" cx="545.923" cy="881.377" r="7" fill="#009af9" fill-rule="evenodd" fill-opacity="1" stroke="#000000" stroke-opacity="1" stroke-width="3.2"/>
<circle clip-path="url(#clip532)" cx="546.053" cy="868.518" r="7" fill="#009af9" fill-rule="evenodd" fill-opacity="1" stroke="#000000" stroke-opacity="1" stroke-width="3.2"/>
<circle clip-path="url(#clip532)" cx="548.704" cy="872.697" r="7" fill="#009af9" fill-rule="evenodd" fill-opacity="1" stroke="#000000" stroke-opacity="1" stroke-width="3.2"/>
<circle clip-path="url(#clip532)" cx="552.401" cy="940.034" r="7" fill="#009af9" fill-rule="evenodd" fill-opacity="1" stroke="#000000" stroke-opacity="1" stroke-width="3.2"/>
<circle clip-path="url(#clip532)" cx="564.17" cy="792.441" r="7" fill="#009af9" fill-rule="evenodd" fill-opacity="1" stroke="#000000" stroke-opacity="1" stroke-width="3.2"/>
<circle clip-path="url(#clip532)" cx="588.673" cy="912.24" r="7" fill="#009af9" fill-rule="evenodd" fill-opacity="1" stroke="#000000" stroke-opacity="1" stroke-width="3.2"/>
<circle clip-path="url(#clip532)" cx="591.057" cy="916.059" r="7" fill="#009af9" fill-rule="evenodd" fill-opacity="1" stroke="#000000" stroke-opacity="1" stroke-width="3.2"/>
<circle clip-path="url(#clip532)" cx="608.268" cy="918.941" r="7" fill="#009af9" fill-rule="evenodd" fill-opacity="1" stroke="#000000" stroke-opacity="1" stroke-width="3.2"/>
<circle clip-path="url(#clip532)" cx="613.347" cy="955.445" r="7" fill="#009af9" fill-rule="evenodd" fill-opacity="1" stroke="#000000" stroke-opacity="1" stroke-width="3.2"/>
<circle clip-path="url(#clip532)" cx="615.206" cy="1008.29" r="7" fill="#009af9" fill-rule="evenodd" fill-opacity="1" stroke="#000000" stroke-opacity="1" stroke-width="3.2"/>
<circle clip-path="url(#clip532)" cx="616.113" cy="958.418" r="7" fill="#009af9" fill-rule="evenodd" fill-opacity="1" stroke="#000000" stroke-opacity="1" stroke-width="3.2"/>
<circle clip-path="url(#clip532)" cx="617.508" cy="1002.76" r="7" fill="#009af9" fill-rule="evenodd" fill-opacity="1" stroke="#000000" stroke-opacity="1" stroke-width="3.2"/>
<circle clip-path="url(#clip532)" cx="649.085" cy="1024.66" r="7" fill="#009af9" fill-rule="evenodd" fill-opacity="1" stroke="#000000" stroke-opacity="1" stroke-width="3.2"/>
<circle clip-path="url(#clip532)" cx="650.908" cy="960.823" r="7" fill="#009af9" fill-rule="evenodd" fill-opacity="1" stroke="#000000" stroke-opacity="1" stroke-width="3.2"/>
<circle clip-path="url(#clip532)" cx="676.108" cy="1033.26" r="7" fill="#009af9" fill-rule="evenodd" fill-opacity="1" stroke="#000000" stroke-opacity="1" stroke-width="3.2"/>
<circle clip-path="url(#clip532)" cx="679.633" cy="1059.12" r="7" fill="#009af9" fill-rule="evenodd" fill-opacity="1" stroke="#000000" stroke-opacity="1" stroke-width="3.2"/>
<circle clip-path="url(#clip532)" cx="682.238" cy="962.023" r="7" fill="#009af9" fill-rule="evenodd" fill-opacity="1" stroke="#000000" stroke-opacity="1" stroke-width="3.2"/>
<circle clip-path="url(#clip532)" cx="688.683" cy="1016.34" r="7" fill="#009af9" fill-rule="evenodd" fill-opacity="1" stroke="#000000" stroke-opacity="1" stroke-width="3.2"/>
<circle clip-path="url(#clip532)" cx="689.157" cy="916.682" r="7" fill="#009af9" fill-rule="evenodd" fill-opacity="1" stroke="#000000" stroke-opacity="1" stroke-width="3.2"/>
<circle clip-path="url(#clip532)" cx="706.052" cy="1000.04" r="7" fill="#009af9" fill-rule="evenodd" fill-opacity="1" stroke="#000000" stroke-opacity="1" stroke-width="3.2"/>
<circle clip-path="url(#clip532)" cx="709.509" cy="1024.2" r="7" fill="#009af9" fill-rule="evenodd" fill-opacity="1" stroke="#000000" stroke-opacity="1" stroke-width="3.2"/>
<circle clip-path="url(#clip532)" cx="712.558" cy="973.013" r="7" fill="#009af9" fill-rule="evenodd" fill-opacity="1" stroke="#000000" stroke-opacity="1" stroke-width="3.2"/>
<circle clip-path="url(#clip532)" cx="716.622" cy="997.915" r="7" fill="#009af9" fill-rule="evenodd" fill-opacity="1" stroke="#000000" stroke-opacity="1" stroke-width="3.2"/>
<circle clip-path="url(#clip532)" cx="719.152" cy="1030.5" r="7" fill="#009af9" fill-rule="evenodd" fill-opacity="1" stroke="#000000" stroke-opacity="1" stroke-width="3.2"/>
<circle clip-path="url(#clip532)" cx="724.956" cy="939.651" r="7" fill="#009af9" fill-rule="evenodd" fill-opacity="1" stroke="#000000" stroke-opacity="1" stroke-width="3.2"/>
<circle clip-path="url(#clip532)" cx="727.173" cy="1024.58" r="7" fill="#009af9" fill-rule="evenodd" fill-opacity="1" stroke="#000000" stroke-opacity="1" stroke-width="3.2"/>
<circle clip-path="url(#clip532)" cx="728.171" cy="1055.44" r="7" fill="#009af9" fill-rule="evenodd" fill-opacity="1" stroke="#000000" stroke-opacity="1" stroke-width="3.2"/>
<circle clip-path="url(#clip532)" cx="729.84" cy="801.181" r="7" fill="#009af9" fill-rule="evenodd" fill-opacity="1" stroke="#000000" stroke-opacity="1" stroke-width="3.2"/>
<circle clip-path="url(#clip532)" cx="732.593" cy="984.383" r="7" fill="#009af9" fill-rule="evenodd" fill-opacity="1" stroke="#000000" stroke-opacity="1" stroke-width="3.2"/>
<circle clip-path="url(#clip532)" cx="735.405" cy="1158.48" r="7" fill="#009af9" fill-rule="evenodd" fill-opacity="1" stroke="#000000" stroke-opacity="1" stroke-width="3.2"/>
<circle clip-path="url(#clip532)" cx="738.569" cy="1062.4" r="7" fill="#009af9" fill-rule="evenodd" fill-opacity="1" stroke="#000000" stroke-opacity="1" stroke-width="3.2"/>
<circle clip-path="url(#clip532)" cx="744.139" cy="1102.35" r="7" fill="#009af9" fill-rule="evenodd" fill-opacity="1" stroke="#000000" stroke-opacity="1" stroke-width="3.2"/>
<circle clip-path="url(#clip532)" cx="748.177" cy="1106.38" r="7" fill="#009af9" fill-rule="evenodd" fill-opacity="1" stroke="#000000" stroke-opacity="1" stroke-width="3.2"/>
<circle clip-path="url(#clip532)" cx="752.552" cy="891.306" r="7" fill="#009af9" fill-rule="evenodd" fill-opacity="1" stroke="#000000" stroke-opacity="1" stroke-width="3.2"/>
<circle clip-path="url(#clip532)" cx="763.625" cy="935.699" r="7" fill="#009af9" fill-rule="evenodd" fill-opacity="1" stroke="#000000" stroke-opacity="1" stroke-width="3.2"/>
<circle clip-path="url(#clip532)" cx="778.843" cy="1006.61" r="7" fill="#009af9" fill-rule="evenodd" fill-opacity="1" stroke="#000000" stroke-opacity="1" stroke-width="3.2"/>
<circle clip-path="url(#clip532)" cx="790.414" cy="1034.69" r="7" fill="#009af9" fill-rule="evenodd" fill-opacity="1" stroke="#000000" stroke-opacity="1" stroke-width="3.2"/>
<circle clip-path="url(#clip532)" cx="790.586" cy="1052.57" r="7" fill="#009af9" fill-rule="evenodd" fill-opacity="1" stroke="#000000" stroke-opacity="1" stroke-width="3.2"/>
<circle clip-path="url(#clip532)" cx="790.748" cy="850.142" r="7" fill="#009af9" fill-rule="evenodd" fill-opacity="1" stroke="#000000" stroke-opacity="1" stroke-width="3.2"/>
<circle clip-path="url(#clip532)" cx="806.091" cy="1009.08" r="7" fill="#009af9" fill-rule="evenodd" fill-opacity="1" stroke="#000000" stroke-opacity="1" stroke-width="3.2"/>
<circle clip-path="url(#clip532)" cx="809.829" cy="1113.47" r="7" fill="#009af9" fill-rule="evenodd" fill-opacity="1" stroke="#000000" stroke-opacity="1" stroke-width="3.2"/>
<circle clip-path="url(#clip532)" cx="813.804" cy="1080.36" r="7" fill="#009af9" fill-rule="evenodd" fill-opacity="1" stroke="#000000" stroke-opacity="1" stroke-width="3.2"/>
<circle clip-path="url(#clip532)" cx="814.91" cy="938.478" r="7" fill="#009af9" fill-rule="evenodd" fill-opacity="1" stroke="#000000" stroke-opacity="1" stroke-width="3.2"/>
<circle clip-path="url(#clip532)" cx="828.323" cy="1004.38" r="7" fill="#009af9" fill-rule="evenodd" fill-opacity="1" stroke="#000000" stroke-opacity="1" stroke-width="3.2"/>
<circle clip-path="url(#clip532)" cx="830.957" cy="1037.02" r="7" fill="#009af9" fill-rule="evenodd" fill-opacity="1" stroke="#000000" stroke-opacity="1" stroke-width="3.2"/>
<circle clip-path="url(#clip532)" cx="833.032" cy="1065.2" r="7" fill="#009af9" fill-rule="evenodd" fill-opacity="1" stroke="#000000" stroke-opacity="1" stroke-width="3.2"/>
<circle clip-path="url(#clip532)" cx="838.096" cy="1110.8" r="7" fill="#009af9" fill-rule="evenodd" fill-opacity="1" stroke="#000000" stroke-opacity="1" stroke-width="3.2"/>
<circle clip-path="url(#clip532)" cx="846.182" cy="1120.1" r="7" fill="#009af9" fill-rule="evenodd" fill-opacity="1" stroke="#000000" stroke-opacity="1" stroke-width="3.2"/>
<circle clip-path="url(#clip532)" cx="849.187" cy="969.342" r="7" fill="#009af9" fill-rule="evenodd" fill-opacity="1" stroke="#000000" stroke-opacity="1" stroke-width="3.2"/>
<circle clip-path="url(#clip532)" cx="854.843" cy="1104.02" r="7" fill="#009af9" fill-rule="evenodd" fill-opacity="1" stroke="#000000" stroke-opacity="1" stroke-width="3.2"/>
<circle clip-path="url(#clip532)" cx="860.669" cy="931.915" r="7" fill="#009af9" fill-rule="evenodd" fill-opacity="1" stroke="#000000" stroke-opacity="1" stroke-width="3.2"/>
<circle clip-path="url(#clip532)" cx="866.421" cy="1005.03" r="7" fill="#009af9" fill-rule="evenodd" fill-opacity="1" stroke="#000000" stroke-opacity="1" stroke-width="3.2"/>
<circle clip-path="url(#clip532)" cx="867.851" cy="943.882" r="7" fill="#009af9" fill-rule="evenodd" fill-opacity="1" stroke="#000000" stroke-opacity="1" stroke-width="3.2"/>
<circle clip-path="url(#clip532)" cx="871.736" cy="992.95" r="7" fill="#009af9" fill-rule="evenodd" fill-opacity="1" stroke="#000000" stroke-opacity="1" stroke-width="3.2"/>
<circle clip-path="url(#clip532)" cx="883.631" cy="1093.95" r="7" fill="#009af9" fill-rule="evenodd" fill-opacity="1" stroke="#000000" stroke-opacity="1" stroke-width="3.2"/>
<circle clip-path="url(#clip532)" cx="885.818" cy="1154.36" r="7" fill="#009af9" fill-rule="evenodd" fill-opacity="1" stroke="#000000" stroke-opacity="1" stroke-width="3.2"/>
<circle clip-path="url(#clip532)" cx="890.067" cy="951.055" r="7" fill="#009af9" fill-rule="evenodd" fill-opacity="1" stroke="#000000" stroke-opacity="1" stroke-width="3.2"/>
<circle clip-path="url(#clip532)" cx="890.36" cy="1111.11" r="7" fill="#009af9" fill-rule="evenodd" fill-opacity="1" stroke="#000000" stroke-opacity="1" stroke-width="3.2"/>
<circle clip-path="url(#clip532)" cx="927.614" cy="1107.04" r="7" fill="#009af9" fill-rule="evenodd" fill-opacity="1" stroke="#000000" stroke-opacity="1" stroke-width="3.2"/>
<circle clip-path="url(#clip532)" cx="933.791" cy="1040.76" r="7" fill="#009af9" fill-rule="evenodd" fill-opacity="1" stroke="#000000" stroke-opacity="1" stroke-width="3.2"/>
<circle clip-path="url(#clip532)" cx="944.096" cy="1072.06" r="7" fill="#009af9" fill-rule="evenodd" fill-opacity="1" stroke="#000000" stroke-opacity="1" stroke-width="3.2"/>
<circle clip-path="url(#clip532)" cx="961.808" cy="843.729" r="7" fill="#009af9" fill-rule="evenodd" fill-opacity="1" stroke="#000000" stroke-opacity="1" stroke-width="3.2"/>
<circle clip-path="url(#clip532)" cx="965.455" cy="1029.44" r="7" fill="#009af9" fill-rule="evenodd" fill-opacity="1" stroke="#000000" stroke-opacity="1" stroke-width="3.2"/>
<circle clip-path="url(#clip532)" cx="970.645" cy="942.388" r="7" fill="#009af9" fill-rule="evenodd" fill-opacity="1" stroke="#000000" stroke-opacity="1" stroke-width="3.2"/>
<circle clip-path="url(#clip532)" cx="975.101" cy="857.423" r="7" fill="#009af9" fill-rule="evenodd" fill-opacity="1" stroke="#000000" stroke-opacity="1" stroke-width="3.2"/>
<circle clip-path="url(#clip532)" cx="977.567" cy="856.393" r="7" fill="#009af9" fill-rule="evenodd" fill-opacity="1" stroke="#000000" stroke-opacity="1" stroke-width="3.2"/>
<circle clip-path="url(#clip532)" cx="993.104" cy="959.374" r="7" fill="#009af9" fill-rule="evenodd" fill-opacity="1" stroke="#000000" stroke-opacity="1" stroke-width="3.2"/>
<circle clip-path="url(#clip532)" cx="1002.25" cy="891.983" r="7" fill="#009af9" fill-rule="evenodd" fill-opacity="1" stroke="#000000" stroke-opacity="1" stroke-width="3.2"/>
<circle clip-path="url(#clip532)" cx="1002.75" cy="919.894" r="7" fill="#009af9" fill-rule="evenodd" fill-opacity="1" stroke="#000000" stroke-opacity="1" stroke-width="3.2"/>
<circle clip-path="url(#clip532)" cx="1005.59" cy="935.687" r="7" fill="#009af9" fill-rule="evenodd" fill-opacity="1" stroke="#000000" stroke-opacity="1" stroke-width="3.2"/>
<circle clip-path="url(#clip532)" cx="1014.78" cy="819.071" r="7" fill="#009af9" fill-rule="evenodd" fill-opacity="1" stroke="#000000" stroke-opacity="1" stroke-width="3.2"/>
<circle clip-path="url(#clip532)" cx="1026.18" cy="953.786" r="7" fill="#009af9" fill-rule="evenodd" fill-opacity="1" stroke="#000000" stroke-opacity="1" stroke-width="3.2"/>
<circle clip-path="url(#clip532)" cx="1028.27" cy="1089.76" r="7" fill="#009af9" fill-rule="evenodd" fill-opacity="1" stroke="#000000" stroke-opacity="1" stroke-width="3.2"/>
<circle clip-path="url(#clip532)" cx="1028.38" cy="805.474" r="7" fill="#009af9" fill-rule="evenodd" fill-opacity="1" stroke="#000000" stroke-opacity="1" stroke-width="3.2"/>
<circle clip-path="url(#clip532)" cx="1029.96" cy="970.94" r="7" fill="#009af9" fill-rule="evenodd" fill-opacity="1" stroke="#000000" stroke-opacity="1" stroke-width="3.2"/>
<circle clip-path="url(#clip532)" cx="1056.45" cy="942.861" r="7" fill="#009af9" fill-rule="evenodd" fill-opacity="1" stroke="#000000" stroke-opacity="1" stroke-width="3.2"/>
<circle clip-path="url(#clip532)" cx="1068.68" cy="1099.98" r="7" fill="#009af9" fill-rule="evenodd" fill-opacity="1" stroke="#000000" stroke-opacity="1" stroke-width="3.2"/>
<circle clip-path="url(#clip532)" cx="1071.23" cy="949.794" r="7" fill="#009af9" fill-rule="evenodd" fill-opacity="1" stroke="#000000" stroke-opacity="1" stroke-width="3.2"/>
<circle clip-path="url(#clip532)" cx="1073.17" cy="954.045" r="7" fill="#009af9" fill-rule="evenodd" fill-opacity="1" stroke="#000000" stroke-opacity="1" stroke-width="3.2"/>
<circle clip-path="url(#clip532)" cx="1081.49" cy="925.201" r="7" fill="#009af9" fill-rule="evenodd" fill-opacity="1" stroke="#000000" stroke-opacity="1" stroke-width="3.2"/>
<circle clip-path="url(#clip532)" cx="1087.13" cy="1068.14" r="7" fill="#009af9" fill-rule="evenodd" fill-opacity="1" stroke="#000000" stroke-opacity="1" stroke-width="3.2"/>
<circle clip-path="url(#clip532)" cx="1092.1" cy="1041.51" r="7" fill="#009af9" fill-rule="evenodd" fill-opacity="1" stroke="#000000" stroke-opacity="1" stroke-width="3.2"/>
<circle clip-path="url(#clip532)" cx="1093.91" cy="1054.13" r="7" fill="#009af9" fill-rule="evenodd" fill-opacity="1" stroke="#000000" stroke-opacity="1" stroke-width="3.2"/>
<circle clip-path="url(#clip532)" cx="1114.54" cy="941.146" r="7" fill="#009af9" fill-rule="evenodd" fill-opacity="1" stroke="#000000" stroke-opacity="1" stroke-width="3.2"/>
<circle clip-path="url(#clip532)" cx="1118.03" cy="1088.26" r="7" fill="#009af9" fill-rule="evenodd" fill-opacity="1" stroke="#000000" stroke-opacity="1" stroke-width="3.2"/>
<circle clip-path="url(#clip532)" cx="1125.34" cy="1022.63" r="7" fill="#009af9" fill-rule="evenodd" fill-opacity="1" stroke="#000000" stroke-opacity="1" stroke-width="3.2"/>
<circle clip-path="url(#clip532)" cx="1132.99" cy="1010.42" r="7" fill="#009af9" fill-rule="evenodd" fill-opacity="1" stroke="#000000" stroke-opacity="1" stroke-width="3.2"/>
<circle clip-path="url(#clip532)" cx="1145.46" cy="1021.58" r="7" fill="#009af9" fill-rule="evenodd" fill-opacity="1" stroke="#000000" stroke-opacity="1" stroke-width="3.2"/>
<circle clip-path="url(#clip532)" cx="1150.22" cy="886.356" r="7" fill="#009af9" fill-rule="evenodd" fill-opacity="1" stroke="#000000" stroke-opacity="1" stroke-width="3.2"/>
<circle clip-path="url(#clip532)" cx="1162.21" cy="832.09" r="7" fill="#009af9" fill-rule="evenodd" fill-opacity="1" stroke="#000000" stroke-opacity="1" stroke-width="3.2"/>
<circle clip-path="url(#clip532)" cx="1162.93" cy="812.257" r="7" fill="#009af9" fill-rule="evenodd" fill-opacity="1" stroke="#000000" stroke-opacity="1" stroke-width="3.2"/>
<circle clip-path="url(#clip532)" cx="1164" cy="884.616" r="7" fill="#009af9" fill-rule="evenodd" fill-opacity="1" stroke="#000000" stroke-opacity="1" stroke-width="3.2"/>
<circle clip-path="url(#clip532)" cx="1172.49" cy="1082.61" r="7" fill="#009af9" fill-rule="evenodd" fill-opacity="1" stroke="#000000" stroke-opacity="1" stroke-width="3.2"/>
<circle clip-path="url(#clip532)" cx="1176.23" cy="1058.79" r="7" fill="#009af9" fill-rule="evenodd" fill-opacity="1" stroke="#000000" stroke-opacity="1" stroke-width="3.2"/>
<circle clip-path="url(#clip532)" cx="1180.21" cy="997.624" r="7" fill="#009af9" fill-rule="evenodd" fill-opacity="1" stroke="#000000" stroke-opacity="1" stroke-width="3.2"/>
<circle clip-path="url(#clip532)" cx="1182.21" cy="988.272" r="7" fill="#009af9" fill-rule="evenodd" fill-opacity="1" stroke="#000000" stroke-opacity="1" stroke-width="3.2"/>
<circle clip-path="url(#clip532)" cx="1188.53" cy="777.849" r="7" fill="#009af9" fill-rule="evenodd" fill-opacity="1" stroke="#000000" stroke-opacity="1" stroke-width="3.2"/>
<circle clip-path="url(#clip532)" cx="1191.89" cy="836.754" r="7" fill="#009af9" fill-rule="evenodd" fill-opacity="1" stroke="#000000" stroke-opacity="1" stroke-width="3.2"/>
<circle clip-path="url(#clip532)" cx="1196.21" cy="877.25" r="7" fill="#009af9" fill-rule="evenodd" fill-opacity="1" stroke="#000000" stroke-opacity="1" stroke-width="3.2"/>
<circle clip-path="url(#clip532)" cx="1199.43" cy="859.066" r="7" fill="#009af9" fill-rule="evenodd" fill-opacity="1" stroke="#000000" stroke-opacity="1" stroke-width="3.2"/>
<circle clip-path="url(#clip532)" cx="1211.59" cy="1104.71" r="7" fill="#009af9" fill-rule="evenodd" fill-opacity="1" stroke="#000000" stroke-opacity="1" stroke-width="3.2"/>
<circle clip-path="url(#clip532)" cx="1216.08" cy="934.243" r="7" fill="#009af9" fill-rule="evenodd" fill-opacity="1" stroke="#000000" stroke-opacity="1" stroke-width="3.2"/>
<circle clip-path="url(#clip532)" cx="1234.85" cy="1027.09" r="7" fill="#009af9" fill-rule="evenodd" fill-opacity="1" stroke="#000000" stroke-opacity="1" stroke-width="3.2"/>
<circle clip-path="url(#clip532)" cx="1241.8" cy="709.9" r="7" fill="#009af9" fill-rule="evenodd" fill-opacity="1" stroke="#000000" stroke-opacity="1" stroke-width="3.2"/>
<circle clip-path="url(#clip532)" cx="1246.13" cy="926.436" r="7" fill="#009af9" fill-rule="evenodd" fill-opacity="1" stroke="#000000" stroke-opacity="1" stroke-width="3.2"/>
<circle clip-path="url(#clip532)" cx="1257.82" cy="948.579" r="7" fill="#009af9" fill-rule="evenodd" fill-opacity="1" stroke="#000000" stroke-opacity="1" stroke-width="3.2"/>
<circle clip-path="url(#clip532)" cx="1272.6" cy="1024.39" r="7" fill="#009af9" fill-rule="evenodd" fill-opacity="1" stroke="#000000" stroke-opacity="1" stroke-width="3.2"/>
<circle clip-path="url(#clip532)" cx="1283.01" cy="853.735" r="7" fill="#009af9" fill-rule="evenodd" fill-opacity="1" stroke="#000000" stroke-opacity="1" stroke-width="3.2"/>
<circle clip-path="url(#clip532)" cx="1283.09" cy="1002.88" r="7" fill="#009af9" fill-rule="evenodd" fill-opacity="1" stroke="#000000" stroke-opacity="1" stroke-width="3.2"/>
<circle clip-path="url(#clip532)" cx="1291.86" cy="1066.6" r="7" fill="#009af9" fill-rule="evenodd" fill-opacity="1" stroke="#000000" stroke-opacity="1" stroke-width="3.2"/>
<circle clip-path="url(#clip532)" cx="1296.66" cy="956.261" r="7" fill="#009af9" fill-rule="evenodd" fill-opacity="1" stroke="#000000" stroke-opacity="1" stroke-width="3.2"/>
<circle clip-path="url(#clip532)" cx="1304.83" cy="934.122" r="7" fill="#009af9" fill-rule="evenodd" fill-opacity="1" stroke="#000000" stroke-opacity="1" stroke-width="3.2"/>
<circle clip-path="url(#clip532)" cx="1309.09" cy="1048.22" r="7" fill="#009af9" fill-rule="evenodd" fill-opacity="1" stroke="#000000" stroke-opacity="1" stroke-width="3.2"/>
<circle clip-path="url(#clip532)" cx="1310.72" cy="759.913" r="7" fill="#009af9" fill-rule="evenodd" fill-opacity="1" stroke="#000000" stroke-opacity="1" stroke-width="3.2"/>
<circle clip-path="url(#clip532)" cx="1310.99" cy="877.435" r="7" fill="#009af9" fill-rule="evenodd" fill-opacity="1" stroke="#000000" stroke-opacity="1" stroke-width="3.2"/>
<circle clip-path="url(#clip532)" cx="1312.95" cy="1159.37" r="7" fill="#009af9" fill-rule="evenodd" fill-opacity="1" stroke="#000000" stroke-opacity="1" stroke-width="3.2"/>
<circle clip-path="url(#clip532)" cx="1316.39" cy="869.472" r="7" fill="#009af9" fill-rule="evenodd" fill-opacity="1" stroke="#000000" stroke-opacity="1" stroke-width="3.2"/>
<circle clip-path="url(#clip532)" cx="1317.03" cy="940.801" r="7" fill="#009af9" fill-rule="evenodd" fill-opacity="1" stroke="#000000" stroke-opacity="1" stroke-width="3.2"/>
<circle clip-path="url(#clip532)" cx="1319.37" cy="822.165" r="7" fill="#009af9" fill-rule="evenodd" fill-opacity="1" stroke="#000000" stroke-opacity="1" stroke-width="3.2"/>
<circle clip-path="url(#clip532)" cx="1350.13" cy="920.899" r="7" fill="#009af9" fill-rule="evenodd" fill-opacity="1" stroke="#000000" stroke-opacity="1" stroke-width="3.2"/>
<circle clip-path="url(#clip532)" cx="1355.52" cy="849.32" r="7" fill="#009af9" fill-rule="evenodd" fill-opacity="1" stroke="#000000" stroke-opacity="1" stroke-width="3.2"/>
<circle clip-path="url(#clip532)" cx="1356.5" cy="931.12" r="7" fill="#009af9" fill-rule="evenodd" fill-opacity="1" stroke="#000000" stroke-opacity="1" stroke-width="3.2"/>
<circle clip-path="url(#clip532)" cx="1380.62" cy="926.028" r="7" fill="#009af9" fill-rule="evenodd" fill-opacity="1" stroke="#000000" stroke-opacity="1" stroke-width="3.2"/>
<circle clip-path="url(#clip532)" cx="1392.94" cy="859.105" r="7" fill="#009af9" fill-rule="evenodd" fill-opacity="1" stroke="#000000" stroke-opacity="1" stroke-width="3.2"/>
<circle clip-path="url(#clip532)" cx="1398.18" cy="996.706" r="7" fill="#009af9" fill-rule="evenodd" fill-opacity="1" stroke="#000000" stroke-opacity="1" stroke-width="3.2"/>
<circle clip-path="url(#clip532)" cx="1399.76" cy="846.935" r="7" fill="#009af9" fill-rule="evenodd" fill-opacity="1" stroke="#000000" stroke-opacity="1" stroke-width="3.2"/>
<circle clip-path="url(#clip532)" cx="1400.58" cy="965.445" r="7" fill="#009af9" fill-rule="evenodd" fill-opacity="1" stroke="#000000" stroke-opacity="1" stroke-width="3.2"/>
<circle clip-path="url(#clip532)" cx="1418.34" cy="860.937" r="7" fill="#009af9" fill-rule="evenodd" fill-opacity="1" stroke="#000000" stroke-opacity="1" stroke-width="3.2"/>
<circle clip-path="url(#clip532)" cx="1421.23" cy="789.961" r="7" fill="#009af9" fill-rule="evenodd" fill-opacity="1" stroke="#000000" stroke-opacity="1" stroke-width="3.2"/>
<circle clip-path="url(#clip532)" cx="1422.01" cy="900.903" r="7" fill="#009af9" fill-rule="evenodd" fill-opacity="1" stroke="#000000" stroke-opacity="1" stroke-width="3.2"/>
<circle clip-path="url(#clip532)" cx="1424.37" cy="1030.06" r="7" fill="#009af9" fill-rule="evenodd" fill-opacity="1" stroke="#000000" stroke-opacity="1" stroke-width="3.2"/>
<circle clip-path="url(#clip532)" cx="1438.84" cy="1059.15" r="7" fill="#009af9" fill-rule="evenodd" fill-opacity="1" stroke="#000000" stroke-opacity="1" stroke-width="3.2"/>
<circle clip-path="url(#clip532)" cx="1438.93" cy="945.397" r="7" fill="#009af9" fill-rule="evenodd" fill-opacity="1" stroke="#000000" stroke-opacity="1" stroke-width="3.2"/>
<circle clip-path="url(#clip532)" cx="1440.7" cy="1161.33" r="7" fill="#009af9" fill-rule="evenodd" fill-opacity="1" stroke="#000000" stroke-opacity="1" stroke-width="3.2"/>
<circle clip-path="url(#clip532)" cx="1450.37" cy="946.4" r="7" fill="#009af9" fill-rule="evenodd" fill-opacity="1" stroke="#000000" stroke-opacity="1" stroke-width="3.2"/>
<circle clip-path="url(#clip532)" cx="1455.64" cy="888.61" r="7" fill="#009af9" fill-rule="evenodd" fill-opacity="1" stroke="#000000" stroke-opacity="1" stroke-width="3.2"/>
<circle clip-path="url(#clip532)" cx="1499.31" cy="962.506" r="7" fill="#009af9" fill-rule="evenodd" fill-opacity="1" stroke="#000000" stroke-opacity="1" stroke-width="3.2"/>
<circle clip-path="url(#clip532)" cx="1500.02" cy="1070.3" r="7" fill="#009af9" fill-rule="evenodd" fill-opacity="1" stroke="#000000" stroke-opacity="1" stroke-width="3.2"/>
<circle clip-path="url(#clip532)" cx="1507.67" cy="1058.76" r="7" fill="#009af9" fill-rule="evenodd" fill-opacity="1" stroke="#000000" stroke-opacity="1" stroke-width="3.2"/>
<circle clip-path="url(#clip532)" cx="1511.78" cy="853.823" r="7" fill="#009af9" fill-rule="evenodd" fill-opacity="1" stroke="#000000" stroke-opacity="1" stroke-width="3.2"/>
<circle clip-path="url(#clip532)" cx="1515.3" cy="911.174" r="7" fill="#009af9" fill-rule="evenodd" fill-opacity="1" stroke="#000000" stroke-opacity="1" stroke-width="3.2"/>
<circle clip-path="url(#clip532)" cx="1516.17" cy="1036.66" r="7" fill="#009af9" fill-rule="evenodd" fill-opacity="1" stroke="#000000" stroke-opacity="1" stroke-width="3.2"/>
<circle clip-path="url(#clip532)" cx="1517.44" cy="1095.17" r="7" fill="#009af9" fill-rule="evenodd" fill-opacity="1" stroke="#000000" stroke-opacity="1" stroke-width="3.2"/>
<circle clip-path="url(#clip532)" cx="1530.56" cy="1006.6" r="7" fill="#009af9" fill-rule="evenodd" fill-opacity="1" stroke="#000000" stroke-opacity="1" stroke-width="3.2"/>
<circle clip-path="url(#clip532)" cx="1544.33" cy="1021.19" r="7" fill="#009af9" fill-rule="evenodd" fill-opacity="1" stroke="#000000" stroke-opacity="1" stroke-width="3.2"/>
<circle clip-path="url(#clip532)" cx="1546.26" cy="992.044" r="7" fill="#009af9" fill-rule="evenodd" fill-opacity="1" stroke="#000000" stroke-opacity="1" stroke-width="3.2"/>
<circle clip-path="url(#clip532)" cx="1564.28" cy="1026.15" r="7" fill="#009af9" fill-rule="evenodd" fill-opacity="1" stroke="#000000" stroke-opacity="1" stroke-width="3.2"/>
<circle clip-path="url(#clip532)" cx="1567.34" cy="878.366" r="7" fill="#009af9" fill-rule="evenodd" fill-opacity="1" stroke="#000000" stroke-opacity="1" stroke-width="3.2"/>
<circle clip-path="url(#clip532)" cx="1576.8" cy="1014.14" r="7" fill="#009af9" fill-rule="evenodd" fill-opacity="1" stroke="#000000" stroke-opacity="1" stroke-width="3.2"/>
<circle clip-path="url(#clip532)" cx="1579.72" cy="1013.77" r="7" fill="#009af9" fill-rule="evenodd" fill-opacity="1" stroke="#000000" stroke-opacity="1" stroke-width="3.2"/>
<circle clip-path="url(#clip532)" cx="1592.74" cy="1079.07" r="7" fill="#009af9" fill-rule="evenodd" fill-opacity="1" stroke="#000000" stroke-opacity="1" stroke-width="3.2"/>
<circle clip-path="url(#clip532)" cx="1594.27" cy="1319.03" r="7" fill="#009af9" fill-rule="evenodd" fill-opacity="1" stroke="#000000" stroke-opacity="1" stroke-width="3.2"/>
<circle clip-path="url(#clip532)" cx="1613.7" cy="1146.89" r="7" fill="#009af9" fill-rule="evenodd" fill-opacity="1" stroke="#000000" stroke-opacity="1" stroke-width="3.2"/>
<circle clip-path="url(#clip532)" cx="1637.48" cy="1108.79" r="7" fill="#009af9" fill-rule="evenodd" fill-opacity="1" stroke="#000000" stroke-opacity="1" stroke-width="3.2"/>
<circle clip-path="url(#clip532)" cx="1651.24" cy="1018.57" r="7" fill="#009af9" fill-rule="evenodd" fill-opacity="1" stroke="#000000" stroke-opacity="1" stroke-width="3.2"/>
<circle clip-path="url(#clip532)" cx="1654.59" cy="1222.64" r="7" fill="#009af9" fill-rule="evenodd" fill-opacity="1" stroke="#000000" stroke-opacity="1" stroke-width="3.2"/>
<circle clip-path="url(#clip532)" cx="1664.38" cy="950.522" r="7" fill="#009af9" fill-rule="evenodd" fill-opacity="1" stroke="#000000" stroke-opacity="1" stroke-width="3.2"/>
<circle clip-path="url(#clip532)" cx="1669.4" cy="1236.05" r="7" fill="#009af9" fill-rule="evenodd" fill-opacity="1" stroke="#000000" stroke-opacity="1" stroke-width="3.2"/>
<circle clip-path="url(#clip532)" cx="1674.48" cy="1339.81" r="7" fill="#009af9" fill-rule="evenodd" fill-opacity="1" stroke="#000000" stroke-opacity="1" stroke-width="3.2"/>
<circle clip-path="url(#clip532)" cx="1678.28" cy="1100.02" r="7" fill="#009af9" fill-rule="evenodd" fill-opacity="1" stroke="#000000" stroke-opacity="1" stroke-width="3.2"/>
<circle clip-path="url(#clip532)" cx="1687.14" cy="1169.21" r="7" fill="#009af9" fill-rule="evenodd" fill-opacity="1" stroke="#000000" stroke-opacity="1" stroke-width="3.2"/>
<circle clip-path="url(#clip532)" cx="1688.68" cy="1132.11" r="7" fill="#009af9" fill-rule="evenodd" fill-opacity="1" stroke="#000000" stroke-opacity="1" stroke-width="3.2"/>
<circle clip-path="url(#clip532)" cx="1712.65" cy="1162.67" r="7" fill="#009af9" fill-rule="evenodd" fill-opacity="1" stroke="#000000" stroke-opacity="1" stroke-width="3.2"/>
<circle clip-path="url(#clip532)" cx="1722.8" cy="1384.24" r="7" fill="#009af9" fill-rule="evenodd" fill-opacity="1" stroke="#000000" stroke-opacity="1" stroke-width="3.2"/>
<circle clip-path="url(#clip532)" cx="1737.81" cy="1267.69" r="7" fill="#009af9" fill-rule="evenodd" fill-opacity="1" stroke="#000000" stroke-opacity="1" stroke-width="3.2"/>
<circle clip-path="url(#clip532)" cx="1750.68" cy="1199.46" r="7" fill="#009af9" fill-rule="evenodd" fill-opacity="1" stroke="#000000" stroke-opacity="1" stroke-width="3.2"/>
<circle clip-path="url(#clip532)" cx="1752.22" cy="1167.87" r="7" fill="#009af9" fill-rule="evenodd" fill-opacity="1" stroke="#000000" stroke-opacity="1" stroke-width="3.2"/>
<circle clip-path="url(#clip532)" cx="1763.2" cy="1122.4" r="7" fill="#009af9" fill-rule="evenodd" fill-opacity="1" stroke="#000000" stroke-opacity="1" stroke-width="3.2"/>
<circle clip-path="url(#clip532)" cx="1766.13" cy="1208.49" r="7" fill="#009af9" fill-rule="evenodd" fill-opacity="1" stroke="#000000" stroke-opacity="1" stroke-width="3.2"/>
<circle clip-path="url(#clip532)" cx="1770.02" cy="1296.64" r="7" fill="#009af9" fill-rule="evenodd" fill-opacity="1" stroke="#000000" stroke-opacity="1" stroke-width="3.2"/>
<circle clip-path="url(#clip532)" cx="1778.33" cy="1207.41" r="7" fill="#009af9" fill-rule="evenodd" fill-opacity="1" stroke="#000000" stroke-opacity="1" stroke-width="3.2"/>
<circle clip-path="url(#clip532)" cx="1782.19" cy="1204.93" r="7" fill="#009af9" fill-rule="evenodd" fill-opacity="1" stroke="#000000" stroke-opacity="1" stroke-width="3.2"/>
<circle clip-path="url(#clip532)" cx="1788.29" cy="1160.26" r="7" fill="#009af9" fill-rule="evenodd" fill-opacity="1" stroke="#000000" stroke-opacity="1" stroke-width="3.2"/>
<circle clip-path="url(#clip532)" cx="1789.8" cy="1263.9" r="7" fill="#009af9" fill-rule="evenodd" fill-opacity="1" stroke="#000000" stroke-opacity="1" stroke-width="3.2"/>
<circle clip-path="url(#clip532)" cx="1806.04" cy="1281.12" r="7" fill="#009af9" fill-rule="evenodd" fill-opacity="1" stroke="#000000" stroke-opacity="1" stroke-width="3.2"/>
<circle clip-path="url(#clip532)" cx="1825.68" cy="1100.84" r="7" fill="#009af9" fill-rule="evenodd" fill-opacity="1" stroke="#000000" stroke-opacity="1" stroke-width="3.2"/>
<circle clip-path="url(#clip532)" cx="1833" cy="1211.6" r="7" fill="#009af9" fill-rule="evenodd" fill-opacity="1" stroke="#000000" stroke-opacity="1" stroke-width="3.2"/>
<circle clip-path="url(#clip532)" cx="1835.88" cy="1313.38" r="7" fill="#009af9" fill-rule="evenodd" fill-opacity="1" stroke="#000000" stroke-opacity="1" stroke-width="3.2"/>
<circle clip-path="url(#clip532)" cx="1856.38" cy="1252.94" r="7" fill="#009af9" fill-rule="evenodd" fill-opacity="1" stroke="#000000" stroke-opacity="1" stroke-width="3.2"/>
<circle clip-path="url(#clip532)" cx="1863.01" cy="1062.46" r="7" fill="#009af9" fill-rule="evenodd" fill-opacity="1" stroke="#000000" stroke-opacity="1" stroke-width="3.2"/>
<circle clip-path="url(#clip532)" cx="1869.54" cy="1204.17" r="7" fill="#009af9" fill-rule="evenodd" fill-opacity="1" stroke="#000000" stroke-opacity="1" stroke-width="3.2"/>
<circle clip-path="url(#clip532)" cx="1870.94" cy="1114.59" r="7" fill="#009af9" fill-rule="evenodd" fill-opacity="1" stroke="#000000" stroke-opacity="1" stroke-width="3.2"/>
<circle clip-path="url(#clip532)" cx="1908.08" cy="995.691" r="7" fill="#009af9" fill-rule="evenodd" fill-opacity="1" stroke="#000000" stroke-opacity="1" stroke-width="3.2"/>
<circle clip-path="url(#clip532)" cx="1913.67" cy="1034.92" r="7" fill="#009af9" fill-rule="evenodd" fill-opacity="1" stroke="#000000" stroke-opacity="1" stroke-width="3.2"/>
<circle clip-path="url(#clip532)" cx="1923.27" cy="903.589" r="7" fill="#009af9" fill-rule="evenodd" fill-opacity="1" stroke="#000000" stroke-opacity="1" stroke-width="3.2"/>
<circle clip-path="url(#clip532)" cx="1930.92" cy="987.206" r="7" fill="#009af9" fill-rule="evenodd" fill-opacity="1" stroke="#000000" stroke-opacity="1" stroke-width="3.2"/>
<circle clip-path="url(#clip532)" cx="1938.62" cy="883.089" r="7" fill="#009af9" fill-rule="evenodd" fill-opacity="1" stroke="#000000" stroke-opacity="1" stroke-width="3.2"/>
<circle clip-path="url(#clip532)" cx="1949.09" cy="1037.53" r="7" fill="#009af9" fill-rule="evenodd" fill-opacity="1" stroke="#000000" stroke-opacity="1" stroke-width="3.2"/>
<circle clip-path="url(#clip532)" cx="1954.14" cy="931.015" r="7" fill="#009af9" fill-rule="evenodd" fill-opacity="1" stroke="#000000" stroke-opacity="1" stroke-width="3.2"/>
<circle clip-path="url(#clip532)" cx="1955.97" cy="783.758" r="7" fill="#009af9" fill-rule="evenodd" fill-opacity="1" stroke="#000000" stroke-opacity="1" stroke-width="3.2"/>
<circle clip-path="url(#clip532)" cx="1958.41" cy="918.238" r="7" fill="#009af9" fill-rule="evenodd" fill-opacity="1" stroke="#000000" stroke-opacity="1" stroke-width="3.2"/>
<circle clip-path="url(#clip532)" cx="1959.42" cy="927.705" r="7" fill="#009af9" fill-rule="evenodd" fill-opacity="1" stroke="#000000" stroke-opacity="1" stroke-width="3.2"/>
<circle clip-path="url(#clip532)" cx="1963.83" cy="792.73" r="7" fill="#009af9" fill-rule="evenodd" fill-opacity="1" stroke="#000000" stroke-opacity="1" stroke-width="3.2"/>
<circle clip-path="url(#clip532)" cx="1975.47" cy="774.5" r="7" fill="#009af9" fill-rule="evenodd" fill-opacity="1" stroke="#000000" stroke-opacity="1" stroke-width="3.2"/>
<circle clip-path="url(#clip532)" cx="1975.91" cy="670.711" r="7" fill="#009af9" fill-rule="evenodd" fill-opacity="1" stroke="#000000" stroke-opacity="1" stroke-width="3.2"/>
<circle clip-path="url(#clip532)" cx="1985.16" cy="723.872" r="7" fill="#009af9" fill-rule="evenodd" fill-opacity="1" stroke="#000000" stroke-opacity="1" stroke-width="3.2"/>
<circle clip-path="url(#clip532)" cx="1985.22" cy="711.017" r="7" fill="#009af9" fill-rule="evenodd" fill-opacity="1" stroke="#000000" stroke-opacity="1" stroke-width="3.2"/>
<circle clip-path="url(#clip532)" cx="1992.42" cy="978.52" r="7" fill="#009af9" fill-rule="evenodd" fill-opacity="1" stroke="#000000" stroke-opacity="1" stroke-width="3.2"/>
<circle clip-path="url(#clip532)" cx="1993.13" cy="805.677" r="7" fill="#009af9" fill-rule="evenodd" fill-opacity="1" stroke="#000000" stroke-opacity="1" stroke-width="3.2"/>
<circle clip-path="url(#clip532)" cx="2007.37" cy="800.372" r="7" fill="#009af9" fill-rule="evenodd" fill-opacity="1" stroke="#000000" stroke-opacity="1" stroke-width="3.2"/>
<circle clip-path="url(#clip532)" cx="2022.22" cy="809.514" r="7" fill="#009af9" fill-rule="evenodd" fill-opacity="1" stroke="#000000" stroke-opacity="1" stroke-width="3.2"/>
<circle clip-path="url(#clip532)" cx="2022.82" cy="698.947" r="7" fill="#009af9" fill-rule="evenodd" fill-opacity="1" stroke="#000000" stroke-opacity="1" stroke-width="3.2"/>
<circle clip-path="url(#clip532)" cx="2023.47" cy="696.026" r="7" fill="#009af9" fill-rule="evenodd" fill-opacity="1" stroke="#000000" stroke-opacity="1" stroke-width="3.2"/>
<circle clip-path="url(#clip532)" cx="2024.15" cy="675.372" r="7" fill="#009af9" fill-rule="evenodd" fill-opacity="1" stroke="#000000" stroke-opacity="1" stroke-width="3.2"/>
<circle clip-path="url(#clip532)" cx="2037.71" cy="533.863" r="7" fill="#009af9" fill-rule="evenodd" fill-opacity="1" stroke="#000000" stroke-opacity="1" stroke-width="3.2"/>
<circle clip-path="url(#clip532)" cx="2053.84" cy="664.626" r="7" fill="#009af9" fill-rule="evenodd" fill-opacity="1" stroke="#000000" stroke-opacity="1" stroke-width="3.2"/>
<circle clip-path="url(#clip532)" cx="2060.59" cy="544.346" r="7" fill="#009af9" fill-rule="evenodd" fill-opacity="1" stroke="#000000" stroke-opacity="1" stroke-width="3.2"/>
<circle clip-path="url(#clip532)" cx="2070.89" cy="371.432" r="7" fill="#009af9" fill-rule="evenodd" fill-opacity="1" stroke="#000000" stroke-opacity="1" stroke-width="3.2"/>
<circle clip-path="url(#clip532)" cx="2072.77" cy="550.008" r="7" fill="#009af9" fill-rule="evenodd" fill-opacity="1" stroke="#000000" stroke-opacity="1" stroke-width="3.2"/>
<circle clip-path="url(#clip532)" cx="2080.25" cy="356.217" r="7" fill="#009af9" fill-rule="evenodd" fill-opacity="1" stroke="#000000" stroke-opacity="1" stroke-width="3.2"/>
<circle clip-path="url(#clip532)" cx="2117.1" cy="290.927" r="7" fill="#009af9" fill-rule="evenodd" fill-opacity="1" stroke="#000000" stroke-opacity="1" stroke-width="3.2"/>
<circle clip-path="url(#clip532)" cx="2120.62" cy="229.81" r="7" fill="#009af9" fill-rule="evenodd" fill-opacity="1" stroke="#000000" stroke-opacity="1" stroke-width="3.2"/>
<circle clip-path="url(#clip532)" cx="2131.39" cy="305.275" r="7" fill="#009af9" fill-rule="evenodd" fill-opacity="1" stroke="#000000" stroke-opacity="1" stroke-width="3.2"/>
<circle clip-path="url(#clip532)" cx="2132.75" cy="264.975" r="7" fill="#009af9" fill-rule="evenodd" fill-opacity="1" stroke="#000000" stroke-opacity="1" stroke-width="3.2"/>
<circle clip-path="url(#clip532)" cx="2140.32" cy="268.376" r="7" fill="#009af9" fill-rule="evenodd" fill-opacity="1" stroke="#000000" stroke-opacity="1" stroke-width="3.2"/>
<circle clip-path="url(#clip532)" cx="2174.41" cy="334.996" r="7" fill="#009af9" fill-rule="evenodd" fill-opacity="1" stroke="#000000" stroke-opacity="1" stroke-width="3.2"/>
<circle clip-path="url(#clip532)" cx="2179.41" cy="293.717" r="7" fill="#009af9" fill-rule="evenodd" fill-opacity="1" stroke="#000000" stroke-opacity="1" stroke-width="3.2"/>
<circle clip-path="url(#clip532)" cx="2180.21" cy="406.08" r="7" fill="#009af9" fill-rule="evenodd" fill-opacity="1" stroke="#000000" stroke-opacity="1" stroke-width="3.2"/>
<circle clip-path="url(#clip532)" cx="2190.67" cy="330.216" r="7" fill="#009af9" fill-rule="evenodd" fill-opacity="1" stroke="#000000" stroke-opacity="1" stroke-width="3.2"/>
<circle clip-path="url(#clip532)" cx="2192.7" cy="249.347" r="7" fill="#009af9" fill-rule="evenodd" fill-opacity="1" stroke="#000000" stroke-opacity="1" stroke-width="3.2"/>
<circle clip-path="url(#clip532)" cx="2211.24" cy="170.535" r="7" fill="#009af9" fill-rule="evenodd" fill-opacity="1" stroke="#000000" stroke-opacity="1" stroke-width="3.2"/>
<circle clip-path="url(#clip532)" cx="2212.02" cy="204.178" r="7" fill="#009af9" fill-rule="evenodd" fill-opacity="1" stroke="#000000" stroke-opacity="1" stroke-width="3.2"/>
<circle clip-path="url(#clip532)" cx="2213.59" cy="372.206" r="7" fill="#009af9" fill-rule="evenodd" fill-opacity="1" stroke="#000000" stroke-opacity="1" stroke-width="3.2"/>
<circle clip-path="url(#clip532)" cx="2217.61" cy="257.853" r="7" fill="#009af9" fill-rule="evenodd" fill-opacity="1" stroke="#000000" stroke-opacity="1" stroke-width="3.2"/>
<circle clip-path="url(#clip532)" cx="2219.28" cy="293.521" r="7" fill="#009af9" fill-rule="evenodd" fill-opacity="1" stroke="#000000" stroke-opacity="1" stroke-width="3.2"/>
<circle clip-path="url(#clip532)" cx="2228.2" cy="86.1857" r="7" fill="#009af9" fill-rule="evenodd" fill-opacity="1" stroke="#000000" stroke-opacity="1" stroke-width="3.2"/>
<circle clip-path="url(#clip532)" cx="2233.09" cy="346.283" r="7" fill="#009af9" fill-rule="evenodd" fill-opacity="1" stroke="#000000" stroke-opacity="1" stroke-width="3.2"/>
<circle clip-path="url(#clip532)" cx="2239.22" cy="321.201" r="7" fill="#009af9" fill-rule="evenodd" fill-opacity="1" stroke="#000000" stroke-opacity="1" stroke-width="3.2"/>
<circle clip-path="url(#clip532)" cx="2250.86" cy="420.909" r="7" fill="#009af9" fill-rule="evenodd" fill-opacity="1" stroke="#000000" stroke-opacity="1" stroke-width="3.2"/>
<circle clip-path="url(#clip532)" cx="2258.36" cy="333.73" r="7" fill="#009af9" fill-rule="evenodd" fill-opacity="1" stroke="#000000" stroke-opacity="1" stroke-width="3.2"/>
<circle clip-path="url(#clip532)" cx="2262.17" cy="382.229" r="7" fill="#009af9" fill-rule="evenodd" fill-opacity="1" stroke="#000000" stroke-opacity="1" stroke-width="3.2"/>
<circle clip-path="url(#clip532)" cx="2273.83" cy="429.545" r="7" fill="#009af9" fill-rule="evenodd" fill-opacity="1" stroke="#000000" stroke-opacity="1" stroke-width="3.2"/>
<circle clip-path="url(#clip532)" cx="2277.79" cy="447.171" r="7" fill="#009af9" fill-rule="evenodd" fill-opacity="1" stroke="#000000" stroke-opacity="1" stroke-width="3.2"/>
<circle clip-path="url(#clip532)" cx="2279.36" cy="190.717" r="7" fill="#009af9" fill-rule="evenodd" fill-opacity="1" stroke="#000000" stroke-opacity="1" stroke-width="3.2"/>
<circle clip-path="url(#clip532)" cx="2284.48" cy="370.656" r="7" fill="#009af9" fill-rule="evenodd" fill-opacity="1" stroke="#000000" stroke-opacity="1" stroke-width="3.2"/>
<circle clip-path="url(#clip532)" cx="2289.46" cy="485.602" r="7" fill="#009af9" fill-rule="evenodd" fill-opacity="1" stroke="#000000" stroke-opacity="1" stroke-width="3.2"/>
<circle clip-path="url(#clip532)" cx="2301.58" cy="442.487" r="7" fill="#009af9" fill-rule="evenodd" fill-opacity="1" stroke="#000000" stroke-opacity="1" stroke-width="3.2"/>
<circle clip-path="url(#clip532)" cx="2303.02" cy="530.2" r="7" fill="#009af9" fill-rule="evenodd" fill-opacity="1" stroke="#000000" stroke-opacity="1" stroke-width="3.2"/>
<circle clip-path="url(#clip532)" cx="2310.55" cy="483.568" r="7" fill="#009af9" fill-rule="evenodd" fill-opacity="1" stroke="#000000" stroke-opacity="1" stroke-width="3.2"/>
<circle clip-path="url(#clip532)" cx="2315.4" cy="614.355" r="7" fill="#009af9" fill-rule="evenodd" fill-opacity="1" stroke="#000000" stroke-opacity="1" stroke-width="3.2"/>
<circle clip-path="url(#clip532)" cx="2318.73" cy="407.777" r="7" fill="#009af9" fill-rule="evenodd" fill-opacity="1" stroke="#000000" stroke-opacity="1" stroke-width="3.2"/>
<circle clip-path="url(#clip532)" cx="2323.29" cy="632.037" r="7" fill="#009af9" fill-rule="evenodd" fill-opacity="1" stroke="#000000" stroke-opacity="1" stroke-width="3.2"/>
<circle clip-path="url(#clip532)" cx="2330.28" cy="500.793" r="7" fill="#009af9" fill-rule="evenodd" fill-opacity="1" stroke="#000000" stroke-opacity="1" stroke-width="3.2"/>
<circle clip-path="url(#clip532)" cx="2334.86" cy="674.792" r="7" fill="#009af9" fill-rule="evenodd" fill-opacity="1" stroke="#000000" stroke-opacity="1" stroke-width="3.2"/>
<circle clip-path="url(#clip532)" cx="2349.01" cy="760.377" r="7" fill="#009af9" fill-rule="evenodd" fill-opacity="1" stroke="#000000" stroke-opacity="1" stroke-width="3.2"/>
<circle clip-path="url(#clip532)" cx="2351.55" cy="781.271" r="7" fill="#009af9" fill-rule="evenodd" fill-opacity="1" stroke="#000000" stroke-opacity="1" stroke-width="3.2"/>
<polyline clip-path="url(#clip532)" style="stroke:#000000; stroke-width:4; stroke-opacity:1; fill:none" stroke-dasharray="16, 10" points="
  152.27,1017.01 159.605,992.883 166.939,969.448 174.274,946.757 181.609,924.862 188.944,903.81 196.279,883.644 203.614,864.403 210.949,846.121 218.284,828.829 
  225.619,812.552 232.954,797.312 240.289,783.127 247.624,770.009 254.959,757.968 262.294,747.009 269.629,737.133 276.964,728.337 284.299,720.613 291.634,713.953 
  298.969,708.343 306.304,703.764 313.639,700.198 320.974,697.62 328.308,696.005 335.643,695.323 342.978,695.544 350.313,696.634 357.648,698.556 364.983,701.274 
  372.318,704.747 379.653,708.936 386.988,713.796 394.323,719.286 401.658,725.361 408.993,731.975 416.328,739.084 423.663,746.64 430.998,754.599 438.333,762.914 
  445.668,771.539 453.003,780.43 460.338,789.54 467.673,798.827 475.008,808.246 482.343,817.756 489.677,827.316 497.012,836.887 504.347,846.429 511.682,855.907 
  519.017,865.285 526.352,874.53 533.687,883.611 541.022,892.499 548.357,901.165 555.692,909.585 563.027,917.734 570.362,925.592 577.697,933.14 585.032,940.359 
  592.367,947.237 599.702,953.759 607.037,959.916 614.372,965.699 621.707,971.101 629.042,976.118 636.377,980.747 643.712,984.989 651.046,988.845 658.381,992.317 
  665.716,995.411 673.051,998.133 680.386,1000.49 687.721,1002.5 695.056,1004.16 702.391,1005.49 709.726,1006.5 717.061,1007.2 724.396,1007.62 731.731,1007.77 
  739.066,1007.66 746.401,1007.31 753.736,1006.74 761.071,1005.97 768.406,1005.01 775.741,1003.88 783.076,1002.61 790.411,1001.21 797.746,999.693 805.081,998.085 
  812.415,996.4 819.75,994.656 827.085,992.869 834.42,991.054 841.755,989.228 849.09,987.403 856.425,985.594 863.76,983.813 871.095,982.071 878.43,980.38 
  885.765,978.748 893.1,977.184 900.435,975.695 907.77,974.288 915.105,972.969 922.44,971.74 929.775,970.605 937.11,969.566 944.445,968.623 951.78,967.777 
  959.115,967.026 966.45,966.368 973.784,965.799 981.119,965.316 988.454,964.914 995.789,964.587 1003.12,964.328 1010.46,964.131 1017.79,963.987 1025.13,963.89 
  1032.46,963.83 1039.8,963.799 1047.13,963.787 1054.47,963.785 1061.8,963.783 1069.14,963.774 1076.47,963.746 1083.81,963.691 1091.14,963.6 1098.48,963.464 
  1105.81,963.276 1113.15,963.027 1120.48,962.711 1127.82,962.32 1135.15,961.85 1142.49,961.295 1149.82,960.65 1157.16,959.914 1164.49,959.082 1171.83,958.155 
  1179.16,957.131 1186.5,956.01 1193.83,954.796 1201.17,953.49 1208.5,952.096 1215.84,950.62 1223.17,949.067 1230.51,947.445 1237.84,945.762 1245.18,944.027 
  1252.51,942.252 1259.85,940.446 1267.18,938.623 1274.52,936.796 1281.85,934.978 1289.19,933.186 1296.52,931.434 1303.86,929.739 1311.19,928.118 1318.53,926.588 
  1325.86,925.167 1333.2,923.873 1340.53,922.724 1347.87,921.739 1355.2,920.936 1362.54,920.334 1369.87,919.95 1377.21,919.802 1384.54,919.907 1391.88,920.283 
  1399.21,920.945 1406.55,921.908 1413.88,923.188 1421.22,924.797 1428.55,926.747 1435.89,929.05 1443.22,931.716 1450.56,934.752 1457.89,938.166 1465.23,941.962 
  1472.56,946.144 1479.9,950.714 1487.23,955.672 1494.57,961.015 1501.9,966.739 1509.24,972.839 1516.57,979.306 1523.91,986.129 1531.24,993.297 1538.58,1000.8 
  1545.91,1008.61 1553.25,1016.71 1560.58,1025.09 1567.92,1033.72 1575.25,1042.58 1582.59,1051.63 1589.92,1060.85 1597.26,1070.21 1604.59,1079.68 1611.93,1089.21 
  1619.26,1098.78 1626.6,1108.34 1633.93,1117.87 1641.27,1127.3 1648.6,1136.61 1655.94,1145.75 1663.27,1154.68 1670.61,1163.35 1677.94,1171.71 1685.28,1179.73 
  1692.61,1187.35 1699.94,1194.53 1707.28,1201.22 1714.61,1207.39 1721.95,1212.97 1729.28,1217.93 1736.62,1222.22 1743.95,1225.81 1751.29,1228.65 1758.62,1230.69 
  1765.96,1231.91 1773.29,1232.27 1780.63,1231.73 1787.96,1230.26 1795.3,1227.83 1802.63,1224.42 1809.97,1220 1817.3,1214.55 1824.64,1208.05 1831.97,1200.49 
  1839.31,1191.86 1846.64,1182.15 1853.98,1171.36 1861.31,1159.48 1868.65,1146.53 1875.98,1132.51 1883.32,1117.43 1890.65,1101.31 1897.99,1084.17 1905.32,1066.04 
  1912.66,1046.95 1919.99,1026.92 1927.33,1006 1934.66,984.234 1942,961.662 1949.33,938.339 1956.67,914.317 1964,889.657 1971.34,864.421 1978.67,838.676 
  1986.01,812.491 1993.34,785.941 2000.68,759.102 2008.01,732.054 2015.35,704.88 2022.68,677.666 2030.02,650.499 2037.35,623.471 2044.69,596.672 2052.02,570.197 
  2059.36,544.14 2066.69,518.599 2074.03,493.669 2081.36,469.449 2088.7,446.035 2096.03,423.526 2103.37,402.017 2110.7,381.606 2118.04,362.386 2125.37,344.45 
  2132.71,327.891 2140.04,312.796 2147.38,299.252 2154.71,287.343 2162.05,277.147 2169.38,268.742 2176.72,262.199 2184.05,257.587 2191.39,254.969 2198.72,254.403 
  2206.06,255.942 2213.39,259.633 2220.73,265.518 2228.06,273.633 2235.4,284.007 2242.73,296.661 2250.07,311.613 2257.4,328.87 2264.74,348.435 2272.07,370.301 
  2279.41,394.455 2286.74,420.877 2294.08,449.537 2301.41,480.401 2308.75,513.424 2316.08,548.554 2323.42,585.732 2330.75,624.89 2338.09,665.955 2345.42,708.842 
  2352.76,753.463 
  "/>
<polyline clip-path="url(#clip532)" style="stroke:#ff0000; stroke-width:8; stroke-opacity:1; fill:none" points="
  173.404,741.615 176.091,742.437 187.984,746.076 199.054,749.469 206.713,751.823 226.86,758.067 228.789,758.67 241.523,762.681 258.719,768.198 259.18,768.348 
  261.349,769.054 264.562,770.104 265.233,770.324 276.54,774.068 283.078,776.267 284.355,776.699 304.142,783.533 320.461,789.372 323.181,790.364 328.46,792.306 
  328.784,792.425 329.869,792.827 332.861,793.94 337.783,795.786 344.634,798.387 354.22,802.087 368.71,807.815 369.909,808.296 382.312,813.336 393.725,818.069 
  412.636,826.103 430.936,834.081 437.814,837.126 437.92,837.174 440.281,838.224 451.789,843.382 456.537,845.526 458.693,846.503 472.75,852.909 476.418,854.59 
  478.735,855.655 479.799,856.144 494.362,862.862 497.601,864.362 507.286,868.853 507.97,869.17 515.172,872.513 518.814,874.204 528.355,878.63 530.534,879.639 
  532.525,880.561 537.75,882.977 544.55,886.113 545.123,886.376 545.923,886.744 546.053,886.804 548.704,888.022 552.401,889.718 564.17,895.082 588.673,906.042 
  591.057,907.09 608.268,914.53 613.347,916.68 615.206,917.461 616.113,917.842 617.508,918.425 649.085,931.112 650.908,931.812 676.108,941.073 679.633,942.303 
  682.238,943.202 688.683,945.387 689.157,945.545 706.052,950.983 709.509,952.044 712.558,952.966 716.622,954.173 719.152,954.912 724.956,956.57 727.173,957.189 
  728.171,957.466 729.84,957.925 732.593,958.673 735.405,959.424 738.569,960.255 744.139,961.68 748.177,962.682 752.552,963.739 763.625,966.281 778.843,969.464 
  790.414,971.645 790.586,971.676 790.748,971.705 806.091,974.272 809.829,974.844 813.804,975.428 814.91,975.586 828.323,977.361 830.957,977.679 833.032,977.921 
  838.096,978.488 846.182,979.317 849.187,979.602 854.843,980.104 860.669,980.577 866.421,981 867.851,981.098 871.736,981.353 883.631,982.019 885.818,982.123 
  890.067,982.31 890.36,982.322 927.614,983.164 933.791,983.186 944.096,983.162 961.808,982.975 965.455,982.918 970.645,982.827 975.101,982.742 977.567,982.692 
  993.104,982.344 1002.25,982.12 1002.75,982.107 1005.59,982.036 1014.78,981.802 1026.18,981.512 1028.27,981.46 1028.38,981.457 1029.96,981.418 1056.45,980.801 
  1068.68,980.558 1071.23,980.513 1073.17,980.479 1081.49,980.346 1087.13,980.269 1092.1,980.21 1093.91,980.191 1114.54,980.067 1118.03,980.066 1125.34,980.085 
  1132.99,980.137 1145.46,980.302 1150.22,980.392 1162.21,980.698 1162.93,980.72 1164,980.754 1172.49,981.053 1176.23,981.205 1180.21,981.379 1182.21,981.473 
  1188.53,981.791 1191.89,981.976 1196.21,982.229 1199.43,982.429 1211.59,983.277 1216.08,983.627 1234.85,985.308 1241.8,986.022 1246.13,986.491 1257.82,987.858 
  1272.6,989.787 1283.01,991.279 1283.09,991.291 1291.86,992.637 1296.66,993.405 1304.83,994.767 1309.09,995.505 1310.72,995.79 1310.99,995.839 1312.95,996.187 
  1316.39,996.808 1317.03,996.924 1319.37,997.355 1350.13,1003.48 1355.52,1004.64 1356.5,1004.85 1380.62,1010.31 1392.94,1013.24 1398.18,1014.51 1399.76,1014.9 
  1400.58,1015.1 1418.34,1019.51 1421.23,1020.24 1422.01,1020.44 1424.37,1021.03 1438.84,1024.71 1438.93,1024.73 1440.7,1025.18 1450.37,1027.63 1455.64,1028.97 
  1499.31,1039.56 1500.02,1039.72 1507.67,1041.44 1511.78,1042.34 1515.3,1043.09 1516.17,1043.28 1517.44,1043.55 1530.56,1046.2 1544.33,1048.73 1546.26,1049.06 
  1564.28,1051.85 1567.34,1052.27 1576.8,1053.43 1579.72,1053.74 1592.74,1054.93 1594.27,1055.04 1613.7,1055.93 1637.48,1055.55 1651.24,1054.5 1654.59,1054.15 
  1664.38,1052.89 1669.4,1052.1 1674.48,1051.21 1678.28,1050.48 1687.14,1048.56 1688.68,1048.19 1712.65,1041.24 1722.8,1037.56 1737.81,1031.29 1750.68,1025.1 
  1752.22,1024.31 1763.2,1018.35 1766.13,1016.67 1770.02,1014.37 1778.33,1009.22 1782.19,1006.71 1788.29,1002.62 1789.8,1001.58 1806.04,989.727 1825.68,973.777 
  1833,967.393 1835.88,964.816 1856.38,945.469 1863.01,938.836 1869.54,932.129 1870.94,930.674 1908.08,889.364 1913.67,882.737 1923.27,871.149 1930.92,861.726 
  1938.62,852.071 1949.09,838.711 1954.14,832.167 1955.97,829.777 1958.41,826.6 1959.42,825.275 1963.83,819.457 1975.47,803.952 1975.91,803.366 1985.16,790.878 
  1985.22,790.793 1992.42,780.972 1993.13,780.011 2007.37,760.384 2022.22,739.724 2022.82,738.897 2023.47,737.988 2024.15,737.037 2037.71,718.038 2053.84,695.378 
  2060.59,685.907 2070.89,671.475 2072.77,668.846 2080.25,658.41 2117.1,607.627 2120.62,602.854 2131.39,588.341 2132.75,586.517 2140.32,576.437 2174.41,532.126 
  2179.41,525.777 2180.21,524.773 2190.67,511.655 2192.7,509.126 2211.24,486.397 2212.02,485.452 2213.59,483.551 2217.61,478.714 2219.28,476.716 2228.2,466.1 
  2233.09,460.331 2239.22,453.144 2250.86,439.646 2258.36,431.042 2262.17,426.703 2273.83,413.493 2277.79,409.033 2279.36,407.265 2284.48,401.532 2289.46,395.978 
  2301.58,382.507 2303.02,380.912 2310.55,372.582 2315.4,367.231 2318.73,363.561 2323.29,358.541 2330.28,350.854 2334.86,345.816 2349.01,330.271 2351.55,327.487 
  
  "/>
<path clip-path="url(#clip530)" d="
M224.27 372.684 L744.662 372.684 L744.662 130.764 L224.27 130.764  Z
  " fill="#ffffff" fill-rule="evenodd" fill-opacity="1"/>
<polyline clip-path="url(#clip530)" style="stroke:#000000; stroke-width:4; stroke-opacity:1; fill:none" points="
  224.27,372.684 744.662,372.684 744.662,130.764 224.27,130.764 224.27,372.684 
  "/>
<circle clip-path="url(#clip530)" cx="332.27" cy="191.244" r="23" fill="#009af9" fill-rule="evenodd" fill-opacity="1" stroke="#000000" stroke-opacity="1" stroke-width="10.24"/>
<path clip-path="url(#clip530)" d="M 0 0 M432.288 177.135 Q427.195 177.135 424.186 180.932 Q421.2 184.728 421.2 191.279 Q421.2 197.807 424.186 201.603 Q427.195 205.399 432.288 205.399 Q437.381 205.399 440.343 201.603 Q443.33 197.807 443.33 191.279 Q443.33 184.728 440.343 180.932 Q437.381 177.135 432.288 177.135 M432.288 173.339 Q439.556 173.339 443.908 178.223 Q448.26 183.084 448.26 191.279 Q448.26 199.45 443.908 204.334 Q439.556 209.195 432.288 209.195 Q424.996 209.195 420.621 204.334 Q416.27 199.473 416.27 191.279 Q416.27 183.084 420.621 178.223 Q424.996 173.339 432.288 173.339 Z" fill="#000000" fill-rule="evenodd" fill-opacity="1" /><path clip-path="url(#clip530)" d="M 0 0 M471.339 195.584 Q471.339 190.885 469.394 188.223 Q467.473 185.538 464.093 185.538 Q460.714 185.538 458.769 188.223 Q456.848 190.885 456.848 195.584 Q456.848 200.283 458.769 202.969 Q460.714 205.631 464.093 205.631 Q467.473 205.631 469.394 202.969 Q471.339 200.283 471.339 195.584 M456.848 186.533 Q458.191 184.219 460.228 183.108 Q462.288 181.973 465.135 181.973 Q469.857 181.973 472.797 185.723 Q475.76 189.473 475.76 195.584 Q475.76 201.695 472.797 205.445 Q469.857 209.195 465.135 209.195 Q462.288 209.195 460.228 208.084 Q458.191 206.95 456.848 204.635 L456.848 208.524 L452.566 208.524 L452.566 172.506 L456.848 172.506 L456.848 186.533 Z" fill="#000000" fill-rule="evenodd" fill-opacity="1" /><path clip-path="url(#clip530)" d="M 0 0 M496.755 183.362 L496.755 187.39 Q494.95 186.464 493.005 186.001 Q491.061 185.538 488.977 185.538 Q485.806 185.538 484.209 186.51 Q482.635 187.483 482.635 189.427 Q482.635 190.908 483.769 191.765 Q484.903 192.598 488.329 193.362 L489.788 193.686 Q494.325 194.658 496.223 196.441 Q498.144 198.2 498.144 201.371 Q498.144 204.982 495.274 207.089 Q492.427 209.195 487.427 209.195 Q485.343 209.195 483.075 208.779 Q480.829 208.385 478.329 207.575 L478.329 203.177 Q480.691 204.404 482.982 205.029 Q485.274 205.631 487.519 205.631 Q490.528 205.631 492.149 204.612 Q493.769 203.57 493.769 201.695 Q493.769 199.959 492.589 199.033 Q491.431 198.107 487.473 197.251 L485.991 196.904 Q482.033 196.07 480.274 194.358 Q478.515 192.621 478.515 189.612 Q478.515 185.955 481.107 183.964 Q483.7 181.973 488.468 181.973 Q490.829 181.973 492.913 182.321 Q494.996 182.668 496.755 183.362 Z" fill="#000000" fill-rule="evenodd" fill-opacity="1" /><path clip-path="url(#clip530)" d="M 0 0 M524.787 194.496 L524.787 196.58 L505.204 196.58 Q505.482 200.978 507.843 203.293 Q510.227 205.584 514.463 205.584 Q516.917 205.584 519.209 204.982 Q521.524 204.381 523.792 203.177 L523.792 207.205 Q521.5 208.177 519.093 208.686 Q516.686 209.195 514.209 209.195 Q508.005 209.195 504.371 205.584 Q500.76 201.973 500.76 195.816 Q500.76 189.45 504.186 185.723 Q507.635 181.973 513.468 181.973 Q518.7 181.973 521.732 185.353 Q524.787 188.709 524.787 194.496 M520.528 193.246 Q520.482 189.751 518.561 187.668 Q516.663 185.584 513.514 185.584 Q509.95 185.584 507.797 187.598 Q505.667 189.612 505.343 193.27 L520.528 193.246 Z" fill="#000000" fill-rule="evenodd" fill-opacity="1" /><path clip-path="url(#clip530)" d="M 0 0 M544.278 186.58 Q543.561 186.163 542.704 185.978 Q541.871 185.77 540.852 185.77 Q537.241 185.77 535.297 188.131 Q533.375 190.469 533.375 194.867 L533.375 208.524 L529.093 208.524 L529.093 182.598 L533.375 182.598 L533.375 186.626 Q534.718 184.265 536.871 183.131 Q539.024 181.973 542.102 181.973 Q542.542 181.973 543.074 182.043 Q543.607 182.089 544.255 182.205 L544.278 186.58 Z" fill="#000000" fill-rule="evenodd" fill-opacity="1" /><path clip-path="url(#clip530)" d="M 0 0 M545.69 182.598 L550.204 182.598 L558.306 204.357 L566.408 182.598 L570.922 182.598 L561.199 208.524 L555.412 208.524 L545.69 182.598 Z" fill="#000000" fill-rule="evenodd" fill-opacity="1" /><path clip-path="url(#clip530)" d="M 0 0 M587.171 195.492 Q582.009 195.492 580.019 196.672 Q578.028 197.853 578.028 200.7 Q578.028 202.969 579.509 204.311 Q581.014 205.631 583.583 205.631 Q587.125 205.631 589.255 203.131 Q591.408 200.607 591.408 196.441 L591.408 195.492 L587.171 195.492 M595.667 193.733 L595.667 208.524 L591.408 208.524 L591.408 204.589 Q589.949 206.95 587.773 208.084 Q585.597 209.195 582.449 209.195 Q578.468 209.195 576.107 206.973 Q573.769 204.728 573.769 200.978 Q573.769 196.603 576.685 194.381 Q579.625 192.158 585.435 192.158 L591.408 192.158 L591.408 191.742 Q591.408 188.802 589.463 187.205 Q587.542 185.584 584.046 185.584 Q581.824 185.584 579.718 186.117 Q577.611 186.649 575.667 187.714 L575.667 183.779 Q578.005 182.876 580.204 182.436 Q582.403 181.973 584.486 181.973 Q590.111 181.973 592.889 184.89 Q595.667 187.807 595.667 193.733 Z" fill="#000000" fill-rule="evenodd" fill-opacity="1" /><path clip-path="url(#clip530)" d="M 0 0 M604.347 175.237 L604.347 182.598 L613.12 182.598 L613.12 185.908 L604.347 185.908 L604.347 199.982 Q604.347 203.154 605.204 204.057 Q606.083 204.959 608.745 204.959 L613.12 204.959 L613.12 208.524 L608.745 208.524 Q603.815 208.524 601.94 206.695 Q600.065 204.844 600.065 199.982 L600.065 185.908 L596.94 185.908 L596.94 182.598 L600.065 182.598 L600.065 175.237 L604.347 175.237 Z" fill="#000000" fill-rule="evenodd" fill-opacity="1" /><path clip-path="url(#clip530)" d="M 0 0 M617.588 182.598 L621.847 182.598 L621.847 208.524 L617.588 208.524 L617.588 182.598 M617.588 172.506 L621.847 172.506 L621.847 177.899 L617.588 177.899 L617.588 172.506 Z" fill="#000000" fill-rule="evenodd" fill-opacity="1" /><path clip-path="url(#clip530)" d="M 0 0 M636.361 185.584 Q632.935 185.584 630.944 188.27 Q628.954 190.932 628.954 195.584 Q628.954 200.237 630.921 202.922 Q632.912 205.584 636.361 205.584 Q639.764 205.584 641.754 202.899 Q643.745 200.214 643.745 195.584 Q643.745 190.978 641.754 188.293 Q639.764 185.584 636.361 185.584 M636.361 181.973 Q641.916 181.973 645.088 185.584 Q648.259 189.195 648.259 195.584 Q648.259 201.95 645.088 205.584 Q641.916 209.195 636.361 209.195 Q630.782 209.195 627.611 205.584 Q624.463 201.95 624.463 195.584 Q624.463 189.195 627.611 185.584 Q630.782 181.973 636.361 181.973 Z" fill="#000000" fill-rule="evenodd" fill-opacity="1" /><path clip-path="url(#clip530)" d="M 0 0 M674.277 192.876 L674.277 208.524 L670.018 208.524 L670.018 193.015 Q670.018 189.334 668.583 187.506 Q667.148 185.677 664.277 185.677 Q660.828 185.677 658.838 187.876 Q656.847 190.075 656.847 193.871 L656.847 208.524 L652.565 208.524 L652.565 182.598 L656.847 182.598 L656.847 186.626 Q658.375 184.288 660.435 183.131 Q662.518 181.973 665.227 181.973 Q669.694 181.973 671.986 184.751 Q674.277 187.506 674.277 192.876 Z" fill="#000000" fill-rule="evenodd" fill-opacity="1" /><path clip-path="url(#clip530)" d="M 0 0 M695.273 183.362 L695.273 187.39 Q693.467 186.464 691.523 186.001 Q689.578 185.538 687.495 185.538 Q684.324 185.538 682.726 186.51 Q681.152 187.483 681.152 189.427 Q681.152 190.908 682.287 191.765 Q683.421 192.598 686.847 193.362 L688.305 193.686 Q692.842 194.658 694.74 196.441 Q696.662 198.2 696.662 201.371 Q696.662 204.982 693.791 207.089 Q690.944 209.195 685.944 209.195 Q683.861 209.195 681.592 208.779 Q679.347 208.385 676.847 207.575 L676.847 203.177 Q679.208 204.404 681.5 205.029 Q683.791 205.631 686.037 205.631 Q689.046 205.631 690.666 204.612 Q692.287 203.57 692.287 201.695 Q692.287 199.959 691.106 199.033 Q689.949 198.107 685.99 197.251 L684.509 196.904 Q680.551 196.07 678.791 194.358 Q677.032 192.621 677.032 189.612 Q677.032 185.955 679.625 183.964 Q682.217 181.973 686.986 181.973 Q689.347 181.973 691.43 182.321 Q693.513 182.668 695.273 183.362 Z" fill="#000000" fill-rule="evenodd" fill-opacity="1" /><polyline clip-path="url(#clip530)" style="stroke:#000000; stroke-width:4; stroke-opacity:1; fill:none" stroke-dasharray="16, 10" points="
  248.27,251.724 392.27,251.724 
  "/>
<path clip-path="url(#clip530)" d="M 0 0 M432.774 232.986 L432.774 236.527 L428.7 236.527 Q426.408 236.527 425.506 237.453 Q424.626 238.379 424.626 240.787 L424.626 243.078 L431.64 243.078 L431.64 246.388 L424.626 246.388 L424.626 269.004 L420.344 269.004 L420.344 246.388 L416.27 246.388 L416.27 243.078 L420.344 243.078 L420.344 241.273 Q420.344 236.944 422.357 234.976 Q424.371 232.986 428.746 232.986 L432.774 232.986 Z" fill="#000000" fill-rule="evenodd" fill-opacity="1" /><path clip-path="url(#clip530)" d="M 0 0 M447.473 233.032 Q444.371 238.356 442.867 243.564 Q441.362 248.773 441.362 254.12 Q441.362 259.467 442.867 264.722 Q444.394 269.953 447.473 275.254 L443.769 275.254 Q440.297 269.814 438.561 264.56 Q436.848 259.305 436.848 254.12 Q436.848 248.958 438.561 243.726 Q440.274 238.495 443.769 233.032 L447.473 233.032 Z" fill="#000000" fill-rule="evenodd" fill-opacity="1" /><path clip-path="url(#clip530)" d="M 0 0 M456.154 235.717 L456.154 243.078 L464.927 243.078 L464.927 246.388 L456.154 246.388 L456.154 260.462 Q456.154 263.634 457.01 264.537 Q457.89 265.439 460.552 265.439 L464.927 265.439 L464.927 269.004 L460.552 269.004 Q455.621 269.004 453.746 267.175 Q451.871 265.324 451.871 260.462 L451.871 246.388 L448.746 246.388 L448.746 243.078 L451.871 243.078 L451.871 235.717 L456.154 235.717 Z" fill="#000000" fill-rule="evenodd" fill-opacity="1" /><path clip-path="url(#clip530)" d="M 0 0 M468.723 233.032 L472.427 233.032 Q475.899 238.495 477.612 243.726 Q479.348 248.958 479.348 254.12 Q479.348 259.305 477.612 264.56 Q475.899 269.814 472.427 275.254 L468.723 275.254 Q471.802 269.953 473.306 264.722 Q474.834 259.467 474.834 254.12 Q474.834 248.773 473.306 243.564 Q471.802 238.356 468.723 233.032 Z" fill="#000000" fill-rule="evenodd" fill-opacity="1" /><polyline clip-path="url(#clip530)" style="stroke:#ff0000; stroke-width:4; stroke-opacity:1; fill:none" points="
  248.27,312.204 392.27,312.204 
  "/>
<path clip-path="url(#clip530)" d="M 0 0 M432.774 293.466 L432.774 297.007 L428.7 297.007 Q426.408 297.007 425.506 297.933 Q424.626 298.859 424.626 301.267 L424.626 303.558 L431.64 303.558 L431.64 306.868 L424.626 306.868 L424.626 329.484 L420.344 329.484 L420.344 306.868 L416.27 306.868 L416.27 303.558 L420.344 303.558 L420.344 301.753 Q420.344 297.424 422.357 295.456 Q424.371 293.466 428.746 293.466 L432.774 293.466 Z" fill="#000000" fill-rule="evenodd" fill-opacity="1" /><path clip-path="url(#clip530)" d="M 0 0 M437.242 303.558 L441.501 303.558 L441.501 329.484 L437.242 329.484 L437.242 303.558 M437.242 293.466 L441.501 293.466 L441.501 298.859 L437.242 298.859 L437.242 293.466 Z" fill="#000000" fill-rule="evenodd" fill-opacity="1" /><path clip-path="url(#clip530)" d="M 0 0 M450.181 296.197 L450.181 303.558 L458.955 303.558 L458.955 306.868 L450.181 306.868 L450.181 320.942 Q450.181 324.114 451.038 325.017 Q451.918 325.919 454.58 325.919 L458.955 325.919 L458.955 329.484 L454.58 329.484 Q449.649 329.484 447.774 327.655 Q445.899 325.804 445.899 320.942 L445.899 306.868 L442.774 306.868 L442.774 303.558 L445.899 303.558 L445.899 296.197 L450.181 296.197 Z" fill="#000000" fill-rule="evenodd" fill-opacity="1" /></svg>
