<?xml version="1.0" encoding="utf-8"?>
<svg xmlns="http://www.w3.org/2000/svg" xmlns:xlink="http://www.w3.org/1999/xlink" width="600" height="400" viewBox="0 0 2400 1600">
<defs>
  <clipPath id="clip690">
    <rect x="0" y="0" width="2400" height="1600"/>
  </clipPath>
</defs>
<path clip-path="url(#clip690)" d="M0 1600 L2400 1600 L2400 8.88178e-14 L0 8.88178e-14  Z" fill="#ffffff" fill-rule="evenodd" fill-opacity="1"/>
<defs>
  <clipPath id="clip691">
    <rect x="480" y="0" width="1681" height="1600"/>
  </clipPath>
</defs>
<path clip-path="url(#clip690)" d="M186.274 1486.45 L2352.76 1486.45 L2352.76 47.2441 L186.274 47.2441  Z" fill="#ffffff" fill-rule="evenodd" fill-opacity="1"/>
<defs>
  <clipPath id="clip692">
    <rect x="186" y="47" width="2167" height="1440"/>
  </clipPath>
</defs>
<polyline clip-path="url(#clip692)" style="stroke:#000000; stroke-linecap:round; stroke-linejoin:round; stroke-width:2; stroke-opacity:0.1; fill:none" points="247.59,1486.45 247.59,47.2441 "/>
<polyline clip-path="url(#clip692)" style="stroke:#000000; stroke-linecap:round; stroke-linejoin:round; stroke-width:2; stroke-opacity:0.1; fill:none" points="573.063,1486.45 573.063,47.2441 "/>
<polyline clip-path="url(#clip692)" style="stroke:#000000; stroke-linecap:round; stroke-linejoin:round; stroke-width:2; stroke-opacity:0.1; fill:none" points="898.536,1486.45 898.536,47.2441 "/>
<polyline clip-path="url(#clip692)" style="stroke:#000000; stroke-linecap:round; stroke-linejoin:round; stroke-width:2; stroke-opacity:0.1; fill:none" points="1224.01,1486.45 1224.01,47.2441 "/>
<polyline clip-path="url(#clip692)" style="stroke:#000000; stroke-linecap:round; stroke-linejoin:round; stroke-width:2; stroke-opacity:0.1; fill:none" points="1549.48,1486.45 1549.48,47.2441 "/>
<polyline clip-path="url(#clip692)" style="stroke:#000000; stroke-linecap:round; stroke-linejoin:round; stroke-width:2; stroke-opacity:0.1; fill:none" points="1874.96,1486.45 1874.96,47.2441 "/>
<polyline clip-path="url(#clip692)" style="stroke:#000000; stroke-linecap:round; stroke-linejoin:round; stroke-width:2; stroke-opacity:0.1; fill:none" points="2200.43,1486.45 2200.43,47.2441 "/>
<polyline clip-path="url(#clip690)" style="stroke:#000000; stroke-linecap:round; stroke-linejoin:round; stroke-width:4; stroke-opacity:1; fill:none" points="186.274,1486.45 2352.76,1486.45 "/>
<polyline clip-path="url(#clip690)" style="stroke:#000000; stroke-linecap:round; stroke-linejoin:round; stroke-width:4; stroke-opacity:1; fill:none" points="247.59,1486.45 247.59,1467.55 "/>
<polyline clip-path="url(#clip690)" style="stroke:#000000; stroke-linecap:round; stroke-linejoin:round; stroke-width:4; stroke-opacity:1; fill:none" points="573.063,1486.45 573.063,1467.55 "/>
<polyline clip-path="url(#clip690)" style="stroke:#000000; stroke-linecap:round; stroke-linejoin:round; stroke-width:4; stroke-opacity:1; fill:none" points="898.536,1486.45 898.536,1467.55 "/>
<polyline clip-path="url(#clip690)" style="stroke:#000000; stroke-linecap:round; stroke-linejoin:round; stroke-width:4; stroke-opacity:1; fill:none" points="1224.01,1486.45 1224.01,1467.55 "/>
<polyline clip-path="url(#clip690)" style="stroke:#000000; stroke-linecap:round; stroke-linejoin:round; stroke-width:4; stroke-opacity:1; fill:none" points="1549.48,1486.45 1549.48,1467.55 "/>
<polyline clip-path="url(#clip690)" style="stroke:#000000; stroke-linecap:round; stroke-linejoin:round; stroke-width:4; stroke-opacity:1; fill:none" points="1874.96,1486.45 1874.96,1467.55 "/>
<polyline clip-path="url(#clip690)" style="stroke:#000000; stroke-linecap:round; stroke-linejoin:round; stroke-width:4; stroke-opacity:1; fill:none" points="2200.43,1486.45 2200.43,1467.55 "/>
<path clip-path="url(#clip690)" d="M247.59 1517.37 Q243.978 1517.37 242.15 1520.93 Q240.344 1524.47 240.344 1531.6 Q240.344 1538.71 242.15 1542.27 Q243.978 1545.82 247.59 1545.82 Q251.224 1545.82 253.029 1542.27 Q254.858 1538.71 254.858 1531.6 Q254.858 1524.47 253.029 1520.93 Q251.224 1517.37 247.59 1517.37 M247.59 1513.66 Q253.4 1513.66 256.455 1518.27 Q259.534 1522.85 259.534 1531.6 Q259.534 1540.33 256.455 1544.94 Q253.4 1549.52 247.59 1549.52 Q241.779 1549.52 238.701 1544.94 Q235.645 1540.33 235.645 1531.6 Q235.645 1522.85 238.701 1518.27 Q241.779 1513.66 247.59 1513.66 Z" fill="#000000" fill-rule="nonzero" fill-opacity="1" /><path clip-path="url(#clip690)" d="M563.445 1544.91 L571.084 1544.91 L571.084 1518.55 L562.774 1520.21 L562.774 1515.95 L571.038 1514.29 L575.713 1514.29 L575.713 1544.91 L583.352 1544.91 L583.352 1548.85 L563.445 1548.85 L563.445 1544.91 Z" fill="#000000" fill-rule="nonzero" fill-opacity="1" /><path clip-path="url(#clip690)" d="M893.189 1544.91 L909.509 1544.91 L909.509 1548.85 L887.564 1548.85 L887.564 1544.91 Q890.226 1542.16 894.81 1537.53 Q899.416 1532.88 900.597 1531.53 Q902.842 1529.01 903.722 1527.27 Q904.624 1525.51 904.624 1523.82 Q904.624 1521.07 902.68 1519.33 Q900.759 1517.6 897.657 1517.6 Q895.458 1517.6 893.004 1518.36 Q890.573 1519.13 887.796 1520.68 L887.796 1515.95 Q890.62 1514.82 893.073 1514.24 Q895.527 1513.66 897.564 1513.66 Q902.935 1513.66 906.129 1516.35 Q909.323 1519.03 909.323 1523.52 Q909.323 1525.65 908.513 1527.57 Q907.726 1529.47 905.62 1532.07 Q905.041 1532.74 901.939 1535.95 Q898.837 1539.15 893.189 1544.91 Z" fill="#000000" fill-rule="nonzero" fill-opacity="1" /><path clip-path="url(#clip690)" d="M1228.26 1530.21 Q1231.61 1530.93 1233.49 1533.2 Q1235.39 1535.47 1235.39 1538.8 Q1235.39 1543.92 1231.87 1546.72 Q1228.35 1549.52 1221.87 1549.52 Q1219.69 1549.52 1217.38 1549.08 Q1215.09 1548.66 1212.63 1547.81 L1212.63 1543.29 Q1214.58 1544.43 1216.89 1545.01 Q1219.21 1545.58 1221.73 1545.58 Q1226.13 1545.58 1228.42 1543.85 Q1230.73 1542.11 1230.73 1538.8 Q1230.73 1535.75 1228.58 1534.03 Q1226.45 1532.3 1222.63 1532.3 L1218.6 1532.3 L1218.6 1528.45 L1222.82 1528.45 Q1226.27 1528.45 1228.1 1527.09 Q1229.92 1525.7 1229.92 1523.11 Q1229.92 1520.45 1228.03 1519.03 Q1226.15 1517.6 1222.63 1517.6 Q1220.71 1517.6 1218.51 1518.01 Q1216.31 1518.43 1213.67 1519.31 L1213.67 1515.14 Q1216.34 1514.4 1218.65 1514.03 Q1220.99 1513.66 1223.05 1513.66 Q1228.37 1513.66 1231.48 1516.09 Q1234.58 1518.5 1234.58 1522.62 Q1234.58 1525.49 1232.93 1527.48 Q1231.29 1529.45 1228.26 1530.21 Z" fill="#000000" fill-rule="nonzero" fill-opacity="1" /><path clip-path="url(#clip690)" d="M1552.49 1518.36 L1540.69 1536.81 L1552.49 1536.81 L1552.49 1518.36 M1551.27 1514.29 L1557.15 1514.29 L1557.15 1536.81 L1562.08 1536.81 L1562.08 1540.7 L1557.15 1540.7 L1557.15 1548.85 L1552.49 1548.85 L1552.49 1540.7 L1536.89 1540.7 L1536.89 1536.19 L1551.27 1514.29 Z" fill="#000000" fill-rule="nonzero" fill-opacity="1" /><path clip-path="url(#clip690)" d="M1865.23 1514.29 L1883.59 1514.29 L1883.59 1518.22 L1869.52 1518.22 L1869.52 1526.7 Q1870.54 1526.35 1871.55 1526.19 Q1872.57 1526 1873.59 1526 Q1879.38 1526 1882.76 1529.17 Q1886.14 1532.34 1886.14 1537.76 Q1886.14 1543.34 1882.67 1546.44 Q1879.19 1549.52 1872.87 1549.52 Q1870.7 1549.52 1868.43 1549.15 Q1866.18 1548.78 1863.78 1548.04 L1863.78 1543.34 Q1865.86 1544.47 1868.08 1545.03 Q1870.3 1545.58 1872.78 1545.58 Q1876.79 1545.58 1879.12 1543.48 Q1881.46 1541.37 1881.46 1537.76 Q1881.46 1534.15 1879.12 1532.04 Q1876.79 1529.94 1872.78 1529.94 Q1870.91 1529.94 1869.03 1530.35 Q1867.18 1530.77 1865.23 1531.65 L1865.23 1514.29 Z" fill="#000000" fill-rule="nonzero" fill-opacity="1" /><path clip-path="url(#clip690)" d="M2200.84 1529.7 Q2197.69 1529.7 2195.84 1531.86 Q2194.01 1534.01 2194.01 1537.76 Q2194.01 1541.49 2195.84 1543.66 Q2197.69 1545.82 2200.84 1545.82 Q2203.98 1545.82 2205.81 1543.66 Q2207.66 1541.49 2207.66 1537.76 Q2207.66 1534.01 2205.81 1531.86 Q2203.98 1529.7 2200.84 1529.7 M2210.12 1515.05 L2210.12 1519.31 Q2208.36 1518.48 2206.55 1518.04 Q2204.77 1517.6 2203.01 1517.6 Q2198.38 1517.6 2195.93 1520.72 Q2193.5 1523.85 2193.15 1530.17 Q2194.52 1528.15 2196.58 1527.09 Q2198.64 1526 2201.11 1526 Q2206.32 1526 2209.33 1529.17 Q2212.36 1532.32 2212.36 1537.76 Q2212.36 1543.08 2209.21 1546.3 Q2206.07 1549.52 2200.84 1549.52 Q2194.84 1549.52 2191.67 1544.94 Q2188.5 1540.33 2188.5 1531.6 Q2188.5 1523.41 2192.39 1518.55 Q2196.28 1513.66 2202.83 1513.66 Q2204.59 1513.66 2206.37 1514.01 Q2208.17 1514.36 2210.12 1515.05 Z" fill="#000000" fill-rule="nonzero" fill-opacity="1" /><polyline clip-path="url(#clip692)" style="stroke:#000000; stroke-linecap:round; stroke-linejoin:round; stroke-width:2; stroke-opacity:0.1; fill:none" points="186.274,1375.74 2352.76,1375.74 "/>
<polyline clip-path="url(#clip692)" style="stroke:#000000; stroke-linecap:round; stroke-linejoin:round; stroke-width:2; stroke-opacity:0.1; fill:none" points="186.274,1098.97 2352.76,1098.97 "/>
<polyline clip-path="url(#clip692)" style="stroke:#000000; stroke-linecap:round; stroke-linejoin:round; stroke-width:2; stroke-opacity:0.1; fill:none" points="186.274,822.2 2352.76,822.2 "/>
<polyline clip-path="url(#clip692)" style="stroke:#000000; stroke-linecap:round; stroke-linejoin:round; stroke-width:2; stroke-opacity:0.1; fill:none" points="186.274,545.43 2352.76,545.43 "/>
<polyline clip-path="url(#clip692)" style="stroke:#000000; stroke-linecap:round; stroke-linejoin:round; stroke-width:2; stroke-opacity:0.1; fill:none" points="186.274,268.66 2352.76,268.66 "/>
<polyline clip-path="url(#clip690)" style="stroke:#000000; stroke-linecap:round; stroke-linejoin:round; stroke-width:4; stroke-opacity:1; fill:none" points="186.274,1486.45 186.274,47.2441 "/>
<polyline clip-path="url(#clip690)" style="stroke:#000000; stroke-linecap:round; stroke-linejoin:round; stroke-width:4; stroke-opacity:1; fill:none" points="186.274,1375.74 205.172,1375.74 "/>
<polyline clip-path="url(#clip690)" style="stroke:#000000; stroke-linecap:round; stroke-linejoin:round; stroke-width:4; stroke-opacity:1; fill:none" points="186.274,1098.97 205.172,1098.97 "/>
<polyline clip-path="url(#clip690)" style="stroke:#000000; stroke-linecap:round; stroke-linejoin:round; stroke-width:4; stroke-opacity:1; fill:none" points="186.274,822.2 205.172,822.2 "/>
<polyline clip-path="url(#clip690)" style="stroke:#000000; stroke-linecap:round; stroke-linejoin:round; stroke-width:4; stroke-opacity:1; fill:none" points="186.274,545.43 205.172,545.43 "/>
<polyline clip-path="url(#clip690)" style="stroke:#000000; stroke-linecap:round; stroke-linejoin:round; stroke-width:4; stroke-opacity:1; fill:none" points="186.274,268.66 205.172,268.66 "/>
<path clip-path="url(#clip690)" d="M62.9365 1361.54 Q59.3254 1361.54 57.4967 1365.1 Q55.6912 1368.65 55.6912 1375.77 Q55.6912 1382.88 57.4967 1386.45 Q59.3254 1389.99 62.9365 1389.99 Q66.5707 1389.99 68.3763 1386.45 Q70.205 1382.88 70.205 1375.77 Q70.205 1368.65 68.3763 1365.1 Q66.5707 1361.54 62.9365 1361.54 M62.9365 1357.83 Q68.7467 1357.83 71.8022 1362.44 Q74.8809 1367.02 74.8809 1375.77 Q74.8809 1384.5 71.8022 1389.11 Q68.7467 1393.69 62.9365 1393.69 Q57.1264 1393.69 54.0477 1389.11 Q50.9921 1384.5 50.9921 1375.77 Q50.9921 1367.02 54.0477 1362.44 Q57.1264 1357.83 62.9365 1357.83 Z" fill="#000000" fill-rule="nonzero" fill-opacity="1" /><path clip-path="url(#clip690)" d="M83.0984 1387.14 L87.9827 1387.14 L87.9827 1393.02 L83.0984 1393.02 L83.0984 1387.14 Z" fill="#000000" fill-rule="nonzero" fill-opacity="1" /><path clip-path="url(#clip690)" d="M108.168 1361.54 Q104.557 1361.54 102.728 1365.1 Q100.922 1368.65 100.922 1375.77 Q100.922 1382.88 102.728 1386.45 Q104.557 1389.99 108.168 1389.99 Q111.802 1389.99 113.608 1386.45 Q115.436 1382.88 115.436 1375.77 Q115.436 1368.65 113.608 1365.1 Q111.802 1361.54 108.168 1361.54 M108.168 1357.83 Q113.978 1357.83 117.033 1362.44 Q120.112 1367.02 120.112 1375.77 Q120.112 1384.5 117.033 1389.11 Q113.978 1393.69 108.168 1393.69 Q102.358 1393.69 99.2789 1389.11 Q96.2234 1384.5 96.2234 1375.77 Q96.2234 1367.02 99.2789 1362.44 Q102.358 1357.83 108.168 1357.83 Z" fill="#000000" fill-rule="nonzero" fill-opacity="1" /><path clip-path="url(#clip690)" d="M138.33 1361.54 Q134.719 1361.54 132.89 1365.1 Q131.084 1368.65 131.084 1375.77 Q131.084 1382.88 132.89 1386.45 Q134.719 1389.99 138.33 1389.99 Q141.964 1389.99 143.769 1386.45 Q145.598 1382.88 145.598 1375.77 Q145.598 1368.65 143.769 1365.1 Q141.964 1361.54 138.33 1361.54 M138.33 1357.83 Q144.14 1357.83 147.195 1362.44 Q150.274 1367.02 150.274 1375.77 Q150.274 1384.5 147.195 1389.11 Q144.14 1393.69 138.33 1393.69 Q132.519 1393.69 129.441 1389.11 Q126.385 1384.5 126.385 1375.77 Q126.385 1367.02 129.441 1362.44 Q132.519 1357.83 138.33 1357.83 Z" fill="#000000" fill-rule="nonzero" fill-opacity="1" /><path clip-path="url(#clip690)" d="M63.9319 1084.77 Q60.3208 1084.77 58.4921 1088.33 Q56.6865 1091.88 56.6865 1099 Q56.6865 1106.11 58.4921 1109.68 Q60.3208 1113.22 63.9319 1113.22 Q67.5661 1113.22 69.3717 1109.68 Q71.2004 1106.11 71.2004 1099 Q71.2004 1091.88 69.3717 1088.33 Q67.5661 1084.77 63.9319 1084.77 M63.9319 1081.06 Q69.742 1081.06 72.7976 1085.67 Q75.8763 1090.25 75.8763 1099 Q75.8763 1107.73 72.7976 1112.34 Q69.742 1116.92 63.9319 1116.92 Q58.1217 1116.92 55.043 1112.34 Q51.9875 1107.73 51.9875 1099 Q51.9875 1090.25 55.043 1085.67 Q58.1217 1081.06 63.9319 1081.06 Z" fill="#000000" fill-rule="nonzero" fill-opacity="1" /><path clip-path="url(#clip690)" d="M84.0938 1110.37 L88.978 1110.37 L88.978 1116.25 L84.0938 1116.25 L84.0938 1110.37 Z" fill="#000000" fill-rule="nonzero" fill-opacity="1" /><path clip-path="url(#clip690)" d="M103.191 1112.31 L119.51 1112.31 L119.51 1116.25 L97.566 1116.25 L97.566 1112.31 Q100.228 1109.56 104.811 1104.93 Q109.418 1100.28 110.598 1098.94 Q112.844 1096.41 113.723 1094.68 Q114.626 1092.92 114.626 1091.23 Q114.626 1088.47 112.682 1086.74 Q110.76 1085 107.658 1085 Q105.459 1085 103.006 1085.76 Q100.575 1086.53 97.7974 1088.08 L97.7974 1083.36 Q100.621 1082.22 103.075 1081.64 Q105.529 1081.06 107.566 1081.06 Q112.936 1081.06 116.131 1083.75 Q119.325 1086.44 119.325 1090.93 Q119.325 1093.06 118.515 1094.98 Q117.728 1096.88 115.621 1099.47 Q115.043 1100.14 111.941 1103.36 Q108.839 1106.55 103.191 1112.31 Z" fill="#000000" fill-rule="nonzero" fill-opacity="1" /><path clip-path="url(#clip690)" d="M129.371 1081.69 L147.728 1081.69 L147.728 1085.63 L133.654 1085.63 L133.654 1094.1 Q134.672 1093.75 135.691 1093.59 Q136.709 1093.4 137.728 1093.4 Q143.515 1093.4 146.894 1096.57 Q150.274 1099.75 150.274 1105.16 Q150.274 1110.74 146.802 1113.84 Q143.33 1116.92 137.01 1116.92 Q134.834 1116.92 132.566 1116.55 Q130.32 1116.18 127.913 1115.44 L127.913 1110.74 Q129.996 1111.87 132.219 1112.43 Q134.441 1112.99 136.918 1112.99 Q140.922 1112.99 143.26 1110.88 Q145.598 1108.77 145.598 1105.16 Q145.598 1101.55 143.26 1099.44 Q140.922 1097.34 136.918 1097.34 Q135.043 1097.34 133.168 1097.75 Q131.316 1098.17 129.371 1099.05 L129.371 1081.69 Z" fill="#000000" fill-rule="nonzero" fill-opacity="1" /><path clip-path="url(#clip690)" d="M62.9365 807.999 Q59.3254 807.999 57.4967 811.563 Q55.6912 815.105 55.6912 822.235 Q55.6912 829.341 57.4967 832.906 Q59.3254 836.448 62.9365 836.448 Q66.5707 836.448 68.3763 832.906 Q70.205 829.341 70.205 822.235 Q70.205 815.105 68.3763 811.563 Q66.5707 807.999 62.9365 807.999 M62.9365 804.295 Q68.7467 804.295 71.8022 808.901 Q74.8809 813.485 74.8809 822.235 Q74.8809 830.962 71.8022 835.568 Q68.7467 840.151 62.9365 840.151 Q57.1264 840.151 54.0477 835.568 Q50.9921 830.962 50.9921 822.235 Q50.9921 813.485 54.0477 808.901 Q57.1264 804.295 62.9365 804.295 Z" fill="#000000" fill-rule="nonzero" fill-opacity="1" /><path clip-path="url(#clip690)" d="M83.0984 833.6 L87.9827 833.6 L87.9827 839.48 L83.0984 839.48 L83.0984 833.6 Z" fill="#000000" fill-rule="nonzero" fill-opacity="1" /><path clip-path="url(#clip690)" d="M98.2141 804.92 L116.57 804.92 L116.57 808.855 L102.496 808.855 L102.496 817.327 Q103.515 816.98 104.534 816.818 Q105.552 816.633 106.571 816.633 Q112.358 816.633 115.737 819.804 Q119.117 822.975 119.117 828.392 Q119.117 833.971 115.645 837.073 Q112.172 840.151 105.853 840.151 Q103.677 840.151 101.409 839.781 Q99.1632 839.411 96.7558 838.67 L96.7558 833.971 Q98.8391 835.105 101.061 835.661 Q103.284 836.216 105.76 836.216 Q109.765 836.216 112.103 834.11 Q114.441 832.003 114.441 828.392 Q114.441 824.781 112.103 822.675 Q109.765 820.568 105.76 820.568 Q103.885 820.568 102.01 820.985 Q100.159 821.401 98.2141 822.281 L98.2141 804.92 Z" fill="#000000" fill-rule="nonzero" fill-opacity="1" /><path clip-path="url(#clip690)" d="M138.33 807.999 Q134.719 807.999 132.89 811.563 Q131.084 815.105 131.084 822.235 Q131.084 829.341 132.89 832.906 Q134.719 836.448 138.33 836.448 Q141.964 836.448 143.769 832.906 Q145.598 829.341 145.598 822.235 Q145.598 815.105 143.769 811.563 Q141.964 807.999 138.33 807.999 M138.33 804.295 Q144.14 804.295 147.195 808.901 Q150.274 813.485 150.274 822.235 Q150.274 830.962 147.195 835.568 Q144.14 840.151 138.33 840.151 Q132.519 840.151 129.441 835.568 Q126.385 830.962 126.385 822.235 Q126.385 813.485 129.441 808.901 Q132.519 804.295 138.33 804.295 Z" fill="#000000" fill-rule="nonzero" fill-opacity="1" /><path clip-path="url(#clip690)" d="M63.9319 531.229 Q60.3208 531.229 58.4921 534.794 Q56.6865 538.335 56.6865 545.465 Q56.6865 552.571 58.4921 556.136 Q60.3208 559.678 63.9319 559.678 Q67.5661 559.678 69.3717 556.136 Q71.2004 552.571 71.2004 545.465 Q71.2004 538.335 69.3717 534.794 Q67.5661 531.229 63.9319 531.229 M63.9319 527.525 Q69.742 527.525 72.7976 532.131 Q75.8763 536.715 75.8763 545.465 Q75.8763 554.192 72.7976 558.798 Q69.742 563.381 63.9319 563.381 Q58.1217 563.381 55.043 558.798 Q51.9875 554.192 51.9875 545.465 Q51.9875 536.715 55.043 532.131 Q58.1217 527.525 63.9319 527.525 Z" fill="#000000" fill-rule="nonzero" fill-opacity="1" /><path clip-path="url(#clip690)" d="M84.0938 556.83 L88.978 556.83 L88.978 562.71 L84.0938 562.71 L84.0938 556.83 Z" fill="#000000" fill-rule="nonzero" fill-opacity="1" /><path clip-path="url(#clip690)" d="M97.9826 528.15 L120.205 528.15 L120.205 530.141 L107.658 562.71 L102.774 562.71 L114.58 532.085 L97.9826 532.085 L97.9826 528.15 Z" fill="#000000" fill-rule="nonzero" fill-opacity="1" /><path clip-path="url(#clip690)" d="M129.371 528.15 L147.728 528.15 L147.728 532.085 L133.654 532.085 L133.654 540.557 Q134.672 540.21 135.691 540.048 Q136.709 539.863 137.728 539.863 Q143.515 539.863 146.894 543.034 Q150.274 546.205 150.274 551.622 Q150.274 557.201 146.802 560.303 Q143.33 563.381 137.01 563.381 Q134.834 563.381 132.566 563.011 Q130.32 562.641 127.913 561.9 L127.913 557.201 Q129.996 558.335 132.219 558.891 Q134.441 559.446 136.918 559.446 Q140.922 559.446 143.26 557.34 Q145.598 555.233 145.598 551.622 Q145.598 548.011 143.26 545.905 Q140.922 543.798 136.918 543.798 Q135.043 543.798 133.168 544.215 Q131.316 544.631 129.371 545.511 L129.371 528.15 Z" fill="#000000" fill-rule="nonzero" fill-opacity="1" /><path clip-path="url(#clip690)" d="M53.7467 282.005 L61.3856 282.005 L61.3856 255.639 L53.0754 257.306 L53.0754 253.047 L61.3393 251.38 L66.0152 251.38 L66.0152 282.005 L73.654 282.005 L73.654 285.94 L53.7467 285.94 L53.7467 282.005 Z" fill="#000000" fill-rule="nonzero" fill-opacity="1" /><path clip-path="url(#clip690)" d="M83.0984 280.06 L87.9827 280.06 L87.9827 285.94 L83.0984 285.94 L83.0984 280.06 Z" fill="#000000" fill-rule="nonzero" fill-opacity="1" /><path clip-path="url(#clip690)" d="M108.168 254.459 Q104.557 254.459 102.728 258.024 Q100.922 261.565 100.922 268.695 Q100.922 275.801 102.728 279.366 Q104.557 282.908 108.168 282.908 Q111.802 282.908 113.608 279.366 Q115.436 275.801 115.436 268.695 Q115.436 261.565 113.608 258.024 Q111.802 254.459 108.168 254.459 M108.168 250.755 Q113.978 250.755 117.033 255.362 Q120.112 259.945 120.112 268.695 Q120.112 277.422 117.033 282.028 Q113.978 286.611 108.168 286.611 Q102.358 286.611 99.2789 282.028 Q96.2234 277.422 96.2234 268.695 Q96.2234 259.945 99.2789 255.362 Q102.358 250.755 108.168 250.755 Z" fill="#000000" fill-rule="nonzero" fill-opacity="1" /><path clip-path="url(#clip690)" d="M138.33 254.459 Q134.719 254.459 132.89 258.024 Q131.084 261.565 131.084 268.695 Q131.084 275.801 132.89 279.366 Q134.719 282.908 138.33 282.908 Q141.964 282.908 143.769 279.366 Q145.598 275.801 145.598 268.695 Q145.598 261.565 143.769 258.024 Q141.964 254.459 138.33 254.459 M138.33 250.755 Q144.14 250.755 147.195 255.362 Q150.274 259.945 150.274 268.695 Q150.274 277.422 147.195 282.028 Q144.14 286.611 138.33 286.611 Q132.519 286.611 129.441 282.028 Q126.385 277.422 126.385 268.695 Q126.385 259.945 129.441 255.362 Q132.519 250.755 138.33 250.755 Z" fill="#000000" fill-rule="nonzero" fill-opacity="1" /><polyline clip-path="url(#clip692)" style="stroke:#009af9; stroke-linecap:round; stroke-linejoin:round; stroke-width:4; stroke-opacity:1; fill:none" points="247.59,1375.74 263.863,1320.41 280.137,1265.22 296.411,1210.3 312.684,1155.8 328.958,1101.84 345.232,1048.58 361.505,996.125 377.779,944.623 394.053,894.198 410.326,844.978 426.6,797.083 442.874,750.636 459.147,705.75 475.421,662.539 491.695,621.111 507.968,581.569 524.242,544.013 540.516,508.534 556.789,475.224 573.063,444.164 589.337,415.433 605.61,389.102 621.884,365.237 638.158,343.898 654.431,325.138 670.705,309.004 686.979,295.536 703.252,284.768 719.526,276.727 735.8,271.433 752.073,268.899 768.347,269.132 784.621,272.131 800.894,277.888 817.168,286.389 833.442,297.613 849.715,311.532 865.989,328.11 882.263,347.307 898.536,369.075 914.81,393.359 931.084,420.098 947.357,449.226 963.631,480.67 979.905,514.351 996.178,550.185 1012.45,588.082 1028.73,627.948 1045,669.683 1061.27,713.183 1077.55,758.339 1093.82,805.039 1110.09,853.164 1126.37,902.596 1142.64,953.211 1158.92,1004.88 1175.19,1057.48 1191.46,1110.87 1207.74,1164.93 1224.01,1219.51 1240.28,1274.48 1256.56,1329.71 1272.83,1366.43 1289.1,1311.12 1305.38,1255.96 1321.65,1201.1 1337.93,1146.68 1354.2,1092.84 1370.47,1039.7 1386.75,987.395 1403.02,936.065 1419.29,885.834 1435.57,836.828 1451.84,789.169 1468.11,742.976 1484.39,698.364 1500.66,655.446 1516.94,614.328 1533.21,575.113 1549.48,537.899 1565.76,502.779 1582.03,469.842 1598.3,439.168 1614.58,410.836 1630.85,384.915 1647.13,361.471 1663.4,340.562 1679.67,322.24 1695.95,306.552 1712.22,293.536 1728.49,283.225 1744.77,275.645 1761.04,270.814 1777.31,268.745 1793.59,269.443 1809.86,272.906 1826.14,279.126 1842.41,288.086 1858.68,299.766 1874.96,314.134 1891.23,331.156 1907.5,350.789 1923.78,372.984 1940.05,397.685 1956.33,424.831 1972.6,454.353 1988.87,486.179 2005.15,520.228 2021.42,556.415 2037.69,594.65 2053.97,634.838 2070.24,676.877 2086.51,720.664 2102.79,766.087 2119.06,813.034 2135.34,861.388 2151.61,911.028 2167.88,961.829 2184.16,1013.66 2200.43,1066.4 2216.7,1119.92 2232.98,1174.07 2249.25,1228.73 2265.52,1283.75 2281.8,1339.01 "/>
<circle clip-path="url(#clip692)" cx="248.749" cy="1371.8" r="14.4" fill="#e26f46" fill-rule="evenodd" fill-opacity="1" stroke="#000000" stroke-opacity="1" stroke-width="3.2"/>
<circle clip-path="url(#clip692)" cx="253.692" cy="1354.98" r="14.4" fill="#e26f46" fill-rule="evenodd" fill-opacity="1" stroke="#000000" stroke-opacity="1" stroke-width="3.2"/>
<circle clip-path="url(#clip692)" cx="262.565" cy="1324.82" r="14.4" fill="#e26f46" fill-rule="evenodd" fill-opacity="1" stroke="#000000" stroke-opacity="1" stroke-width="3.2"/>
<circle clip-path="url(#clip692)" cx="275.336" cy="1281.48" r="14.4" fill="#e26f46" fill-rule="evenodd" fill-opacity="1" stroke="#000000" stroke-opacity="1" stroke-width="3.2"/>
<circle clip-path="url(#clip692)" cx="291.955" cy="1225.3" r="14.4" fill="#e26f46" fill-rule="evenodd" fill-opacity="1" stroke="#000000" stroke-opacity="1" stroke-width="3.2"/>
<circle clip-path="url(#clip692)" cx="312.358" cy="1156.88" r="14.4" fill="#e26f46" fill-rule="evenodd" fill-opacity="1" stroke="#000000" stroke-opacity="1" stroke-width="3.2"/>
<circle clip-path="url(#clip692)" cx="336.467" cy="1077.17" r="14.4" fill="#e26f46" fill-rule="evenodd" fill-opacity="1" stroke="#000000" stroke-opacity="1" stroke-width="3.2"/>
<circle clip-path="url(#clip692)" cx="364.188" cy="987.566" r="14.4" fill="#e26f46" fill-rule="evenodd" fill-opacity="1" stroke="#000000" stroke-opacity="1" stroke-width="3.2"/>
<circle clip-path="url(#clip692)" cx="395.413" cy="890.035" r="14.4" fill="#e26f46" fill-rule="evenodd" fill-opacity="1" stroke="#000000" stroke-opacity="1" stroke-width="3.2"/>
<circle clip-path="url(#clip692)" cx="430.023" cy="787.19" r="14.4" fill="#e26f46" fill-rule="evenodd" fill-opacity="1" stroke="#000000" stroke-opacity="1" stroke-width="3.2"/>
<circle clip-path="url(#clip692)" cx="467.882" cy="682.341" r="14.4" fill="#e26f46" fill-rule="evenodd" fill-opacity="1" stroke="#000000" stroke-opacity="1" stroke-width="3.2"/>
<circle clip-path="url(#clip692)" cx="508.845" cy="579.494" r="14.4" fill="#e26f46" fill-rule="evenodd" fill-opacity="1" stroke="#000000" stroke-opacity="1" stroke-width="3.2"/>
<circle clip-path="url(#clip692)" cx="552.754" cy="483.278" r="14.4" fill="#e26f46" fill-rule="evenodd" fill-opacity="1" stroke="#000000" stroke-opacity="1" stroke-width="3.2"/>
<circle clip-path="url(#clip692)" cx="599.437" cy="398.804" r="14.4" fill="#e26f46" fill-rule="evenodd" fill-opacity="1" stroke="#000000" stroke-opacity="1" stroke-width="3.2"/>
<circle clip-path="url(#clip692)" cx="648.715" cy="331.431" r="14.4" fill="#e26f46" fill-rule="evenodd" fill-opacity="1" stroke="#000000" stroke-opacity="1" stroke-width="3.2"/>
<circle clip-path="url(#clip692)" cx="700.397" cy="286.461" r="14.4" fill="#e26f46" fill-rule="evenodd" fill-opacity="1" stroke="#000000" stroke-opacity="1" stroke-width="3.2"/>
<circle clip-path="url(#clip692)" cx="754.284" cy="268.769" r="14.4" fill="#e26f46" fill-rule="evenodd" fill-opacity="1" stroke="#000000" stroke-opacity="1" stroke-width="3.2"/>
<circle clip-path="url(#clip692)" cx="810.165" cy="282.396" r="14.4" fill="#e26f46" fill-rule="evenodd" fill-opacity="1" stroke="#000000" stroke-opacity="1" stroke-width="3.2"/>
<circle clip-path="url(#clip692)" cx="867.826" cy="330.147" r="14.4" fill="#e26f46" fill-rule="evenodd" fill-opacity="1" stroke="#000000" stroke-opacity="1" stroke-width="3.2"/>
<circle clip-path="url(#clip692)" cx="927.044" cy="413.235" r="14.4" fill="#e26f46" fill-rule="evenodd" fill-opacity="1" stroke="#000000" stroke-opacity="1" stroke-width="3.2"/>
<circle clip-path="url(#clip692)" cx="987.588" cy="531.007" r="14.4" fill="#e26f46" fill-rule="evenodd" fill-opacity="1" stroke="#000000" stroke-opacity="1" stroke-width="3.2"/>
<circle clip-path="url(#clip692)" cx="1049.23" cy="680.816" r="14.4" fill="#e26f46" fill-rule="evenodd" fill-opacity="1" stroke="#000000" stroke-opacity="1" stroke-width="3.2"/>
<circle clip-path="url(#clip692)" cx="1111.72" cy="858.041" r="14.4" fill="#e26f46" fill-rule="evenodd" fill-opacity="1" stroke="#000000" stroke-opacity="1" stroke-width="3.2"/>
<circle clip-path="url(#clip692)" cx="1174.82" cy="1056.29" r="14.4" fill="#e26f46" fill-rule="evenodd" fill-opacity="1" stroke="#000000" stroke-opacity="1" stroke-width="3.2"/>
<circle clip-path="url(#clip692)" cx="1238.3" cy="1267.75" r="14.4" fill="#e26f46" fill-rule="evenodd" fill-opacity="1" stroke="#000000" stroke-opacity="1" stroke-width="3.2"/>
<circle clip-path="url(#clip692)" cx="1301.89" cy="1267.75" r="14.4" fill="#e26f46" fill-rule="evenodd" fill-opacity="1" stroke="#000000" stroke-opacity="1" stroke-width="3.2"/>
<circle clip-path="url(#clip692)" cx="1365.37" cy="1056.29" r="14.4" fill="#e26f46" fill-rule="evenodd" fill-opacity="1" stroke="#000000" stroke-opacity="1" stroke-width="3.2"/>
<circle clip-path="url(#clip692)" cx="1428.47" cy="858.041" r="14.4" fill="#e26f46" fill-rule="evenodd" fill-opacity="1" stroke="#000000" stroke-opacity="1" stroke-width="3.2"/>
<circle clip-path="url(#clip692)" cx="1490.96" cy="680.816" r="14.4" fill="#e26f46" fill-rule="evenodd" fill-opacity="1" stroke="#000000" stroke-opacity="1" stroke-width="3.2"/>
<circle clip-path="url(#clip692)" cx="1552.6" cy="531.007" r="14.4" fill="#e26f46" fill-rule="evenodd" fill-opacity="1" stroke="#000000" stroke-opacity="1" stroke-width="3.2"/>
<circle clip-path="url(#clip692)" cx="1613.15" cy="413.235" r="14.4" fill="#e26f46" fill-rule="evenodd" fill-opacity="1" stroke="#000000" stroke-opacity="1" stroke-width="3.2"/>
<circle clip-path="url(#clip692)" cx="1672.36" cy="330.147" r="14.4" fill="#e26f46" fill-rule="evenodd" fill-opacity="1" stroke="#000000" stroke-opacity="1" stroke-width="3.2"/>
<circle clip-path="url(#clip692)" cx="1730.02" cy="282.396" r="14.4" fill="#e26f46" fill-rule="evenodd" fill-opacity="1" stroke="#000000" stroke-opacity="1" stroke-width="3.2"/>
<circle clip-path="url(#clip692)" cx="1785.91" cy="268.769" r="14.4" fill="#e26f46" fill-rule="evenodd" fill-opacity="1" stroke="#000000" stroke-opacity="1" stroke-width="3.2"/>
<circle clip-path="url(#clip692)" cx="1839.79" cy="286.461" r="14.4" fill="#e26f46" fill-rule="evenodd" fill-opacity="1" stroke="#000000" stroke-opacity="1" stroke-width="3.2"/>
<circle clip-path="url(#clip692)" cx="1891.47" cy="331.431" r="14.4" fill="#e26f46" fill-rule="evenodd" fill-opacity="1" stroke="#000000" stroke-opacity="1" stroke-width="3.2"/>
<circle clip-path="url(#clip692)" cx="1940.75" cy="398.804" r="14.4" fill="#e26f46" fill-rule="evenodd" fill-opacity="1" stroke="#000000" stroke-opacity="1" stroke-width="3.2"/>
<circle clip-path="url(#clip692)" cx="1987.44" cy="483.278" r="14.4" fill="#e26f46" fill-rule="evenodd" fill-opacity="1" stroke="#000000" stroke-opacity="1" stroke-width="3.2"/>
<circle clip-path="url(#clip692)" cx="2031.34" cy="579.494" r="14.4" fill="#e26f46" fill-rule="evenodd" fill-opacity="1" stroke="#000000" stroke-opacity="1" stroke-width="3.2"/>
<circle clip-path="url(#clip692)" cx="2072.31" cy="682.341" r="14.4" fill="#e26f46" fill-rule="evenodd" fill-opacity="1" stroke="#000000" stroke-opacity="1" stroke-width="3.2"/>
<circle clip-path="url(#clip692)" cx="2110.17" cy="787.19" r="14.4" fill="#e26f46" fill-rule="evenodd" fill-opacity="1" stroke="#000000" stroke-opacity="1" stroke-width="3.2"/>
<circle clip-path="url(#clip692)" cx="2144.78" cy="890.035" r="14.4" fill="#e26f46" fill-rule="evenodd" fill-opacity="1" stroke="#000000" stroke-opacity="1" stroke-width="3.2"/>
<circle clip-path="url(#clip692)" cx="2176" cy="987.566" r="14.4" fill="#e26f46" fill-rule="evenodd" fill-opacity="1" stroke="#000000" stroke-opacity="1" stroke-width="3.2"/>
<circle clip-path="url(#clip692)" cx="2203.72" cy="1077.17" r="14.4" fill="#e26f46" fill-rule="evenodd" fill-opacity="1" stroke="#000000" stroke-opacity="1" stroke-width="3.2"/>
<circle clip-path="url(#clip692)" cx="2227.83" cy="1156.88" r="14.4" fill="#e26f46" fill-rule="evenodd" fill-opacity="1" stroke="#000000" stroke-opacity="1" stroke-width="3.2"/>
<circle clip-path="url(#clip692)" cx="2248.23" cy="1225.3" r="14.4" fill="#e26f46" fill-rule="evenodd" fill-opacity="1" stroke="#000000" stroke-opacity="1" stroke-width="3.2"/>
<circle clip-path="url(#clip692)" cx="2264.85" cy="1281.48" r="14.4" fill="#e26f46" fill-rule="evenodd" fill-opacity="1" stroke="#000000" stroke-opacity="1" stroke-width="3.2"/>
<circle clip-path="url(#clip692)" cx="2277.62" cy="1324.82" r="14.4" fill="#e26f46" fill-rule="evenodd" fill-opacity="1" stroke="#000000" stroke-opacity="1" stroke-width="3.2"/>
<circle clip-path="url(#clip692)" cx="2286.5" cy="1354.98" r="14.4" fill="#e26f46" fill-rule="evenodd" fill-opacity="1" stroke="#000000" stroke-opacity="1" stroke-width="3.2"/>
<circle clip-path="url(#clip692)" cx="2291.44" cy="1371.8" r="14.4" fill="#e26f46" fill-rule="evenodd" fill-opacity="1" stroke="#000000" stroke-opacity="1" stroke-width="3.2"/>
<path clip-path="url(#clip690)" d="M1846.74 250.738 L2280.54 250.738 L2280.54 95.2176 L1846.74 95.2176  Z" fill="#ffffff" fill-rule="evenodd" fill-opacity="1"/>
<polyline clip-path="url(#clip690)" style="stroke:#000000; stroke-linecap:round; stroke-linejoin:round; stroke-width:4; stroke-opacity:1; fill:none" points="1846.74,250.738 2280.54,250.738 2280.54,95.2176 1846.74,95.2176 1846.74,250.738 "/>
<polyline clip-path="url(#clip690)" style="stroke:#009af9; stroke-linecap:round; stroke-linejoin:round; stroke-width:4; stroke-opacity:1; fill:none" points="1870.82,147.058 2015.25,147.058 "/>
<path clip-path="url(#clip690)" d="M2039.32 169.449 L2039.32 124.783 Q2039.32 123.003 2040.28 123.003 Q2041.24 123.003 2041.24 124.431 L2041.24 169.098 Q2041.24 170.878 2040.28 170.878 Q2039.32 170.878 2039.32 169.449 Z" fill="#000000" fill-rule="nonzero" fill-opacity="1" /><path clip-path="url(#clip690)" d="M2064.82 158.3 L2064.82 151.976 Q2064.82 151.437 2064.84 151.25 Q2064.87 151.063 2065.01 150.922 Q2065.15 150.782 2065.43 150.782 Q2065.76 150.782 2065.87 150.922 Q2066.01 151.063 2066.11 151.601 Q2066.83 154.904 2068.38 156.661 Q2069.95 158.394 2072.78 158.394 Q2075.48 158.394 2076.83 157.199 Q2078.19 156.005 2078.19 154.037 Q2078.19 150.524 2073.2 149.634 Q2070.32 149.048 2069.13 148.674 Q2067.93 148.275 2066.88 147.409 Q2064.82 145.722 2064.82 143.333 Q2064.82 140.944 2066.62 139.187 Q2068.45 137.431 2072.48 137.431 Q2075.17 137.431 2077 138.789 Q2077.54 138.368 2077.82 138.016 Q2078.45 137.431 2078.78 137.431 Q2079.15 137.431 2079.22 137.688 Q2079.29 137.923 2079.29 138.602 L2079.29 143.427 Q2079.29 143.966 2079.27 144.153 Q2079.25 144.34 2079.11 144.481 Q2078.97 144.598 2078.66 144.598 Q2078.12 144.598 2078.1 144.153 Q2077.72 138.344 2072.48 138.344 Q2069.64 138.344 2068.38 139.445 Q2067.11 140.523 2067.11 141.998 Q2067.11 142.818 2067.49 143.45 Q2067.89 144.059 2068.38 144.434 Q2068.89 144.785 2069.83 145.137 Q2070.77 145.465 2071.33 145.582 Q2071.92 145.699 2073.02 145.933 Q2076.86 146.659 2078.47 148.228 Q2080.49 150.243 2080.49 152.796 Q2080.49 155.63 2078.57 157.551 Q2076.65 159.471 2072.78 159.471 Q2069.67 159.471 2067.49 157.387 Q2067.21 157.668 2067 157.925 Q2066.79 158.16 2066.69 158.253 Q2066.62 158.347 2066.6 158.417 Q2066.58 158.464 2066.53 158.511 Q2065.57 159.471 2065.33 159.471 Q2064.96 159.471 2064.89 159.214 Q2064.82 158.979 2064.82 158.3 Z" fill="#000000" fill-rule="nonzero" fill-opacity="1" /><path clip-path="url(#clip690)" d="M2082.36 158.933 L2082.36 157.457 Q2084.91 157.457 2085.5 157.152 Q2086.08 156.825 2086.08 155.279 L2086.08 142.373 Q2086.08 140.593 2085.48 140.171 Q2084.89 139.75 2082.55 139.75 L2082.55 138.251 L2089.25 137.735 L2089.25 155.325 Q2089.25 156.754 2089.76 157.106 Q2090.28 157.457 2092.62 157.457 L2092.62 158.933 Q2087.72 158.792 2087.63 158.792 Q2086.97 158.792 2082.36 158.933 M2084.37 129.373 Q2084.37 128.413 2085.1 127.64 Q2085.85 126.844 2086.9 126.844 Q2087.96 126.844 2088.71 127.57 Q2089.46 128.273 2089.46 129.397 Q2089.46 130.498 2088.71 131.224 Q2087.96 131.926 2086.9 131.926 Q2085.8 131.926 2085.08 131.154 Q2084.37 130.381 2084.37 129.373 Z" fill="#000000" fill-rule="nonzero" fill-opacity="1" /><path clip-path="url(#clip690)" d="M2095.9 158.933 L2095.9 157.457 Q2098.45 157.457 2099.03 157.152 Q2099.62 156.825 2099.62 155.279 L2099.62 142.42 Q2099.62 140.64 2098.99 140.195 Q2098.38 139.75 2095.9 139.75 L2095.9 138.251 L2102.64 137.735 L2102.64 142.771 Q2104.89 137.735 2109.74 137.735 Q2113.34 137.735 2114.77 139.515 Q2115.83 140.71 2116.04 142.045 Q2116.27 143.38 2116.27 146.847 L2116.27 156.005 Q2116.32 157.012 2117.09 157.246 Q2117.87 157.457 2120.02 157.457 L2120.02 158.933 Q2115.12 158.792 2114.63 158.792 Q2114.26 158.792 2109.22 158.933 L2109.22 157.457 Q2111.78 157.457 2112.36 157.152 Q2112.97 156.825 2112.97 155.279 L2112.97 144.106 Q2112.97 141.67 2112.22 140.241 Q2111.47 138.789 2109.41 138.789 Q2106.93 138.789 2104.94 140.874 Q2102.95 142.958 2102.95 146.472 L2102.95 155.279 Q2102.95 156.825 2103.53 157.152 Q2104.14 157.457 2106.67 157.457 L2106.67 158.933 Q2101.77 158.792 2101.31 158.792 Q2100.93 158.792 2095.9 158.933 Z" fill="#000000" fill-rule="nonzero" fill-opacity="1" /><path clip-path="url(#clip690)" d="M2127.94 146.94 Q2127.94 138.836 2130.97 132.301 Q2132.25 129.561 2134.06 127.265 Q2135.86 124.97 2137.06 123.963 Q2138.25 122.956 2138.58 122.956 Q2139.05 122.956 2139.07 123.424 Q2139.07 123.658 2138.44 124.244 Q2130.71 132.114 2130.73 146.94 Q2130.73 161.814 2138.25 169.379 Q2139.07 170.199 2139.07 170.456 Q2139.07 170.925 2138.58 170.925 Q2138.25 170.925 2137.1 169.965 Q2135.96 169.004 2134.18 166.802 Q2132.39 164.601 2131.11 161.907 Q2127.94 155.372 2127.94 146.94 Z" fill="#000000" fill-rule="nonzero" fill-opacity="1" /><path clip-path="url(#clip690)" d="M2166.6 140.897 Q2166.6 142.209 2165.78 142.958 Q2164.96 143.685 2164.03 143.685 Q2163.14 143.685 2162.67 143.169 Q2162.2 142.654 2162.2 141.998 Q2162.2 141.108 2162.86 140.335 Q2163.51 139.562 2164.5 139.398 Q2163.53 138.789 2162.11 138.789 Q2161.17 138.789 2160.35 139.281 Q2159.55 139.773 2159.06 140.405 Q2158.59 141.038 2158.17 141.951 Q2157.77 142.841 2157.61 143.38 Q2157.47 143.895 2157.35 144.457 L2155.71 151.016 Q2154.92 154.131 2154.92 155.232 Q2154.92 156.59 2155.57 157.504 Q2156.23 158.394 2157.54 158.394 Q2158.05 158.394 2158.64 158.253 Q2159.23 158.089 2159.97 157.668 Q2160.75 157.223 2161.43 156.567 Q2162.13 155.888 2162.81 154.74 Q2163.49 153.592 2163.93 152.117 Q2164.07 151.601 2164.54 151.601 Q2165.13 151.601 2165.13 152.07 Q2165.13 152.468 2164.8 153.311 Q2164.5 154.131 2163.82 155.208 Q2163.16 156.262 2162.29 157.223 Q2161.43 158.16 2160.14 158.815 Q2158.85 159.471 2157.44 159.471 Q2155.43 159.471 2154.1 158.394 Q2152.76 157.316 2152.27 155.817 Q2152.15 156.028 2151.99 156.309 Q2151.82 156.59 2151.33 157.223 Q2150.86 157.832 2150.32 158.3 Q2149.79 158.745 2148.94 159.097 Q2148.12 159.471 2147.23 159.471 Q2146.11 159.471 2145.1 159.143 Q2144.12 158.815 2143.41 158.066 Q2142.71 157.316 2142.71 156.286 Q2142.71 155.138 2143.49 154.342 Q2144.28 153.522 2145.36 153.522 Q2146.04 153.522 2146.58 153.92 Q2147.14 154.318 2147.14 155.185 Q2147.14 156.145 2146.48 156.871 Q2145.83 157.597 2144.89 157.785 Q2145.85 158.394 2147.28 158.394 Q2148.83 158.394 2150.04 157.035 Q2151.26 155.677 2151.85 153.405 Q2153.3 147.947 2153.86 145.511 Q2154.42 143.052 2154.42 141.998 Q2154.42 141.014 2154.17 140.335 Q2153.91 139.656 2153.46 139.351 Q2153.04 139.023 2152.64 138.906 Q2152.27 138.789 2151.85 138.789 Q2151.14 138.789 2150.35 139.07 Q2149.57 139.351 2148.64 140.007 Q2147.72 140.64 2146.86 141.951 Q2145.99 143.263 2145.41 145.066 Q2145.29 145.605 2144.77 145.605 Q2144.21 145.582 2144.21 145.113 Q2144.21 144.715 2144.52 143.895 Q2144.84 143.052 2145.5 141.998 Q2146.18 140.944 2147.05 140.007 Q2147.94 139.047 2149.22 138.391 Q2150.54 137.735 2151.94 137.735 Q2152.57 137.735 2153.18 137.876 Q2153.81 137.993 2154.56 138.344 Q2155.34 138.696 2156.02 139.469 Q2156.7 140.241 2157.12 141.366 Q2157.4 140.827 2157.77 140.312 Q2158.17 139.796 2158.78 139.164 Q2159.41 138.508 2160.28 138.133 Q2161.17 137.735 2162.15 137.735 Q2163.11 137.735 2164.05 137.993 Q2164.99 138.227 2165.78 139 Q2166.6 139.75 2166.6 140.897 Z" fill="#000000" fill-rule="nonzero" fill-opacity="1" /><path clip-path="url(#clip690)" d="M2171.22 170.456 Q2171.22 170.222 2171.82 169.637 Q2179.55 161.767 2179.55 146.94 Q2179.55 132.067 2172.13 124.548 Q2171.22 123.682 2171.22 123.424 Q2171.22 122.956 2171.68 122.956 Q2172.01 122.956 2173.16 123.916 Q2174.33 124.876 2176.09 127.078 Q2177.87 129.28 2179.18 131.973 Q2182.34 138.508 2182.34 146.94 Q2182.34 155.044 2179.32 161.579 Q2178.03 164.32 2176.23 166.615 Q2174.42 168.911 2173.23 169.918 Q2172.04 170.925 2171.68 170.925 Q2171.22 170.925 2171.22 170.456 Z" fill="#000000" fill-rule="nonzero" fill-opacity="1" /><path clip-path="url(#clip690)" d="M2192.32 169.449 L2192.32 124.783 Q2192.32 123.003 2193.28 123.003 Q2194.24 123.003 2194.24 124.431 L2194.24 169.098 Q2194.24 170.878 2193.28 170.878 Q2192.32 170.878 2192.32 169.449 Z" fill="#000000" fill-rule="nonzero" fill-opacity="1" /><circle clip-path="url(#clip690)" cx="1943.03" cy="198.898" r="20.48" fill="#e26f46" fill-rule="evenodd" fill-opacity="1" stroke="#000000" stroke-opacity="1" stroke-width="4.55111"/>
<path clip-path="url(#clip690)" d="M2039.32 197.937 Q2039.32 189.832 2042.34 183.297 Q2043.63 180.557 2045.43 178.262 Q2047.24 175.966 2048.43 174.959 Q2049.63 173.952 2049.95 173.952 Q2050.42 173.952 2050.45 174.42 Q2050.45 174.655 2049.81 175.24 Q2042.08 183.11 2042.11 197.937 Q2042.11 212.81 2049.63 220.375 Q2050.45 221.195 2050.45 221.453 Q2050.45 221.921 2049.95 221.921 Q2049.63 221.921 2048.48 220.961 Q2047.33 220 2045.55 217.799 Q2043.77 215.597 2042.48 212.903 Q2039.32 206.369 2039.32 197.937 Z" fill="#000000" fill-rule="nonzero" fill-opacity="1" /><path clip-path="url(#clip690)" d="M2057.74 181.367 L2084.9 181.367 L2084.9 178.807 L2057.74 178.807  Z" fill="#000000" fill-rule="evenodd" fill-opacity="1"/>
<path clip-path="url(#clip690)" d="M2081.63 192.316 Q2081.63 193.628 2080.81 194.377 Q2079.99 195.103 2079.05 195.103 Q2078.16 195.103 2077.69 194.588 Q2077.22 194.073 2077.22 193.417 Q2077.22 192.527 2077.88 191.754 Q2078.54 190.981 2079.52 190.817 Q2078.56 190.208 2077.13 190.208 Q2076.19 190.208 2075.37 190.7 Q2074.58 191.192 2074.09 191.824 Q2073.62 192.456 2073.2 193.37 Q2072.8 194.26 2072.63 194.799 Q2072.49 195.314 2072.38 195.876 L2070.74 202.434 Q2069.94 205.55 2069.94 206.65 Q2069.94 208.009 2070.6 208.922 Q2071.25 209.812 2072.56 209.812 Q2073.08 209.812 2073.66 209.672 Q2074.25 209.508 2075 209.086 Q2075.77 208.641 2076.45 207.986 Q2077.15 207.306 2077.83 206.159 Q2078.51 205.011 2078.96 203.535 Q2079.1 203.02 2079.57 203.02 Q2080.15 203.02 2080.15 203.488 Q2080.15 203.887 2079.82 204.73 Q2079.52 205.55 2078.84 206.627 Q2078.18 207.681 2077.32 208.641 Q2076.45 209.578 2075.16 210.234 Q2073.87 210.89 2072.47 210.89 Q2070.45 210.89 2069.12 209.812 Q2067.78 208.735 2067.29 207.236 Q2067.18 207.447 2067.01 207.728 Q2066.85 208.009 2066.36 208.641 Q2065.89 209.25 2065.35 209.719 Q2064.81 210.164 2063.97 210.515 Q2063.15 210.89 2062.26 210.89 Q2061.13 210.89 2060.13 210.562 Q2059.14 210.234 2058.44 209.485 Q2057.74 208.735 2057.74 207.704 Q2057.74 206.557 2058.51 205.76 Q2059.31 204.941 2060.38 204.941 Q2061.06 204.941 2061.6 205.339 Q2062.16 205.737 2062.16 206.604 Q2062.16 207.564 2061.51 208.29 Q2060.85 209.016 2059.91 209.204 Q2060.88 209.812 2062.3 209.812 Q2063.85 209.812 2065.07 208.454 Q2066.29 207.095 2066.87 204.824 Q2068.32 199.366 2068.89 196.93 Q2069.45 194.471 2069.45 193.417 Q2069.45 192.433 2069.19 191.754 Q2068.93 191.075 2068.49 190.77 Q2068.07 190.442 2067.67 190.325 Q2067.29 190.208 2066.87 190.208 Q2066.17 190.208 2065.37 190.489 Q2064.6 190.77 2063.66 191.426 Q2062.75 192.058 2061.88 193.37 Q2061.02 194.682 2060.43 196.485 Q2060.31 197.024 2059.8 197.024 Q2059.24 197 2059.24 196.532 Q2059.24 196.134 2059.54 195.314 Q2059.87 194.471 2060.52 193.417 Q2061.2 192.363 2062.07 191.426 Q2062.96 190.466 2064.25 189.81 Q2065.56 189.154 2066.96 189.154 Q2067.6 189.154 2068.21 189.294 Q2068.84 189.412 2069.59 189.763 Q2070.36 190.114 2071.04 190.887 Q2071.72 191.66 2072.14 192.784 Q2072.42 192.246 2072.8 191.73 Q2073.2 191.215 2073.8 190.583 Q2074.44 189.927 2075.3 189.552 Q2076.19 189.154 2077.18 189.154 Q2078.14 189.154 2079.07 189.412 Q2080.01 189.646 2080.81 190.419 Q2081.63 191.168 2081.63 192.316 Z" fill="#000000" fill-rule="nonzero" fill-opacity="1" /><path clip-path="url(#clip690)" d="M2098.59 202.133 Q2098.59 202.854 2098 203.395 Q2097.43 203.92 2096.8 203.92 Q2096.23 203.92 2095.87 203.576 Q2095.52 203.215 2095.52 202.707 Q2095.52 202.035 2096.1 201.477 Q2096.67 200.92 2097.34 200.92 Q2097.9 200.92 2098.25 201.264 Q2098.59 201.608 2098.59 202.133 M2098.89 218.315 Q2098.89 218.447 2098.74 218.971 Q2098.59 219.48 2098.23 220.267 Q2097.89 221.037 2097.41 221.759 Q2096.93 222.48 2096.15 222.988 Q2095.38 223.497 2094.49 223.497 Q2093.3 223.497 2092.51 222.71 Q2091.74 221.923 2091.74 220.742 Q2091.74 220.103 2092.51 218.053 Q2094.74 212.085 2094.82 211.839 Q2095.2 210.905 2095.2 210.085 Q2095.2 209.708 2095.11 209.478 Q2095.03 209.232 2094.87 209.15 Q2094.71 209.052 2094.61 209.036 Q2094.52 209.019 2094.36 209.019 Q2093.39 209.019 2092.49 210.003 Q2091.59 210.987 2090.97 213.184 Q2090.84 213.594 2090.75 213.692 Q2090.67 213.79 2090.43 213.79 Q2090.02 213.774 2090.02 213.446 Q2090.02 213.348 2090.13 212.97 Q2090.25 212.577 2090.46 211.987 Q2090.67 211.38 2091.05 210.757 Q2091.43 210.118 2091.89 209.56 Q2092.36 209.003 2093.03 208.642 Q2093.7 208.281 2094.46 208.281 Q2095.69 208.281 2096.44 209.085 Q2097.21 209.872 2097.21 211.036 Q2097.21 211.675 2096.77 212.807 Q2096.23 214.282 2096.03 214.758 L2094.72 218.283 Q2094.25 219.562 2094.1 219.955 Q2093.97 220.332 2093.85 220.791 Q2093.75 221.234 2093.75 221.644 Q2093.75 222.218 2093.93 222.48 Q2094.13 222.742 2094.56 222.742 Q2095.74 222.742 2096.61 221.578 Q2097.48 220.398 2097.98 218.594 Q2098 218.545 2098.02 218.463 Q2098.15 218.053 2098.28 218.004 Q2098.34 217.988 2098.48 217.988 Q2098.89 217.988 2098.89 218.315 Z" fill="#000000" fill-rule="nonzero" fill-opacity="1" /><path clip-path="url(#clip690)" d="M2104.6 209.156 Q2103.92 208.383 2103.92 207.376 Q2103.92 206.369 2104.57 205.619 Q2105.25 204.846 2106.47 204.846 Q2107.9 204.846 2108.72 206.228 Q2109.54 207.587 2109.54 209.882 Q2109.54 212.365 2108.53 214.66 Q2107.53 216.979 2106.54 218.08 Q2105.56 219.181 2105.16 219.181 Q2104.69 219.181 2104.69 218.665 Q2104.69 218.478 2105.02 218.127 Q2108.46 214.426 2108.49 209.882 Q2108.49 209.156 2108.39 209.156 L2108.28 209.25 Q2107.46 209.929 2106.47 209.929 Q2105.28 209.929 2104.6 209.156 Z" fill="#000000" fill-rule="nonzero" fill-opacity="1" /><path clip-path="url(#clip690)" d="M2148.59 179.409 Q2148.59 180.698 2147.77 181.494 Q2146.97 182.29 2145.96 182.29 Q2145.24 182.29 2144.7 181.845 Q2144.18 181.4 2144.18 180.627 Q2144.18 179.831 2144.79 178.988 Q2145.4 178.145 2146.78 178.027 Q2145.87 177.161 2144.42 177.161 Q2143.69 177.161 2143.08 177.629 Q2142.5 178.074 2142.17 178.8 Q2141.82 179.55 2141.02 183.789 Q2140.76 185.171 2140.53 186.506 Q2140.29 187.841 2140.01 189.247 L2144 189.247 Q2144.51 189.247 2144.72 189.27 Q2144.93 189.294 2145.1 189.411 Q2145.28 189.528 2145.28 189.786 Q2145.28 190.441 2144.98 190.605 Q2144.7 190.746 2143.86 190.746 L2139.73 190.746 L2136.85 205.947 Q2136.78 206.392 2136.48 207.797 Q2136.2 209.179 2135.52 211.451 Q2134.84 213.747 2134.16 215.105 Q2133.78 215.878 2133.29 216.604 Q2132.82 217.354 2132.14 218.103 Q2131.46 218.853 2130.57 219.298 Q2129.68 219.766 2128.75 219.766 Q2127.15 219.766 2125.91 218.876 Q2124.67 217.986 2124.67 216.464 Q2124.67 215.175 2125.47 214.379 Q2126.29 213.583 2127.3 213.583 Q2128.02 213.583 2128.54 214.028 Q2129.08 214.473 2129.08 215.246 Q2129.08 215.574 2128.96 215.948 Q2128.84 216.323 2128.58 216.745 Q2128.33 217.19 2127.76 217.494 Q2127.2 217.799 2126.43 217.846 Q2127.34 218.712 2128.75 218.712 Q2129.19 218.712 2129.59 218.525 Q2129.99 218.361 2130.32 217.939 Q2130.67 217.518 2130.93 217.096 Q2131.18 216.698 2131.44 215.925 Q2131.7 215.175 2131.86 214.613 Q2132.03 214.051 2132.24 213.044 Q2132.47 212.037 2132.59 211.428 Q2132.71 210.842 2132.92 209.695 L2136.5 190.746 L2133.34 190.746 Q2132.78 190.746 2132.54 190.722 Q2132.33 190.699 2132.17 190.582 Q2132 190.441 2132 190.16 Q2132 189.715 2132.19 189.528 Q2132.4 189.317 2132.64 189.294 Q2132.87 189.247 2133.43 189.247 L2136.76 189.247 Q2137.88 183.321 2138.33 181.728 Q2138.84 180.042 2139.64 178.871 Q2140.44 177.676 2141.33 177.114 Q2142.22 176.552 2142.94 176.341 Q2143.69 176.107 2144.42 176.107 Q2146.06 176.107 2147.32 176.997 Q2148.59 177.863 2148.59 179.409 Z" fill="#000000" fill-rule="nonzero" fill-opacity="1" /><path clip-path="url(#clip690)" d="M2155.04 197.937 Q2155.04 189.832 2158.06 183.297 Q2159.35 180.557 2161.15 178.262 Q2162.96 175.966 2164.15 174.959 Q2165.34 173.952 2165.67 173.952 Q2166.14 173.952 2166.16 174.42 Q2166.16 174.655 2165.53 175.24 Q2157.8 183.11 2157.83 197.937 Q2157.83 212.81 2165.34 220.375 Q2166.16 221.195 2166.16 221.453 Q2166.16 221.921 2165.67 221.921 Q2165.34 221.921 2164.2 220.961 Q2163.05 220 2161.27 217.799 Q2159.49 215.597 2158.2 212.903 Q2155.04 206.369 2155.04 197.937 Z" fill="#000000" fill-rule="nonzero" fill-opacity="1" /><path clip-path="url(#clip690)" d="M2173.45 181.367 L2200.61 181.367 L2200.61 178.807 L2173.45 178.807  Z" fill="#000000" fill-rule="evenodd" fill-opacity="1"/>
<path clip-path="url(#clip690)" d="M2197.35 192.316 Q2197.35 193.628 2196.53 194.377 Q2195.71 195.103 2194.77 195.103 Q2193.88 195.103 2193.41 194.588 Q2192.94 194.073 2192.94 193.417 Q2192.94 192.527 2193.6 191.754 Q2194.25 190.981 2195.24 190.817 Q2194.28 190.208 2192.85 190.208 Q2191.91 190.208 2191.09 190.7 Q2190.3 191.192 2189.8 191.824 Q2189.33 192.456 2188.91 193.37 Q2188.52 194.26 2188.35 194.799 Q2188.21 195.314 2188.09 195.876 L2186.45 202.434 Q2185.66 205.55 2185.66 206.65 Q2185.66 208.009 2186.31 208.922 Q2186.97 209.812 2188.28 209.812 Q2188.8 209.812 2189.38 209.672 Q2189.97 209.508 2190.72 209.086 Q2191.49 208.641 2192.17 207.986 Q2192.87 207.306 2193.55 206.159 Q2194.23 205.011 2194.68 203.535 Q2194.82 203.02 2195.28 203.02 Q2195.87 203.02 2195.87 203.488 Q2195.87 203.887 2195.54 204.73 Q2195.24 205.55 2194.56 206.627 Q2193.9 207.681 2193.04 208.641 Q2192.17 209.578 2190.88 210.234 Q2189.59 210.89 2188.19 210.89 Q2186.17 210.89 2184.84 209.812 Q2183.5 208.735 2183.01 207.236 Q2182.89 207.447 2182.73 207.728 Q2182.57 208.009 2182.07 208.641 Q2181.61 209.25 2181.07 209.719 Q2180.53 210.164 2179.68 210.515 Q2178.87 210.89 2177.98 210.89 Q2176.85 210.89 2175.84 210.562 Q2174.86 210.234 2174.16 209.485 Q2173.45 208.735 2173.45 207.704 Q2173.45 206.557 2174.23 205.76 Q2175.02 204.941 2176.1 204.941 Q2176.78 204.941 2177.32 205.339 Q2177.88 205.737 2177.88 206.604 Q2177.88 207.564 2177.23 208.29 Q2176.57 209.016 2175.63 209.204 Q2176.59 209.812 2178.02 209.812 Q2179.57 209.812 2180.79 208.454 Q2182 207.095 2182.59 204.824 Q2184.04 199.366 2184.6 196.93 Q2185.17 194.471 2185.17 193.417 Q2185.17 192.433 2184.91 191.754 Q2184.65 191.075 2184.21 190.77 Q2183.78 190.442 2183.39 190.325 Q2183.01 190.208 2182.59 190.208 Q2181.89 190.208 2181.09 190.489 Q2180.32 190.77 2179.38 191.426 Q2178.47 192.058 2177.6 193.37 Q2176.73 194.682 2176.15 196.485 Q2176.03 197.024 2175.52 197.024 Q2174.95 197 2174.95 196.532 Q2174.95 196.134 2175.26 195.314 Q2175.59 194.471 2176.24 193.417 Q2176.92 192.363 2177.79 191.426 Q2178.68 190.466 2179.97 189.81 Q2181.28 189.154 2182.68 189.154 Q2183.32 189.154 2183.92 189.294 Q2184.56 189.412 2185.31 189.763 Q2186.08 190.114 2186.76 190.887 Q2187.44 191.66 2187.86 192.784 Q2188.14 192.246 2188.52 191.73 Q2188.91 191.215 2189.52 190.583 Q2190.15 189.927 2191.02 189.552 Q2191.91 189.154 2192.9 189.154 Q2193.86 189.154 2194.79 189.412 Q2195.73 189.646 2196.53 190.419 Q2197.35 191.168 2197.35 192.316 Z" fill="#000000" fill-rule="nonzero" fill-opacity="1" /><path clip-path="url(#clip690)" d="M2214.31 202.133 Q2214.31 202.854 2213.72 203.395 Q2213.14 203.92 2212.52 203.92 Q2211.95 203.92 2211.59 203.576 Q2211.24 203.215 2211.24 202.707 Q2211.24 202.035 2211.82 201.477 Q2212.39 200.92 2213.06 200.92 Q2213.62 200.92 2213.96 201.264 Q2214.31 201.608 2214.31 202.133 M2214.6 218.315 Q2214.6 218.447 2214.46 218.971 Q2214.31 219.48 2213.95 220.267 Q2213.6 221.037 2213.13 221.759 Q2212.65 222.48 2211.87 222.988 Q2211.1 223.497 2210.21 223.497 Q2209.01 223.497 2208.23 222.71 Q2207.46 221.923 2207.46 220.742 Q2207.46 220.103 2208.23 218.053 Q2210.46 212.085 2210.54 211.839 Q2210.91 210.905 2210.91 210.085 Q2210.91 209.708 2210.83 209.478 Q2210.75 209.232 2210.59 209.15 Q2210.42 209.052 2210.32 209.036 Q2210.24 209.019 2210.08 209.019 Q2209.11 209.019 2208.21 210.003 Q2207.31 210.987 2206.68 213.184 Q2206.55 213.594 2206.47 213.692 Q2206.39 213.79 2206.14 213.79 Q2205.73 213.774 2205.73 213.446 Q2205.73 213.348 2205.85 212.97 Q2205.96 212.577 2206.18 211.987 Q2206.39 211.38 2206.77 210.757 Q2207.14 210.118 2207.6 209.56 Q2208.08 209.003 2208.75 208.642 Q2209.42 208.281 2210.18 208.281 Q2211.41 208.281 2212.16 209.085 Q2212.93 209.872 2212.93 211.036 Q2212.93 211.675 2212.49 212.807 Q2211.95 214.282 2211.75 214.758 L2210.44 218.283 Q2209.96 219.562 2209.82 219.955 Q2209.69 220.332 2209.57 220.791 Q2209.47 221.234 2209.47 221.644 Q2209.47 222.218 2209.65 222.48 Q2209.85 222.742 2210.28 222.742 Q2211.46 222.742 2212.33 221.578 Q2213.19 220.398 2213.7 218.594 Q2213.72 218.545 2213.74 218.463 Q2213.87 218.053 2214 218.004 Q2214.06 217.988 2214.19 217.988 Q2214.6 217.988 2214.6 218.315 Z" fill="#000000" fill-rule="nonzero" fill-opacity="1" /><path clip-path="url(#clip690)" d="M2219.64 221.453 Q2219.64 221.218 2220.25 220.633 Q2227.98 212.763 2227.98 197.937 Q2227.98 183.063 2220.55 175.545 Q2219.64 174.678 2219.64 174.42 Q2219.64 173.952 2220.11 173.952 Q2220.43 173.952 2221.58 174.912 Q2222.75 175.873 2224.51 178.074 Q2226.29 180.276 2227.6 182.97 Q2230.76 189.504 2230.76 197.937 Q2230.76 206.041 2227.74 212.576 Q2226.45 215.316 2224.65 217.611 Q2222.85 219.907 2221.65 220.914 Q2220.46 221.921 2220.11 221.921 Q2219.64 221.921 2219.64 221.453 Z" fill="#000000" fill-rule="nonzero" fill-opacity="1" /><path clip-path="url(#clip690)" d="M2238.05 221.453 Q2238.05 221.218 2238.66 220.633 Q2246.39 212.763 2246.39 197.937 Q2246.39 183.063 2238.97 175.545 Q2238.05 174.678 2238.05 174.42 Q2238.05 173.952 2238.52 173.952 Q2238.85 173.952 2240 174.912 Q2241.17 175.873 2242.92 178.074 Q2244.7 180.276 2246.02 182.97 Q2249.18 189.504 2249.18 197.937 Q2249.18 206.041 2246.16 212.576 Q2244.87 215.316 2243.06 217.611 Q2241.26 219.907 2240.07 220.914 Q2238.87 221.921 2238.52 221.921 Q2238.05 221.921 2238.05 221.453 Z" fill="#000000" fill-rule="nonzero" fill-opacity="1" /></svg>
