<?xml version="1.0" encoding="utf-8"?>
<svg xmlns="http://www.w3.org/2000/svg" xmlns:xlink="http://www.w3.org/1999/xlink" width="600" height="400" viewBox="0 0 2400 1600">
<defs>
  <clipPath id="clip780">
    <rect x="0" y="0" width="2400" height="1600"/>
  </clipPath>
</defs>
<path clip-path="url(#clip780)" d="
M0 1600 L2400 1600 L2400 0 L0 0  Z
  " fill="#ffffff" fill-rule="evenodd" fill-opacity="1"/>
<defs>
  <clipPath id="clip781">
    <rect x="480" y="0" width="1681" height="1600"/>
  </clipPath>
</defs>
<defs>
  <clipPath id="clip782">
    <rect x="186" y="47" width="2167" height="1440"/>
  </clipPath>
</defs>
<path clip-path="url(#clip780)" d="
M186.274 1486.45 L2352.76 1486.45 L2352.76 47.2441 L186.274 47.2441  Z
  " fill="#ffffff" fill-rule="evenodd" fill-opacity="1"/>
<polyline clip-path="url(#clip782)" style="stroke:#000000; stroke-linecap:butt; stroke-linejoin:round; stroke-width:2; stroke-opacity:0.1; fill:none" points="
  247.59,1486.45 247.59,47.2441 
  "/>
<polyline clip-path="url(#clip782)" style="stroke:#000000; stroke-linecap:butt; stroke-linejoin:round; stroke-width:2; stroke-opacity:0.1; fill:none" points="
  573.063,1486.45 573.063,47.2441 
  "/>
<polyline clip-path="url(#clip782)" style="stroke:#000000; stroke-linecap:butt; stroke-linejoin:round; stroke-width:2; stroke-opacity:0.1; fill:none" points="
  898.536,1486.45 898.536,47.2441 
  "/>
<polyline clip-path="url(#clip782)" style="stroke:#000000; stroke-linecap:butt; stroke-linejoin:round; stroke-width:2; stroke-opacity:0.1; fill:none" points="
  1224.01,1486.45 1224.01,47.2441 
  "/>
<polyline clip-path="url(#clip782)" style="stroke:#000000; stroke-linecap:butt; stroke-linejoin:round; stroke-width:2; stroke-opacity:0.1; fill:none" points="
  1549.48,1486.45 1549.48,47.2441 
  "/>
<polyline clip-path="url(#clip782)" style="stroke:#000000; stroke-linecap:butt; stroke-linejoin:round; stroke-width:2; stroke-opacity:0.1; fill:none" points="
  1874.96,1486.45 1874.96,47.2441 
  "/>
<polyline clip-path="url(#clip782)" style="stroke:#000000; stroke-linecap:butt; stroke-linejoin:round; stroke-width:2; stroke-opacity:0.1; fill:none" points="
  2200.43,1486.45 2200.43,47.2441 
  "/>
<polyline clip-path="url(#clip780)" style="stroke:#000000; stroke-linecap:butt; stroke-linejoin:round; stroke-width:4; stroke-opacity:1; fill:none" points="
  186.274,1486.45 2352.76,1486.45 
  "/>
<polyline clip-path="url(#clip780)" style="stroke:#000000; stroke-linecap:butt; stroke-linejoin:round; stroke-width:4; stroke-opacity:1; fill:none" points="
  247.59,1486.45 247.59,1467.55 
  "/>
<polyline clip-path="url(#clip780)" style="stroke:#000000; stroke-linecap:butt; stroke-linejoin:round; stroke-width:4; stroke-opacity:1; fill:none" points="
  573.063,1486.45 573.063,1467.55 
  "/>
<polyline clip-path="url(#clip780)" style="stroke:#000000; stroke-linecap:butt; stroke-linejoin:round; stroke-width:4; stroke-opacity:1; fill:none" points="
  898.536,1486.45 898.536,1467.55 
  "/>
<polyline clip-path="url(#clip780)" style="stroke:#000000; stroke-linecap:butt; stroke-linejoin:round; stroke-width:4; stroke-opacity:1; fill:none" points="
  1224.01,1486.45 1224.01,1467.55 
  "/>
<polyline clip-path="url(#clip780)" style="stroke:#000000; stroke-linecap:butt; stroke-linejoin:round; stroke-width:4; stroke-opacity:1; fill:none" points="
  1549.48,1486.45 1549.48,1467.55 
  "/>
<polyline clip-path="url(#clip780)" style="stroke:#000000; stroke-linecap:butt; stroke-linejoin:round; stroke-width:4; stroke-opacity:1; fill:none" points="
  1874.96,1486.45 1874.96,1467.55 
  "/>
<polyline clip-path="url(#clip780)" style="stroke:#000000; stroke-linecap:butt; stroke-linejoin:round; stroke-width:4; stroke-opacity:1; fill:none" points="
  2200.43,1486.45 2200.43,1467.55 
  "/>
<path clip-path="url(#clip780)" d="M247.59 1517.37 Q243.978 1517.37 242.15 1520.93 Q240.344 1524.47 240.344 1531.6 Q240.344 1538.71 242.15 1542.27 Q243.978 1545.82 247.59 1545.82 Q251.224 1545.82 253.029 1542.27 Q254.858 1538.71 254.858 1531.6 Q254.858 1524.47 253.029 1520.93 Q251.224 1517.37 247.59 1517.37 M247.59 1513.66 Q253.4 1513.66 256.455 1518.27 Q259.534 1522.85 259.534 1531.6 Q259.534 1540.33 256.455 1544.94 Q253.4 1549.52 247.59 1549.52 Q241.779 1549.52 238.701 1544.94 Q235.645 1540.33 235.645 1531.6 Q235.645 1522.85 238.701 1518.27 Q241.779 1513.66 247.59 1513.66 Z" fill="#000000" fill-rule="evenodd" fill-opacity="1" /><path clip-path="url(#clip780)" d="M563.445 1544.91 L571.084 1544.91 L571.084 1518.55 L562.774 1520.21 L562.774 1515.95 L571.038 1514.29 L575.713 1514.29 L575.713 1544.91 L583.352 1544.91 L583.352 1548.85 L563.445 1548.85 L563.445 1544.91 Z" fill="#000000" fill-rule="evenodd" fill-opacity="1" /><path clip-path="url(#clip780)" d="M893.189 1544.91 L909.509 1544.91 L909.509 1548.85 L887.564 1548.85 L887.564 1544.91 Q890.226 1542.16 894.81 1537.53 Q899.416 1532.88 900.597 1531.53 Q902.842 1529.01 903.722 1527.27 Q904.624 1525.51 904.624 1523.82 Q904.624 1521.07 902.68 1519.33 Q900.759 1517.6 897.657 1517.6 Q895.458 1517.6 893.004 1518.36 Q890.573 1519.13 887.796 1520.68 L887.796 1515.95 Q890.62 1514.82 893.073 1514.24 Q895.527 1513.66 897.564 1513.66 Q902.935 1513.66 906.129 1516.35 Q909.323 1519.03 909.323 1523.52 Q909.323 1525.65 908.513 1527.57 Q907.726 1529.47 905.62 1532.07 Q905.041 1532.74 901.939 1535.95 Q898.837 1539.15 893.189 1544.91 Z" fill="#000000" fill-rule="evenodd" fill-opacity="1" /><path clip-path="url(#clip780)" d="M1228.26 1530.21 Q1231.61 1530.93 1233.49 1533.2 Q1235.39 1535.47 1235.39 1538.8 Q1235.39 1543.92 1231.87 1546.72 Q1228.35 1549.52 1221.87 1549.52 Q1219.69 1549.52 1217.38 1549.08 Q1215.09 1548.66 1212.63 1547.81 L1212.63 1543.29 Q1214.58 1544.43 1216.89 1545.01 Q1219.21 1545.58 1221.73 1545.58 Q1226.13 1545.58 1228.42 1543.85 Q1230.73 1542.11 1230.73 1538.8 Q1230.73 1535.75 1228.58 1534.03 Q1226.45 1532.3 1222.63 1532.3 L1218.6 1532.3 L1218.6 1528.45 L1222.82 1528.45 Q1226.27 1528.45 1228.1 1527.09 Q1229.92 1525.7 1229.92 1523.11 Q1229.92 1520.45 1228.03 1519.03 Q1226.15 1517.6 1222.63 1517.6 Q1220.71 1517.6 1218.51 1518.01 Q1216.31 1518.43 1213.67 1519.31 L1213.67 1515.14 Q1216.34 1514.4 1218.65 1514.03 Q1220.99 1513.66 1223.05 1513.66 Q1228.37 1513.66 1231.48 1516.09 Q1234.58 1518.5 1234.58 1522.62 Q1234.58 1525.49 1232.93 1527.48 Q1231.29 1529.45 1228.26 1530.21 Z" fill="#000000" fill-rule="evenodd" fill-opacity="1" /><path clip-path="url(#clip780)" d="M1552.49 1518.36 L1540.69 1536.81 L1552.49 1536.81 L1552.49 1518.36 M1551.27 1514.29 L1557.15 1514.29 L1557.15 1536.81 L1562.08 1536.81 L1562.08 1540.7 L1557.15 1540.7 L1557.15 1548.85 L1552.49 1548.85 L1552.49 1540.7 L1536.89 1540.7 L1536.89 1536.19 L1551.27 1514.29 Z" fill="#000000" fill-rule="evenodd" fill-opacity="1" /><path clip-path="url(#clip780)" d="M1865.23 1514.29 L1883.59 1514.29 L1883.59 1518.22 L1869.52 1518.22 L1869.52 1526.7 Q1870.54 1526.35 1871.55 1526.19 Q1872.57 1526 1873.59 1526 Q1879.38 1526 1882.76 1529.17 Q1886.14 1532.34 1886.14 1537.76 Q1886.14 1543.34 1882.67 1546.44 Q1879.19 1549.52 1872.87 1549.52 Q1870.7 1549.52 1868.43 1549.15 Q1866.18 1548.78 1863.78 1548.04 L1863.78 1543.34 Q1865.86 1544.47 1868.08 1545.03 Q1870.3 1545.58 1872.78 1545.58 Q1876.79 1545.58 1879.12 1543.48 Q1881.46 1541.37 1881.46 1537.76 Q1881.46 1534.15 1879.12 1532.04 Q1876.79 1529.94 1872.78 1529.94 Q1870.91 1529.94 1869.03 1530.35 Q1867.18 1530.77 1865.23 1531.65 L1865.23 1514.29 Z" fill="#000000" fill-rule="evenodd" fill-opacity="1" /><path clip-path="url(#clip780)" d="M2200.84 1529.7 Q2197.69 1529.7 2195.84 1531.86 Q2194.01 1534.01 2194.01 1537.76 Q2194.01 1541.49 2195.84 1543.66 Q2197.69 1545.82 2200.84 1545.82 Q2203.98 1545.82 2205.81 1543.66 Q2207.66 1541.49 2207.66 1537.76 Q2207.66 1534.01 2205.81 1531.86 Q2203.98 1529.7 2200.84 1529.7 M2210.12 1515.05 L2210.12 1519.31 Q2208.36 1518.48 2206.55 1518.04 Q2204.77 1517.6 2203.01 1517.6 Q2198.38 1517.6 2195.93 1520.72 Q2193.5 1523.85 2193.15 1530.17 Q2194.52 1528.15 2196.58 1527.09 Q2198.64 1526 2201.11 1526 Q2206.32 1526 2209.33 1529.17 Q2212.36 1532.32 2212.36 1537.76 Q2212.36 1543.08 2209.21 1546.3 Q2206.07 1549.52 2200.84 1549.52 Q2194.84 1549.52 2191.67 1544.94 Q2188.5 1540.33 2188.5 1531.6 Q2188.5 1523.41 2192.39 1518.55 Q2196.28 1513.66 2202.83 1513.66 Q2204.59 1513.66 2206.37 1514.01 Q2208.17 1514.36 2210.12 1515.05 Z" fill="#000000" fill-rule="evenodd" fill-opacity="1" /><polyline clip-path="url(#clip782)" style="stroke:#000000; stroke-linecap:butt; stroke-linejoin:round; stroke-width:2; stroke-opacity:0.1; fill:none" points="
  186.274,1375.74 2352.76,1375.74 
  "/>
<polyline clip-path="url(#clip782)" style="stroke:#000000; stroke-linecap:butt; stroke-linejoin:round; stroke-width:2; stroke-opacity:0.1; fill:none" points="
  186.274,1098.97 2352.76,1098.97 
  "/>
<polyline clip-path="url(#clip782)" style="stroke:#000000; stroke-linecap:butt; stroke-linejoin:round; stroke-width:2; stroke-opacity:0.1; fill:none" points="
  186.274,822.2 2352.76,822.2 
  "/>
<polyline clip-path="url(#clip782)" style="stroke:#000000; stroke-linecap:butt; stroke-linejoin:round; stroke-width:2; stroke-opacity:0.1; fill:none" points="
  186.274,545.43 2352.76,545.43 
  "/>
<polyline clip-path="url(#clip782)" style="stroke:#000000; stroke-linecap:butt; stroke-linejoin:round; stroke-width:2; stroke-opacity:0.1; fill:none" points="
  186.274,268.66 2352.76,268.66 
  "/>
<polyline clip-path="url(#clip780)" style="stroke:#000000; stroke-linecap:butt; stroke-linejoin:round; stroke-width:4; stroke-opacity:1; fill:none" points="
  186.274,1486.45 186.274,47.2441 
  "/>
<polyline clip-path="url(#clip780)" style="stroke:#000000; stroke-linecap:butt; stroke-linejoin:round; stroke-width:4; stroke-opacity:1; fill:none" points="
  186.274,1375.74 205.172,1375.74 
  "/>
<polyline clip-path="url(#clip780)" style="stroke:#000000; stroke-linecap:butt; stroke-linejoin:round; stroke-width:4; stroke-opacity:1; fill:none" points="
  186.274,1098.97 205.172,1098.97 
  "/>
<polyline clip-path="url(#clip780)" style="stroke:#000000; stroke-linecap:butt; stroke-linejoin:round; stroke-width:4; stroke-opacity:1; fill:none" points="
  186.274,822.2 205.172,822.2 
  "/>
<polyline clip-path="url(#clip780)" style="stroke:#000000; stroke-linecap:butt; stroke-linejoin:round; stroke-width:4; stroke-opacity:1; fill:none" points="
  186.274,545.43 205.172,545.43 
  "/>
<polyline clip-path="url(#clip780)" style="stroke:#000000; stroke-linecap:butt; stroke-linejoin:round; stroke-width:4; stroke-opacity:1; fill:none" points="
  186.274,268.66 205.172,268.66 
  "/>
<path clip-path="url(#clip780)" d="M62.9365 1361.54 Q59.3254 1361.54 57.4967 1365.1 Q55.6912 1368.65 55.6912 1375.77 Q55.6912 1382.88 57.4967 1386.45 Q59.3254 1389.99 62.9365 1389.99 Q66.5707 1389.99 68.3763 1386.45 Q70.205 1382.88 70.205 1375.77 Q70.205 1368.65 68.3763 1365.1 Q66.5707 1361.54 62.9365 1361.54 M62.9365 1357.83 Q68.7467 1357.83 71.8022 1362.44 Q74.8809 1367.02 74.8809 1375.77 Q74.8809 1384.5 71.8022 1389.11 Q68.7467 1393.69 62.9365 1393.69 Q57.1264 1393.69 54.0477 1389.11 Q50.9921 1384.5 50.9921 1375.77 Q50.9921 1367.02 54.0477 1362.44 Q57.1264 1357.83 62.9365 1357.83 Z" fill="#000000" fill-rule="evenodd" fill-opacity="1" /><path clip-path="url(#clip780)" d="M83.0984 1387.14 L87.9827 1387.14 L87.9827 1393.02 L83.0984 1393.02 L83.0984 1387.14 Z" fill="#000000" fill-rule="evenodd" fill-opacity="1" /><path clip-path="url(#clip780)" d="M108.168 1361.54 Q104.557 1361.54 102.728 1365.1 Q100.922 1368.65 100.922 1375.77 Q100.922 1382.88 102.728 1386.45 Q104.557 1389.99 108.168 1389.99 Q111.802 1389.99 113.608 1386.45 Q115.436 1382.88 115.436 1375.77 Q115.436 1368.65 113.608 1365.1 Q111.802 1361.54 108.168 1361.54 M108.168 1357.83 Q113.978 1357.83 117.033 1362.44 Q120.112 1367.02 120.112 1375.77 Q120.112 1384.5 117.033 1389.11 Q113.978 1393.69 108.168 1393.69 Q102.358 1393.69 99.2789 1389.11 Q96.2234 1384.5 96.2234 1375.77 Q96.2234 1367.02 99.2789 1362.44 Q102.358 1357.83 108.168 1357.83 Z" fill="#000000" fill-rule="evenodd" fill-opacity="1" /><path clip-path="url(#clip780)" d="M138.33 1361.54 Q134.719 1361.54 132.89 1365.1 Q131.084 1368.65 131.084 1375.77 Q131.084 1382.88 132.89 1386.45 Q134.719 1389.99 138.33 1389.99 Q141.964 1389.99 143.769 1386.45 Q145.598 1382.88 145.598 1375.77 Q145.598 1368.65 143.769 1365.1 Q141.964 1361.54 138.33 1361.54 M138.33 1357.83 Q144.14 1357.83 147.195 1362.44 Q150.274 1367.02 150.274 1375.77 Q150.274 1384.5 147.195 1389.11 Q144.14 1393.69 138.33 1393.69 Q132.519 1393.69 129.441 1389.11 Q126.385 1384.5 126.385 1375.77 Q126.385 1367.02 129.441 1362.44 Q132.519 1357.83 138.33 1357.83 Z" fill="#000000" fill-rule="evenodd" fill-opacity="1" /><path clip-path="url(#clip780)" d="M63.9319 1084.77 Q60.3208 1084.77 58.4921 1088.33 Q56.6865 1091.88 56.6865 1099 Q56.6865 1106.11 58.4921 1109.68 Q60.3208 1113.22 63.9319 1113.22 Q67.5661 1113.22 69.3717 1109.68 Q71.2004 1106.11 71.2004 1099 Q71.2004 1091.88 69.3717 1088.33 Q67.5661 1084.77 63.9319 1084.77 M63.9319 1081.06 Q69.742 1081.06 72.7976 1085.67 Q75.8763 1090.25 75.8763 1099 Q75.8763 1107.73 72.7976 1112.34 Q69.742 1116.92 63.9319 1116.92 Q58.1217 1116.92 55.043 1112.34 Q51.9875 1107.73 51.9875 1099 Q51.9875 1090.25 55.043 1085.67 Q58.1217 1081.06 63.9319 1081.06 Z" fill="#000000" fill-rule="evenodd" fill-opacity="1" /><path clip-path="url(#clip780)" d="M84.0938 1110.37 L88.978 1110.37 L88.978 1116.25 L84.0938 1116.25 L84.0938 1110.37 Z" fill="#000000" fill-rule="evenodd" fill-opacity="1" /><path clip-path="url(#clip780)" d="M103.191 1112.31 L119.51 1112.31 L119.51 1116.25 L97.566 1116.25 L97.566 1112.31 Q100.228 1109.56 104.811 1104.93 Q109.418 1100.28 110.598 1098.94 Q112.844 1096.41 113.723 1094.68 Q114.626 1092.92 114.626 1091.23 Q114.626 1088.47 112.682 1086.74 Q110.76 1085 107.658 1085 Q105.459 1085 103.006 1085.76 Q100.575 1086.53 97.7974 1088.08 L97.7974 1083.36 Q100.621 1082.22 103.075 1081.64 Q105.529 1081.06 107.566 1081.06 Q112.936 1081.06 116.131 1083.75 Q119.325 1086.44 119.325 1090.93 Q119.325 1093.06 118.515 1094.98 Q117.728 1096.88 115.621 1099.47 Q115.043 1100.14 111.941 1103.36 Q108.839 1106.55 103.191 1112.31 Z" fill="#000000" fill-rule="evenodd" fill-opacity="1" /><path clip-path="url(#clip780)" d="M129.371 1081.69 L147.728 1081.69 L147.728 1085.63 L133.654 1085.63 L133.654 1094.1 Q134.672 1093.75 135.691 1093.59 Q136.709 1093.4 137.728 1093.4 Q143.515 1093.4 146.894 1096.57 Q150.274 1099.75 150.274 1105.16 Q150.274 1110.74 146.802 1113.84 Q143.33 1116.92 137.01 1116.92 Q134.834 1116.92 132.566 1116.55 Q130.32 1116.18 127.913 1115.44 L127.913 1110.74 Q129.996 1111.87 132.219 1112.43 Q134.441 1112.99 136.918 1112.99 Q140.922 1112.99 143.26 1110.88 Q145.598 1108.77 145.598 1105.16 Q145.598 1101.55 143.26 1099.44 Q140.922 1097.34 136.918 1097.34 Q135.043 1097.34 133.168 1097.75 Q131.316 1098.17 129.371 1099.05 L129.371 1081.69 Z" fill="#000000" fill-rule="evenodd" fill-opacity="1" /><path clip-path="url(#clip780)" d="M62.9365 807.999 Q59.3254 807.999 57.4967 811.563 Q55.6912 815.105 55.6912 822.235 Q55.6912 829.341 57.4967 832.906 Q59.3254 836.448 62.9365 836.448 Q66.5707 836.448 68.3763 832.906 Q70.205 829.341 70.205 822.235 Q70.205 815.105 68.3763 811.563 Q66.5707 807.999 62.9365 807.999 M62.9365 804.295 Q68.7467 804.295 71.8022 808.901 Q74.8809 813.485 74.8809 822.235 Q74.8809 830.962 71.8022 835.568 Q68.7467 840.151 62.9365 840.151 Q57.1264 840.151 54.0477 835.568 Q50.9921 830.962 50.9921 822.235 Q50.9921 813.485 54.0477 808.901 Q57.1264 804.295 62.9365 804.295 Z" fill="#000000" fill-rule="evenodd" fill-opacity="1" /><path clip-path="url(#clip780)" d="M83.0984 833.6 L87.9827 833.6 L87.9827 839.48 L83.0984 839.48 L83.0984 833.6 Z" fill="#000000" fill-rule="evenodd" fill-opacity="1" /><path clip-path="url(#clip780)" d="M98.2141 804.92 L116.57 804.92 L116.57 808.855 L102.496 808.855 L102.496 817.327 Q103.515 816.98 104.534 816.818 Q105.552 816.633 106.571 816.633 Q112.358 816.633 115.737 819.804 Q119.117 822.975 119.117 828.392 Q119.117 833.971 115.645 837.073 Q112.172 840.151 105.853 840.151 Q103.677 840.151 101.409 839.781 Q99.1632 839.411 96.7558 838.67 L96.7558 833.971 Q98.8391 835.105 101.061 835.661 Q103.284 836.216 105.76 836.216 Q109.765 836.216 112.103 834.11 Q114.441 832.003 114.441 828.392 Q114.441 824.781 112.103 822.675 Q109.765 820.568 105.76 820.568 Q103.885 820.568 102.01 820.985 Q100.159 821.401 98.2141 822.281 L98.2141 804.92 Z" fill="#000000" fill-rule="evenodd" fill-opacity="1" /><path clip-path="url(#clip780)" d="M138.33 807.999 Q134.719 807.999 132.89 811.563 Q131.084 815.105 131.084 822.235 Q131.084 829.341 132.89 832.906 Q134.719 836.448 138.33 836.448 Q141.964 836.448 143.769 832.906 Q145.598 829.341 145.598 822.235 Q145.598 815.105 143.769 811.563 Q141.964 807.999 138.33 807.999 M138.33 804.295 Q144.14 804.295 147.195 808.901 Q150.274 813.485 150.274 822.235 Q150.274 830.962 147.195 835.568 Q144.14 840.151 138.33 840.151 Q132.519 840.151 129.441 835.568 Q126.385 830.962 126.385 822.235 Q126.385 813.485 129.441 808.901 Q132.519 804.295 138.33 804.295 Z" fill="#000000" fill-rule="evenodd" fill-opacity="1" /><path clip-path="url(#clip780)" d="M63.9319 531.229 Q60.3208 531.229 58.4921 534.794 Q56.6865 538.335 56.6865 545.465 Q56.6865 552.571 58.4921 556.136 Q60.3208 559.678 63.9319 559.678 Q67.5661 559.678 69.3717 556.136 Q71.2004 552.571 71.2004 545.465 Q71.2004 538.335 69.3717 534.794 Q67.5661 531.229 63.9319 531.229 M63.9319 527.525 Q69.742 527.525 72.7976 532.131 Q75.8763 536.715 75.8763 545.465 Q75.8763 554.192 72.7976 558.798 Q69.742 563.381 63.9319 563.381 Q58.1217 563.381 55.043 558.798 Q51.9875 554.192 51.9875 545.465 Q51.9875 536.715 55.043 532.131 Q58.1217 527.525 63.9319 527.525 Z" fill="#000000" fill-rule="evenodd" fill-opacity="1" /><path clip-path="url(#clip780)" d="M84.0938 556.83 L88.978 556.83 L88.978 562.71 L84.0938 562.71 L84.0938 556.83 Z" fill="#000000" fill-rule="evenodd" fill-opacity="1" /><path clip-path="url(#clip780)" d="M97.9826 528.15 L120.205 528.15 L120.205 530.141 L107.658 562.71 L102.774 562.71 L114.58 532.085 L97.9826 532.085 L97.9826 528.15 Z" fill="#000000" fill-rule="evenodd" fill-opacity="1" /><path clip-path="url(#clip780)" d="M129.371 528.15 L147.728 528.15 L147.728 532.085 L133.654 532.085 L133.654 540.557 Q134.672 540.21 135.691 540.048 Q136.709 539.863 137.728 539.863 Q143.515 539.863 146.894 543.034 Q150.274 546.205 150.274 551.622 Q150.274 557.201 146.802 560.303 Q143.33 563.381 137.01 563.381 Q134.834 563.381 132.566 563.011 Q130.32 562.641 127.913 561.9 L127.913 557.201 Q129.996 558.335 132.219 558.891 Q134.441 559.446 136.918 559.446 Q140.922 559.446 143.26 557.34 Q145.598 555.233 145.598 551.622 Q145.598 548.011 143.26 545.905 Q140.922 543.798 136.918 543.798 Q135.043 543.798 133.168 544.215 Q131.316 544.631 129.371 545.511 L129.371 528.15 Z" fill="#000000" fill-rule="evenodd" fill-opacity="1" /><path clip-path="url(#clip780)" d="M53.7467 282.005 L61.3856 282.005 L61.3856 255.639 L53.0754 257.306 L53.0754 253.047 L61.3393 251.38 L66.0152 251.38 L66.0152 282.005 L73.654 282.005 L73.654 285.94 L53.7467 285.94 L53.7467 282.005 Z" fill="#000000" fill-rule="evenodd" fill-opacity="1" /><path clip-path="url(#clip780)" d="M83.0984 280.06 L87.9827 280.06 L87.9827 285.94 L83.0984 285.94 L83.0984 280.06 Z" fill="#000000" fill-rule="evenodd" fill-opacity="1" /><path clip-path="url(#clip780)" d="M108.168 254.459 Q104.557 254.459 102.728 258.024 Q100.922 261.565 100.922 268.695 Q100.922 275.801 102.728 279.366 Q104.557 282.908 108.168 282.908 Q111.802 282.908 113.608 279.366 Q115.436 275.801 115.436 268.695 Q115.436 261.565 113.608 258.024 Q111.802 254.459 108.168 254.459 M108.168 250.755 Q113.978 250.755 117.033 255.362 Q120.112 259.945 120.112 268.695 Q120.112 277.422 117.033 282.028 Q113.978 286.611 108.168 286.611 Q102.358 286.611 99.2789 282.028 Q96.2234 277.422 96.2234 268.695 Q96.2234 259.945 99.2789 255.362 Q102.358 250.755 108.168 250.755 Z" fill="#000000" fill-rule="evenodd" fill-opacity="1" /><path clip-path="url(#clip780)" d="M138.33 254.459 Q134.719 254.459 132.89 258.024 Q131.084 261.565 131.084 268.695 Q131.084 275.801 132.89 279.366 Q134.719 282.908 138.33 282.908 Q141.964 282.908 143.769 279.366 Q145.598 275.801 145.598 268.695 Q145.598 261.565 143.769 258.024 Q141.964 254.459 138.33 254.459 M138.33 250.755 Q144.14 250.755 147.195 255.362 Q150.274 259.945 150.274 268.695 Q150.274 277.422 147.195 282.028 Q144.14 286.611 138.33 286.611 Q132.519 286.611 129.441 282.028 Q126.385 277.422 126.385 268.695 Q126.385 259.945 129.441 255.362 Q132.519 250.755 138.33 250.755 Z" fill="#000000" fill-rule="evenodd" fill-opacity="1" /><polyline clip-path="url(#clip782)" style="stroke:#009af9; stroke-linecap:butt; stroke-linejoin:round; stroke-width:4; stroke-opacity:1; fill:none" points="
  247.59,1375.74 263.863,1320.41 280.137,1265.22 296.411,1210.3 312.684,1155.8 328.958,1101.84 345.232,1048.58 361.505,996.125 377.779,944.623 394.053,894.198 
  410.326,844.978 426.6,797.083 442.874,750.636 459.147,705.75 475.421,662.539 491.695,621.111 507.968,581.569 524.242,544.013 540.516,508.534 556.789,475.224 
  573.063,444.164 589.337,415.433 605.61,389.102 621.884,365.237 638.158,343.898 654.431,325.138 670.705,309.004 686.979,295.536 703.252,284.768 719.526,276.727 
  735.8,271.433 752.073,268.899 768.347,269.132 784.621,272.131 800.894,277.888 817.168,286.389 833.442,297.613 849.715,311.532 865.989,328.11 882.263,347.307 
  898.536,369.075 914.81,393.359 931.084,420.098 947.357,449.226 963.631,480.67 979.905,514.351 996.178,550.185 1012.45,588.082 1028.73,627.948 1045,669.683 
  1061.27,713.183 1077.55,758.339 1093.82,805.039 1110.09,853.164 1126.37,902.596 1142.64,953.211 1158.92,1004.88 1175.19,1057.48 1191.46,1110.87 1207.74,1164.93 
  1224.01,1219.51 1240.28,1274.48 1256.56,1329.71 1272.83,1366.43 1289.1,1311.12 1305.38,1255.96 1321.65,1201.1 1337.93,1146.68 1354.2,1092.84 1370.47,1039.7 
  1386.75,987.395 1403.02,936.065 1419.29,885.834 1435.57,836.828 1451.84,789.169 1468.11,742.976 1484.39,698.364 1500.66,655.446 1516.94,614.328 1533.21,575.113 
  1549.48,537.899 1565.76,502.779 1582.03,469.842 1598.3,439.168 1614.58,410.836 1630.85,384.915 1647.13,361.471 1663.4,340.562 1679.67,322.24 1695.95,306.552 
  1712.22,293.536 1728.49,283.225 1744.77,275.645 1761.04,270.814 1777.31,268.745 1793.59,269.443 1809.86,272.906 1826.14,279.126 1842.41,288.086 1858.68,299.766 
  1874.96,314.134 1891.23,331.156 1907.5,350.789 1923.78,372.984 1940.05,397.685 1956.33,424.831 1972.6,454.353 1988.87,486.179 2005.15,520.228 2021.42,556.415 
  2037.69,594.65 2053.97,634.838 2070.24,676.877 2086.51,720.664 2102.79,766.087 2119.06,813.034 2135.34,861.388 2151.61,911.028 2167.88,961.829 2184.16,1013.66 
  2200.43,1066.4 2216.7,1119.92 2232.98,1174.07 2249.25,1228.73 2265.52,1283.75 2281.8,1339.01 
  "/>
<circle clip-path="url(#clip782)" cx="248.749" cy="1371.8" r="14" fill="#e26f46" fill-rule="evenodd" fill-opacity="1" stroke="#000000" stroke-opacity="1" stroke-width="3.2"/>
<circle clip-path="url(#clip782)" cx="253.692" cy="1354.98" r="14" fill="#e26f46" fill-rule="evenodd" fill-opacity="1" stroke="#000000" stroke-opacity="1" stroke-width="3.2"/>
<circle clip-path="url(#clip782)" cx="262.565" cy="1324.82" r="14" fill="#e26f46" fill-rule="evenodd" fill-opacity="1" stroke="#000000" stroke-opacity="1" stroke-width="3.2"/>
<circle clip-path="url(#clip782)" cx="275.336" cy="1281.48" r="14" fill="#e26f46" fill-rule="evenodd" fill-opacity="1" stroke="#000000" stroke-opacity="1" stroke-width="3.2"/>
<circle clip-path="url(#clip782)" cx="291.955" cy="1225.3" r="14" fill="#e26f46" fill-rule="evenodd" fill-opacity="1" stroke="#000000" stroke-opacity="1" stroke-width="3.2"/>
<circle clip-path="url(#clip782)" cx="312.358" cy="1156.88" r="14" fill="#e26f46" fill-rule="evenodd" fill-opacity="1" stroke="#000000" stroke-opacity="1" stroke-width="3.2"/>
<circle clip-path="url(#clip782)" cx="336.467" cy="1077.17" r="14" fill="#e26f46" fill-rule="evenodd" fill-opacity="1" stroke="#000000" stroke-opacity="1" stroke-width="3.2"/>
<circle clip-path="url(#clip782)" cx="364.188" cy="987.566" r="14" fill="#e26f46" fill-rule="evenodd" fill-opacity="1" stroke="#000000" stroke-opacity="1" stroke-width="3.2"/>
<circle clip-path="url(#clip782)" cx="395.413" cy="890.035" r="14" fill="#e26f46" fill-rule="evenodd" fill-opacity="1" stroke="#000000" stroke-opacity="1" stroke-width="3.2"/>
<circle clip-path="url(#clip782)" cx="430.023" cy="787.19" r="14" fill="#e26f46" fill-rule="evenodd" fill-opacity="1" stroke="#000000" stroke-opacity="1" stroke-width="3.2"/>
<circle clip-path="url(#clip782)" cx="467.882" cy="682.341" r="14" fill="#e26f46" fill-rule="evenodd" fill-opacity="1" stroke="#000000" stroke-opacity="1" stroke-width="3.2"/>
<circle clip-path="url(#clip782)" cx="508.845" cy="579.494" r="14" fill="#e26f46" fill-rule="evenodd" fill-opacity="1" stroke="#000000" stroke-opacity="1" stroke-width="3.2"/>
<circle clip-path="url(#clip782)" cx="552.754" cy="483.278" r="14" fill="#e26f46" fill-rule="evenodd" fill-opacity="1" stroke="#000000" stroke-opacity="1" stroke-width="3.2"/>
<circle clip-path="url(#clip782)" cx="599.437" cy="398.804" r="14" fill="#e26f46" fill-rule="evenodd" fill-opacity="1" stroke="#000000" stroke-opacity="1" stroke-width="3.2"/>
<circle clip-path="url(#clip782)" cx="648.715" cy="331.431" r="14" fill="#e26f46" fill-rule="evenodd" fill-opacity="1" stroke="#000000" stroke-opacity="1" stroke-width="3.2"/>
<circle clip-path="url(#clip782)" cx="700.397" cy="286.461" r="14" fill="#e26f46" fill-rule="evenodd" fill-opacity="1" stroke="#000000" stroke-opacity="1" stroke-width="3.2"/>
<circle clip-path="url(#clip782)" cx="754.284" cy="268.769" r="14" fill="#e26f46" fill-rule="evenodd" fill-opacity="1" stroke="#000000" stroke-opacity="1" stroke-width="3.2"/>
<circle clip-path="url(#clip782)" cx="810.165" cy="282.396" r="14" fill="#e26f46" fill-rule="evenodd" fill-opacity="1" stroke="#000000" stroke-opacity="1" stroke-width="3.2"/>
<circle clip-path="url(#clip782)" cx="867.826" cy="330.147" r="14" fill="#e26f46" fill-rule="evenodd" fill-opacity="1" stroke="#000000" stroke-opacity="1" stroke-width="3.2"/>
<circle clip-path="url(#clip782)" cx="927.044" cy="413.235" r="14" fill="#e26f46" fill-rule="evenodd" fill-opacity="1" stroke="#000000" stroke-opacity="1" stroke-width="3.2"/>
<circle clip-path="url(#clip782)" cx="987.588" cy="531.007" r="14" fill="#e26f46" fill-rule="evenodd" fill-opacity="1" stroke="#000000" stroke-opacity="1" stroke-width="3.2"/>
<circle clip-path="url(#clip782)" cx="1049.23" cy="680.816" r="14" fill="#e26f46" fill-rule="evenodd" fill-opacity="1" stroke="#000000" stroke-opacity="1" stroke-width="3.2"/>
<circle clip-path="url(#clip782)" cx="1111.72" cy="858.041" r="14" fill="#e26f46" fill-rule="evenodd" fill-opacity="1" stroke="#000000" stroke-opacity="1" stroke-width="3.2"/>
<circle clip-path="url(#clip782)" cx="1174.82" cy="1056.29" r="14" fill="#e26f46" fill-rule="evenodd" fill-opacity="1" stroke="#000000" stroke-opacity="1" stroke-width="3.2"/>
<circle clip-path="url(#clip782)" cx="1238.3" cy="1267.75" r="14" fill="#e26f46" fill-rule="evenodd" fill-opacity="1" stroke="#000000" stroke-opacity="1" stroke-width="3.2"/>
<circle clip-path="url(#clip782)" cx="1301.89" cy="1267.75" r="14" fill="#e26f46" fill-rule="evenodd" fill-opacity="1" stroke="#000000" stroke-opacity="1" stroke-width="3.2"/>
<circle clip-path="url(#clip782)" cx="1365.37" cy="1056.29" r="14" fill="#e26f46" fill-rule="evenodd" fill-opacity="1" stroke="#000000" stroke-opacity="1" stroke-width="3.2"/>
<circle clip-path="url(#clip782)" cx="1428.47" cy="858.041" r="14" fill="#e26f46" fill-rule="evenodd" fill-opacity="1" stroke="#000000" stroke-opacity="1" stroke-width="3.2"/>
<circle clip-path="url(#clip782)" cx="1490.96" cy="680.816" r="14" fill="#e26f46" fill-rule="evenodd" fill-opacity="1" stroke="#000000" stroke-opacity="1" stroke-width="3.2"/>
<circle clip-path="url(#clip782)" cx="1552.6" cy="531.007" r="14" fill="#e26f46" fill-rule="evenodd" fill-opacity="1" stroke="#000000" stroke-opacity="1" stroke-width="3.2"/>
<circle clip-path="url(#clip782)" cx="1613.15" cy="413.235" r="14" fill="#e26f46" fill-rule="evenodd" fill-opacity="1" stroke="#000000" stroke-opacity="1" stroke-width="3.2"/>
<circle clip-path="url(#clip782)" cx="1672.36" cy="330.147" r="14" fill="#e26f46" fill-rule="evenodd" fill-opacity="1" stroke="#000000" stroke-opacity="1" stroke-width="3.2"/>
<circle clip-path="url(#clip782)" cx="1730.02" cy="282.396" r="14" fill="#e26f46" fill-rule="evenodd" fill-opacity="1" stroke="#000000" stroke-opacity="1" stroke-width="3.2"/>
<circle clip-path="url(#clip782)" cx="1785.91" cy="268.769" r="14" fill="#e26f46" fill-rule="evenodd" fill-opacity="1" stroke="#000000" stroke-opacity="1" stroke-width="3.2"/>
<circle clip-path="url(#clip782)" cx="1839.79" cy="286.461" r="14" fill="#e26f46" fill-rule="evenodd" fill-opacity="1" stroke="#000000" stroke-opacity="1" stroke-width="3.2"/>
<circle clip-path="url(#clip782)" cx="1891.47" cy="331.431" r="14" fill="#e26f46" fill-rule="evenodd" fill-opacity="1" stroke="#000000" stroke-opacity="1" stroke-width="3.2"/>
<circle clip-path="url(#clip782)" cx="1940.75" cy="398.804" r="14" fill="#e26f46" fill-rule="evenodd" fill-opacity="1" stroke="#000000" stroke-opacity="1" stroke-width="3.2"/>
<circle clip-path="url(#clip782)" cx="1987.44" cy="483.278" r="14" fill="#e26f46" fill-rule="evenodd" fill-opacity="1" stroke="#000000" stroke-opacity="1" stroke-width="3.2"/>
<circle clip-path="url(#clip782)" cx="2031.34" cy="579.494" r="14" fill="#e26f46" fill-rule="evenodd" fill-opacity="1" stroke="#000000" stroke-opacity="1" stroke-width="3.2"/>
<circle clip-path="url(#clip782)" cx="2072.31" cy="682.341" r="14" fill="#e26f46" fill-rule="evenodd" fill-opacity="1" stroke="#000000" stroke-opacity="1" stroke-width="3.2"/>
<circle clip-path="url(#clip782)" cx="2110.17" cy="787.19" r="14" fill="#e26f46" fill-rule="evenodd" fill-opacity="1" stroke="#000000" stroke-opacity="1" stroke-width="3.2"/>
<circle clip-path="url(#clip782)" cx="2144.78" cy="890.035" r="14" fill="#e26f46" fill-rule="evenodd" fill-opacity="1" stroke="#000000" stroke-opacity="1" stroke-width="3.2"/>
<circle clip-path="url(#clip782)" cx="2176" cy="987.566" r="14" fill="#e26f46" fill-rule="evenodd" fill-opacity="1" stroke="#000000" stroke-opacity="1" stroke-width="3.2"/>
<circle clip-path="url(#clip782)" cx="2203.72" cy="1077.17" r="14" fill="#e26f46" fill-rule="evenodd" fill-opacity="1" stroke="#000000" stroke-opacity="1" stroke-width="3.2"/>
<circle clip-path="url(#clip782)" cx="2227.83" cy="1156.88" r="14" fill="#e26f46" fill-rule="evenodd" fill-opacity="1" stroke="#000000" stroke-opacity="1" stroke-width="3.2"/>
<circle clip-path="url(#clip782)" cx="2248.23" cy="1225.3" r="14" fill="#e26f46" fill-rule="evenodd" fill-opacity="1" stroke="#000000" stroke-opacity="1" stroke-width="3.2"/>
<circle clip-path="url(#clip782)" cx="2264.85" cy="1281.48" r="14" fill="#e26f46" fill-rule="evenodd" fill-opacity="1" stroke="#000000" stroke-opacity="1" stroke-width="3.2"/>
<circle clip-path="url(#clip782)" cx="2277.62" cy="1324.82" r="14" fill="#e26f46" fill-rule="evenodd" fill-opacity="1" stroke="#000000" stroke-opacity="1" stroke-width="3.2"/>
<circle clip-path="url(#clip782)" cx="2286.5" cy="1354.98" r="14" fill="#e26f46" fill-rule="evenodd" fill-opacity="1" stroke="#000000" stroke-opacity="1" stroke-width="3.2"/>
<circle clip-path="url(#clip782)" cx="2291.44" cy="1371.8" r="14" fill="#e26f46" fill-rule="evenodd" fill-opacity="1" stroke="#000000" stroke-opacity="1" stroke-width="3.2"/>
<path clip-path="url(#clip780)" d="
M1822.67 250.738 L2280.54 250.738 L2280.54 95.2176 L1822.67 95.2176  Z
  " fill="#ffffff" fill-rule="evenodd" fill-opacity="1"/>
<polyline clip-path="url(#clip780)" style="stroke:#000000; stroke-linecap:butt; stroke-linejoin:round; stroke-width:4; stroke-opacity:1; fill:none" points="
  1822.67,250.738 2280.54,250.738 2280.54,95.2176 1822.67,95.2176 1822.67,250.738 
  "/>
<polyline clip-path="url(#clip780)" style="stroke:#009af9; stroke-linecap:butt; stroke-linejoin:round; stroke-width:4; stroke-opacity:1; fill:none" points="
  1846.74,147.058 1991.18,147.058 
  "/>
<path clip-path="url(#clip780)" d="M2015.25 176.361 L2015.25 131.695 Q2015.25 129.915 2016.21 129.915 Q2017.17 129.915 2017.17 131.343 L2017.17 176.01 Q2017.17 177.79 2016.21 177.79 Q2015.25 177.79 2015.25 176.361 Z" fill="#000000" fill-rule="evenodd" fill-opacity="1" /><path clip-path="url(#clip780)" d="M2035.04 165.212 L2035.04 158.888 Q2035.04 158.349 2035.07 158.162 Q2035.09 157.975 2035.23 157.834 Q2035.37 157.694 2035.65 157.694 Q2035.98 157.694 2036.1 157.834 Q2036.24 157.975 2036.33 158.513 Q2037.06 161.816 2038.6 163.573 Q2040.17 165.306 2043.01 165.306 Q2045.7 165.306 2047.06 164.111 Q2048.42 162.917 2048.42 160.949 Q2048.42 157.436 2043.43 156.546 Q2040.55 155.96 2039.35 155.586 Q2038.16 155.187 2037.11 154.321 Q2035.04 152.634 2035.04 150.245 Q2035.04 147.856 2036.85 146.099 Q2038.67 144.343 2042.7 144.343 Q2045.4 144.343 2047.22 145.701 Q2047.76 145.28 2048.04 144.928 Q2048.68 144.343 2049 144.343 Q2049.38 144.343 2049.45 144.6 Q2049.52 144.835 2049.52 145.514 L2049.52 150.339 Q2049.52 150.878 2049.5 151.065 Q2049.47 151.252 2049.33 151.393 Q2049.19 151.51 2048.89 151.51 Q2048.35 151.51 2048.33 151.065 Q2047.95 145.256 2042.7 145.256 Q2039.87 145.256 2038.6 146.357 Q2037.34 147.435 2037.34 148.91 Q2037.34 149.73 2037.71 150.362 Q2038.11 150.971 2038.6 151.346 Q2039.12 151.697 2040.06 152.049 Q2040.99 152.377 2041.56 152.494 Q2042.14 152.611 2043.24 152.845 Q2047.08 153.571 2048.7 155.14 Q2050.71 157.155 2050.71 159.708 Q2050.71 162.542 2048.79 164.463 Q2046.87 166.383 2043.01 166.383 Q2039.89 166.383 2037.71 164.299 Q2037.43 164.58 2037.22 164.837 Q2037.01 165.072 2036.92 165.165 Q2036.85 165.259 2036.82 165.329 Q2036.8 165.376 2036.75 165.423 Q2035.79 166.383 2035.56 166.383 Q2035.19 166.383 2035.11 166.126 Q2035.04 165.891 2035.04 165.212 Z" fill="#000000" fill-rule="evenodd" fill-opacity="1" /><path clip-path="url(#clip780)" d="M2052.59 165.845 L2052.59 164.369 Q2055.14 164.369 2055.72 164.064 Q2056.31 163.737 2056.31 162.191 L2056.31 149.285 Q2056.31 147.505 2055.7 147.083 Q2055.12 146.662 2052.77 146.662 L2052.77 145.163 L2059.47 144.647 L2059.47 162.237 Q2059.47 163.666 2059.99 164.018 Q2060.5 164.369 2062.85 164.369 L2062.85 165.845 Q2057.95 165.704 2057.86 165.704 Q2057.2 165.704 2052.59 165.845 M2054.6 136.285 Q2054.6 135.325 2055.33 134.552 Q2056.08 133.756 2057.13 133.756 Q2058.18 133.756 2058.93 134.482 Q2059.68 135.185 2059.68 136.309 Q2059.68 137.41 2058.93 138.136 Q2058.18 138.838 2057.13 138.838 Q2056.03 138.838 2055.3 138.066 Q2054.6 137.293 2054.6 136.285 Z" fill="#000000" fill-rule="evenodd" fill-opacity="1" /><path clip-path="url(#clip780)" d="M2066.12 165.845 L2066.12 164.369 Q2068.67 164.369 2069.26 164.064 Q2069.85 163.737 2069.85 162.191 L2069.85 149.332 Q2069.85 147.552 2069.21 147.107 Q2068.6 146.662 2066.12 146.662 L2066.12 145.163 L2072.87 144.647 L2072.87 149.683 Q2075.12 144.647 2079.96 144.647 Q2083.57 144.647 2085 146.427 Q2086.05 147.622 2086.26 148.957 Q2086.5 150.292 2086.5 153.759 L2086.5 162.917 Q2086.55 163.924 2087.32 164.158 Q2088.09 164.369 2090.25 164.369 L2090.25 165.845 Q2085.35 165.704 2084.86 165.704 Q2084.48 165.704 2079.45 165.845 L2079.45 164.369 Q2082 164.369 2082.59 164.064 Q2083.2 163.737 2083.2 162.191 L2083.2 151.018 Q2083.2 148.582 2082.45 147.153 Q2081.7 145.701 2079.64 145.701 Q2077.15 145.701 2075.16 147.786 Q2073.17 149.87 2073.17 153.384 L2073.17 162.191 Q2073.17 163.737 2073.76 164.064 Q2074.37 164.369 2076.9 164.369 L2076.9 165.845 Q2072 165.704 2071.53 165.704 Q2071.16 165.704 2066.12 165.845 Z" fill="#000000" fill-rule="evenodd" fill-opacity="1" /><path clip-path="url(#clip780)" d="M2092.47 153.852 Q2092.47 145.748 2095.49 139.213 Q2096.78 136.473 2098.58 134.177 Q2100.39 131.882 2101.58 130.875 Q2102.77 129.868 2103.1 129.868 Q2103.57 129.868 2103.59 130.336 Q2103.59 130.57 2102.96 131.156 Q2095.23 139.026 2095.26 153.852 Q2095.26 168.726 2102.77 176.291 Q2103.59 177.111 2103.59 177.368 Q2103.59 177.837 2103.1 177.837 Q2102.77 177.837 2101.63 176.877 Q2100.48 175.916 2098.7 173.714 Q2096.92 171.513 2095.63 168.819 Q2092.47 162.284 2092.47 153.852 Z" fill="#000000" fill-rule="evenodd" fill-opacity="1" /><path clip-path="url(#clip780)" d="M2131.13 147.809 Q2131.13 149.121 2130.31 149.87 Q2129.49 150.597 2128.55 150.597 Q2127.66 150.597 2127.19 150.081 Q2126.72 149.566 2126.72 148.91 Q2126.72 148.02 2127.38 147.247 Q2128.04 146.474 2129.02 146.31 Q2128.06 145.701 2126.63 145.701 Q2125.69 145.701 2124.87 146.193 Q2124.08 146.685 2123.59 147.317 Q2123.12 147.95 2122.69 148.863 Q2122.3 149.753 2122.13 150.292 Q2121.99 150.807 2121.88 151.369 L2120.24 157.928 Q2119.44 161.043 2119.44 162.144 Q2119.44 163.502 2120.1 164.416 Q2120.75 165.306 2122.06 165.306 Q2122.58 165.306 2123.16 165.165 Q2123.75 165.001 2124.5 164.58 Q2125.27 164.135 2125.95 163.479 Q2126.65 162.8 2127.33 161.652 Q2128.01 160.504 2128.46 159.029 Q2128.6 158.513 2129.07 158.513 Q2129.65 158.513 2129.65 158.982 Q2129.65 159.38 2129.32 160.223 Q2129.02 161.043 2128.34 162.12 Q2127.68 163.174 2126.82 164.135 Q2125.95 165.072 2124.66 165.727 Q2123.37 166.383 2121.97 166.383 Q2119.95 166.383 2118.62 165.306 Q2117.28 164.228 2116.79 162.729 Q2116.68 162.94 2116.51 163.221 Q2116.35 163.502 2115.86 164.135 Q2115.39 164.744 2114.85 165.212 Q2114.31 165.657 2113.47 166.009 Q2112.65 166.383 2111.76 166.383 Q2110.63 166.383 2109.63 166.055 Q2108.64 165.727 2107.94 164.978 Q2107.24 164.228 2107.24 163.198 Q2107.24 162.05 2108.01 161.254 Q2108.81 160.434 2109.88 160.434 Q2110.56 160.434 2111.1 160.832 Q2111.66 161.23 2111.66 162.097 Q2111.66 163.057 2111.01 163.783 Q2110.35 164.509 2109.41 164.697 Q2110.37 165.306 2111.8 165.306 Q2113.35 165.306 2114.57 163.947 Q2115.79 162.589 2116.37 160.317 Q2117.82 154.859 2118.39 152.423 Q2118.95 149.964 2118.95 148.91 Q2118.95 147.926 2118.69 147.247 Q2118.43 146.568 2117.99 146.263 Q2117.57 145.935 2117.17 145.818 Q2116.79 145.701 2116.37 145.701 Q2115.67 145.701 2114.87 145.982 Q2114.1 146.263 2113.16 146.919 Q2112.25 147.552 2111.38 148.863 Q2110.52 150.175 2109.93 151.978 Q2109.81 152.517 2109.3 152.517 Q2108.74 152.494 2108.74 152.025 Q2108.74 151.627 2109.04 150.807 Q2109.37 149.964 2110.02 148.91 Q2110.7 147.856 2111.57 146.919 Q2112.46 145.959 2113.75 145.303 Q2115.06 144.647 2116.46 144.647 Q2117.1 144.647 2117.71 144.788 Q2118.34 144.905 2119.09 145.256 Q2119.86 145.608 2120.54 146.381 Q2121.22 147.153 2121.64 148.278 Q2121.92 147.739 2122.3 147.224 Q2122.69 146.708 2123.3 146.076 Q2123.94 145.42 2124.8 145.045 Q2125.69 144.647 2126.68 144.647 Q2127.64 144.647 2128.57 144.905 Q2129.51 145.139 2130.31 145.912 Q2131.13 146.662 2131.13 147.809 Z" fill="#000000" fill-rule="evenodd" fill-opacity="1" /><path clip-path="url(#clip780)" d="M2135.74 177.368 Q2135.74 177.134 2136.35 176.549 Q2144.08 168.679 2144.08 153.852 Q2144.08 138.979 2136.65 131.46 Q2135.74 130.594 2135.74 130.336 Q2135.74 129.868 2136.21 129.868 Q2136.54 129.868 2137.68 130.828 Q2138.85 131.788 2140.61 133.99 Q2142.39 136.192 2143.7 138.885 Q2146.87 145.42 2146.87 153.852 Q2146.87 161.956 2143.84 168.491 Q2142.56 171.232 2140.75 173.527 Q2138.95 175.823 2137.75 176.83 Q2136.56 177.837 2136.21 177.837 Q2135.74 177.837 2135.74 177.368 Z" fill="#000000" fill-rule="evenodd" fill-opacity="1" /><path clip-path="url(#clip780)" d="M2156.84 176.361 L2156.84 131.695 Q2156.84 129.915 2157.8 129.915 Q2158.76 129.915 2158.76 131.343 L2158.76 176.01 Q2158.76 177.79 2157.8 177.79 Q2156.84 177.79 2156.84 176.361 Z" fill="#000000" fill-rule="evenodd" fill-opacity="1" /><circle clip-path="url(#clip780)" cx="1918.96" cy="198.898" r="23" fill="#e26f46" fill-rule="evenodd" fill-opacity="1" stroke="#000000" stroke-opacity="1" stroke-width="5.12"/>
<path clip-path="url(#clip780)" d="M2015.25 204.849 Q2015.25 196.744 2018.27 190.209 Q2019.56 187.469 2021.36 185.174 Q2023.17 182.878 2024.36 181.871 Q2025.55 180.864 2025.88 180.864 Q2026.35 180.864 2026.37 181.332 Q2026.37 181.567 2025.74 182.152 Q2018.01 190.022 2018.04 204.849 Q2018.04 219.722 2025.55 227.287 Q2026.37 228.107 2026.37 228.365 Q2026.37 228.833 2025.88 228.833 Q2025.55 228.833 2024.41 227.873 Q2023.26 226.912 2021.48 224.711 Q2019.7 222.509 2018.41 219.815 Q2015.25 213.281 2015.25 204.849 Z" fill="#000000" fill-rule="evenodd" fill-opacity="1" /><path clip-path="url(#clip780)" d="
M2033.66 188.279 L2060.82 188.279 L2060.82 185.719 L2033.66 185.719  Z
  " fill="#000000" fill-rule="evenodd" fill-opacity="1"/>
<path clip-path="url(#clip780)" d="M2057.56 199.228 Q2057.56 200.54 2056.74 201.289 Q2055.92 202.015 2054.98 202.015 Q2054.09 202.015 2053.62 201.5 Q2053.15 200.985 2053.15 200.329 Q2053.15 199.439 2053.81 198.666 Q2054.46 197.893 2055.45 197.729 Q2054.49 197.12 2053.06 197.12 Q2052.12 197.12 2051.3 197.612 Q2050.51 198.104 2050.01 198.736 Q2049.54 199.368 2049.12 200.282 Q2048.73 201.172 2048.56 201.711 Q2048.42 202.226 2048.3 202.788 L2046.66 209.346 Q2045.87 212.462 2045.87 213.562 Q2045.87 214.921 2046.52 215.834 Q2047.18 216.724 2048.49 216.724 Q2049.01 216.724 2049.59 216.584 Q2050.18 216.42 2050.93 215.998 Q2051.7 215.553 2052.38 214.898 Q2053.08 214.218 2053.76 213.071 Q2054.44 211.923 2054.89 210.447 Q2055.03 209.932 2055.49 209.932 Q2056.08 209.932 2056.08 210.4 Q2056.08 210.799 2055.75 211.642 Q2055.45 212.462 2054.77 213.539 Q2054.11 214.593 2053.25 215.553 Q2052.38 216.49 2051.09 217.146 Q2049.8 217.802 2048.4 217.802 Q2046.38 217.802 2045.05 216.724 Q2043.71 215.647 2043.22 214.148 Q2043.1 214.359 2042.94 214.64 Q2042.78 214.921 2042.28 215.553 Q2041.82 216.162 2041.28 216.631 Q2040.74 217.076 2039.89 217.427 Q2039.08 217.802 2038.19 217.802 Q2037.06 217.802 2036.05 217.474 Q2035.07 217.146 2034.37 216.397 Q2033.66 215.647 2033.66 214.616 Q2033.66 213.469 2034.44 212.672 Q2035.23 211.853 2036.31 211.853 Q2036.99 211.853 2037.53 212.251 Q2038.09 212.649 2038.09 213.516 Q2038.09 214.476 2037.44 215.202 Q2036.78 215.928 2035.84 216.116 Q2036.8 216.724 2038.23 216.724 Q2039.78 216.724 2041 215.366 Q2042.21 214.007 2042.8 211.736 Q2044.25 206.278 2044.81 203.842 Q2045.38 201.383 2045.38 200.329 Q2045.38 199.345 2045.12 198.666 Q2044.86 197.987 2044.42 197.682 Q2043.99 197.354 2043.6 197.237 Q2043.22 197.12 2042.8 197.12 Q2042.1 197.12 2041.3 197.401 Q2040.53 197.682 2039.59 198.338 Q2038.68 198.97 2037.81 200.282 Q2036.94 201.594 2036.36 203.397 Q2036.24 203.936 2035.73 203.936 Q2035.16 203.912 2035.16 203.444 Q2035.16 203.046 2035.47 202.226 Q2035.8 201.383 2036.45 200.329 Q2037.13 199.275 2038 198.338 Q2038.89 197.378 2040.18 196.722 Q2041.49 196.066 2042.89 196.066 Q2043.53 196.066 2044.13 196.206 Q2044.77 196.324 2045.52 196.675 Q2046.29 197.026 2046.97 197.799 Q2047.65 198.572 2048.07 199.696 Q2048.35 199.158 2048.73 198.642 Q2049.12 198.127 2049.73 197.495 Q2050.36 196.839 2051.23 196.464 Q2052.12 196.066 2053.11 196.066 Q2054.07 196.066 2055 196.324 Q2055.94 196.558 2056.74 197.331 Q2057.56 198.08 2057.56 199.228 Z" fill="#000000" fill-rule="evenodd" fill-opacity="1" /><path clip-path="url(#clip780)" d="M2074.52 209.045 Q2074.52 209.766 2073.93 210.307 Q2073.35 210.832 2072.73 210.832 Q2072.16 210.832 2071.8 210.488 Q2071.45 210.127 2071.45 209.619 Q2071.45 208.947 2072.03 208.389 Q2072.6 207.832 2073.27 207.832 Q2073.83 207.832 2074.17 208.176 Q2074.52 208.52 2074.52 209.045 M2074.81 225.227 Q2074.81 225.359 2074.67 225.883 Q2074.52 226.392 2074.16 227.179 Q2073.81 227.949 2073.34 228.671 Q2072.86 229.392 2072.08 229.9 Q2071.31 230.409 2070.42 230.409 Q2069.22 230.409 2068.44 229.622 Q2067.67 228.835 2067.67 227.654 Q2067.67 227.015 2068.44 224.965 Q2070.67 218.997 2070.75 218.751 Q2071.12 217.817 2071.12 216.997 Q2071.12 216.62 2071.04 216.39 Q2070.96 216.144 2070.8 216.062 Q2070.63 215.964 2070.53 215.948 Q2070.45 215.931 2070.29 215.931 Q2069.32 215.931 2068.42 216.915 Q2067.52 217.899 2066.89 220.096 Q2066.76 220.506 2066.68 220.604 Q2066.6 220.702 2066.35 220.702 Q2065.94 220.686 2065.94 220.358 Q2065.94 220.26 2066.06 219.882 Q2066.17 219.489 2066.39 218.899 Q2066.6 218.292 2066.98 217.669 Q2067.35 217.03 2067.81 216.472 Q2068.29 215.915 2068.96 215.554 Q2069.63 215.193 2070.39 215.193 Q2071.62 215.193 2072.37 215.997 Q2073.14 216.784 2073.14 217.948 Q2073.14 218.587 2072.7 219.719 Q2072.16 221.194 2071.96 221.67 L2070.65 225.195 Q2070.17 226.474 2070.03 226.867 Q2069.9 227.244 2069.78 227.703 Q2069.68 228.146 2069.68 228.556 Q2069.68 229.13 2069.86 229.392 Q2070.06 229.654 2070.49 229.654 Q2071.67 229.654 2072.53 228.49 Q2073.4 227.31 2073.91 225.506 Q2073.93 225.457 2073.95 225.375 Q2074.08 224.965 2074.21 224.916 Q2074.27 224.9 2074.4 224.9 Q2074.81 224.9 2074.81 225.227 Z" fill="#000000" fill-rule="evenodd" fill-opacity="1" /><path clip-path="url(#clip780)" d="M2080.53 216.068 Q2079.85 215.295 2079.85 214.288 Q2079.85 213.281 2080.5 212.531 Q2081.18 211.758 2082.4 211.758 Q2083.83 211.758 2084.65 213.14 Q2085.47 214.499 2085.47 216.794 Q2085.47 219.277 2084.46 221.572 Q2083.45 223.891 2082.47 224.992 Q2081.49 226.093 2081.09 226.093 Q2080.62 226.093 2080.62 225.577 Q2080.62 225.39 2080.95 225.039 Q2084.39 221.338 2084.41 216.794 Q2084.41 216.068 2084.32 216.068 L2084.2 216.162 Q2083.38 216.841 2082.4 216.841 Q2081.21 216.841 2080.53 216.068 Z" fill="#000000" fill-rule="evenodd" fill-opacity="1" /><path clip-path="url(#clip780)" d="M2124.51 186.321 Q2124.51 187.61 2123.69 188.406 Q2122.9 189.202 2121.89 189.202 Q2121.16 189.202 2120.63 188.757 Q2120.11 188.312 2120.11 187.539 Q2120.11 186.743 2120.72 185.9 Q2121.33 185.057 2122.71 184.939 Q2121.8 184.073 2120.35 184.073 Q2119.62 184.073 2119.01 184.541 Q2118.42 184.986 2118.1 185.712 Q2117.75 186.462 2116.95 190.701 Q2116.69 192.083 2116.46 193.418 Q2116.22 194.753 2115.94 196.159 L2119.92 196.159 Q2120.44 196.159 2120.65 196.182 Q2120.86 196.206 2121.02 196.323 Q2121.21 196.44 2121.21 196.698 Q2121.21 197.353 2120.91 197.517 Q2120.63 197.658 2119.78 197.658 L2115.66 197.658 L2112.78 212.859 Q2112.71 213.304 2112.4 214.709 Q2112.12 216.091 2111.44 218.363 Q2110.77 220.659 2110.09 222.017 Q2109.71 222.79 2109.22 223.516 Q2108.75 224.266 2108.07 225.015 Q2107.39 225.765 2106.5 226.21 Q2105.61 226.678 2104.68 226.678 Q2103.08 226.678 2101.84 225.788 Q2100.6 224.898 2100.6 223.376 Q2100.6 222.087 2101.4 221.291 Q2102.22 220.495 2103.22 220.495 Q2103.95 220.495 2104.46 220.94 Q2105 221.385 2105 222.158 Q2105 222.486 2104.89 222.86 Q2104.77 223.235 2104.51 223.657 Q2104.25 224.102 2103.69 224.406 Q2103.13 224.711 2102.36 224.758 Q2103.27 225.624 2104.68 225.624 Q2105.12 225.624 2105.52 225.437 Q2105.92 225.273 2106.24 224.851 Q2106.6 224.43 2106.85 224.008 Q2107.11 223.61 2107.37 222.837 Q2107.63 222.087 2107.79 221.525 Q2107.95 220.963 2108.17 219.956 Q2108.4 218.949 2108.52 218.34 Q2108.63 217.754 2108.84 216.607 L2112.43 197.658 L2109.27 197.658 Q2108.7 197.658 2108.47 197.634 Q2108.26 197.611 2108.1 197.494 Q2107.93 197.353 2107.93 197.072 Q2107.93 196.627 2108.12 196.44 Q2108.33 196.229 2108.56 196.206 Q2108.8 196.159 2109.36 196.159 L2112.69 196.159 Q2113.81 190.233 2114.26 188.64 Q2114.77 186.954 2115.57 185.783 Q2116.36 184.588 2117.25 184.026 Q2118.14 183.464 2118.87 183.253 Q2119.62 183.019 2120.35 183.019 Q2121.98 183.019 2123.25 183.909 Q2124.51 184.775 2124.51 186.321 Z" fill="#000000" fill-rule="evenodd" fill-opacity="1" /><path clip-path="url(#clip780)" d="M2130.97 204.849 Q2130.97 196.744 2133.99 190.209 Q2135.28 187.469 2137.08 185.174 Q2138.88 182.878 2140.08 181.871 Q2141.27 180.864 2141.6 180.864 Q2142.07 180.864 2142.09 181.332 Q2142.09 181.567 2141.46 182.152 Q2133.73 190.022 2133.75 204.849 Q2133.75 219.722 2141.27 227.287 Q2142.09 228.107 2142.09 228.365 Q2142.09 228.833 2141.6 228.833 Q2141.27 228.833 2140.13 227.873 Q2138.98 226.912 2137.2 224.711 Q2135.42 222.509 2134.13 219.815 Q2130.97 213.281 2130.97 204.849 Z" fill="#000000" fill-rule="evenodd" fill-opacity="1" /><path clip-path="url(#clip780)" d="
M2149.38 188.279 L2176.54 188.279 L2176.54 185.719 L2149.38 185.719  Z
  " fill="#000000" fill-rule="evenodd" fill-opacity="1"/>
<path clip-path="url(#clip780)" d="M2173.27 199.228 Q2173.27 200.54 2172.45 201.289 Q2171.63 202.015 2170.7 202.015 Q2169.81 202.015 2169.34 201.5 Q2168.87 200.985 2168.87 200.329 Q2168.87 199.439 2169.53 198.666 Q2170.18 197.893 2171.17 197.729 Q2170.21 197.12 2168.78 197.12 Q2167.84 197.12 2167.02 197.612 Q2166.22 198.104 2165.73 198.736 Q2165.26 199.368 2164.84 200.282 Q2164.44 201.172 2164.28 201.711 Q2164.14 202.226 2164.02 202.788 L2162.38 209.346 Q2161.59 212.462 2161.59 213.562 Q2161.59 214.921 2162.24 215.834 Q2162.9 216.724 2164.21 216.724 Q2164.72 216.724 2165.31 216.584 Q2165.9 216.42 2166.64 215.998 Q2167.42 215.553 2168.1 214.898 Q2168.8 214.218 2169.48 213.071 Q2170.16 211.923 2170.6 210.447 Q2170.74 209.932 2171.21 209.932 Q2171.8 209.932 2171.8 210.4 Q2171.8 210.799 2171.47 211.642 Q2171.17 212.462 2170.49 213.539 Q2169.83 214.593 2168.96 215.553 Q2168.1 216.49 2166.81 217.146 Q2165.52 217.802 2164.12 217.802 Q2162.1 217.802 2160.77 216.724 Q2159.43 215.647 2158.94 214.148 Q2158.82 214.359 2158.66 214.64 Q2158.49 214.921 2158 215.553 Q2157.53 216.162 2156.99 216.631 Q2156.46 217.076 2155.61 217.427 Q2154.79 217.802 2153.9 217.802 Q2152.78 217.802 2151.77 217.474 Q2150.79 217.146 2150.09 216.397 Q2149.38 215.647 2149.38 214.616 Q2149.38 213.469 2150.16 212.672 Q2150.95 211.853 2152.03 211.853 Q2152.71 211.853 2153.25 212.251 Q2153.81 212.649 2153.81 213.516 Q2153.81 214.476 2153.15 215.202 Q2152.5 215.928 2151.56 216.116 Q2152.52 216.724 2153.95 216.724 Q2155.5 216.724 2156.71 215.366 Q2157.93 214.007 2158.52 211.736 Q2159.97 206.278 2160.53 203.842 Q2161.09 201.383 2161.09 200.329 Q2161.09 199.345 2160.84 198.666 Q2160.58 197.987 2160.13 197.682 Q2159.71 197.354 2159.31 197.237 Q2158.94 197.12 2158.52 197.12 Q2157.81 197.12 2157.02 197.401 Q2156.25 197.682 2155.31 198.338 Q2154.39 198.97 2153.53 200.282 Q2152.66 201.594 2152.08 203.397 Q2151.96 203.936 2151.44 203.936 Q2150.88 203.912 2150.88 203.444 Q2150.88 203.046 2151.19 202.226 Q2151.51 201.383 2152.17 200.329 Q2152.85 199.275 2153.72 198.338 Q2154.61 197.378 2155.89 196.722 Q2157.21 196.066 2158.61 196.066 Q2159.24 196.066 2159.85 196.206 Q2160.48 196.324 2161.23 196.675 Q2162.01 197.026 2162.69 197.799 Q2163.37 198.572 2163.79 199.696 Q2164.07 199.158 2164.44 198.642 Q2164.84 198.127 2165.45 197.495 Q2166.08 196.839 2166.95 196.464 Q2167.84 196.066 2168.82 196.066 Q2169.78 196.066 2170.72 196.324 Q2171.66 196.558 2172.45 197.331 Q2173.27 198.08 2173.27 199.228 Z" fill="#000000" fill-rule="evenodd" fill-opacity="1" /><path clip-path="url(#clip780)" d="M2190.24 209.045 Q2190.24 209.766 2189.65 210.307 Q2189.07 210.832 2188.45 210.832 Q2187.88 210.832 2187.52 210.488 Q2187.17 210.127 2187.17 209.619 Q2187.17 208.947 2187.74 208.389 Q2188.32 207.832 2188.99 207.832 Q2189.55 207.832 2189.89 208.176 Q2190.24 208.52 2190.24 209.045 M2190.53 225.227 Q2190.53 225.359 2190.38 225.883 Q2190.24 226.392 2189.88 227.179 Q2189.53 227.949 2189.06 228.671 Q2188.58 229.392 2187.79 229.9 Q2187.02 230.409 2186.14 230.409 Q2184.94 230.409 2184.15 229.622 Q2183.38 228.835 2183.38 227.654 Q2183.38 227.015 2184.15 224.965 Q2186.38 218.997 2186.47 218.751 Q2186.84 217.817 2186.84 216.997 Q2186.84 216.62 2186.76 216.39 Q2186.68 216.144 2186.52 216.062 Q2186.35 215.964 2186.25 215.948 Q2186.17 215.931 2186.01 215.931 Q2185.04 215.931 2184.14 216.915 Q2183.24 217.899 2182.61 220.096 Q2182.48 220.506 2182.4 220.604 Q2182.32 220.702 2182.07 220.702 Q2181.66 220.686 2181.66 220.358 Q2181.66 220.26 2181.78 219.882 Q2181.89 219.489 2182.1 218.899 Q2182.32 218.292 2182.69 217.669 Q2183.07 217.03 2183.53 216.472 Q2184.01 215.915 2184.68 215.554 Q2185.35 215.193 2186.11 215.193 Q2187.33 215.193 2188.09 215.997 Q2188.86 216.784 2188.86 217.948 Q2188.86 218.587 2188.42 219.719 Q2187.88 221.194 2187.68 221.67 L2186.37 225.195 Q2185.89 226.474 2185.74 226.867 Q2185.61 227.244 2185.5 227.703 Q2185.4 228.146 2185.4 228.556 Q2185.4 229.13 2185.58 229.392 Q2185.78 229.654 2186.2 229.654 Q2187.38 229.654 2188.25 228.49 Q2189.12 227.31 2189.63 225.506 Q2189.65 225.457 2189.66 225.375 Q2189.79 224.965 2189.93 224.916 Q2189.99 224.9 2190.12 224.9 Q2190.53 224.9 2190.53 225.227 Z" fill="#000000" fill-rule="evenodd" fill-opacity="1" /><path clip-path="url(#clip780)" d="M2195.56 228.365 Q2195.56 228.13 2196.17 227.545 Q2203.9 219.675 2203.9 204.849 Q2203.9 189.975 2196.48 182.457 Q2195.56 181.59 2195.56 181.332 Q2195.56 180.864 2196.03 180.864 Q2196.36 180.864 2197.51 181.824 Q2198.68 182.785 2200.44 184.986 Q2202.22 187.188 2203.53 189.882 Q2206.69 196.416 2206.69 204.849 Q2206.69 212.953 2203.67 219.488 Q2202.38 222.228 2200.58 224.523 Q2198.77 226.819 2197.58 227.826 Q2196.38 228.833 2196.03 228.833 Q2195.56 228.833 2195.56 228.365 Z" fill="#000000" fill-rule="evenodd" fill-opacity="1" /><path clip-path="url(#clip780)" d="M2213.98 228.365 Q2213.98 228.13 2214.59 227.545 Q2222.32 219.675 2222.32 204.849 Q2222.32 189.975 2214.89 182.457 Q2213.98 181.59 2213.98 181.332 Q2213.98 180.864 2214.45 180.864 Q2214.78 180.864 2215.92 181.824 Q2217.1 182.785 2218.85 184.986 Q2220.63 187.188 2221.94 189.882 Q2225.11 196.416 2225.11 204.849 Q2225.11 212.953 2222.08 219.488 Q2220.8 222.228 2218.99 224.523 Q2217.19 226.819 2215.99 227.826 Q2214.8 228.833 2214.45 228.833 Q2213.98 228.833 2213.98 228.365 Z" fill="#000000" fill-rule="evenodd" fill-opacity="1" /></svg>
