<?xml version="1.0" encoding="utf-8"?>
<svg xmlns="http://www.w3.org/2000/svg" xmlns:xlink="http://www.w3.org/1999/xlink" width="600" height="400" viewBox="0 0 2400 1600">
<defs>
  <clipPath id="clip260">
    <rect x="0" y="0" width="2400" height="1600"/>
  </clipPath>
</defs>
<path clip-path="url(#clip260)" d="
M0 1600 L2400 1600 L2400 0 L0 0  Z
  " fill="#ffffff" fill-rule="evenodd" fill-opacity="1"/>
<defs>
  <clipPath id="clip261">
    <rect x="480" y="0" width="1681" height="1600"/>
  </clipPath>
</defs>
<path clip-path="url(#clip260)" d="
M194.098 1486.45 L2352.76 1486.45 L2352.76 47.2441 L194.098 47.2441  Z
  " fill="#ffffff" fill-rule="evenodd" fill-opacity="1"/>
<defs>
  <clipPath id="clip262">
    <rect x="194" y="47" width="2160" height="1440"/>
  </clipPath>
</defs>
<polyline clip-path="url(#clip262)" style="stroke:#000000; stroke-linecap:butt; stroke-linejoin:round; stroke-width:2; stroke-opacity:0.1; fill:none" points="
  227.911,1486.45 227.911,47.2441 
  "/>
<polyline clip-path="url(#clip262)" style="stroke:#000000; stroke-linecap:butt; stroke-linejoin:round; stroke-width:2; stroke-opacity:0.1; fill:none" points="
  750.669,1486.45 750.669,47.2441 
  "/>
<polyline clip-path="url(#clip262)" style="stroke:#000000; stroke-linecap:butt; stroke-linejoin:round; stroke-width:2; stroke-opacity:0.1; fill:none" points="
  1273.43,1486.45 1273.43,47.2441 
  "/>
<polyline clip-path="url(#clip262)" style="stroke:#000000; stroke-linecap:butt; stroke-linejoin:round; stroke-width:2; stroke-opacity:0.1; fill:none" points="
  1796.18,1486.45 1796.18,47.2441 
  "/>
<polyline clip-path="url(#clip262)" style="stroke:#000000; stroke-linecap:butt; stroke-linejoin:round; stroke-width:2; stroke-opacity:0.1; fill:none" points="
  2318.94,1486.45 2318.94,47.2441 
  "/>
<polyline clip-path="url(#clip260)" style="stroke:#000000; stroke-linecap:butt; stroke-linejoin:round; stroke-width:4; stroke-opacity:1; fill:none" points="
  194.098,1486.45 2352.76,1486.45 
  "/>
<polyline clip-path="url(#clip260)" style="stroke:#000000; stroke-linecap:butt; stroke-linejoin:round; stroke-width:4; stroke-opacity:1; fill:none" points="
  227.911,1486.45 227.911,1467.55 
  "/>
<polyline clip-path="url(#clip260)" style="stroke:#000000; stroke-linecap:butt; stroke-linejoin:round; stroke-width:4; stroke-opacity:1; fill:none" points="
  750.669,1486.45 750.669,1467.55 
  "/>
<polyline clip-path="url(#clip260)" style="stroke:#000000; stroke-linecap:butt; stroke-linejoin:round; stroke-width:4; stroke-opacity:1; fill:none" points="
  1273.43,1486.45 1273.43,1467.55 
  "/>
<polyline clip-path="url(#clip260)" style="stroke:#000000; stroke-linecap:butt; stroke-linejoin:round; stroke-width:4; stroke-opacity:1; fill:none" points="
  1796.18,1486.45 1796.18,1467.55 
  "/>
<polyline clip-path="url(#clip260)" style="stroke:#000000; stroke-linecap:butt; stroke-linejoin:round; stroke-width:4; stroke-opacity:1; fill:none" points="
  2318.94,1486.45 2318.94,1467.55 
  "/>
<path clip-path="url(#clip260)" d="M174.439 1532.02 L204.115 1532.02 L204.115 1535.95 L174.439 1535.95 L174.439 1532.02 Z" fill="#000000" fill-rule="evenodd" fill-opacity="1" /><path clip-path="url(#clip260)" d="M215.018 1544.91 L222.656 1544.91 L222.656 1518.55 L214.346 1520.21 L214.346 1515.95 L222.61 1514.29 L227.286 1514.29 L227.286 1544.91 L234.925 1544.91 L234.925 1548.85 L215.018 1548.85 L215.018 1544.91 Z" fill="#000000" fill-rule="evenodd" fill-opacity="1" /><path clip-path="url(#clip260)" d="M244.369 1542.97 L249.253 1542.97 L249.253 1548.85 L244.369 1548.85 L244.369 1542.97 Z" fill="#000000" fill-rule="evenodd" fill-opacity="1" /><path clip-path="url(#clip260)" d="M269.439 1517.37 Q265.827 1517.37 263.999 1520.93 Q262.193 1524.47 262.193 1531.6 Q262.193 1538.71 263.999 1542.27 Q265.827 1545.82 269.439 1545.82 Q273.073 1545.82 274.878 1542.27 Q276.707 1538.71 276.707 1531.6 Q276.707 1524.47 274.878 1520.93 Q273.073 1517.37 269.439 1517.37 M269.439 1513.66 Q275.249 1513.66 278.304 1518.27 Q281.383 1522.85 281.383 1531.6 Q281.383 1540.33 278.304 1544.94 Q275.249 1549.52 269.439 1549.52 Q263.628 1549.52 260.55 1544.94 Q257.494 1540.33 257.494 1531.6 Q257.494 1522.85 260.55 1518.27 Q263.628 1513.66 269.439 1513.66 Z" fill="#000000" fill-rule="evenodd" fill-opacity="1" /><path clip-path="url(#clip260)" d="M697.695 1532.02 L727.37 1532.02 L727.37 1535.95 L697.695 1535.95 L697.695 1532.02 Z" fill="#000000" fill-rule="evenodd" fill-opacity="1" /><path clip-path="url(#clip260)" d="M747.463 1517.37 Q743.852 1517.37 742.023 1520.93 Q740.218 1524.47 740.218 1531.6 Q740.218 1538.71 742.023 1542.27 Q743.852 1545.82 747.463 1545.82 Q751.097 1545.82 752.903 1542.27 Q754.731 1538.71 754.731 1531.6 Q754.731 1524.47 752.903 1520.93 Q751.097 1517.37 747.463 1517.37 M747.463 1513.66 Q753.273 1513.66 756.329 1518.27 Q759.407 1522.85 759.407 1531.6 Q759.407 1540.33 756.329 1544.94 Q753.273 1549.52 747.463 1549.52 Q741.653 1549.52 738.574 1544.94 Q735.519 1540.33 735.519 1531.6 Q735.519 1522.85 738.574 1518.27 Q741.653 1513.66 747.463 1513.66 Z" fill="#000000" fill-rule="evenodd" fill-opacity="1" /><path clip-path="url(#clip260)" d="M767.625 1542.97 L772.509 1542.97 L772.509 1548.85 L767.625 1548.85 L767.625 1542.97 Z" fill="#000000" fill-rule="evenodd" fill-opacity="1" /><path clip-path="url(#clip260)" d="M782.741 1514.29 L801.097 1514.29 L801.097 1518.22 L787.023 1518.22 L787.023 1526.7 Q788.041 1526.35 789.06 1526.19 Q790.078 1526 791.097 1526 Q796.884 1526 800.264 1529.17 Q803.643 1532.34 803.643 1537.76 Q803.643 1543.34 800.171 1546.44 Q796.699 1549.52 790.379 1549.52 Q788.203 1549.52 785.935 1549.15 Q783.69 1548.78 781.282 1548.04 L781.282 1543.34 Q783.366 1544.47 785.588 1545.03 Q787.81 1545.58 790.287 1545.58 Q794.291 1545.58 796.629 1543.48 Q798.967 1541.37 798.967 1537.76 Q798.967 1534.15 796.629 1532.04 Q794.291 1529.94 790.287 1529.94 Q788.412 1529.94 786.537 1530.35 Q784.685 1530.77 782.741 1531.65 L782.741 1514.29 Z" fill="#000000" fill-rule="evenodd" fill-opacity="1" /><path clip-path="url(#clip260)" d="M1250.81 1517.37 Q1247.2 1517.37 1245.37 1520.93 Q1243.57 1524.47 1243.57 1531.6 Q1243.57 1538.71 1245.37 1542.27 Q1247.2 1545.82 1250.81 1545.82 Q1254.45 1545.82 1256.25 1542.27 Q1258.08 1538.71 1258.08 1531.6 Q1258.08 1524.47 1256.25 1520.93 Q1254.45 1517.37 1250.81 1517.37 M1250.81 1513.66 Q1256.62 1513.66 1259.68 1518.27 Q1262.76 1522.85 1262.76 1531.6 Q1262.76 1540.33 1259.68 1544.94 Q1256.62 1549.52 1250.81 1549.52 Q1245 1549.52 1241.92 1544.94 Q1238.87 1540.33 1238.87 1531.6 Q1238.87 1522.85 1241.92 1518.27 Q1245 1513.66 1250.81 1513.66 Z" fill="#000000" fill-rule="evenodd" fill-opacity="1" /><path clip-path="url(#clip260)" d="M1270.97 1542.97 L1275.86 1542.97 L1275.86 1548.85 L1270.97 1548.85 L1270.97 1542.97 Z" fill="#000000" fill-rule="evenodd" fill-opacity="1" /><path clip-path="url(#clip260)" d="M1296.04 1517.37 Q1292.43 1517.37 1290.6 1520.93 Q1288.8 1524.47 1288.8 1531.6 Q1288.8 1538.71 1290.6 1542.27 Q1292.43 1545.82 1296.04 1545.82 Q1299.68 1545.82 1301.48 1542.27 Q1303.31 1538.71 1303.31 1531.6 Q1303.31 1524.47 1301.48 1520.93 Q1299.68 1517.37 1296.04 1517.37 M1296.04 1513.66 Q1301.85 1513.66 1304.91 1518.27 Q1307.99 1522.85 1307.99 1531.6 Q1307.99 1540.33 1304.91 1544.94 Q1301.85 1549.52 1296.04 1549.52 Q1290.23 1549.52 1287.15 1544.94 Q1284.1 1540.33 1284.1 1531.6 Q1284.1 1522.85 1287.15 1518.27 Q1290.23 1513.66 1296.04 1513.66 Z" fill="#000000" fill-rule="evenodd" fill-opacity="1" /><path clip-path="url(#clip260)" d="M1774.07 1517.37 Q1770.46 1517.37 1768.63 1520.93 Q1766.82 1524.47 1766.82 1531.6 Q1766.82 1538.71 1768.63 1542.27 Q1770.46 1545.82 1774.07 1545.82 Q1777.7 1545.82 1779.51 1542.27 Q1781.34 1538.71 1781.34 1531.6 Q1781.34 1524.47 1779.51 1520.93 Q1777.7 1517.37 1774.07 1517.37 M1774.07 1513.66 Q1779.88 1513.66 1782.93 1518.27 Q1786.01 1522.85 1786.01 1531.6 Q1786.01 1540.33 1782.93 1544.94 Q1779.88 1549.52 1774.07 1549.52 Q1768.26 1549.52 1765.18 1544.94 Q1762.12 1540.33 1762.12 1531.6 Q1762.12 1522.85 1765.18 1518.27 Q1768.26 1513.66 1774.07 1513.66 Z" fill="#000000" fill-rule="evenodd" fill-opacity="1" /><path clip-path="url(#clip260)" d="M1794.23 1542.97 L1799.11 1542.97 L1799.11 1548.85 L1794.23 1548.85 L1794.23 1542.97 Z" fill="#000000" fill-rule="evenodd" fill-opacity="1" /><path clip-path="url(#clip260)" d="M1809.34 1514.29 L1827.7 1514.29 L1827.7 1518.22 L1813.63 1518.22 L1813.63 1526.7 Q1814.65 1526.35 1815.66 1526.19 Q1816.68 1526 1817.7 1526 Q1823.49 1526 1826.87 1529.17 Q1830.25 1532.34 1830.25 1537.76 Q1830.25 1543.34 1826.78 1546.44 Q1823.3 1549.52 1816.98 1549.52 Q1814.81 1549.52 1812.54 1549.15 Q1810.29 1548.78 1807.89 1548.04 L1807.89 1543.34 Q1809.97 1544.47 1812.19 1545.03 Q1814.41 1545.58 1816.89 1545.58 Q1820.9 1545.58 1823.23 1543.48 Q1825.57 1541.37 1825.57 1537.76 Q1825.57 1534.15 1823.23 1532.04 Q1820.9 1529.94 1816.89 1529.94 Q1815.02 1529.94 1813.14 1530.35 Q1811.29 1530.77 1809.34 1531.65 L1809.34 1514.29 Z" fill="#000000" fill-rule="evenodd" fill-opacity="1" /><path clip-path="url(#clip260)" d="M2286.1 1544.91 L2293.73 1544.91 L2293.73 1518.55 L2285.42 1520.21 L2285.42 1515.95 L2293.69 1514.29 L2298.36 1514.29 L2298.36 1544.91 L2306 1544.91 L2306 1548.85 L2286.1 1548.85 L2286.1 1544.91 Z" fill="#000000" fill-rule="evenodd" fill-opacity="1" /><path clip-path="url(#clip260)" d="M2315.45 1542.97 L2320.33 1542.97 L2320.33 1548.85 L2315.45 1548.85 L2315.45 1542.97 Z" fill="#000000" fill-rule="evenodd" fill-opacity="1" /><path clip-path="url(#clip260)" d="M2340.52 1517.37 Q2336.91 1517.37 2335.08 1520.93 Q2333.27 1524.47 2333.27 1531.6 Q2333.27 1538.71 2335.08 1542.27 Q2336.91 1545.82 2340.52 1545.82 Q2344.15 1545.82 2345.96 1542.27 Q2347.79 1538.71 2347.79 1531.6 Q2347.79 1524.47 2345.96 1520.93 Q2344.15 1517.37 2340.52 1517.37 M2340.52 1513.66 Q2346.33 1513.66 2349.38 1518.27 Q2352.46 1522.85 2352.46 1531.6 Q2352.46 1540.33 2349.38 1544.94 Q2346.33 1549.52 2340.52 1549.52 Q2334.71 1549.52 2331.63 1544.94 Q2328.57 1540.33 2328.57 1531.6 Q2328.57 1522.85 2331.63 1518.27 Q2334.71 1513.66 2340.52 1513.66 Z" fill="#000000" fill-rule="evenodd" fill-opacity="1" /><polyline clip-path="url(#clip262)" style="stroke:#000000; stroke-linecap:butt; stroke-linejoin:round; stroke-width:2; stroke-opacity:0.1; fill:none" points="
  194.098,1259.32 2352.76,1259.32 
  "/>
<polyline clip-path="url(#clip262)" style="stroke:#000000; stroke-linecap:butt; stroke-linejoin:round; stroke-width:2; stroke-opacity:0.1; fill:none" points="
  194.098,1013.08 2352.76,1013.08 
  "/>
<polyline clip-path="url(#clip262)" style="stroke:#000000; stroke-linecap:butt; stroke-linejoin:round; stroke-width:2; stroke-opacity:0.1; fill:none" points="
  194.098,766.846 2352.76,766.846 
  "/>
<polyline clip-path="url(#clip262)" style="stroke:#000000; stroke-linecap:butt; stroke-linejoin:round; stroke-width:2; stroke-opacity:0.1; fill:none" points="
  194.098,520.607 2352.76,520.607 
  "/>
<polyline clip-path="url(#clip262)" style="stroke:#000000; stroke-linecap:butt; stroke-linejoin:round; stroke-width:2; stroke-opacity:0.1; fill:none" points="
  194.098,274.369 2352.76,274.369 
  "/>
<polyline clip-path="url(#clip260)" style="stroke:#000000; stroke-linecap:butt; stroke-linejoin:round; stroke-width:4; stroke-opacity:1; fill:none" points="
  194.098,1486.45 194.098,47.2441 
  "/>
<polyline clip-path="url(#clip260)" style="stroke:#000000; stroke-linecap:butt; stroke-linejoin:round; stroke-width:4; stroke-opacity:1; fill:none" points="
  194.098,1259.32 212.996,1259.32 
  "/>
<polyline clip-path="url(#clip260)" style="stroke:#000000; stroke-linecap:butt; stroke-linejoin:round; stroke-width:4; stroke-opacity:1; fill:none" points="
  194.098,1013.08 212.996,1013.08 
  "/>
<polyline clip-path="url(#clip260)" style="stroke:#000000; stroke-linecap:butt; stroke-linejoin:round; stroke-width:4; stroke-opacity:1; fill:none" points="
  194.098,766.846 212.996,766.846 
  "/>
<polyline clip-path="url(#clip260)" style="stroke:#000000; stroke-linecap:butt; stroke-linejoin:round; stroke-width:4; stroke-opacity:1; fill:none" points="
  194.098,520.607 212.996,520.607 
  "/>
<polyline clip-path="url(#clip260)" style="stroke:#000000; stroke-linecap:butt; stroke-linejoin:round; stroke-width:4; stroke-opacity:1; fill:none" points="
  194.098,274.369 212.996,274.369 
  "/>
<path clip-path="url(#clip260)" d="M50.9921 1259.77 L80.6679 1259.77 L80.6679 1263.71 L50.9921 1263.71 L50.9921 1259.77 Z" fill="#000000" fill-rule="evenodd" fill-opacity="1" /><path clip-path="url(#clip260)" d="M100.76 1245.12 Q97.1493 1245.12 95.3206 1248.69 Q93.515 1252.23 93.515 1259.36 Q93.515 1266.46 95.3206 1270.03 Q97.1493 1273.57 100.76 1273.57 Q104.395 1273.57 106.2 1270.03 Q108.029 1266.46 108.029 1259.36 Q108.029 1252.23 106.2 1248.69 Q104.395 1245.12 100.76 1245.12 M100.76 1241.42 Q106.571 1241.42 109.626 1246.02 Q112.705 1250.61 112.705 1259.36 Q112.705 1268.08 109.626 1272.69 Q106.571 1277.27 100.76 1277.27 Q94.9502 1277.27 91.8715 1272.69 Q88.816 1268.08 88.816 1259.36 Q88.816 1250.61 91.8715 1246.02 Q94.9502 1241.42 100.76 1241.42 Z" fill="#000000" fill-rule="evenodd" fill-opacity="1" /><path clip-path="url(#clip260)" d="M120.922 1270.72 L125.807 1270.72 L125.807 1276.6 L120.922 1276.6 L120.922 1270.72 Z" fill="#000000" fill-rule="evenodd" fill-opacity="1" /><path clip-path="url(#clip260)" d="M146.57 1257.46 Q143.422 1257.46 141.57 1259.61 Q139.742 1261.77 139.742 1265.52 Q139.742 1269.24 141.57 1271.42 Q143.422 1273.57 146.57 1273.57 Q149.718 1273.57 151.547 1271.42 Q153.399 1269.24 153.399 1265.52 Q153.399 1261.77 151.547 1259.61 Q149.718 1257.46 146.57 1257.46 M155.853 1242.81 L155.853 1247.07 Q154.093 1246.23 152.288 1245.79 Q150.505 1245.35 148.746 1245.35 Q144.117 1245.35 141.663 1248.48 Q139.232 1251.6 138.885 1257.92 Q140.251 1255.91 142.311 1254.84 Q144.371 1253.76 146.848 1253.76 Q152.056 1253.76 155.066 1256.93 Q158.098 1260.08 158.098 1265.52 Q158.098 1270.84 154.95 1274.06 Q151.802 1277.27 146.57 1277.27 Q140.575 1277.27 137.404 1272.69 Q134.232 1268.08 134.232 1259.36 Q134.232 1251.16 138.121 1246.3 Q142.01 1241.42 148.561 1241.42 Q150.32 1241.42 152.103 1241.77 Q153.908 1242.11 155.853 1242.81 Z" fill="#000000" fill-rule="evenodd" fill-opacity="1" /><path clip-path="url(#clip260)" d="M51.8023 1013.54 L81.4781 1013.54 L81.4781 1017.47 L51.8023 1017.47 L51.8023 1013.54 Z" fill="#000000" fill-rule="evenodd" fill-opacity="1" /><path clip-path="url(#clip260)" d="M101.571 998.883 Q97.9595 998.883 96.1308 1002.45 Q94.3252 1005.99 94.3252 1013.12 Q94.3252 1020.23 96.1308 1023.79 Q97.9595 1027.33 101.571 1027.33 Q105.205 1027.33 107.01 1023.79 Q108.839 1020.23 108.839 1013.12 Q108.839 1005.99 107.01 1002.45 Q105.205 998.883 101.571 998.883 M101.571 995.18 Q107.381 995.18 110.436 999.786 Q113.515 1004.37 113.515 1013.12 Q113.515 1021.85 110.436 1026.45 Q107.381 1031.04 101.571 1031.04 Q95.7604 1031.04 92.6817 1026.45 Q89.6262 1021.85 89.6262 1013.12 Q89.6262 1004.37 92.6817 999.786 Q95.7604 995.18 101.571 995.18 Z" fill="#000000" fill-rule="evenodd" fill-opacity="1" /><path clip-path="url(#clip260)" d="M121.732 1024.48 L126.617 1024.48 L126.617 1030.36 L121.732 1030.36 L121.732 1024.48 Z" fill="#000000" fill-rule="evenodd" fill-opacity="1" /><path clip-path="url(#clip260)" d="M150.968 1011.73 Q154.325 1012.45 156.2 1014.72 Q158.098 1016.98 158.098 1020.32 Q158.098 1025.43 154.58 1028.23 Q151.061 1031.04 144.58 1031.04 Q142.404 1031.04 140.089 1030.6 Q137.797 1030.18 135.344 1029.32 L135.344 1024.81 Q137.288 1025.94 139.603 1026.52 Q141.918 1027.1 144.441 1027.1 Q148.839 1027.1 151.13 1025.36 Q153.445 1023.63 153.445 1020.32 Q153.445 1017.26 151.293 1015.55 Q149.163 1013.81 145.343 1013.81 L141.316 1013.81 L141.316 1009.97 L145.529 1009.97 Q148.978 1009.97 150.806 1008.61 Q152.635 1007.22 152.635 1004.62 Q152.635 1001.96 150.737 1000.55 Q148.862 999.115 145.343 999.115 Q143.422 999.115 141.223 999.531 Q139.024 999.948 136.385 1000.83 L136.385 996.661 Q139.047 995.92 141.362 995.55 Q143.7 995.18 145.76 995.18 Q151.084 995.18 154.186 997.61 Q157.288 1000.02 157.288 1004.14 Q157.288 1007.01 155.644 1009 Q154.001 1010.97 150.968 1011.73 Z" fill="#000000" fill-rule="evenodd" fill-opacity="1" /><path clip-path="url(#clip260)" d="M100.922 752.645 Q97.3113 752.645 95.4826 756.209 Q93.6771 759.751 93.6771 766.881 Q93.6771 773.987 95.4826 777.552 Q97.3113 781.094 100.922 781.094 Q104.557 781.094 106.362 777.552 Q108.191 773.987 108.191 766.881 Q108.191 759.751 106.362 756.209 Q104.557 752.645 100.922 752.645 M100.922 748.941 Q106.733 748.941 109.788 753.547 Q112.867 758.131 112.867 766.881 Q112.867 775.608 109.788 780.214 Q106.733 784.797 100.922 784.797 Q95.1123 784.797 92.0336 780.214 Q88.978 775.608 88.978 766.881 Q88.978 758.131 92.0336 753.547 Q95.1123 748.941 100.922 748.941 Z" fill="#000000" fill-rule="evenodd" fill-opacity="1" /><path clip-path="url(#clip260)" d="M121.084 778.246 L125.969 778.246 L125.969 784.126 L121.084 784.126 L121.084 778.246 Z" fill="#000000" fill-rule="evenodd" fill-opacity="1" /><path clip-path="url(#clip260)" d="M146.154 752.645 Q142.543 752.645 140.714 756.209 Q138.908 759.751 138.908 766.881 Q138.908 773.987 140.714 777.552 Q142.543 781.094 146.154 781.094 Q149.788 781.094 151.593 777.552 Q153.422 773.987 153.422 766.881 Q153.422 759.751 151.593 756.209 Q149.788 752.645 146.154 752.645 M146.154 748.941 Q151.964 748.941 155.019 753.547 Q158.098 758.131 158.098 766.881 Q158.098 775.608 155.019 780.214 Q151.964 784.797 146.154 784.797 Q140.343 784.797 137.265 780.214 Q134.209 775.608 134.209 766.881 Q134.209 758.131 137.265 753.547 Q140.343 748.941 146.154 748.941 Z" fill="#000000" fill-rule="evenodd" fill-opacity="1" /><path clip-path="url(#clip260)" d="M101.571 506.406 Q97.9595 506.406 96.1308 509.971 Q94.3252 513.513 94.3252 520.642 Q94.3252 527.749 96.1308 531.313 Q97.9595 534.855 101.571 534.855 Q105.205 534.855 107.01 531.313 Q108.839 527.749 108.839 520.642 Q108.839 513.513 107.01 509.971 Q105.205 506.406 101.571 506.406 M101.571 502.702 Q107.381 502.702 110.436 507.309 Q113.515 511.892 113.515 520.642 Q113.515 529.369 110.436 533.975 Q107.381 538.559 101.571 538.559 Q95.7604 538.559 92.6817 533.975 Q89.6262 529.369 89.6262 520.642 Q89.6262 511.892 92.6817 507.309 Q95.7604 502.702 101.571 502.702 Z" fill="#000000" fill-rule="evenodd" fill-opacity="1" /><path clip-path="url(#clip260)" d="M121.732 532.008 L126.617 532.008 L126.617 537.887 L121.732 537.887 L121.732 532.008 Z" fill="#000000" fill-rule="evenodd" fill-opacity="1" /><path clip-path="url(#clip260)" d="M150.968 519.253 Q154.325 519.971 156.2 522.239 Q158.098 524.508 158.098 527.841 Q158.098 532.957 154.58 535.758 Q151.061 538.559 144.58 538.559 Q142.404 538.559 140.089 538.119 Q137.797 537.702 135.344 536.846 L135.344 532.332 Q137.288 533.466 139.603 534.045 Q141.918 534.624 144.441 534.624 Q148.839 534.624 151.13 532.887 Q153.445 531.151 153.445 527.841 Q153.445 524.786 151.293 523.073 Q149.163 521.337 145.343 521.337 L141.316 521.337 L141.316 517.494 L145.529 517.494 Q148.978 517.494 150.806 516.128 Q152.635 514.739 152.635 512.147 Q152.635 509.485 150.737 508.073 Q148.862 506.638 145.343 506.638 Q143.422 506.638 141.223 507.054 Q139.024 507.471 136.385 508.351 L136.385 504.184 Q139.047 503.443 141.362 503.073 Q143.7 502.702 145.76 502.702 Q151.084 502.702 154.186 505.133 Q157.288 507.54 157.288 511.661 Q157.288 514.531 155.644 516.522 Q154.001 518.489 150.968 519.253 Z" fill="#000000" fill-rule="evenodd" fill-opacity="1" /><path clip-path="url(#clip260)" d="M100.76 260.168 Q97.1493 260.168 95.3206 263.732 Q93.515 267.274 93.515 274.404 Q93.515 281.51 95.3206 285.075 Q97.1493 288.616 100.76 288.616 Q104.395 288.616 106.2 285.075 Q108.029 281.51 108.029 274.404 Q108.029 267.274 106.2 263.732 Q104.395 260.168 100.76 260.168 M100.76 256.464 Q106.571 256.464 109.626 261.07 Q112.705 265.654 112.705 274.404 Q112.705 283.13 109.626 287.737 Q106.571 292.32 100.76 292.32 Q94.9502 292.32 91.8715 287.737 Q88.816 283.13 88.816 274.404 Q88.816 265.654 91.8715 261.07 Q94.9502 256.464 100.76 256.464 Z" fill="#000000" fill-rule="evenodd" fill-opacity="1" /><path clip-path="url(#clip260)" d="M120.922 285.769 L125.807 285.769 L125.807 291.649 L120.922 291.649 L120.922 285.769 Z" fill="#000000" fill-rule="evenodd" fill-opacity="1" /><path clip-path="url(#clip260)" d="M146.57 272.505 Q143.422 272.505 141.57 274.658 Q139.742 276.811 139.742 280.561 Q139.742 284.288 141.57 286.464 Q143.422 288.616 146.57 288.616 Q149.718 288.616 151.547 286.464 Q153.399 284.288 153.399 280.561 Q153.399 276.811 151.547 274.658 Q149.718 272.505 146.57 272.505 M155.853 257.853 L155.853 262.112 Q154.093 261.279 152.288 260.839 Q150.505 260.399 148.746 260.399 Q144.117 260.399 141.663 263.524 Q139.232 266.649 138.885 272.968 Q140.251 270.955 142.311 269.89 Q144.371 268.802 146.848 268.802 Q152.056 268.802 155.066 271.973 Q158.098 275.121 158.098 280.561 Q158.098 285.885 154.95 289.103 Q151.802 292.32 146.57 292.32 Q140.575 292.32 137.404 287.737 Q134.232 283.13 134.232 274.404 Q134.232 266.209 138.121 261.348 Q142.01 256.464 148.561 256.464 Q150.32 256.464 152.103 256.811 Q153.908 257.158 155.853 257.853 Z" fill="#000000" fill-rule="evenodd" fill-opacity="1" /><polyline clip-path="url(#clip262)" style="stroke:#009af9; stroke-linecap:butt; stroke-linejoin:round; stroke-width:4; stroke-opacity:1; fill:none" points="
  255.192,1445.72 368.989,1391.58 563.093,1282.58 820.305,1111.54 1117.78,888.59 1429.08,645.102 1726.55,422.149 1983.76,251.113 2177.86,142.109 2291.66,87.9763 
  
  "/>
<path clip-path="url(#clip260)" d="
M1988.52 198.898 L2280.8 198.898 L2280.8 95.2176 L1988.52 95.2176  Z
  " fill="#ffffff" fill-rule="evenodd" fill-opacity="1"/>
<polyline clip-path="url(#clip260)" style="stroke:#000000; stroke-linecap:butt; stroke-linejoin:round; stroke-width:4; stroke-opacity:1; fill:none" points="
  1988.52,198.898 2280.8,198.898 2280.8,95.2176 1988.52,95.2176 1988.52,198.898 
  "/>
<polyline clip-path="url(#clip260)" style="stroke:#009af9; stroke-linecap:butt; stroke-linejoin:round; stroke-width:4; stroke-opacity:1; fill:none" points="
  2012.5,147.058 2156.42,147.058 
  "/>
<path clip-path="url(#clip260)" d="M2194.24 166.745 Q2192.44 171.375 2190.72 172.787 Q2189.01 174.199 2186.14 174.199 L2182.74 174.199 L2182.74 170.634 L2185.24 170.634 Q2187 170.634 2187.97 169.8 Q2188.94 168.967 2190.12 165.865 L2190.89 163.921 L2180.4 138.412 L2184.91 138.412 L2193.02 158.689 L2201.12 138.412 L2205.63 138.412 L2194.24 166.745 Z" fill="#000000" fill-rule="evenodd" fill-opacity="1" /><path clip-path="url(#clip260)" d="M2212.92 160.402 L2220.56 160.402 L2220.56 134.037 L2212.25 135.703 L2212.25 131.444 L2220.52 129.778 L2225.19 129.778 L2225.19 160.402 L2232.83 160.402 L2232.83 164.338 L2212.92 164.338 L2212.92 160.402 Z" fill="#000000" fill-rule="evenodd" fill-opacity="1" /></svg>
